<svg width="32" height="32" viewBox="0 0 32 32" fill="none" xmlns="http://www.w3.org/2000/svg">
<path fill-rule="evenodd" clip-rule="evenodd" d="M21.8906 17.8511C21.8906 21.0988 19.2484 23.7409 16.0007 23.7409C12.753 23.7409 10.1108 21.0988 10.1108 17.8511V5.88986C10.1108 2.64212 12.753 0 16.0007 0C19.2484 0 21.8906 2.64212 21.8906 5.88986V17.8511ZM16.0007 2.08117C13.9005 2.08117 12.192 3.78968 12.192 5.88986V17.8511C12.192 19.9512 13.9005 21.6598 16.0007 21.6598C18.1009 21.6598 19.8094 19.9512 19.8094 17.8511V5.88986C19.8094 3.78968 18.1009 2.08117 16.0007 2.08117ZM24.5966 16.3525C25.1713 16.3525 25.6372 16.8184 25.6372 17.3931C25.6372 22.3553 21.8669 26.4523 17.041 26.973V29.9189H19.6034C20.1781 29.9189 20.644 30.3848 20.644 30.9595C20.644 31.5342 20.1781 32.0001 19.6034 32.0001H12.3972C11.8225 32.0001 11.3566 31.5342 11.3566 30.9595C11.3566 30.3848 11.8225 29.9189 12.3972 29.9189H14.9596V26.973C10.1335 26.4523 6.36328 22.3553 6.36328 17.3931C6.36328 16.8184 6.82919 16.3525 7.40387 16.3525C7.97855 16.3525 8.44446 16.8184 8.44446 17.3931C8.44446 21.5594 11.834 24.9489 16.0002 24.9489C20.1665 24.9489 23.556 21.5594 23.556 17.3931C23.556 16.8184 24.0219 16.3525 24.5966 16.3525Z" fill="#1D1D1B"/>
</svg>
