<svg width="32" height="32" viewBox="0 0 32 32" fill="none" xmlns="http://www.w3.org/2000/svg">
<path d="M4.65783 30.0881H2.39041L3.99375 28.4847C4.85826 27.6202 5.39811 26.4958 5.54325 25.276C3.28735 23.7956 1.63773 21.8479 0.754695 19.6142C-0.127717 17.3822 -0.238605 14.9252 0.434051 12.5087C1.24114 9.60913 3.13413 6.96627 5.76421 5.06689C8.62227 3.00296 12.1802 1.91199 16.0535 1.91199C20.9328 1.91199 25.0455 3.31384 27.9468 5.9659C30.5605 8.35517 32 11.5779 32 15.0407C32 16.723 31.6575 18.3599 30.9819 19.9059C30.2828 21.5058 29.2592 22.9303 27.9393 24.1398C25.0341 26.8023 20.924 28.2097 16.0534 28.2097C14.2453 28.2097 12.3586 27.9683 10.6741 27.5253C9.07966 29.161 6.91906 30.0881 4.65783 30.0881ZM16.0535 3.79039C8.28697 3.79039 3.5214 8.4221 2.24364 13.0124C1.03621 17.3503 2.81612 21.4491 7.00496 23.977L7.473 24.2594L7.4586 24.8059C7.43004 25.8874 7.1722 26.9292 6.71068 27.8709C7.83453 27.4907 8.85431 26.8013 9.65289 25.8578L10.05 25.3887L10.6389 25.5648C12.2914 26.0591 14.2143 26.3312 16.0535 26.3312C25.7193 26.3312 30.1216 20.4786 30.1216 15.0407C30.1216 12.1118 28.8991 9.3814 26.6794 7.35235C24.1302 5.02212 20.4558 3.79039 16.0535 3.79039Z" fill="black"/>
</svg>
