<svg width="32" height="32" viewBox="0 0 32 32" fill="none" xmlns="http://www.w3.org/2000/svg">
<g clip-path="url(#clip0_43_18040)">
<path d="M24.9603 1.70312H15.1351C14.5133 1.70312 13.9161 1.95069 13.4761 2.39067L0.687254 15.1772C-0.229085 16.0935 -0.229085 17.5789 0.687254 18.4964L10.5124 28.3215C11.4287 29.2379 12.9141 29.2379 13.8304 28.3215L26.6193 15.535C27.0593 15.0939 27.3068 14.4967 27.3068 13.8737V4.0497C27.3068 2.75322 26.2567 1.70312 24.9603 1.70312ZM20.8538 9.91615C19.8823 9.91615 19.0938 9.1277 19.0938 8.15622C19.0938 7.18473 19.8823 6.39628 20.8538 6.39628C21.8252 6.39628 22.6137 7.18473 22.6137 8.15622C22.6137 9.1277 21.8252 9.91615 20.8538 9.91615Z" fill="black"/>
<path d="M29.6535 4.04956L29.6523 14.9717C29.6523 15.5126 29.4376 16.0324 29.0539 16.4149L16.0586 29.4102L16.2581 29.6097C17.1744 30.526 18.6598 30.526 19.5761 29.6097L31.3114 17.8768C31.7525 17.4368 32.0001 16.8396 32.0001 16.2177V6.39614C32.0001 5.09965 30.95 4.04956 29.6535 4.04956Z" fill="black"/>
</g>
<defs>
<clipPath id="clip0_43_18040">
<rect width="32" height="32" fill="white"/>
</clipPath>
</defs>
</svg>
