<svg width="32" height="32" viewBox="0 0 32 32" fill="none" xmlns="http://www.w3.org/2000/svg">
<path fill-rule="evenodd" clip-rule="evenodd" d="M27.6218 15.0529H31.0627C31.5803 15.0529 31.9999 15.4724 31.9999 15.9902C31.9999 16.5078 31.5803 16.9275 31.0627 16.9275H27.6218C27.1677 22.6154 22.6167 27.1662 16.9289 27.6206V31.0429C16.9289 31.5605 16.5092 31.9802 15.9914 31.9802C15.4738 31.9802 15.0542 31.5605 15.0542 31.0429V27.6206C9.36644 27.1662 4.81542 22.6152 4.36108 16.9275H0.937254C0.419677 16.9275 0 16.5078 0 15.9902C0 15.4724 0.419677 15.0529 0.937254 15.0529H4.36108C4.81542 9.36497 9.36619 4.81396 15.0542 4.35985V0.937254C15.0542 0.419677 15.4738 0 15.9914 0C16.509 0 16.9287 0.419677 16.9287 0.937254V4.35985C22.6167 4.81396 27.1677 9.36497 27.6218 15.0529ZM6.19799 15.9902C6.19799 21.3903 10.5913 25.7836 15.9914 25.7836C21.3918 25.7836 25.7851 21.3903 25.7851 15.9902C25.7851 10.5901 21.3916 6.19676 15.9914 6.19676C10.5915 6.19676 6.19799 10.5901 6.19799 15.9902ZM10.5449 15.9902C10.5449 12.987 12.988 10.5437 15.9912 10.5437C18.9944 10.5437 21.4377 12.987 21.4377 15.9902C21.4377 18.9931 18.9944 21.4365 15.9912 21.4365C12.9883 21.4365 10.5449 18.9931 10.5449 15.9902ZM12.4194 15.9902C12.4194 17.9597 14.0217 19.562 15.9912 19.562C17.9607 19.562 19.5632 17.9597 19.5632 15.9902C19.5632 14.0207 17.9607 12.4184 15.9912 12.4184C14.0217 12.4184 12.4194 14.0207 12.4194 15.9902Z" fill="black"/>
</svg>
