<svg width="32" height="32" viewBox="0 0 32 32" fill="none" xmlns="http://www.w3.org/2000/svg">
<path fill-rule="evenodd" clip-rule="evenodd" d="M23.4642 14.2243H8.53456C7.9287 14.2243 7.37298 13.8876 7.09201 13.3515C6.81104 12.8145 6.85119 12.166 7.19626 11.6686L14.8527 0.626565C15.1255 0.232516 15.5748 -0.00116339 16.0534 4.356e-06C16.5325 0.00214522 16.9804 0.238744 17.2509 0.633961L24.8077 11.6758C25.1491 12.1754 25.1862 12.8208 24.9046 13.3557C24.6227 13.8896 24.0684 14.2243 23.4642 14.2243ZM8.53454 17.7756H23.4642C24.0684 17.7756 24.6226 18.1103 24.9046 18.644C25.1861 19.1791 25.1491 19.8245 24.8077 20.324L17.2509 31.366C16.9803 31.7611 16.5324 31.9979 16.0533 31.9999C15.5748 32.001 15.1254 31.7673 14.8527 31.3732L7.19624 20.3312C6.85124 19.8339 6.81101 19.1854 7.09199 18.6484C7.37296 18.1125 7.92868 17.7756 8.53454 17.7756Z" fill="black"/>
</svg>
