<svg width="32" height="32" viewBox="0 0 32 32" fill="none" xmlns="http://www.w3.org/2000/svg">
<g clip-path="url(#clip0_14_1960)">
<path d="M31.4626 14.3053L17.1052 1.22292C16.475 0.648612 15.5247 0.648675 14.8948 1.22286L0.537377 14.3053C0.0325652 14.7653 -0.134185 15.4741 0.11244 16.1109C0.359127 16.7477 0.959751 17.1591 1.64269 17.1591H3.93581V30.2667C3.93581 30.7864 4.35718 31.2077 4.87687 31.2077H12.7465C13.2662 31.2077 13.6875 30.7864 13.6875 30.2667V22.3082H18.3127V30.2667C18.3127 30.7864 18.734 31.2078 19.2537 31.2078H27.1229C27.6426 31.2078 28.064 30.7865 28.064 30.2667V17.1591H30.3576C31.0404 17.1591 31.6411 16.7476 31.8878 16.1109C32.1341 15.474 31.9674 14.7653 31.4626 14.3053Z" fill="black"/>
</g>
<defs>
<clipPath id="clip0_14_1960">
<rect width="32" height="32" fill="white"/>
</clipPath>
</defs>
</svg>
