<svg width="32" height="32" viewBox="0 0 32 32" fill="none" xmlns="http://www.w3.org/2000/svg">
<path fill-rule="evenodd" clip-rule="evenodd" d="M10.75 12.6C13.9256 12.6 16.5 10.0033 16.5 6.8C16.5 3.59675 13.9256 1 10.75 1C7.57436 1 5 3.59675 5 6.8C5 8.97821 6.19039 10.876 7.95076 11.8675C7.50539 12.9037 7.30248 14.0895 7.30008 15.2905C7.29677 16.9546 7.6764 18.7369 8.42859 20.3782C9.86307 23.5081 12.7221 26.2348 16.9694 26.499C17.8519 28.5587 19.8841 30 22.25 30C25.4256 30 28 27.4032 28 24.2C28 20.9967 25.4256 18.4 22.25 18.4C19.1004 18.4 16.5423 20.9543 16.5005 24.1213C13.5989 23.7143 11.6026 21.775 10.5163 19.4047C9.90143 18.0631 9.59745 16.6139 9.60008 15.2952C9.60223 14.2163 9.80824 13.2816 10.1633 12.5702C10.3562 12.5899 10.5519 12.6 10.75 12.6ZM10.75 10.28C12.6554 10.28 14.2 8.72195 14.2 6.8C14.2 4.87805 12.6554 3.32 10.75 3.32C8.84462 3.32 7.3 4.87805 7.3 6.8C7.3 8.72195 8.84462 10.28 10.75 10.28ZM22.25 27.68C24.1554 27.68 25.7 26.122 25.7 24.2C25.7 22.278 24.1554 20.72 22.25 20.72C20.3446 20.72 18.8 22.278 18.8 24.2C18.8 26.122 20.3446 27.68 22.25 27.68Z" fill="black"/>
</svg>
