<svg width="32" height="32" viewBox="0 0 32 32" fill="none" xmlns="http://www.w3.org/2000/svg">
<g clip-path="url(#clip0_587_10836)">
<path fill-rule="evenodd" clip-rule="evenodd" d="M16 0C20.2571 0 24.2705 1.66895 27.3008 4.69922C30.3311 7.72949 32 11.7429 32 16C32 20.2571 30.3311 24.2703 27.3008 27.3008C24.2705 30.3311 20.2571 32 16 32C13.3931 32 10.8196 31.3596 8.53174 30.145L1.16309 31.9724C0.842285 32.052 0.505615 31.9565 0.274658 31.7253C0.0422363 31.4929 -0.0515137 31.1558 0.0275879 30.8369L1.85474 23.4683C0.640137 21.1804 0 18.6069 0 16C0 7.19043 7.18945 0 16 0ZM9.11987 28.3301C11.209 29.5041 13.5879 30.125 16 30.125C23.7886 30.125 30.125 23.7886 30.125 16C30.125 8.21142 23.7886 1.875 16 1.875C8.21142 1.875 1.875 8.21142 1.875 16C1.875 18.4121 2.49561 20.791 3.66992 22.8799C3.78686 23.0881 3.82007 23.3333 3.76245 23.5649L2.22192 29.7781L8.43481 28.2373C8.66699 28.1799 8.91186 28.2131 9.11987 28.3301ZM18.3205 17.6403C19.0888 16.9696 19.8782 17.3765 20.656 18.0482L21.1238 18.4546C21.9021 19.1278 22.3769 19.8106 21.6127 20.4813L21.1971 20.8471C20.9067 21.15 19.9782 21.983 18.4406 21.9997C16.5905 22.02 14.6374 20.8547 12.6427 18.5347C10.6454 16.2157 9.77357 14.1022 10.0499 12.2566C10.2796 10.7184 11.2262 9.90869 11.5649 9.65959L11.9789 9.29432C12.7452 8.62313 13.3481 9.19387 13.9018 10.0629L14.2345 10.5905C14.7857 11.4616 15.0741 12.3078 14.3098 12.98L13.8486 13.3859C13.8124 13.4173 13.7634 13.4504 13.7079 13.4879C13.2479 13.7989 12.3366 14.4148 14.4892 16.9123C16.639 19.4092 17.3688 18.59 17.7398 18.1736C17.7852 18.1227 17.8252 18.0777 17.8618 18.0457L18.3205 17.6403Z" fill="#030104"/>
</g>
<defs>
<clipPath id="clip0_587_10836">
<rect width="32" height="32" fill="white"/>
</clipPath>
</defs>
</svg>
