<svg width="32" height="32" viewBox="0 0 32 32" fill="none" xmlns="http://www.w3.org/2000/svg">
<path d="M29.75 2.49438H16.6245C16.2793 2.49438 15.9995 2.77417 15.9995 3.11938C15.9995 3.4646 16.2793 3.74438 16.6245 3.74438H29.125V28.25H9.01758C9.08692 28.0544 9.125 27.8442 9.125 27.625V24.1223C9.46997 24.1221 9.74976 23.842 9.74976 23.4971C9.74976 23.1519 9.46997 22.8721 9.125 22.8721V19.1221C9.46997 19.1221 9.74976 18.842 9.74976 18.4968C9.74976 18.1519 9.46997 17.8721 9.125 17.8718V14.1221C9.46997 14.1221 9.74976 13.842 9.74976 13.4968C9.74976 13.1519 9.46997 12.8721 9.125 12.8718V9.12207C9.46997 9.12207 9.74976 8.84204 9.74976 8.49683C9.74976 8.15186 9.46997 7.87207 9.125 7.87183V4.375C9.125 4.15381 9.08618 3.94165 9.01563 3.74438H11.6245C11.9697 3.74438 12.2495 3.4646 12.2495 3.11938C12.2495 2.77417 11.9697 2.49438 11.6245 2.49438H7.8457L7.875 0.634766C7.87744 0.467285 7.81275 0.305908 7.69531 0.186523C7.57788 0.0671387 7.41748 0 7.25 0H3.5C3.15869 0 2.88037 0.273926 2.875 0.615234L2.84351 2.6189C2.13257 2.8855 1.625 3.57202 1.625 4.375V27.625C1.625 28.4399 2.14746 29.1345 2.875 29.3926V31.375C2.875 31.7202 3.15479 32 3.5 32H7.25C7.59522 32 7.875 31.7202 7.875 31.375V29.5H29.75C30.095 29.5 30.375 29.2202 30.375 28.875V3.11938C30.375 2.77417 30.095 2.49438 29.75 2.49438ZM3.5 28.25C3.15527 28.25 2.875 27.9697 2.875 27.625V4.375C2.875 4.03027 3.15527 3.75 3.5 3.75H7.25C7.59473 3.75 7.875 4.03027 7.875 4.375V27.625C7.875 27.9697 7.59473 28.25 7.25 28.25H3.5ZM6.61523 1.25L6.59546 2.5H4.0957L4.11523 1.25H6.61523ZM4.125 30.75V29.5H6.625V30.75H4.125Z" fill="black"/>
<path d="M26.6248 6.62231C26.97 6.62231 27.2498 6.34229 27.2498 5.99707C27.2498 5.65186 26.97 5.37207 26.6248 5.37207C26.2798 5.37207 25.9998 5.65186 25.9998 5.99707C25.9998 6.34229 26.2795 6.62231 26.6248 6.62231Z" fill="black"/>
<path d="M25.9998 10.9976C25.9998 11.3428 26.2798 11.6223 26.6248 11.6223C26.97 11.6223 27.2498 11.3423 27.2498 10.9971C27.2498 10.6519 26.97 10.3721 26.6248 10.3721C26.2798 10.3721 25.9998 10.6523 25.9998 10.9976Z" fill="black"/>
<path d="M25.9998 15.9976C25.9998 16.3428 26.2798 16.6223 26.6248 16.6223C26.97 16.6223 27.2498 16.3423 27.2498 15.9971C27.2498 15.6519 26.97 15.3721 26.6248 15.3721C26.2798 15.3721 25.9998 15.6523 25.9998 15.9976Z" fill="black"/>
<path d="M25.9998 20.9976C25.9998 21.3425 26.2798 21.6223 26.6248 21.6223C26.97 21.6223 27.2498 21.342 27.2498 20.9971C27.2498 20.6519 26.97 20.3721 26.6248 20.3721C26.2798 20.3721 25.9998 20.6523 25.9998 20.9976Z" fill="black"/>
<path d="M25.9998 25.9973C25.9998 26.3425 26.2798 26.6223 26.6248 26.6223C26.97 26.6223 27.2498 26.342 27.2498 25.9971C27.2498 25.6519 26.97 25.3721 26.6248 25.3721C26.2798 25.3721 25.9998 25.6521 25.9998 25.9973Z" fill="black"/>
<path d="M24.1248 9.12231C24.4697 9.12231 24.7498 8.84229 24.7498 8.49707C24.7498 8.15186 24.4697 7.87207 24.1248 7.87207C23.7795 7.87207 23.4998 8.15186 23.4998 8.49707C23.4998 8.84229 23.7795 9.12231 24.1248 9.12231Z" fill="black"/>
<path d="M23.4998 13.4976C23.4998 13.8428 23.7795 14.1223 24.1248 14.1223C24.4697 14.1223 24.7498 13.8423 24.7498 13.4971C24.7498 13.1519 24.4697 12.8721 24.1248 12.8721C23.7795 12.8721 23.4998 13.1523 23.4998 13.4976Z" fill="black"/>
<path d="M23.4998 18.4976C23.4998 18.8425 23.7795 19.1223 24.1248 19.1223C24.4697 19.1223 24.7498 18.842 24.7498 18.4971C24.7498 18.1519 24.4697 17.8721 24.1248 17.8721C23.7795 17.8721 23.4998 18.1523 23.4998 18.4976Z" fill="black"/>
<path d="M23.4998 23.4973C23.4998 23.8425 23.7795 24.1223 24.1248 24.1223C24.4697 24.1223 24.7498 23.842 24.7498 23.4971C24.7498 23.1519 24.4697 22.8721 24.1248 22.8721C23.7795 22.8721 23.4998 23.1521 23.4998 23.4973Z" fill="black"/>
<path d="M21.6248 6.62231C21.97 6.62231 22.2498 6.34229 22.2498 5.99707C22.2498 5.65186 21.97 5.37207 21.6248 5.37207C21.2798 5.37207 20.9998 5.65186 20.9998 5.99707C20.9998 6.34229 21.2795 6.62231 21.6248 6.62231Z" fill="black"/>
<path d="M20.9998 10.9976C20.9998 11.3428 21.2798 11.6223 21.6248 11.6223C21.97 11.6223 22.2498 11.3423 22.2498 10.9971C22.2498 10.6519 21.97 10.3721 21.6248 10.3721C21.2798 10.3721 20.9998 10.6523 20.9998 10.9976Z" fill="black"/>
<path d="M20.9998 15.9976C20.9998 16.3428 21.2798 16.6223 21.6248 16.6223C21.97 16.6223 22.2498 16.3423 22.2498 15.9971C22.2498 15.6519 21.97 15.3721 21.6248 15.3721C21.2798 15.3721 20.9998 15.6523 20.9998 15.9976Z" fill="black"/>
<path d="M20.9998 20.9976C20.9998 21.3425 21.2798 21.6223 21.6248 21.6223C21.97 21.6223 22.2498 21.342 22.2498 20.9971C22.2498 20.6519 21.97 20.3721 21.6248 20.3721C21.2798 20.3721 20.9998 20.6523 20.9998 20.9976Z" fill="black"/>
<path d="M20.9998 25.9973C20.9998 26.3425 21.2798 26.6223 21.6248 26.6223C21.97 26.6223 22.2498 26.342 22.2498 25.9971C22.2498 25.6519 21.97 25.3721 21.6248 25.3721C21.2798 25.3721 20.9998 25.6521 20.9998 25.9973Z" fill="black"/>
<path d="M19.1248 9.12231C19.4697 9.12231 19.7498 8.84229 19.7498 8.49707C19.7498 8.15186 19.4697 7.87207 19.1248 7.87207C18.7795 7.87207 18.4998 8.15186 18.4998 8.49707C18.4998 8.84229 18.7795 9.12231 19.1248 9.12231Z" fill="black"/>
<path d="M18.4998 13.4976C18.4998 13.8428 18.7795 14.1223 19.1248 14.1223C19.4697 14.1223 19.7498 13.8423 19.7498 13.4971C19.7498 13.1519 19.4697 12.8721 19.1248 12.8721C18.7795 12.8721 18.4998 13.1523 18.4998 13.4976Z" fill="black"/>
<path d="M18.4998 18.4976C18.4998 18.8425 18.7795 19.1223 19.1248 19.1223C19.4697 19.1223 19.7498 18.842 19.7498 18.4971C19.7498 18.1519 19.4697 17.8721 19.1248 17.8721C18.7795 17.8721 18.4998 18.1523 18.4998 18.4976Z" fill="black"/>
<path d="M18.4998 23.4973C18.4998 23.8425 18.7795 24.1223 19.1248 24.1223C19.4697 24.1223 19.7498 23.842 19.7498 23.4971C19.7498 23.1519 19.4697 22.8721 19.1248 22.8721C18.7795 22.8721 18.4998 23.1521 18.4998 23.4973Z" fill="black"/>
<path d="M16.6248 6.62231C16.97 6.62231 17.2498 6.34229 17.2498 5.99707C17.2498 5.65186 16.97 5.37207 16.6248 5.37207C16.2798 5.37207 15.9998 5.65186 15.9998 5.99707C15.9998 6.34229 16.2795 6.62231 16.6248 6.62231Z" fill="black"/>
<path d="M15.9998 10.9976C15.9998 11.3428 16.2798 11.6223 16.6248 11.6223C16.97 11.6223 17.2498 11.3423 17.2498 10.9971C17.2498 10.6519 16.97 10.3721 16.6248 10.3721C16.2798 10.3721 15.9998 10.6523 15.9998 10.9976Z" fill="black"/>
<path d="M15.9998 15.9976C15.9998 16.3428 16.2798 16.6223 16.6248 16.6223C16.97 16.6223 17.2498 16.3423 17.2498 15.9971C17.2498 15.6519 16.97 15.3721 16.6248 15.3721C16.2798 15.3721 15.9998 15.6523 15.9998 15.9976Z" fill="black"/>
<path d="M15.9998 20.9976C15.9998 21.3425 16.2798 21.6223 16.6248 21.6223C16.97 21.6223 17.2498 21.342 17.2498 20.9971C17.2498 20.6519 16.97 20.3721 16.6248 20.3721C16.2798 20.3721 15.9998 20.6523 15.9998 20.9976Z" fill="black"/>
<path d="M15.9998 25.9973C15.9998 26.3425 16.2798 26.6223 16.6248 26.6223C16.97 26.6223 17.2498 26.342 17.2498 25.9971C17.2498 25.6519 16.97 25.3721 16.6248 25.3721C16.2798 25.3721 15.9998 25.6521 15.9998 25.9973Z" fill="black"/>
<path d="M14.1248 7.87207C13.7795 7.87207 13.4998 8.15186 13.4998 8.49707C13.4998 8.84229 13.7795 9.12231 14.1248 9.12231C14.47 9.12231 14.7498 8.84229 14.7498 8.49707C14.7498 8.15186 14.47 7.87207 14.1248 7.87207Z" fill="black"/>
<path d="M14.1248 12.8721C13.7795 12.8721 13.4998 13.1519 13.4998 13.4971C13.4998 13.8423 13.7795 14.1223 14.1248 14.1223C14.47 14.1223 14.7498 13.8423 14.7498 13.4971C14.7498 13.1519 14.47 12.8721 14.1248 12.8721Z" fill="black"/>
<path d="M14.1248 17.8721C13.7795 17.8721 13.4998 18.1519 13.4998 18.4971C13.4998 18.842 13.7795 19.1223 14.1248 19.1223C14.47 19.1223 14.7498 18.842 14.7498 18.4971C14.7498 18.1519 14.47 17.8721 14.1248 17.8721Z" fill="black"/>
<path d="M14.1248 22.8721C13.7795 22.8721 13.4998 23.1519 13.4998 23.4971C13.4998 23.8423 13.7795 24.1223 14.1248 24.1223C14.47 24.1223 14.7498 23.842 14.7498 23.4971C14.7498 23.1519 14.47 22.8721 14.1248 22.8721Z" fill="black"/>
<path d="M11.6248 5.37207C11.2798 5.37207 10.9998 5.65186 10.9998 5.99707C10.9998 6.34229 11.2798 6.62231 11.6248 6.62231C11.97 6.62231 12.2498 6.34229 12.2498 5.99707C12.2498 5.65186 11.97 5.37207 11.6248 5.37207Z" fill="black"/>
<path d="M11.6248 10.3721C11.2798 10.3721 10.9998 10.6519 10.9998 10.9971C10.9998 11.3423 11.2798 11.6223 11.6248 11.6223C11.97 11.6223 12.2498 11.3423 12.2498 10.9971C12.2498 10.6519 11.97 10.3721 11.6248 10.3721Z" fill="black"/>
<path d="M11.6248 15.3721C11.2798 15.3721 10.9998 15.6519 10.9998 15.9971C10.9998 16.3423 11.2798 16.6223 11.6248 16.6223C11.97 16.6223 12.2498 16.3423 12.2498 15.9971C12.2498 15.6519 11.97 15.3721 11.6248 15.3721Z" fill="black"/>
<path d="M11.6248 20.3721C11.2798 20.3721 10.9998 20.6519 10.9998 20.9971C10.9998 21.342 11.2798 21.6223 11.6248 21.6223C11.97 21.6223 12.2498 21.342 12.2498 20.9971C12.2498 20.6519 11.97 20.3721 11.6248 20.3721Z" fill="black"/>
<path d="M11.6248 25.3721C11.2798 25.3721 10.9998 25.6519 10.9998 25.9971C10.9998 26.3423 11.2798 26.6223 11.6248 26.6223C11.97 26.6223 12.2498 26.342 12.2498 25.9971C12.2498 25.6519 11.97 25.3721 11.6248 25.3721Z" fill="black"/>
<path d="M6.62476 5.37207C6.27979 5.37207 5.99976 5.65186 5.99976 5.99707C5.99976 6.34229 6.27979 6.62231 6.62476 6.62231C6.96997 6.62231 7.24976 6.34229 7.24976 5.99707C7.24976 5.65186 6.96997 5.37207 6.62476 5.37207Z" fill="black"/>
<path d="M6.62476 10.3721C6.27979 10.3721 5.99976 10.6519 5.99976 10.9971C5.99976 11.3423 6.27979 11.6223 6.62476 11.6223C6.96997 11.6223 7.24976 11.3423 7.24976 10.9971C7.24976 10.6519 6.96997 10.3721 6.62476 10.3721Z" fill="black"/>
<path d="M6.62476 15.3721C6.27979 15.3721 5.99976 15.6519 5.99976 15.9971C5.99976 16.3423 6.27979 16.6223 6.62476 16.6223C6.96997 16.6223 7.24976 16.3423 7.24976 15.9971C7.24976 15.6519 6.96997 15.3721 6.62476 15.3721Z" fill="black"/>
<path d="M6.62476 20.3721C6.27979 20.3721 5.99976 20.6519 5.99976 20.9971C5.99976 21.342 6.27979 21.6223 6.62476 21.6223C6.96997 21.6223 7.24976 21.342 7.24976 20.9971C7.24976 20.6519 6.96997 20.3721 6.62476 20.3721Z" fill="black"/>
<path d="M6.62476 25.3721C6.27979 25.3721 5.99976 25.6519 5.99976 25.9971C5.99976 26.3423 6.27979 26.6223 6.62476 26.6223C6.96997 26.6223 7.24976 26.342 7.24976 25.9971C7.24976 25.6519 6.96997 25.3721 6.62476 25.3721Z" fill="black"/>
<path d="M4.12476 7.87207C3.77954 7.87207 3.49976 8.15186 3.49976 8.49707C3.49976 8.84229 3.77954 9.12231 4.12476 9.12231C4.46997 9.12231 4.74976 8.84229 4.74976 8.49707C4.74976 8.15186 4.46997 7.87207 4.12476 7.87207Z" fill="black"/>
<path d="M4.12476 12.8721C3.77954 12.8721 3.49976 13.1519 3.49976 13.4971C3.49976 13.8423 3.77954 14.1223 4.12476 14.1223C4.46997 14.1223 4.74976 13.8423 4.74976 13.4971C4.74976 13.1519 4.46997 12.8721 4.12476 12.8721Z" fill="black"/>
<path d="M4.12476 17.8721C3.77954 17.8721 3.49976 18.1519 3.49976 18.4971C3.49976 18.842 3.77954 19.1223 4.12476 19.1223C4.46997 19.1223 4.74976 18.842 4.74976 18.4971C4.74976 18.1519 4.46997 17.8721 4.12476 17.8721Z" fill="black"/>
<path d="M4.12476 22.8721C3.77954 22.8721 3.49976 23.1519 3.49976 23.4971C3.49976 23.8423 3.77954 24.1223 4.12476 24.1223C4.46997 24.1223 4.74976 23.842 4.74976 23.4971C4.74976 23.1519 4.46997 22.8721 4.12476 22.8721Z" fill="black"/>
<path d="M14.1248 3.74438C14.47 3.74438 14.7498 3.4646 14.7498 3.11938C14.7498 2.77417 14.47 2.49438 14.1248 2.49438C13.7795 2.49438 13.4995 2.77417 13.4995 3.11938C13.4995 3.4646 13.7795 3.74438 14.1248 3.74438Z" fill="black"/>
</svg>
