<svg width="32" height="32" viewBox="0 0 32 32" fill="none" xmlns="http://www.w3.org/2000/svg">
<path d="M23.4644 3.07919C23.4644 3.59694 23.0446 4.01669 22.5269 4.01669C22.0091 4.01669 21.5894 3.59694 21.5894 3.07919V0.9375C21.5894 0.41975 22.0091 0 22.5269 0C23.0446 0 23.4644 0.41975 23.4644 0.9375V3.07919Z" fill="black"/>
<path d="M0.9375 10.4104H3.07919C3.59694 10.4104 4.01669 9.99065 4.01669 9.4729C4.01669 8.95515 3.59694 8.5354 3.07919 8.5354H0.9375C0.41975 8.5354 0 8.95515 0 9.4729C0 9.99065 0.41975 10.4104 0.9375 10.4104Z" fill="black"/>
<path d="M0.9375 16.9375H3.07919C3.59694 16.9375 4.01669 16.5177 4.01669 16C4.01669 15.4823 3.59694 15.0625 3.07919 15.0625H0.9375C0.41975 15.0625 0 15.4823 0 16C0 16.5177 0.41975 16.9375 0.9375 16.9375Z" fill="black"/>
<path d="M3.07919 21.5896C3.59694 21.5896 4.01669 22.0093 4.01669 22.5271C4.01669 23.0449 3.59694 23.4646 3.07919 23.4646H0.9375C0.41975 23.4646 0 23.0448 0 22.5271C0 22.0093 0.41975 21.5896 0.9375 21.5896H3.07919Z" fill="black"/>
<path d="M27.9834 9.4729C27.9834 9.99065 28.4031 10.4104 28.9209 10.4104H31.0626C31.5803 10.4104 32.0001 9.99065 32.0001 9.4729C32.0001 8.95515 31.5803 8.5354 31.0626 8.5354H28.9209C28.4031 8.5354 27.9834 8.95509 27.9834 9.4729Z" fill="black"/>
<path d="M28.9209 15.0625H31.0626C31.5803 15.0625 32.0001 15.4823 32.0001 16C32.0001 16.5177 31.5803 16.9375 31.0626 16.9375H28.9209C28.4031 16.9375 27.9834 16.5177 27.9834 16C27.9834 15.4823 28.4031 15.0625 28.9209 15.0625Z" fill="black"/>
<path d="M31.0626 21.5896H28.9209C28.4031 21.5896 27.9834 22.0093 27.9834 22.5271C27.9834 23.0448 28.4031 23.4646 28.9209 23.4646H31.0626C31.5803 23.4646 32.0001 23.0448 32.0001 22.5271C32.0001 22.0093 31.5803 21.5896 31.0626 21.5896Z" fill="black"/>
<path d="M16 4.01669C16.5177 4.01669 16.9375 3.59694 16.9375 3.07919V0.9375C16.9375 0.41975 16.5177 0 16 0C15.4823 0 15.0625 0.41975 15.0625 0.9375V3.07919C15.0625 3.59694 15.4823 4.01669 16 4.01669Z" fill="black"/>
<path d="M10.4106 3.07919C10.4106 3.59694 9.99089 4.01669 9.47314 4.01669C8.95533 4.01669 8.53564 3.59694 8.53564 3.07919V0.9375C8.53564 0.41975 8.95539 0 9.47314 0C9.99089 0 10.4106 0.41975 10.4106 0.9375V3.07919Z" fill="black"/>
<path d="M22.5269 27.9833C22.0091 27.9833 21.5894 28.403 21.5894 28.9208V31.0625C21.5894 31.5802 22.0091 32 22.5269 32C23.0446 32 23.4644 31.5802 23.4644 31.0625V28.9208C23.4644 28.403 23.0447 27.9833 22.5269 27.9833Z" fill="black"/>
<path d="M15.0625 28.9208C15.0625 28.403 15.4823 27.9833 16 27.9833C16.5177 27.9833 16.9375 28.403 16.9375 28.9208V31.0625C16.9375 31.5802 16.5177 32 16 32C15.4823 32 15.0625 31.5802 15.0625 31.0625V28.9208Z" fill="black"/>
<path d="M26.1083 22.5271C26.1083 20.9763 27.37 19.7146 28.9208 19.7146H29.9916V18.8125H28.9208C27.37 18.8125 26.1083 17.5508 26.1083 16C26.1083 14.4492 27.37 13.1875 28.9208 13.1875H29.9916V12.2854H28.9208C27.37 12.2854 26.1083 11.0237 26.1083 9.47286C26.1083 7.92205 27.37 6.66036 28.9208 6.66036H29.9916V3.94999C29.9916 2.87605 29.1232 2.0083 28.05 2.0083H25.3396V3.07911C25.3396 4.62993 24.0779 5.89161 22.5271 5.89161C20.9763 5.89161 19.7146 4.62993 19.7146 3.07911V2.0083H18.8125V3.07911C18.8125 4.62993 17.5508 5.89161 16 5.89161C14.4492 5.89161 13.1875 4.62993 13.1875 3.07911V2.0083H12.2854V3.07911C12.2854 4.62993 11.0237 5.89161 9.47286 5.89161C7.92205 5.89161 6.66036 4.62993 6.66036 3.07911V2.0083H3.94999C2.87961 2.0083 2.0083 2.87961 2.0083 3.94999V6.66036H3.07911C4.62993 6.66036 5.89161 7.92205 5.89161 9.47286C5.89161 11.0237 4.62993 12.2854 3.07911 12.2854H2.00836V13.1875H3.07918C4.62999 13.1875 5.89168 14.4492 5.89168 16C5.89168 17.5508 4.62999 18.8125 3.07918 18.8125H2.00836V19.7146H3.07918C4.62999 19.7146 5.89168 20.9763 5.89168 22.5271C5.89168 24.0779 4.62999 25.3396 3.07918 25.3396H2.00836V28.05C2.00836 29.124 2.8768 29.9917 3.95005 29.9917H6.66043V28.9209C6.66043 27.3701 7.92211 26.1084 9.47293 26.1084C11.0237 26.1084 12.2854 27.3701 12.2854 28.9209V29.9917H13.1875V28.9209C13.1875 27.3701 14.4492 26.1084 16 26.1084C17.5508 26.1084 18.8125 27.3701 18.8125 28.9209V29.9917H19.7146V28.9209C19.7146 27.3701 20.9763 26.1084 22.5271 26.1084C24.0779 26.1084 25.3396 27.3701 25.3396 28.9209V29.9917H28.05C29.1242 29.9917 29.9916 29.1242 29.9916 28.05V25.3396H28.9208C27.37 25.3396 26.1083 24.0779 26.1083 22.5271Z" fill="black"/>
<path d="M8.53564 28.9208C8.53564 28.403 8.95539 27.9833 9.47314 27.9833C9.99089 27.9833 10.4106 28.403 10.4106 28.9208V31.0625C10.4106 31.5802 9.99089 32 9.47314 32C8.95539 32 8.53564 31.5802 8.53564 31.0625V28.9208Z" fill="black"/>
</svg>
