<svg width="32" height="32" viewBox="0 0 32 32" fill="none" xmlns="http://www.w3.org/2000/svg">
<path fill-rule="evenodd" clip-rule="evenodd" d="M11.1407 3C9.28514 3 8.28418 6.24407 8.28418 7.57045C8.28418 9.14558 9.56565 10.427 11.1407 10.427C12.7158 10.427 13.9973 9.14552 13.9973 7.57045C13.9973 6.24407 12.9963 3 11.1407 3ZM11.1407 8.71308C10.5107 8.71308 9.99809 8.20051 9.99809 7.57045C9.99809 7.21603 10.1483 6.49989 10.4354 5.81717C10.7219 5.13589 11.0111 4.80949 11.1407 4.72716C11.2703 4.80944 11.5596 5.13584 11.8461 5.81717C12.1332 6.49989 12.2833 7.21603 12.2833 7.57045C12.2833 8.20051 11.7708 8.71308 11.1407 8.71308ZM21.0113 17.6584C20.3946 17.4033 19.9961 16.8074 19.9961 16.1402C19.9961 13.5106 17.8746 10.9984 15.14 10.9984C12.4057 10.9984 10.2838 13.5101 10.2838 16.1406C10.2839 16.8078 9.88542 17.4037 9.26866 17.6588C7.45594 18.4086 6.28467 20.1671 6.28467 22.139C6.28467 25.636 9.89174 27.991 13.0902 26.5878C14.3929 26.0162 15.8871 26.0162 17.1898 26.5878C20.393 27.9932 23.9953 25.6316 23.9953 22.139C23.9954 20.1669 22.824 18.4082 21.0113 17.6584ZM17.8784 25.0182C17.0081 24.6364 16.0742 24.4456 15.14 24.4456C14.2061 24.4456 13.2717 24.6365 12.4018 25.0182C10.335 25.9247 7.99868 24.4035 7.99868 22.1389C7.99868 20.8632 8.75434 19.7262 9.92387 19.2426C11.1838 18.7214 11.998 17.5036 11.9979 16.1402C11.9979 14.3141 13.4662 12.7123 15.14 12.7123C16.8139 12.7123 18.2822 14.314 18.2822 16.1402C18.2822 17.5034 19.0963 18.7211 20.3562 19.2422C21.5078 19.7185 22.2814 20.8826 22.2814 22.1389C22.2814 24.4046 19.9438 25.9242 17.8784 25.0182ZM16.2827 7.57045C16.2827 6.24407 17.2837 3 19.1393 3C20.9948 3 21.9958 6.24407 21.9958 7.57045C21.9958 9.14552 20.7144 10.427 19.1393 10.427C17.5642 10.427 16.2827 9.14558 16.2827 7.57045ZM17.9966 7.57045C17.9966 8.20051 18.5092 8.71308 19.1393 8.71308C19.7693 8.71308 20.2819 8.20051 20.2819 7.57045C20.2819 7.21603 20.1317 6.49989 19.8446 5.81717C19.5581 5.13589 19.2688 4.80949 19.1393 4.72716C19.0097 4.80949 18.7204 5.13589 18.4339 5.81722C18.1468 6.49995 17.9966 7.21603 17.9966 7.57045ZM4.85654 9.85571C3.00101 9.85571 2 13.0998 2 14.4262C2 16.0013 3.28147 17.2827 4.85654 17.2827C6.43166 17.2827 7.71308 16.0012 7.71308 14.4262C7.71308 13.0998 6.71212 9.85571 4.85654 9.85571ZM4.85654 15.5688C4.22648 15.5688 3.71391 15.0562 3.71391 14.4262C3.71391 14.0717 3.8641 13.3557 4.15118 12.6729C4.4377 11.9916 4.72694 11.6652 4.85654 11.5829C4.98609 11.6651 5.27538 11.9915 5.5619 12.6729C5.84898 13.3557 5.99917 14.0717 5.99917 14.4262C5.99917 15.0562 5.4866 15.5688 4.85654 15.5688ZM22.5674 14.4262C22.5674 13.0998 23.5683 9.85571 25.4239 9.85571C27.2795 9.85571 28.2805 13.0998 28.2805 14.4262C28.2805 16.0012 26.999 17.2827 25.4239 17.2827C23.8489 17.2827 22.5674 16.0013 22.5674 14.4262ZM24.2813 14.4262C24.2813 15.0562 24.7939 15.5688 25.4239 15.5688C26.0539 15.5688 26.5665 15.0562 26.5665 14.4262C26.5665 14.0717 26.4164 13.3557 26.1293 12.6729C25.8428 11.9916 25.5535 11.6652 25.4239 11.5829C25.2943 11.6652 25.0051 11.9916 24.7186 12.6729C24.4315 13.3557 24.2813 14.0717 24.2813 14.4262Z" fill="black"/>
</svg>
