<svg width="32" height="32" viewBox="0 0 32 32" fill="none" xmlns="http://www.w3.org/2000/svg">
<g clip-path="url(#clip0_587_10855)">
<path d="M27.5712 22.272C25.6381 20.6186 23.6763 19.6171 21.7669 21.268L20.6268 22.2658C19.7926 22.99 18.2416 26.3742 12.245 19.476C6.24956 12.5865 9.81733 11.5138 10.6528 10.7957L11.7991 9.79668C13.6985 8.14205 12.9817 6.05908 11.6118 3.91493L10.7851 2.61619C9.40897 0.477033 7.91044 -0.927845 6.00605 0.724291L4.97705 1.62341C4.13537 2.23656 1.78267 4.22962 1.21198 8.01592C0.525149 12.559 2.69178 17.7614 7.65569 23.4696C12.6133 29.1803 17.4674 32.0487 22.0654 31.9988C25.8866 31.9575 28.1944 29.907 28.9162 29.1615L29.9489 28.2612C31.8483 26.6103 30.6682 24.9294 28.7339 23.2723L27.5712 22.272Z" fill="#030104"/>
</g>
<defs>
<clipPath id="clip0_587_10855">
<rect width="32" height="32" fill="white"/>
</clipPath>
</defs>
</svg>
