<svg width="32" height="32" viewBox="0 0 32 32" fill="none" xmlns="http://www.w3.org/2000/svg">
<path d="M29.9937 24.9984H3C3.02414 24.8808 3.01771 24.7696 3.06438 24.6933C4.50815 22.402 5.96961 20.1202 7.40372 17.8226C8.67848 15.7823 10.5343 14.8957 12.9325 14.9147C16.8212 14.9449 20.7098 14.9227 24.6001 14.9243C24.8914 14.9243 25.1844 14.9243 25.5852 14.9243C25.3566 14.063 25.1522 13.2813 24.9413 12.5026C24.6516 11.4285 24.3233 10.3639 24.0754 9.28178C23.9483 8.7304 23.6827 8.59375 23.137 8.59693C18.9796 8.61917 14.8221 8.60964 10.6647 8.60964C10.3492 8.60964 10.0337 8.60964 9.66674 8.60964V7.06197C9.8953 7.0429 10.1271 7.00636 10.3588 7.00636C15.0523 7.00318 19.7457 7.00794 24.4392 7C24.8818 7 25.1635 7.04767 25.3035 7.57044C26.8487 13.2956 28.4244 19.0127 29.9905 24.7331C30.0098 24.803 29.9937 24.884 29.9937 25V24.9984ZM27.8079 23.3665C27.8176 23.2315 27.8434 23.1504 27.824 23.0821C27.2816 21.0641 26.7215 19.0508 26.1952 17.0281C26.0632 16.5212 25.7171 16.5514 25.3341 16.5514C22.6542 16.5546 19.9759 16.553 17.296 16.553C15.7959 16.553 14.2942 16.5736 12.7941 16.5498C11.0332 16.5228 9.70215 17.2044 8.78471 18.714C7.90268 20.1647 6.96753 21.5837 6.06136 23.0185C5.99859 23.1171 5.97283 23.2378 5.92133 23.3665H27.8079Z" fill="black"/>
</svg>
