<svg width="32" height="32" viewBox="0 0 32 32" fill="none" xmlns="http://www.w3.org/2000/svg">
<path d="M24.9375 10.5C24.9375 5.84994 21.1499 2 16.5 2C11.8501 2 8 5.84994 8 10.5C8 14.8313 11.3625 18.375 15.5625 18.8438V24.5625H12.75C12.2249 24.5625 11.8125 24.9749 11.8125 25.5C11.8125 26.0249 12.2249 26.4375 12.75 26.4375H15.5625V29.25C15.5625 29.7749 15.9749 30.1875 16.5 30.1875C17.0251 30.1875 17.4375 29.7749 17.4375 29.25V26.4375H20.25C20.7751 26.4375 21.1875 26.0249 21.1875 25.5C21.1875 24.9749 20.7751 24.5625 20.25 24.5625H17.4375V18.8438C21.6375 18.375 24.9375 14.8313 24.9375 10.5ZM16.5 17.0625C12.8812 17.0625 9.875 14.1187 9.875 10.5C9.875 6.88125 12.8812 3.875 16.5 3.875C20.1187 3.875 23.0625 6.88125 23.0625 10.5C23.0625 14.1187 20.1187 17.0625 16.5 17.0625Z" fill="black"/>
</svg>
