<svg width="32" height="32" viewBox="0 0 32 32" fill="none" xmlns="http://www.w3.org/2000/svg">
<path fill-rule="evenodd" clip-rule="evenodd" d="M27.4272 10.8038C30.0946 13.1481 31.611 15.4718 31.6742 15.5696L32 16.0732L31.6742 16.5767C31.611 16.6745 30.0946 18.9982 27.4272 21.3426C25.8515 22.7274 24.1975 23.833 22.5112 24.6286C20.3766 25.6357 18.1859 26.1463 16 26.1463C13.8141 26.1463 11.6234 25.6357 9.48888 24.6286C7.8025 23.833 6.14856 22.7274 4.57288 21.3426C1.90544 18.9982 0.389062 16.6745 0.325812 16.5767L0 16.0732L0.325812 15.5696C0.389 15.4718 1.90544 13.1481 4.57288 10.8038C6.14856 9.41887 7.8025 8.31331 9.48888 7.51769C11.6234 6.51062 13.8141 6 16 6C18.1859 6 20.3766 6.51062 22.5112 7.51769C24.1975 8.31331 25.8515 9.41887 27.4272 10.8038ZM2.23738 16.0734C2.81056 16.8541 4.05825 18.4282 5.83431 19.9826C6.322 20.4094 6.81694 20.8057 7.31725 21.1722C6.34419 19.5212 5.82994 17.5766 5.94206 15.5236C6.03244 13.8691 6.51938 12.3287 7.30525 10.9894C4.73494 12.8764 2.95575 15.0968 2.23738 16.0734ZM7.78113 16.0732C7.78113 20.6124 11.4608 24.2921 16 24.2921C20.5392 24.2921 24.2189 20.6123 24.2189 16.0732C24.2189 11.5341 20.5392 7.85431 16 7.85431C11.4608 7.85431 7.78113 11.5341 7.78113 16.0732ZM26.0579 16.6227C25.9694 18.2442 25.5022 19.7861 24.7057 21.1488C27.2701 19.2636 29.0452 17.0482 29.7626 16.0729C29.1892 15.2919 27.9416 13.7179 26.1657 12.1638C25.6823 11.7407 25.1917 11.3473 24.6958 10.9836C25.69 12.6743 26.1674 14.6196 26.0579 16.6227ZM13.5633 13.3546C14.2895 12.7036 15.2256 12.3745 16.1994 12.4277C17.1731 12.4808 18.0679 12.9101 18.7189 13.6363C19.3698 14.3624 19.699 15.2986 19.6458 16.2723C19.5926 17.2461 19.1634 18.1409 18.4372 18.7918C17.7618 19.3972 16.9047 19.7243 16.0048 19.7243C15.9371 19.7243 15.8693 19.7225 15.8011 19.7188C14.8273 19.6656 13.9326 19.2364 13.2816 18.5102C12.6307 17.784 12.3015 16.8478 12.3547 15.8741C12.4079 14.9003 12.8371 14.0056 13.5633 13.3546ZM17.1856 17.3956C17.5388 17.0789 17.7476 16.6438 17.7735 16.1701C17.7994 15.6964 17.6393 15.2409 17.3226 14.8877C17.006 14.5344 16.5708 14.3257 16.0971 14.2998C16.064 14.2981 16.031 14.2971 15.998 14.2971C15.5602 14.2971 15.1433 14.4563 14.8148 14.7508C14.4616 15.0674 14.2528 15.5026 14.227 15.9763C14.2011 16.4499 14.3612 16.9053 14.6778 17.2586C14.9945 17.6118 15.4296 17.8206 15.9033 17.8464C16.377 17.872 16.8324 17.7122 17.1856 17.3956Z" fill="black"/>
</svg>
