<svg width="32" height="32" viewBox="0 0 32 32" fill="none" xmlns="http://www.w3.org/2000/svg">
<path fill-rule="evenodd" clip-rule="evenodd" d="M31.0625 17.5701H24.3399H22.8419V12.2408C22.8419 10.2239 21.5893 8.36444 19.3149 7.00481C17.1915 5.7355 14.3881 5.0365 11.4209 5.0365C8.45375 5.0365 5.65031 5.73556 3.527 7.00481C1.25256 8.36444 0 10.2239 0 12.2408V19.7592C0 21.7761 1.25256 23.6356 3.527 24.9952C5.65037 26.2645 8.45381 26.9635 11.4209 26.9635H31.0625C31.5802 26.9635 32 26.5437 32 26.026V25.9516V18.5076C32 17.9899 31.5802 17.5701 31.0625 17.5701ZM30.125 19.4451V25.0141H25.2773V19.4451H30.125ZM19.1549 17.5701C19.2086 17.5392 19.2621 17.5084 19.3149 17.4768C19.9459 17.0996 20.4981 16.6837 20.9669 16.2367V17.5701H19.1549ZM11.4209 6.91144C16.5954 6.91144 20.9669 9.352 20.9669 12.2408C20.9669 15.1296 16.5954 17.5701 11.4209 17.5701C6.2465 17.5701 1.875 15.1296 1.875 12.2408C1.875 9.352 6.2465 6.91144 11.4209 6.91144ZM10.4116 25.0571V23.4932C10.4116 22.9755 9.99181 22.5557 9.47406 22.5557C8.95631 22.5557 8.53656 22.9755 8.53656 23.4932V24.8291C7.90625 24.7133 7.30231 24.5612 6.73338 24.3772V21.8986C6.73338 21.3809 6.31363 20.9611 5.79588 20.9611C5.27812 20.9611 4.85838 21.3809 4.85838 21.8986V23.5895C3.03137 22.6119 1.875 21.2449 1.875 19.7592V16.2367C2.34381 16.6837 2.89587 17.0996 3.527 17.4768C5.65037 18.7461 8.45381 19.4451 11.4209 19.4451H23.4024V25.0885H21.446V21.8985C21.446 21.3807 21.0262 20.961 20.5085 20.961C19.9907 20.961 19.571 21.3807 19.571 21.8985V25.0885H17.7678V23.4932C17.7678 22.9755 17.3481 22.5557 16.8303 22.5557C16.3126 22.5557 15.8928 22.9755 15.8928 23.4932V25.0885H14.0897V21.8985C14.0897 21.3807 13.6699 20.961 13.1522 20.961C12.6344 20.961 12.2147 21.3807 12.2147 21.8985V25.0885H11.4209C11.0806 25.0886 10.7439 25.0777 10.4116 25.0571ZM11.4211 14.9842C14.2725 14.9842 16.3421 13.8304 16.3421 12.2408C16.3421 10.6512 14.2725 9.49738 11.4211 9.49738C8.56962 9.49738 6.5 10.6511 6.5 12.2408C6.5 13.8305 8.56962 14.9842 11.4211 14.9842ZM11.4211 11.3724C13.2548 11.3724 14.3152 11.9791 14.4591 12.2408C14.3151 12.5025 13.2548 13.1092 11.4211 13.1092C9.58737 13.1092 8.52694 12.5024 8.38294 12.2408C8.52687 11.9791 9.58731 11.3724 11.4211 11.3724ZM28.6699 22.2296C28.6699 22.7647 28.2362 23.1984 27.7012 23.1984C27.1661 23.1984 26.7324 22.7647 26.7324 22.2296C26.7324 21.6946 27.1661 21.2609 27.7012 21.2609C28.2362 21.2609 28.6699 21.6946 28.6699 22.2296Z" fill="black"/>
</svg>
