<svg width="32" height="32" viewBox="0 0 32 32" fill="none" xmlns="http://www.w3.org/2000/svg">
<path d="M25.9531 17.0156H20.0625C18.3825 17.0156 17.0156 18.3825 17.0156 20.0625V25.9531C17.0156 27.6332 18.3825 29 20.0625 29H25.9531C27.6332 29 29 27.6332 29 25.9531V20.0625C29 18.3825 27.6332 17.0156 25.9531 17.0156ZM26.9688 25.9531C26.9688 26.5131 26.5131 26.9688 25.9531 26.9688H20.0625C19.5025 26.9688 19.0469 26.5131 19.0469 25.9531V20.0625C19.0469 19.5025 19.5025 19.0469 20.0625 19.0469H25.9531C26.5131 19.0469 26.9688 19.5025 26.9688 20.0625V25.9531ZM11.9375 17.0156H6.04688C4.36683 17.0156 3 18.3825 3 20.0625V25.9531C3 27.6332 4.36683 29 6.04688 29H11.9375C13.6175 29 14.9844 27.6332 14.9844 25.9531V20.0625C14.9844 18.3825 13.6175 17.0156 11.9375 17.0156ZM12.9531 25.9531C12.9531 26.5131 12.4975 26.9688 11.9375 26.9688H6.04688C5.48686 26.9688 5.03125 26.5131 5.03125 25.9531V20.0625C5.03125 19.5025 5.48686 19.0469 6.04688 19.0469H11.9375C12.4975 19.0469 12.9531 19.5025 12.9531 20.0625V25.9531ZM11.9375 3H6.04688C4.36683 3 3 4.36683 3 6.04688V11.9375C3 13.6175 4.36683 14.9844 6.04688 14.9844H11.9375C13.6175 14.9844 14.9844 13.6175 14.9844 11.9375V6.04688C14.9844 4.36683 13.6175 3 11.9375 3ZM12.9531 11.9375C12.9531 12.4975 12.4975 12.9531 11.9375 12.9531H6.04688C5.48686 12.9531 5.03125 12.4975 5.03125 11.9375V6.04688C5.03125 5.48686 5.48686 5.03125 6.04688 5.03125H11.9375C12.4975 5.03125 12.9531 5.48686 12.9531 6.04688V11.9375ZM25.9531 3H20.0625C18.3825 3 17.0156 4.36683 17.0156 6.04688V11.9375C17.0156 13.6175 18.3825 14.9844 20.0625 14.9844H25.9531C27.6332 14.9844 29 13.6175 29 11.9375V6.04688C29 4.36683 27.6332 3 25.9531 3ZM26.9688 11.9375C26.9688 12.4975 26.5131 12.9531 25.9531 12.9531H20.0625C19.5025 12.9531 19.0469 12.4975 19.0469 11.9375V6.04688C19.0469 5.48686 19.5025 5.03125 20.0625 5.03125H25.9531C26.5131 5.03125 26.9688 5.48686 26.9688 6.04688V11.9375Z" fill="black"/>
</svg>
