<svg width="32" height="32" viewBox="0 0 32 32" fill="none" xmlns="http://www.w3.org/2000/svg">
<path d="M16 30.2197C15.5444 30.2197 15.1052 30.0547 14.7629 29.7549C13.4702 28.6245 12.2239 27.5623 11.1242 26.6252L11.1186 26.6204C7.89476 23.873 5.11083 21.5005 3.17382 19.1633C1.00854 16.5505 0 14.0732 0 11.3669C0 8.73755 0.90161 6.31177 2.53857 4.53613C4.19506 2.7395 6.46801 1.75 8.93944 1.75C10.7866 1.75 12.4782 2.33398 13.9673 3.4856C14.7187 4.06689 15.3999 4.77832 16 5.60815C16.6003 4.77832 17.2812 4.06689 18.0329 3.4856C19.5219 2.33398 21.2136 1.75 23.0607 1.75C25.5319 1.75 27.8051 2.7395 29.4616 4.53613C31.0986 6.31177 31.9999 8.73755 31.9999 11.3669C31.9999 14.0732 30.9916 16.5505 28.8264 19.1631C26.8894 21.5005 24.1057 23.8728 20.8823 26.6199C19.7807 27.5583 18.5324 28.6223 17.2368 29.7554C16.8947 30.0547 16.4553 30.2197 16 30.2197ZM8.93944 3.62451C6.99779 3.62451 5.2141 4.39941 3.9165 5.80664C2.5996 7.23511 1.87426 9.20972 1.87426 11.3669C1.87426 13.6431 2.72021 15.6787 4.61693 17.9673C6.45018 20.1794 9.17698 22.5032 12.3342 25.1938L12.3401 25.1987C13.4438 26.1394 14.695 27.2058 15.9973 28.3445C17.3073 27.2036 18.5605 26.1355 19.6665 25.1934C22.8234 22.5027 25.55 20.1794 27.3832 17.9673C29.2797 15.6787 30.1257 13.6431 30.1257 11.3669C30.1257 9.20972 29.4003 7.23511 28.0834 5.80664C26.7861 4.39941 25.0021 3.62451 23.0607 3.62451C21.6384 3.62451 20.3325 4.07666 19.1794 4.96826C18.1518 5.76318 17.436 6.76807 17.0163 7.47119C16.8005 7.83276 16.4206 8.04858 16 8.04858C15.5793 8.04858 15.1994 7.83276 14.9836 7.47119C14.5642 6.76807 13.8484 5.76318 12.8205 4.96826C11.6675 4.07666 10.3616 3.62451 8.93944 3.62451Z" fill="black"/>
</svg>
