<svg width="32" height="32" viewBox="0 0 32 32" fill="none" xmlns="http://www.w3.org/2000/svg">
<path fill-rule="evenodd" clip-rule="evenodd" d="M28.3458 3.45222C28.3442 2.10829 27.2545 1.01929 25.9103 1.01929H15.7117C15.0657 1.01929 14.4462 1.27582 13.9894 1.73255L0.713642 15.0056C-0.237804 15.9568 -0.237881 17.4992 0.713413 18.4506L10.912 28.6493C11.3876 29.1249 12.011 29.3628 12.6345 29.3628C13.0269 29.3628 13.415 29.2574 13.7706 29.0689C13.9013 28.9613 13.9995 28.8832 14.085 28.8152C14.1348 28.7757 14.1802 28.7395 14.2253 28.703C14.7043 28.3144 15.1426 27.8756 20.2356 22.7771C22.0442 20.9666 24.4398 18.5684 27.6325 15.3763C28.0895 14.9194 28.3462 14.2998 28.3462 13.6537L28.3462 9.35957C28.3462 5.2722 28.3462 4.7327 28.346 4.19319L28.3458 3.45222ZM27.1282 13.6536C27.1282 13.9789 27.0015 14.2849 26.7714 14.5149L13.4956 27.7882C13.2655 28.0182 12.9597 28.1449 12.6343 28.1449C12.309 28.1449 12.0032 28.0182 11.7731 27.7882L1.57466 17.5895C1.34462 17.3594 1.21795 17.0535 1.21795 16.7282C1.21795 16.4029 1.34469 16.097 1.57473 15.867L14.8505 2.59387C15.0806 2.3639 15.3863 2.23724 15.7117 2.23724H25.9103C26.5819 2.23724 27.1283 2.78364 27.1283 3.45518V13.6536H27.1282ZM30.7821 3.4552V14.8715C30.7821 15.1968 30.6554 15.5028 30.4254 15.7328L16.0361 30.1194L16.8973 30.9807L31.2864 16.5941C31.7434 16.1372 32.0001 15.5176 32.0001 14.8715V3.4552H30.7821ZM19.2114 7.718C19.2114 6.37453 20.3045 5.2821 21.6473 5.2821C22.9901 5.2821 24.0832 6.37453 24.0832 7.718C24.0832 9.06147 22.9902 10.1539 21.6473 10.1539C20.3045 10.1539 19.2114 9.06147 19.2114 7.718ZM20.4294 7.718C20.4294 8.3894 20.9753 8.93595 21.6473 8.93595C22.3193 8.93595 22.8653 8.3894 22.8653 7.718C22.8653 7.04661 22.3193 6.50005 21.6473 6.50005C20.9753 6.50005 20.4294 7.04661 20.4294 7.718Z" fill="black"/>
</svg>
