<svg width="32" height="32" viewBox="0 0 32 32" fill="none" xmlns="http://www.w3.org/2000/svg">
<path d="M31.9999 16.7763C31.9999 16.7763 32 15.2295 32 15.2295C31.9986 12.5707 29.7599 9.79739 27.4325 8.46427C29.8876 7.05108 32.214 4.05589 31.9668 1.30952C31.905 0.62302 31.3618 0.0798949 30.6754 0.0181449C27.9331 -0.228668 24.9385 2.09271 23.5236 4.54658C22.1858 2.22658 19.4238 0.00539492 16.7761 0.00058242C16.776 0.00058242 15.2292 0.00051992 15.2292 0.00051992C12.5824 0.00195742 9.81675 2.22227 8.47644 4.54658C7.06175 2.09321 4.06694 -0.228855 1.32469 0.0180824C0.638187 0.0798949 0.095 0.622957 0.0331875 1.30952C-0.214437 4.06071 2.11731 7.05396 4.56744 8.46427C2.2455 9.79427 0.004875 12.5635 6.25e-05 15.2242C6.25e-05 15.2243 0 16.771 0 16.7711C0.0014375 19.4223 2.23163 22.1983 4.56738 23.5362C2.11794 24.9463 -0.214375 27.9404 0.0331875 30.6911V30.6911C0.095 31.3776 0.638188 31.9207 1.32463 31.9825C1.45494 31.9942 1.587 32 1.7205 32C4.36569 32 7.13369 29.7827 8.47644 27.454C9.81431 29.7741 12.5763 31.9952 15.2239 32C15.224 32 16.7708 32.0001 16.7708 32.0001C19.4176 31.9986 22.1833 29.7783 23.5236 27.454C24.8651 29.7805 27.6326 32 30.2794 32C30.4128 32 30.5451 31.9942 30.6753 31.9825C31.3618 31.9208 31.905 31.3776 31.9668 30.6911C32.2143 27.9415 29.8841 24.9474 27.4326 23.5363C29.7595 22.2034 31.9951 19.4328 31.9999 16.7763ZM30.1204 15.058C27.6851 14.9175 24.6218 11.8529 24.4816 9.41914C26.9168 9.55958 29.9801 12.6242 30.1204 15.058ZM8.47306 19.6305C7.66325 18.2168 6.33594 16.856 4.85194 16.0003C6.26625 15.1848 7.62337 13.8535 8.47306 12.3701C9.29319 13.7949 10.6316 15.1535 12.1125 16.0003C10.692 16.8126 9.32794 18.1453 8.47306 19.6305ZM15.0577 16.9583C14.9173 19.3936 11.8525 22.4568 9.41881 22.597C9.55919 20.1616 12.6241 17.0987 15.0577 16.9583ZM9.41881 9.40352C11.8542 9.54421 14.9175 12.6086 15.0577 15.0423C12.6223 14.9016 9.55912 11.8375 9.41881 9.40352ZM19.8874 16.0003C21.3078 15.1881 22.672 13.8553 23.5269 12.37C24.3368 13.7837 25.664 15.1445 27.1481 16.0003C25.7337 16.8158 24.3766 18.1471 23.5269 19.6305C22.7089 18.2092 21.3722 16.8492 19.8874 16.0003ZM22.5812 22.5971C20.1458 22.4564 17.0826 19.392 16.9424 16.9583C19.3777 17.0989 22.4409 20.1631 22.5812 22.5971ZM16.9424 15.0423C17.0828 12.607 20.1476 9.54383 22.5812 9.40358C22.4408 11.839 19.3759 14.9019 16.9424 15.0423ZM30.1048 1.88008C29.9644 4.31539 26.8997 7.37852 24.4659 7.51883C24.6063 5.08358 27.671 2.02046 30.1048 1.88008ZM22.5812 7.5189C20.1459 7.37827 17.0826 4.31396 16.9424 1.88014C19.3779 2.02077 22.4409 5.08508 22.5812 7.5189ZM16 4.8524C16.8307 6.29296 18.1663 7.62921 19.6093 8.46121C18.1689 9.29165 16.8321 10.6269 16 12.07C15.1694 10.6296 13.8338 9.29321 12.3906 8.46115C13.8313 7.63065 15.1679 6.29552 16 4.8524ZM15.0577 1.88008C14.9173 4.31539 11.8526 7.37852 9.41881 7.51883C9.55919 5.08364 12.6239 2.02046 15.0577 1.88008ZM1.89519 1.88008C4.33 2.02071 7.39369 5.08433 7.53406 7.51883C5.09863 7.37821 2.03538 4.31377 1.89519 1.88008ZM7.51844 9.41914C7.37775 11.8545 4.3135 14.9178 1.87956 15.058C2.02025 12.6225 5.08462 9.55946 7.51844 9.41914ZM1.87962 16.9426C4.31494 17.083 7.37819 20.1476 7.51844 22.5814C5.08319 22.441 2.01994 19.3763 1.87962 16.9426ZM1.89519 30.1205C2.03562 27.6851 5.10031 24.622 7.53406 24.4817C7.39369 26.917 4.329 29.9801 1.89519 30.1205ZM9.41875 24.4817C11.8541 24.6223 14.9174 27.6866 15.0576 30.1205C12.6221 29.9798 9.55906 26.9155 9.41875 24.4817ZM16 27.1482C15.1694 25.7076 13.8338 24.3714 12.3907 23.5394C13.8313 22.7088 15.1679 21.3737 16 19.9306C16.8306 21.3711 18.1662 22.7074 19.6093 23.5394C18.1687 24.37 16.8321 25.7051 16 27.1482ZM16.9423 30.1205C17.0828 27.6851 20.1474 24.622 22.5812 24.4817C22.4408 26.917 19.3761 29.9801 16.9423 30.1205ZM30.1048 30.1205C27.67 29.9798 24.6063 26.9162 24.4659 24.4817C26.9014 24.6224 29.9646 27.6868 30.1048 30.1205ZM24.4816 22.5814C24.6222 20.1461 27.6865 17.0828 30.1204 16.9426C29.9797 19.3781 26.9154 22.4411 24.4816 22.5814Z" fill="black"/>
</svg>
