<svg width="32" height="32" viewBox="0 0 32 32" fill="none" xmlns="http://www.w3.org/2000/svg">
<path fill-rule="evenodd" clip-rule="evenodd" d="M2.94587 4.5188H29.0541C30.6631 4.5188 32 5.81855 32 7.46467V24.5354C32 26.1444 30.7002 27.4813 29.0541 27.4813H2.94587C1.33687 27.4813 0 26.1815 0 24.5355V7.46467C0 5.85567 1.29981 4.5188 2.94587 4.5188ZM29.0541 25.6063C29.6464 25.6063 30.125 25.1264 30.125 24.5354V7.46467C30.125 6.87242 29.6451 6.3938 29.0541 6.3938H2.94587C2.35362 6.3938 1.875 6.87367 1.875 7.46467V24.5354C1.875 25.1277 2.35487 25.6063 2.94587 25.6063H29.0541ZM13.4231 15.9999C13.4231 16.8801 13.0912 17.6839 12.5464 18.2939C13.9741 19.1643 14.9293 20.7361 14.9293 22.527C14.9293 23.0448 14.5096 23.4645 13.9918 23.4645H5.9585C5.44075 23.4645 5.021 23.0448 5.021 22.527C5.021 20.7361 5.97625 19.1642 7.40393 18.2938C6.85925 17.6839 6.52731 16.8801 6.52731 15.9999C6.52731 14.0988 8.074 12.552 9.97518 12.552C11.8764 12.552 13.4231 14.0988 13.4231 15.9999ZM11.5481 15.9999C11.5481 15.1326 10.8425 14.427 9.97518 14.427C9.10787 14.427 8.40231 15.1326 8.40231 15.9999C8.40231 16.8673 9.10787 17.5729 9.97518 17.5729C10.8425 17.5729 11.5481 16.8673 11.5481 15.9999ZM9.97518 19.4479C8.60406 19.4479 7.43937 20.3487 7.04187 21.5896H12.9085C12.5109 20.3486 11.3463 19.4479 9.97518 19.4479ZM26.0419 13.5563H19.0127C18.4949 13.5563 18.0752 13.976 18.0752 14.4938C18.0752 15.0115 18.4949 15.4313 19.0127 15.4313H26.0419C26.5596 15.4313 26.9794 15.0115 26.9794 14.4938C26.9794 13.976 26.5596 13.5563 26.0419 13.5563ZM5.9585 8.5354H26.0419C26.5596 8.5354 26.9794 8.95515 26.9794 9.4729C26.9794 9.99065 26.5596 10.4104 26.0419 10.4104H5.9585C5.44075 10.4104 5.021 9.99065 5.021 9.4729C5.021 8.95515 5.44075 8.5354 5.9585 8.5354ZM26.0419 17.573H19.0127C18.4949 17.573 18.0752 17.9927 18.0752 18.5105C18.0752 19.0282 18.4949 19.448 19.0127 19.448H26.0419C26.5596 19.448 26.9794 19.0282 26.9794 18.5105C26.9794 17.9927 26.5596 17.573 26.0419 17.573ZM19.0127 21.5896H24.0335C24.5513 21.5896 24.971 22.0093 24.971 22.5271C24.971 23.0448 24.5513 23.4646 24.0335 23.4646H19.0127C18.4949 23.4646 18.0752 23.0448 18.0752 22.5271C18.0752 22.0093 18.4949 21.5896 19.0127 21.5896Z" fill="black"/>
</svg>
