<svg width="32" height="32" viewBox="0 0 32 32" fill="none" xmlns="http://www.w3.org/2000/svg">
<path fill-rule="evenodd" clip-rule="evenodd" d="M16 32C15.6866 32 15.3938 31.8433 15.2199 31.5825C14.5108 30.5189 13.693 29.3733 12.834 28.1701C11.011 25.6165 9.00284 22.8036 7.45606 19.9644C5.63519 16.6222 4.75 13.7716 4.75 11.25C4.75 5.04675 9.79675 0 16 0C22.2033 0 27.25 5.04675 27.25 11.25C27.25 13.7716 26.3648 16.6222 24.5439 19.9644C22.9965 22.8048 20.9917 25.6128 19.1695 28.1651C18.31 29.369 17.4911 30.5159 16.7801 31.5825C16.6062 31.8434 16.3134 32 16 32ZM25.375 11.25C25.375 6.08063 21.1694 1.875 16 1.875C10.8306 1.875 6.625 6.08063 6.625 11.25C6.625 13.4502 7.43544 16.0074 9.10256 19.0674C10.5959 21.8085 12.5743 24.5795 14.3746 27.1012C14.9409 27.8944 15.4896 28.6629 16 29.3981C16.5105 28.6628 17.0592 27.8942 17.6256 27.101C19.4259 24.5792 21.4042 21.8083 22.8974 19.0674C24.5646 16.0074 25.375 13.4502 25.375 11.25ZM21.625 11.25C21.625 14.3516 19.1016 16.875 16 16.875C12.8984 16.875 10.375 14.3516 10.375 11.25C10.375 8.14837 12.8984 5.625 16 5.625C19.1016 5.625 21.625 8.14837 21.625 11.25ZM19.75 11.25C19.75 9.18225 18.0677 7.5 16 7.5C13.9323 7.5 12.25 9.18225 12.25 11.25C12.25 13.3177 13.9323 15 16 15C18.0677 15 19.75 13.3177 19.75 11.25Z" fill="black"/>
</svg>
