<svg width="32" height="32" viewBox="0 0 32 32" fill="none" xmlns="http://www.w3.org/2000/svg">
<path fill-rule="evenodd" clip-rule="evenodd" d="M22.166 2L22.7447 3.05831L23.8031 3.63715L22.7447 4.21599L22.166 5.27431L21.5871 4.21599L20.5288 3.63715L21.5871 3.05831L22.166 2ZM11.0601 4.29517L11.7757 5.60358L13.0841 6.31912L11.7757 7.03477L11.0601 8.34313L10.3445 7.03477L9.03613 6.31912L10.3445 5.60358L11.0601 4.29517ZM24.7487 10.9874L26.8252 13.77C27.0293 14.0435 27.0604 14.4091 26.9055 14.7131C26.7524 15.0137 26.4437 15.2025 26.1069 15.2025L26.0954 15.2025L22.6235 15.1581L20.6187 17.993C20.4491 18.2328 20.1749 18.3718 19.887 18.3718C19.8403 18.3718 19.7935 18.3682 19.7466 18.3608C19.4095 18.3074 19.1321 18.0673 19.0308 17.7415L18.3007 15.3929L4.53025 29.1634C4.18019 29.5135 3.6126 29.5135 3.26254 29.1634C2.91249 28.8134 2.91249 28.2457 3.26254 27.8957L17.033 14.1254L14.6845 13.3953C14.3587 13.294 14.1185 13.0165 14.0652 12.6795C14.0118 12.3424 14.1544 12.0044 14.433 11.8074L17.2679 9.80257L17.2235 6.33066C17.2192 5.98944 17.4089 5.67543 17.7129 5.52047C18.017 5.3655 18.3826 5.39667 18.656 5.60076L21.4387 7.67732L24.7268 6.56233C25.05 6.45274 25.4073 6.53614 25.6486 6.7774C25.8898 7.01867 25.9732 7.37606 25.8636 7.69918L24.7487 10.9874ZM21.4318 13.7382C21.6021 13.4973 21.8796 13.3553 22.1751 13.3594L24.3021 13.3867L23.03 11.6819C22.8534 11.4455 22.8047 11.1374 22.8994 10.8579L23.5826 8.84346L21.5681 9.5266C21.2888 9.62136 20.9807 9.5725 20.7442 9.39606L19.0394 8.12396L19.0666 10.2509C19.0703 10.5458 18.9287 10.8238 18.6879 10.9942L16.9511 12.2223C17.4282 12.3706 17.8008 12.4843 18.0943 12.5738L18.0943 12.5738C19.1205 12.8868 19.1788 12.9046 19.3501 13.0759C19.5162 13.2419 19.5246 13.2694 19.8825 14.4347L19.8827 14.4352L19.8827 14.4354C19.9677 14.7121 20.0724 15.0529 20.2036 15.4749L21.4318 13.7382ZM21.9308 22.5957L21.352 21.5374L20.7732 22.5957L19.7148 23.1745L20.7732 23.7533L21.352 24.8116L21.9308 23.7533L22.9892 23.1745L21.9308 22.5957ZM28.7706 9.63398L28.4241 9.00061L28.0778 9.63398L27.4443 9.98034L28.0778 10.3268L28.4241 10.9601L28.7706 10.3268L29.4039 9.98034L28.7706 9.63398ZM27.444 18.1745L28.8769 17.7549L28.4572 19.1877L28.8769 20.6206L27.444 20.2009L26.0112 20.6206L26.4309 19.1877L26.0112 17.7549L27.444 18.1745Z" fill="black"/>
</svg>
