<svg width="32" height="32" viewBox="0 0 32 32" fill="none" xmlns="http://www.w3.org/2000/svg">
<path d="M27.2759 5.56643C24.2596 3.18598 20.255 1.875 16 1.875C11.7449 1.875 7.74035 3.18598 4.72407 5.56643C1.6777 7.97059 0 11.1762 0 14.5928C0 16.648 0.630141 18.6892 1.82222 20.4958C2.92238 22.163 4.50127 23.6362 6.39979 24.7695C6.31219 25.3831 5.84044 27.1788 3.30531 29.3187C3.17485 29.4289 3.12165 29.6057 3.16976 29.7696C3.21787 29.9334 3.35816 30.0535 3.52743 30.0757C3.54277 30.0777 3.91148 30.125 4.56662 30.125C6.43471 30.125 10.2523 29.7541 14.9192 27.2819C15.2794 27.3009 15.6424 27.3106 16 27.3106C20.255 27.3106 24.2595 25.9996 27.2759 23.6192C30.3223 21.215 32 18.0094 32 14.5928C32 11.1762 30.3223 7.97059 27.2759 5.56643Z" fill="black"/>
</svg>
