<svg width="32" height="32" viewBox="0 0 32 32" fill="none" xmlns="http://www.w3.org/2000/svg">
<path fill-rule="evenodd" clip-rule="evenodd" d="M9.88265 10.9248L7.56615 10.6362C7.07186 10.5748 6.73254 10.1099 6.82608 9.61289C7.128 7.91091 7.98566 6.43603 9.3964 5.19094C11.053 3.72942 13.2252 3 15.9184 3C18.7506 3 21.0056 3.74011 22.6782 5.22033C24.3534 6.70055 25.1897 8.42391 25.1897 10.3877C25.1897 11.4752 24.8798 12.5039 24.2653 13.4738C23.648 14.4463 22.3335 15.7662 20.3163 17.4362C19.2742 18.3018 18.625 18.9965 18.3739 19.5229C18.2242 19.8302 18.1253 20.2817 18.0719 20.8775C17.9971 21.7058 17.3078 22.3444 16.4741 22.3444H15.1649C14.2512 22.3444 13.5244 21.5856 13.5618 20.6745C13.6046 19.611 13.7756 18.5503 14.2672 17.5938C14.7481 16.6586 15.7073 15.6059 17.1501 14.4383C18.5902 13.2707 19.4532 12.5065 19.7338 12.1432C20.1666 11.5714 20.383 10.9408 20.383 10.2515C20.383 9.29227 20.001 8.47467 19.2315 7.79067C18.462 7.10934 17.4253 6.76734 16.1241 6.76734C14.8683 6.76734 13.8183 7.12538 12.974 7.83609C12.3782 8.33841 11.9133 9.02775 11.5793 9.90145C11.3148 10.5935 10.6174 11.0156 9.88265 10.9248ZM15.165 24.0597H16.4208C17.3052 24.0597 18.0239 24.7758 18.0239 25.6628V27.3969C18.0239 28.2813 17.3052 29 16.4208 29H15.165C14.2807 29 13.5619 28.2813 13.5619 27.3969V25.6628C13.5619 24.7784 14.2807 24.0597 15.165 24.0597Z" fill="black"/>
</svg>
