<svg width="32" height="32" viewBox="0 0 32 32" fill="none" xmlns="http://www.w3.org/2000/svg">
<path fill-rule="evenodd" clip-rule="evenodd" d="M27.2969 4H4.70312C4.31476 4 4 4.31476 4 4.70312V27.2969C4 27.6852 4.31476 28 4.70312 28H27.2969C27.6852 28 28 27.6852 28 27.2969V4.70312C28 4.31476 27.6852 4 27.2969 4ZM26.5938 16V26.5938H16C21.8414 26.5938 26.5938 21.8414 26.5938 16ZM16 5.40625C21.8414 5.40625 26.5938 10.1586 26.5938 16V5.40625H16ZM5.40625 16V5.40625H16C10.1586 5.40625 5.40625 10.1586 5.40625 16ZM5.40625 16V26.5938H16C10.1586 26.5938 5.40625 21.8414 5.40625 16ZM16 25.1875C10.934 25.1875 6.8125 21.066 6.8125 16C6.8125 10.934 10.934 6.8125 16 6.8125C21.066 6.8125 25.1875 10.934 25.1875 16C25.1875 21.066 21.066 25.1875 16 25.1875ZM13.8906 16C13.8906 14.8369 14.8369 13.8906 16 13.8906C17.1631 13.8906 18.1094 14.8369 18.1094 16C18.1094 17.1631 17.1631 18.1094 16 18.1094C14.8369 18.1094 13.8906 17.1631 13.8906 16ZM15.2969 16C15.2969 16.3876 15.6124 16.7031 16 16.7031C16.3876 16.7031 16.7031 16.3876 16.7031 16C16.7031 15.6124 16.3876 15.2969 16 15.2969C15.6124 15.2969 15.2969 15.6124 15.2969 16Z" fill="black"/>
</svg>
