<svg width="32" height="32" viewBox="0 0 32 32" fill="none" xmlns="http://www.w3.org/2000/svg">
<path d="M16 9.4375C12.3814 9.4375 9.4375 12.3814 9.4375 16C9.4375 19.6186 12.3814 22.5625 16 22.5625C19.6186 22.5625 22.5625 19.6186 22.5625 16C22.5625 12.3814 19.6186 9.4375 16 9.4375ZM16 20.6875C13.4153 20.6875 11.3125 18.5847 11.3125 16C11.3125 13.4153 13.4153 11.3125 16 11.3125C18.5847 11.3125 20.6875 13.4153 20.6875 16C20.6875 18.5847 18.5847 20.6875 16 20.6875Z" fill="black"/>
<path d="M31.2864 13.2146L27.6192 12.3129C27.3985 11.6172 27.115 10.9426 26.7723 10.2973C27.3211 9.38269 28.4813 7.449 28.4813 7.449C28.7026 7.08012 28.6444 6.60794 28.3403 6.30375L25.6886 3.65212C25.3844 3.34794 24.9123 3.28981 24.5434 3.51113C24.5196 3.52538 22.6198 4.66525 21.6917 5.22081C21.0499 4.88137 20.3796 4.60038 19.6885 4.38119C19.4117 3.25769 18.7852 0.713313 18.7852 0.713313C18.6821 0.294437 18.3064 0 17.875 0H14.125C13.6936 0 13.3178 0.294437 13.2147 0.713375C12.9568 1.76087 12.5257 3.51206 12.3116 4.38088C11.5764 4.614 10.8651 4.917 10.1865 5.286C9.78475 5.045 9.18606 4.68575 8.63219 4.35344L7.22831 3.51113C6.85925 3.28981 6.38725 3.348 6.08306 3.65212L3.43131 6.30375C3.12713 6.60794 3.069 7.08012 3.29031 7.449C3.30281 7.46994 4.40188 9.30175 5.11975 10.5033C4.82525 11.0852 4.57819 11.6899 4.38119 12.3108C3.13106 12.6217 0.74225 13.2076 0.71425 13.2145C0.294875 13.3173 0 13.6932 0 14.125V17.875C0 18.3068 0.294937 18.6827 0.714312 18.7855C0.742 18.7923 3.11312 19.3737 4.38225 19.6877C4.60506 20.3941 4.89375 21.0798 5.2445 21.7365L3.60737 24.4653C3.38606 24.8341 3.44419 25.3064 3.74837 25.6105L6.40006 28.2622C6.70425 28.5664 7.17637 28.6245 7.54531 28.4032C7.56838 28.3893 9.38675 27.2983 10.2794 26.764C10.9306 27.1107 11.6115 27.3972 12.3136 27.6197L13.2146 31.286C13.3174 31.7052 13.6933 32 14.125 32H17.875C18.3065 32 18.6823 31.7054 18.7854 31.2864L19.6871 27.6196C20.4083 27.3907 21.104 27.0952 21.7656 26.7366C22.6673 27.2776 24.5434 28.4032 24.5434 28.4032C24.9122 28.6246 25.3844 28.5665 25.6886 28.2623L28.3403 25.6106C28.6444 25.3064 28.7026 24.8342 28.4813 24.4653C28.4813 24.4653 27.3393 22.5621 26.7964 21.6571C27.1281 21.0266 27.4034 20.3675 27.6189 19.6877C28.7329 19.4128 31.2558 18.7929 31.2862 18.7854C31.7053 18.6824 32 18.3066 32 17.875V14.125C32 13.6934 31.7054 13.3177 31.2864 13.2146ZM30.125 17.14C29.0425 17.4061 27.0798 17.8887 26.705 17.9824L26.6343 18.0001C26.3074 18.0851 26.0514 18.3395 25.9644 18.6659C25.7272 19.5553 25.3709 20.4079 24.9055 21.2002C24.7318 21.4959 24.7334 21.863 24.9098 22.1572C24.9586 22.2385 25.9404 23.8749 26.4969 24.8023L24.8804 26.4188C23.9401 25.8546 22.2732 24.8544 22.2591 24.8459C21.9606 24.6668 21.5876 24.6676 21.2903 24.8481C20.4778 25.3409 19.5959 25.7164 18.6691 25.964C18.3456 26.0504 18.0926 26.3029 18.0058 26.6263C17.954 26.8189 17.903 27.0226 17.9021 27.0261L17.1401 30.125H14.8601L14.1843 27.3724L14.0021 26.6434C13.9194 26.3126 13.6636 26.0527 13.3342 25.9649C12.4259 25.7227 11.5542 25.3558 10.7436 24.8745C10.4493 24.6997 10.083 24.6994 9.78831 24.8734C9.58644 24.9926 8.08494 25.8929 7.20819 26.4189L5.59163 24.8023L7.13294 22.2333C7.3105 21.9373 7.31106 21.5677 7.13431 21.2711C6.64781 20.4547 6.279 19.5791 6.03837 18.6684C5.95106 18.3381 5.69088 18.0814 5.35944 17.9985C4.68837 17.8308 2.88669 17.3881 1.87494 17.1397V14.8601C2.89631 14.6092 4.721 14.1602 5.36006 13.9985C5.6895 13.9151 5.94806 13.6599 6.03581 13.3316C6.25856 12.4974 6.58719 11.6923 7.01269 10.9387C7.17806 10.6458 7.17381 10.2868 7.00163 9.99788C6.5485 9.2375 5.74662 7.89931 5.27462 7.11212L6.89119 5.4955L7.66744 5.96125C8.60294 6.52256 9.66619 7.1605 9.69494 7.17769C9.99294 7.35581 10.3651 7.35469 10.6619 7.17462C11.4958 6.66913 12.3948 6.28575 13.3342 6.03512C13.6632 5.94737 13.9187 5.68812 14.0017 5.35787C14.0193 5.28781 14.5686 3.05694 14.8597 1.875H17.1403C17.4475 3.12238 17.9916 5.332 17.9981 5.35763C18.0809 5.68813 18.3366 5.94763 18.6659 6.03544C19.5647 6.27519 20.4279 6.63706 21.2315 7.11094C21.5261 7.28475 21.8921 7.28425 22.1863 7.10962C22.4493 6.9535 23.9913 6.02881 24.8804 5.49544L26.4969 7.11194C25.9321 8.05331 24.9268 9.72875 24.8847 9.79887C24.7074 10.0942 24.7064 10.4629 24.882 10.7593C25.3587 11.5638 25.7227 12.4289 25.9638 13.3306C26.0501 13.6536 26.3018 13.9061 26.6244 13.9934C26.8179 14.0458 27.0227 14.0969 27.0261 14.0978L30.125 14.8599V17.14Z" fill="black"/>
</svg>
