<svg width="32" height="32" viewBox="0 0 32 32" fill="none" xmlns="http://www.w3.org/2000/svg">
<g clip-path="url(#clip0_11_8283)">
<path fill-rule="evenodd" clip-rule="evenodd" d="M12.1914 28.1905C12.1914 30.291 13.9004 32 16.0009 32C18.1015 32 19.8105 30.291 19.8105 28.1905C19.8105 26.0899 18.1015 24.381 16.0009 24.381C13.9004 24.381 12.1914 26.0899 12.1914 28.1905ZM12.1914 16C12.1914 18.1006 13.9004 19.8095 16.0009 19.8095C18.1015 19.8095 19.8105 18.1006 19.8105 16C19.8105 13.8994 18.1015 12.1905 16.0009 12.1905C13.9004 12.1905 12.1914 13.8994 12.1914 16ZM16.0009 7.61905C13.9004 7.61905 12.1914 5.9101 12.1914 3.80952C12.1914 1.70895 13.9004 1.90735e-06 16.0009 1.90735e-06C18.1015 1.90735e-06 19.8105 1.70895 19.8105 3.80952C19.8105 5.9101 18.1015 7.61905 16.0009 7.61905Z" fill="black"/>
</g>
<defs>
<clipPath id="clip0_11_8283">
<rect width="32" height="32" fill="white"/>
</clipPath>
</defs>
</svg>
