<svg width="32" height="32" viewBox="0 0 32 32" fill="none" xmlns="http://www.w3.org/2000/svg">
<path fill-rule="evenodd" clip-rule="evenodd" d="M14.5453 5.93571L10.2402 10.2405C9.67229 10.8083 8.75128 10.8085 8.18332 10.2404C7.61528 9.67234 7.61537 8.75142 8.18332 8.18337L14.9712 1.39559C14.9729 1.39404 14.9745 1.39277 14.9761 1.39122C15.0085 1.35913 15.0424 1.32839 15.0778 1.29939C15.0896 1.28962 15.1018 1.28076 15.1141 1.27188C15.1198 1.2678 15.1254 1.26372 15.131 1.25954C15.137 1.25511 15.1429 1.25062 15.1488 1.24613C15.163 1.23539 15.1772 1.22465 15.192 1.21474C15.2084 1.2038 15.2252 1.19397 15.242 1.18412C15.2468 1.18131 15.2516 1.1785 15.2564 1.17566C15.2625 1.17205 15.2685 1.16839 15.2745 1.16473C15.2875 1.15678 15.3005 1.14886 15.3141 1.14162C15.3309 1.13267 15.3482 1.1247 15.3653 1.11672C15.3705 1.11433 15.3757 1.11194 15.3808 1.10953C15.3865 1.10682 15.3922 1.10408 15.3979 1.10133C15.4129 1.09413 15.4278 1.08692 15.4433 1.08053C15.4587 1.07411 15.4745 1.0686 15.4902 1.06309C15.4964 1.06094 15.5025 1.05879 15.5086 1.05658C15.5141 1.05461 15.5196 1.0526 15.5251 1.05059C15.5424 1.04421 15.5599 1.03782 15.5777 1.03244C15.5932 1.0278 15.6088 1.024 15.6244 1.02019C15.6307 1.01867 15.6369 1.01714 15.6432 1.01556C15.6495 1.01397 15.6558 1.01233 15.662 1.0107C15.6798 1.00605 15.6976 1.0014 15.7158 0.997817C15.7345 0.99409 15.7533 0.99152 15.7721 0.988944C15.7783 0.988102 15.7844 0.987259 15.7906 0.986375C15.7977 0.985339 15.8048 0.984211 15.8119 0.983085C15.8267 0.980731 15.8415 0.97838 15.8565 0.976872C15.9014 0.972508 15.9464 0.970278 15.9914 0.970084C15.9928 0.970084 15.9943 0.969987 15.9957 0.96989C15.9971 0.969793 15.9985 0.969696 16 0.969696C16.0014 0.969696 16.0028 0.969793 16.0043 0.96989C16.0057 0.969987 16.0071 0.970084 16.0086 0.970084C16.0536 0.970375 16.0985 0.972508 16.1433 0.976872C16.1591 0.978416 16.1745 0.980889 16.19 0.983358C16.1969 0.984457 16.2038 0.985554 16.2107 0.986569C16.2176 0.987592 16.2246 0.988552 16.2316 0.989511C16.2491 0.991918 16.2666 0.994323 16.2839 0.99772C16.3026 1.00146 16.3209 1.00626 16.3393 1.01107C16.3457 1.01274 16.3521 1.01442 16.3585 1.01605C16.3651 1.01771 16.3717 1.0193 16.3783 1.02088C16.3928 1.02439 16.4074 1.0279 16.4218 1.03224C16.4401 1.03779 16.4579 1.04433 16.4757 1.05087C16.4815 1.05301 16.4873 1.05515 16.4931 1.05726C16.4988 1.05928 16.5044 1.06126 16.51 1.06324C16.5254 1.06866 16.5409 1.07408 16.5561 1.08034C16.572 1.08694 16.5874 1.09435 16.6028 1.10176C16.6089 1.10469 16.6149 1.10762 16.621 1.1105C16.6269 1.11327 16.6328 1.11599 16.6386 1.1187C16.6543 1.12594 16.6698 1.13315 16.6851 1.14133C16.701 1.14984 16.7162 1.15913 16.7314 1.16844C16.7361 1.17134 16.7409 1.17424 16.7457 1.17711C16.7509 1.18027 16.7563 1.18339 16.7616 1.1865C16.777 1.19552 16.7923 1.20452 16.8072 1.21454C16.8249 1.22642 16.8418 1.23921 16.8587 1.25204C16.8632 1.25544 16.8677 1.25886 16.8722 1.26225C16.878 1.26659 16.8838 1.27082 16.8897 1.27506C16.9004 1.28285 16.9112 1.29066 16.9217 1.2992C16.9588 1.32974 16.9946 1.36194 17.0287 1.39597L23.8161 8.18347C24.3841 8.75151 24.3841 9.67244 23.8161 10.2405C23.5321 10.5246 23.1598 10.6666 22.7875 10.6666C22.4154 10.6666 22.0431 10.5245 21.7591 10.2405L17.4544 5.93581V23.7574C17.4544 24.5607 16.8032 25.2119 15.9999 25.2119C15.1966 25.2119 14.5453 24.5607 14.5453 23.7574V5.93571ZM29.0909 16.9697C29.0909 16.1664 29.7422 15.5152 30.5455 15.5152C31.3488 15.5152 32 16.1664 32 16.9697V29.5758C32 30.3791 31.3488 31.0303 30.5455 31.0303H1.45455C0.651248 31.0303 0 30.3791 0 29.5758V16.9697C0 16.1664 0.651248 15.5152 1.45455 15.5152C2.25784 15.5152 2.90909 16.1664 2.90909 16.9697V28.1212H29.0909V16.9697Z" fill="black"/>
</svg>
