<svg width="32" height="32" viewBox="0 0 32 32" fill="none" xmlns="http://www.w3.org/2000/svg">
<path d="M27.4688 30.9844H11.5313C9.59253 30.9844 8.01563 29.4075 8.01563 27.4688V11.5313C8.01563 9.59253 9.59253 8.01563 11.5313 8.01563H27.4688C29.4075 8.01563 30.9844 9.59253 30.9844 11.5313V27.4688C30.9844 29.4075 29.4075 30.9844 27.4688 30.9844ZM11.5313 10.3594C10.8851 10.3594 10.3594 10.8851 10.3594 11.5313V27.4688C10.3594 28.1149 10.8851 28.6406 11.5313 28.6406H27.4688C28.1149 28.6406 28.6406 28.1149 28.6406 27.4688V11.5313C28.6406 10.8851 28.1149 10.3594 27.4688 10.3594H11.5313ZM5.67188 21.6094H4.5C3.85382 21.6094 3.32813 21.0837 3.32813 20.4375V4.5C3.32813 3.85382 3.85382 3.32813 4.5 3.32813H20.4375C21.0837 3.32813 21.6094 3.85382 21.6094 4.5V5.61328H23.9531V4.5C23.9531 2.56128 22.3762 0.984375 20.4375 0.984375H4.5C2.56128 0.984375 0.984375 2.56128 0.984375 4.5V20.4375C0.984375 22.3762 2.56128 23.9531 4.5 23.9531H5.67188V21.6094Z" fill="black"/>
</svg>
