<svg width="32" height="32" viewBox="0 0 32 32" fill="none" xmlns="http://www.w3.org/2000/svg">
<path d="M25.4 30.6941H6.59995V14.0212L4.0549 15.2139L0 8.93567L7.10661 2.56485L12.3973 1.30615L12.7414 1.94026C12.8111 2.05496 13.7769 3.57518 15.9999 3.57518C18.3032 3.57518 19.2474 1.95988 19.2566 1.94356L19.6168 1.30952L24.8933 2.56485L31.9999 8.93567L27.945 15.2139L25.4 14.0212V30.6941ZM8.54289 28.7511H23.457V10.9651L27.2334 12.7347L29.4678 9.27503L23.9638 4.34089L20.4969 3.51605C19.8297 4.29011 18.394 5.51811 16 5.51811C13.606 5.51811 12.1703 4.29011 11.5031 3.51605L8.03624 4.34089L2.53216 9.27503L4.7666 12.7347L8.54295 10.9651V28.7511H8.54289Z" fill="black"/>
</svg>
