<svg width="32" height="32" viewBox="0 0 32 32" fill="none" xmlns="http://www.w3.org/2000/svg">
<path fill-rule="evenodd" clip-rule="evenodd" d="M5.68945 28V4H26.3102V28H5.68945ZM7.25464 26.4348H24.7451L24.745 10.4939H7.25464V26.4348ZM7.25464 8.92872H24.7451V5.5652H7.25464V8.92872ZM9.40206 18.4644C9.40206 14.8205 12.3622 11.8561 16.0007 11.8561C19.6388 11.8561 22.5985 14.8205 22.5985 18.4644C22.5985 22.1082 19.6388 25.0727 16.0007 25.0727C12.3622 25.0727 9.40206 22.1082 9.40206 18.4644ZM10.9672 18.4644C10.9672 21.2452 13.2252 23.5075 16.0007 23.5075C18.7757 23.5075 21.0333 21.2452 21.0333 18.4644C21.0333 15.6836 18.7757 13.4213 16.0007 13.4213C13.2252 13.4213 10.9672 15.6836 10.9672 18.4644ZM12.0684 18.4643H13.6336C13.6336 17.1562 14.6955 16.092 16.0007 16.092V14.5268C13.8324 14.5269 12.0684 16.2932 12.0684 18.4643ZM19.5273 6.46415H22.3861V8.02936H19.5273V6.46415Z" fill="black"/>
</svg>
