<svg width="32" height="32" viewBox="0 0 32 32" fill="none" xmlns="http://www.w3.org/2000/svg">
<g clip-path="url(#clip0_1174_40043)">
<path d="M28.25 32H3.75C1.68213 32 0 30.3179 0 28.25V3.75C0 1.68213 1.68213 0 3.75 0H28.25C30.3179 0 32 1.68213 32 3.75V28.25C32 30.3179 30.3179 32 28.25 32ZM3.75 2.5C3.06079 2.5 2.5 3.06079 2.5 3.75V28.25C2.5 28.9392 3.06079 29.5 3.75 29.5H28.25C28.9392 29.5 29.5 28.9392 29.5 28.25V3.75C29.5 3.06079 28.9392 2.5 28.25 2.5H3.75ZM26.9312 9.45898L25.0686 7.79102L13.5083 20.7014L6.79883 14.3235L5.07642 16.1353L13.6526 24.2881L26.9312 9.45898Z" fill="black"/>
</g>
<defs>
<clipPath id="clip0_1174_40043">
<rect width="32" height="32" fill="white"/>
</clipPath>
</defs>
</svg>
