<svg width="32" height="32" viewBox="0 0 32 32" fill="none" xmlns="http://www.w3.org/2000/svg">
<g clip-path="url(#clip0_1174_40066)">
<path d="M16 0C7.17762 0 0 7.17762 0 16C0 24.8224 7.17762 32 16 32C24.8224 32 32 24.8224 32 16C32 7.17762 24.8224 0 16 0ZM16 29.5384C8.53487 29.5384 2.46156 23.4651 2.46156 16C2.46156 8.53494 8.53487 2.46156 16 2.46156C23.4651 2.46156 29.5384 8.53487 29.5384 16C29.5384 23.4651 23.4651 29.5384 16 29.5384Z" fill="black"/>
<path d="M21.6946 11.0272L13.5392 19.1825L10.3068 15.9503L8.56641 17.6908L13.5392 22.6637L23.435 12.7677L21.6946 11.0272Z" fill="black"/>
</g>
<defs>
<clipPath id="clip0_1174_40066">
<rect width="32" height="32" fill="white"/>
</clipPath>
</defs>
</svg>
