<svg width="32" height="32" viewBox="0 0 32 32" fill="none" xmlns="http://www.w3.org/2000/svg">
<path d="M21.625 12.625C23.1759 12.625 24.4375 11.3634 24.4375 9.8125C24.4375 8.26163 23.1759 7 21.625 7C20.0741 7 18.8125 8.26163 18.8125 9.8125C18.8125 11.3634 20.0741 12.625 21.625 12.625ZM24.1629 17.9754C23.7968 17.6092 23.2033 17.6092 22.8371 17.9754L19.75 21.0625L12.9043 12.5054C12.5552 12.0691 11.9044 12.033 11.5093 12.4281L0 23.875V24.8125C0 25.3374 0.412437 25.75 0.9375 25.75H31.0625C31.325 25.75 31.55 25.6375 31.7375 25.4875L24.1629 17.9754Z" fill="black"/>
</svg>
