<svg width="32" height="32" viewBox="0 0 32 32" fill="none" xmlns="http://www.w3.org/2000/svg">
<path d="M31.3683 31.3102C31.7172 31.3102 31.9999 31.0275 31.9999 30.6786V8.26773C31.9999 7.91885 31.7172 7.63614 31.3683 7.63614H22.0695V3.88174H23.1117C23.9225 3.88174 23.9237 2.6188 23.1117 2.6188H22.0695V1.29605C22.0695 0.48526 20.8065 0.484039 20.8065 1.29605V2.6188H17.3231V1.29605C17.3231 0.48526 16.0602 0.484039 16.0602 1.29605V2.6188H12.5126V1.29605C12.5126 0.48526 11.2497 0.484039 11.2497 1.29605V2.6188H7.6066V1.29605C7.6066 0.48526 6.34341 0.484039 6.34341 1.29605V2.6188H2.93619V1.29605C2.93619 0.48526 1.67325 0.484039 1.67325 1.29605V2.6188H0.608551C-0.20224 2.6188 -0.203461 3.88174 0.608551 3.88174H1.67325V7.28897H0.608551C-0.20224 7.28897 -0.203461 8.55191 0.608551 8.55191H1.67325V12.1952H0.608551C-0.20224 12.1952 -0.203461 13.4582 0.608551 13.4582H1.67325V17.0058H0.608551C-0.20224 17.0058 -0.203461 18.2687 0.608551 18.2687H1.67325V21.7519H0.608551C-0.20224 21.7519 -0.203461 23.015 0.608551 23.015H1.67325V24.0888C1.67325 24.8996 2.93619 24.9008 2.93619 24.0888V23.015H6.34341V24.0888C6.34341 24.8996 7.60635 24.9008 7.60635 24.0888V23.015H8.46133V30.6786C8.46133 31.0275 8.74405 31.3102 9.09292 31.3102H31.3683ZM15.3009 8.89908H19.599V13.3244H15.3009V8.89908ZM30.737 18.974H26.5116V14.5876H30.737V18.974ZM25.2487 18.974H20.8622V14.5876H25.2487V18.974ZM9.72452 14.5876H14.038V18.974H9.72452V14.5876ZM15.3009 14.5876H19.599V18.974H15.3009V14.5876ZM14.0377 13.3244H9.72427V8.89908H14.0377V13.3244ZM9.72452 20.237H14.038V24.5353H9.72452V20.237ZM15.3009 20.237H19.599V24.5353H15.3009V20.237ZM20.8622 24.5353V20.237H25.2487V24.5353H20.8622ZM26.5116 20.237H30.737V24.5353H26.5116V20.237ZM30.737 13.3244H26.5116V8.89908H30.737V13.3244ZM25.2487 13.3244H20.8622V8.89908H25.2487V13.3244ZM9.09292 7.63614C8.74429 7.63614 8.46133 7.91885 8.46133 8.26773V21.7519H7.6066V20.6781C7.6066 19.8673 6.34341 19.8661 6.34341 20.6781V21.7519H2.93619V18.2687H4.01919C4.82999 18.2687 4.83121 17.0058 4.01919 17.0058H2.93619V13.4582H4.01919C4.82999 13.4582 4.83121 12.195 4.01919 12.195H2.93619V8.55191H4.01919C4.82999 8.55191 4.83121 7.28897 4.01919 7.28897H2.93619V3.88174H6.34341V4.70645C6.34341 5.51749 7.6066 5.51871 7.6066 4.70645V3.88174H11.2497V4.70645C11.2497 5.51749 12.5126 5.51871 12.5126 4.70645V3.88174H16.0602V4.70645C16.0602 5.51749 17.3231 5.51871 17.3231 4.70645V3.88174H20.8065V7.63614H9.09292ZM9.72452 25.7982H14.038V30.047H9.72452V25.7982ZM15.3009 25.7982H19.599V30.047H15.3009V25.7982ZM20.8622 25.7982H25.2487V30.047H20.8622V25.7982ZM30.737 30.047H26.5116V25.7985H30.737V30.047Z" fill="black"/>
<path d="M6.55899 7.31241C6.21597 7.31241 5.9274 7.60074 5.9274 7.94375C5.9274 8.28702 6.21597 8.57535 6.55899 8.57535C6.89224 8.57535 7.17447 8.30386 7.18912 7.97134C7.20498 7.61831 6.91324 7.31241 6.55899 7.31241Z" fill="black"/>
</svg>
