<svg width="32" height="32" viewBox="0 0 32 32" fill="none" xmlns="http://www.w3.org/2000/svg">
<path d="M23.3165 3.28271L22.9163 3.68368V3.28271H20.9449C20.0561 4.6562 18.1796 5.60561 16.001 5.60561C13.8232 5.60561 11.9467 4.6562 11.0579 3.28271H9.08652V3.68368L8.68556 3.28271L1.5957 10.3766L5.47384 14.2579L9.08652 10.6436V28.7166H22.9147V10.6444L26.5282 14.2587L30.4055 10.3766L23.3165 3.28271Z" fill="black"/>
<path d="M22.9141 30.3109H9.08592C8.20586 30.3109 7.49162 29.5967 7.49162 28.7167V14.4939L6.6004 15.3851C6.30147 15.6848 5.89572 15.8522 5.47244 15.8522C5.04995 15.8522 4.6434 15.684 4.34447 15.3851L0.466333 11.5038C-0.155444 10.8812 -0.155444 9.87282 0.466333 9.24945L7.55778 2.15561C7.90374 1.80885 8.40356 1.64065 8.88504 1.70123C8.9512 1.69326 9.01816 1.68848 9.08592 1.68848H11.0573C11.5977 1.68848 12.1023 1.9627 12.3957 2.41627C13.023 3.38561 14.438 4.01137 16.0004 4.01137C17.5628 4.01137 18.9785 3.38561 19.6059 2.41627C19.8993 1.9627 20.4031 1.68848 20.9443 1.68848H22.9157C22.9834 1.68848 23.0504 1.69246 23.1166 1.70123C23.1819 1.69326 23.2481 1.68848 23.315 1.68848C23.7375 1.68848 24.1441 1.85668 24.4438 2.15561L31.5337 9.24865C32.1554 9.87122 32.1554 10.8796 31.5337 11.503L27.6563 15.3851C27.3574 15.684 26.9516 15.8522 26.5292 15.8522C26.1067 15.853 25.7001 15.6848 25.4012 15.3859L24.5092 14.4931V28.7167C24.5084 29.5975 23.7949 30.3109 22.9141 30.3109ZM10.6802 27.1223H21.3198V10.6445C21.3198 9.99956 21.708 9.41844 22.3035 9.17133C22.8997 8.92341 23.5845 9.06052 24.0413 9.51729L26.5268 12.0028L28.1514 10.3766L23.0504 5.27246C22.7961 5.29558 22.5458 5.25572 22.3059 5.15688C22.1393 5.08832 21.9886 4.99266 21.8579 4.87708H21.7207C20.4047 6.32789 18.2954 7.19997 16.0004 7.19997C13.7054 7.19997 11.5969 6.32789 10.28 4.87708H10.1429C10.013 4.99266 9.86234 5.08752 9.69574 5.15688C9.4542 5.25652 9.19752 5.2916 8.9496 5.27246L3.84784 10.3774L5.47244 12.0036L7.95715 9.51729C8.41312 9.06052 9.09867 8.92421 9.69494 9.17133C10.2912 9.41844 10.6794 9.99956 10.6794 10.6445V27.1223H10.6802Z" fill="black"/>
</svg>
