<svg width="32" height="32" viewBox="0 0 32 32" fill="none" xmlns="http://www.w3.org/2000/svg">
<path d="M4.69336 6.56836H4C3.65478 6.56836 3.375 6.28857 3.375 5.94336C3.375 5.59814 3.65478 5.31836 4 5.31836H4.69336C5.03833 5.31836 5.31836 5.59814 5.31836 5.94336C5.31836 6.28857 5.03833 6.56836 4.69336 6.56836Z" fill="black"/>
<path d="M7.88672 6.56836H7.19336C6.84814 6.56836 6.56836 6.28857 6.56836 5.94336C6.56836 5.59814 6.84814 5.31836 7.19336 5.31836H7.88672C8.23169 5.31836 8.51172 5.59814 8.51172 5.94336C8.51172 6.28857 8.23169 6.56836 7.88672 6.56836Z" fill="black"/>
<path d="M5.94336 8.51147C5.59814 8.51147 5.31836 8.23169 5.31836 7.88647V7.19336C5.31836 6.84814 5.59814 6.56836 5.94336 6.56836C6.28833 6.56836 6.56836 6.84814 6.56836 7.19336V7.88647C6.56836 8.23169 6.28833 8.51147 5.94336 8.51147Z" fill="black"/>
<path d="M5.94336 5.31836C5.59814 5.31836 5.31836 5.03857 5.31836 4.69336V4C5.31836 3.65478 5.59814 3.375 5.94336 3.375C6.28833 3.375 6.56836 3.65478 6.56836 4V4.69336C6.56836 5.03857 6.28833 5.31836 5.94336 5.31836Z" fill="black"/>
<path d="M14.75 6.56836H14.0566C13.7117 6.56836 13.4316 6.28857 13.4316 5.94336C13.4316 5.59814 13.7117 5.31836 14.0566 5.31836H14.75C15.0952 5.31836 15.375 5.59814 15.375 5.94336C15.375 6.28857 15.0952 6.56836 14.75 6.56836Z" fill="black"/>
<path d="M17.9434 6.56836H17.25C16.9048 6.56836 16.625 6.28857 16.625 5.94336C16.625 5.59814 16.9048 5.31836 17.25 5.31836H17.9434C18.2883 5.31836 18.5684 5.59814 18.5684 5.94336C18.5684 6.28857 18.2883 6.56836 17.9434 6.56836Z" fill="black"/>
<path d="M16 8.51147C15.6548 8.51147 15.375 8.23169 15.375 7.88647V7.19336C15.375 6.84814 15.6548 6.56836 16 6.56836C16.3452 6.56836 16.625 6.84814 16.625 7.19336V7.88647C16.625 8.23169 16.3452 8.51147 16 8.51147Z" fill="black"/>
<path d="M16 5.31836C15.6548 5.31836 15.375 5.03857 15.375 4.69336V4C15.375 3.65478 15.6548 3.375 16 3.375C16.3452 3.375 16.625 3.65478 16.625 4V4.69336C16.625 5.03857 16.3452 5.31836 16 5.31836Z" fill="black"/>
<path d="M24.8066 6.56836H24.1133C23.7683 6.56836 23.4883 6.28857 23.4883 5.94336C23.4883 5.59814 23.7683 5.31836 24.1133 5.31836H24.8066C25.1519 5.31836 25.4316 5.59814 25.4316 5.94336C25.4316 6.28857 25.1519 6.56836 24.8066 6.56836Z" fill="black"/>
<path d="M28 6.56836H27.3066C26.9617 6.56836 26.6816 6.28857 26.6816 5.94336C26.6816 5.59814 26.9617 5.31836 27.3066 5.31836H28C28.3452 5.31836 28.625 5.59814 28.625 5.94336C28.625 6.28857 28.3452 6.56836 28 6.56836Z" fill="black"/>
<path d="M26.0566 8.51147C25.7117 8.51147 25.4316 8.23169 25.4316 7.88647V7.19336C25.4316 6.84814 25.7117 6.56836 26.0566 6.56836C26.4019 6.56836 26.6816 6.84814 26.6816 7.19336V7.88647C26.6816 8.23169 26.4019 8.51147 26.0566 8.51147Z" fill="black"/>
<path d="M26.0566 5.31836C25.7117 5.31836 25.4316 5.03857 25.4316 4.69336V4C25.4316 3.65478 25.7117 3.375 26.0566 3.375C26.4019 3.375 26.6816 3.65478 26.6816 4V4.69336C26.6816 5.03857 26.4019 5.31836 26.0566 5.31836Z" fill="black"/>
<path d="M4.69336 16.625H4C3.65478 16.625 3.375 16.3452 3.375 16C3.375 15.6548 3.65478 15.375 4 15.375H4.69336C5.03833 15.375 5.31836 15.6548 5.31836 16C5.31836 16.3452 5.03833 16.625 4.69336 16.625Z" fill="black"/>
<path d="M7.88672 16.625H7.19336C6.84814 16.625 6.56836 16.3452 6.56836 16C6.56836 15.6548 6.84814 15.375 7.19336 15.375H7.88672C8.23169 15.375 8.51172 15.6548 8.51172 16C8.51172 16.3452 8.23169 16.625 7.88672 16.625Z" fill="black"/>
<path d="M5.94336 18.5684C5.59814 18.5684 5.31836 18.2886 5.31836 17.9434V17.25C5.31836 16.9048 5.59814 16.625 5.94336 16.625C6.28833 16.625 6.56836 16.9048 6.56836 17.25V17.9434C6.56836 18.2886 6.28833 18.5684 5.94336 18.5684Z" fill="black"/>
<path d="M5.94336 15.375C5.59814 15.375 5.31836 15.0952 5.31836 14.75V14.0566C5.31836 13.7114 5.59814 13.4316 5.94336 13.4316C6.28833 13.4316 6.56836 13.7114 6.56836 14.0566V14.75C6.56836 15.0952 6.28833 15.375 5.94336 15.375Z" fill="black"/>
<path d="M14.75 16.625H14.0566C13.7117 16.625 13.4316 16.3452 13.4316 16C13.4316 15.6548 13.7117 15.375 14.0566 15.375H14.75C15.0952 15.375 15.375 15.6548 15.375 16C15.375 16.3452 15.0952 16.625 14.75 16.625Z" fill="black"/>
<path d="M17.9434 16.625H17.25C16.9048 16.625 16.625 16.3452 16.625 16C16.625 15.6548 16.9048 15.375 17.25 15.375H17.9434C18.2883 15.375 18.5684 15.6548 18.5684 16C18.5684 16.3452 18.2883 16.625 17.9434 16.625Z" fill="black"/>
<path d="M16 18.5684C15.6548 18.5684 15.375 18.2886 15.375 17.9434V17.25C15.375 16.9048 15.6548 16.625 16 16.625C16.3452 16.625 16.625 16.9048 16.625 17.25V17.9434C16.625 18.2886 16.3452 18.5684 16 18.5684Z" fill="black"/>
<path d="M16 15.375C15.6548 15.375 15.375 15.0952 15.375 14.75V14.0566C15.375 13.7114 15.6548 13.4316 16 13.4316C16.3452 13.4316 16.625 13.7114 16.625 14.0566V14.75C16.625 15.0952 16.3452 15.375 16 15.375Z" fill="black"/>
<path d="M24.8066 16.625H24.1133C23.7683 16.625 23.4883 16.3452 23.4883 16C23.4883 15.6548 23.7683 15.375 24.1133 15.375H24.8066C25.1519 15.375 25.4316 15.6548 25.4316 16C25.4316 16.3452 25.1519 16.625 24.8066 16.625Z" fill="black"/>
<path d="M28 16.625H27.3066C26.9617 16.625 26.6816 16.3452 26.6816 16C26.6816 15.6548 26.9617 15.375 27.3066 15.375H28C28.3452 15.375 28.625 15.6548 28.625 16C28.625 16.3452 28.3452 16.625 28 16.625Z" fill="black"/>
<path d="M26.0566 18.5684C25.7117 18.5684 25.4316 18.2886 25.4316 17.9434V17.25C25.4316 16.9048 25.7117 16.625 26.0566 16.625C26.4019 16.625 26.6816 16.9048 26.6816 17.25V17.9434C26.6816 18.2886 26.4019 18.5684 26.0566 18.5684Z" fill="black"/>
<path d="M26.0566 15.375C25.7117 15.375 25.4316 15.0952 25.4316 14.75V14.0566C25.4316 13.7114 25.7117 13.4316 26.0566 13.4316C26.4019 13.4316 26.6816 13.7114 26.6816 14.0566V14.75C26.6816 15.0952 26.4019 15.375 26.0566 15.375Z" fill="black"/>
<path d="M4.69336 26.6816H4C3.65478 26.6816 3.375 26.4019 3.375 26.0566C3.375 25.7114 3.65478 25.4316 4 25.4316H4.69336C5.03833 25.4316 5.31836 25.7114 5.31836 26.0566C5.31836 26.4019 5.03833 26.6816 4.69336 26.6816Z" fill="black"/>
<path d="M7.88672 26.6816H7.19336C6.84814 26.6816 6.56836 26.4019 6.56836 26.0566C6.56836 25.7114 6.84814 25.4316 7.19336 25.4316H7.88672C8.23169 25.4316 8.51172 25.7114 8.51172 26.0566C8.51172 26.4019 8.23169 26.6816 7.88672 26.6816Z" fill="black"/>
<path d="M5.94336 28.625C5.59814 28.625 5.31836 28.3452 5.31836 28V27.3066C5.31836 26.9614 5.59814 26.6816 5.94336 26.6816C6.28833 26.6816 6.56836 26.9614 6.56836 27.3066V28C6.56836 28.3452 6.28833 28.625 5.94336 28.625Z" fill="black"/>
<path d="M5.94336 25.4316C5.59814 25.4316 5.31836 25.1519 5.31836 24.8066V24.1135C5.31836 23.7683 5.59814 23.4885 5.94336 23.4885C6.28833 23.4885 6.56836 23.7683 6.56836 24.1135V24.8066C6.56836 25.1519 6.28833 25.4316 5.94336 25.4316Z" fill="black"/>
<path d="M9.72168 11.5967H9.02832C8.68335 11.5967 8.40332 11.3169 8.40332 10.9717C8.40332 10.6265 8.68335 10.3467 9.02832 10.3467H9.72168C10.0666 10.3467 10.3467 10.6265 10.3467 10.9717C10.3467 11.3169 10.0666 11.5967 9.72168 11.5967Z" fill="black"/>
<path d="M12.915 11.5967H12.2217C11.8765 11.5967 11.5967 11.3169 11.5967 10.9717C11.5967 10.6265 11.8765 10.3467 12.2217 10.3467H12.915C13.26 10.3467 13.54 10.6265 13.54 10.9717C13.54 11.3169 13.26 11.5967 12.915 11.5967Z" fill="black"/>
<path d="M10.9717 13.54C10.6265 13.54 10.3467 13.26 10.3467 12.915V12.2217C10.3467 11.8765 10.6265 11.5967 10.9717 11.5967C11.3166 11.5967 11.5967 11.8765 11.5967 12.2217V12.915C11.5967 13.26 11.3166 13.54 10.9717 13.54Z" fill="black"/>
<path d="M10.9717 10.3467C10.6265 10.3467 10.3467 10.0669 10.3467 9.72168V9.02832C10.3467 8.6831 10.6265 8.40332 10.9717 8.40332C11.3166 8.40332 11.5967 8.6831 11.5967 9.02832V9.72168C11.5967 10.0669 11.3166 10.3467 10.9717 10.3467Z" fill="black"/>
<path d="M9.72168 21.6533H9.02832C8.68335 21.6533 8.40332 21.3735 8.40332 21.0283C8.40332 20.6831 8.68335 20.4033 9.02832 20.4033H9.72168C10.0666 20.4033 10.3467 20.6831 10.3467 21.0283C10.3467 21.3735 10.0666 21.6533 9.72168 21.6533Z" fill="black"/>
<path d="M12.915 21.6533H12.2217C11.8765 21.6533 11.5967 21.3735 11.5967 21.0283C11.5967 20.6831 11.8765 20.4033 12.2217 20.4033H12.915C13.26 20.4033 13.54 20.6831 13.54 21.0283C13.54 21.3735 13.26 21.6533 12.915 21.6533Z" fill="black"/>
<path d="M10.9717 23.5967C10.6265 23.5967 10.3467 23.3169 10.3467 22.9717V22.2783C10.3467 21.9331 10.6265 21.6533 10.9717 21.6533C11.3166 21.6533 11.5967 21.9331 11.5967 22.2783V22.9717C11.5967 23.3169 11.3166 23.5967 10.9717 23.5967Z" fill="black"/>
<path d="M10.9717 20.4033C10.6265 20.4033 10.3467 20.1235 10.3467 19.7783V19.0852C10.3467 18.74 10.6265 18.4602 10.9717 18.4602C11.3166 18.4602 11.5967 18.74 11.5967 19.0852V19.7783C11.5967 20.1235 11.3166 20.4033 10.9717 20.4033Z" fill="black"/>
<path d="M22.9717 11.5967H22.2783C21.9333 11.5967 21.6533 11.3169 21.6533 10.9717C21.6533 10.6265 21.9333 10.3467 22.2783 10.3467H22.9717C23.3167 10.3467 23.5967 10.6265 23.5967 10.9717C23.5967 11.3169 23.3167 11.5967 22.9717 11.5967Z" fill="black"/>
<path d="M19.7783 11.5967H19.085C18.74 11.5967 18.46 11.3169 18.46 10.9717C18.46 10.6265 18.74 10.3467 19.085 10.3467H19.7783C20.1235 10.3467 20.4033 10.6265 20.4033 10.9717C20.4033 11.3169 20.1235 11.5967 19.7783 11.5967Z" fill="black"/>
<path d="M21.0283 13.54C20.6833 13.54 20.4033 13.26 20.4033 12.915V12.2217C20.4033 11.8765 20.6833 11.5967 21.0283 11.5967C21.3735 11.5967 21.6533 11.8765 21.6533 12.2217V12.915C21.6533 13.26 21.3735 13.54 21.0283 13.54Z" fill="black"/>
<path d="M21.0283 10.3467C20.6833 10.3467 20.4033 10.0669 20.4033 9.72168V9.02832C20.4033 8.6831 20.6833 8.40332 21.0283 8.40332C21.3735 8.40332 21.6533 8.6831 21.6533 9.02832V9.72168C21.6533 10.0669 21.3735 10.3467 21.0283 10.3467Z" fill="black"/>
<path d="M22.9717 21.6533H22.2783C21.9333 21.6533 21.6533 21.3735 21.6533 21.0283C21.6533 20.6831 21.9333 20.4033 22.2783 20.4033H22.9717C23.3167 20.4033 23.5967 20.6831 23.5967 21.0283C23.5967 21.3735 23.3167 21.6533 22.9717 21.6533Z" fill="black"/>
<path d="M19.7783 21.6533H19.085C18.74 21.6533 18.46 21.3735 18.46 21.0283C18.46 20.6831 18.74 20.4033 19.085 20.4033H19.7783C20.1235 20.4033 20.4033 20.6831 20.4033 21.0283C20.4033 21.3735 20.1235 21.6533 19.7783 21.6533Z" fill="black"/>
<path d="M21.0283 23.5967C20.6833 23.5967 20.4033 23.3169 20.4033 22.9717V22.2783C20.4033 21.9331 20.6833 21.6533 21.0283 21.6533C21.3735 21.6533 21.6533 21.9331 21.6533 22.2783V22.9717C21.6533 23.3169 21.3735 23.5967 21.0283 23.5967Z" fill="black"/>
<path d="M21.0283 20.4033C20.6833 20.4033 20.4033 20.1235 20.4033 19.7783V19.0852C20.4033 18.74 20.6833 18.4602 21.0283 18.4602C21.3735 18.4602 21.6533 18.74 21.6533 19.0852V19.7783C21.6533 20.1235 21.3735 20.4033 21.0283 20.4033Z" fill="black"/>
<path d="M14.75 26.6816H14.0566C13.7117 26.6816 13.4316 26.4019 13.4316 26.0566C13.4316 25.7114 13.7117 25.4316 14.0566 25.4316H14.75C15.0952 25.4316 15.375 25.7114 15.375 26.0566C15.375 26.4019 15.0952 26.6816 14.75 26.6816Z" fill="black"/>
<path d="M17.9434 26.6816H17.25C16.9048 26.6816 16.625 26.4019 16.625 26.0566C16.625 25.7114 16.9048 25.4316 17.25 25.4316H17.9434C18.2883 25.4316 18.5684 25.7114 18.5684 26.0566C18.5684 26.4019 18.2883 26.6816 17.9434 26.6816Z" fill="black"/>
<path d="M16 28.625C15.6548 28.625 15.375 28.3452 15.375 28V27.3066C15.375 26.9614 15.6548 26.6816 16 26.6816C16.3452 26.6816 16.625 26.9614 16.625 27.3066V28C16.625 28.3452 16.3452 28.625 16 28.625Z" fill="black"/>
<path d="M16 25.4316C15.6548 25.4316 15.375 25.1519 15.375 24.8066V24.1135C15.375 23.7683 15.6548 23.4885 16 23.4885C16.3452 23.4885 16.625 23.7683 16.625 24.1135V24.8066C16.625 25.1519 16.3452 25.4316 16 25.4316Z" fill="black"/>
<path d="M24.8066 26.6816H24.1133C23.7683 26.6816 23.4883 26.4019 23.4883 26.0566C23.4883 25.7114 23.7683 25.4316 24.1133 25.4316H24.8066C25.1519 25.4316 25.4316 25.7114 25.4316 26.0566C25.4316 26.4019 25.1519 26.6816 24.8066 26.6816Z" fill="black"/>
<path d="M28 26.6816H27.3066C26.9617 26.6816 26.6816 26.4019 26.6816 26.0566C26.6816 25.7114 26.9617 25.4316 27.3066 25.4316H28C28.3452 25.4316 28.625 25.7114 28.625 26.0566C28.625 26.4019 28.3452 26.6816 28 26.6816Z" fill="black"/>
<path d="M26.0566 28.625C25.7117 28.625 25.4316 28.3452 25.4316 28V27.3066C25.4316 26.9614 25.7117 26.6816 26.0566 26.6816C26.4019 26.6816 26.6816 26.9614 26.6816 27.3066V28C26.6816 28.3452 26.4019 28.625 26.0566 28.625Z" fill="black"/>
<path d="M26.0566 25.4316C25.7117 25.4316 25.4316 25.1519 25.4316 24.8066V24.1135C25.4316 23.7683 25.7117 23.4885 26.0566 23.4885C26.4019 23.4885 26.6816 23.7683 26.6816 24.1135V24.8066C26.6816 25.1519 26.4019 25.4316 26.0566 25.4316Z" fill="black"/>
<path d="M29.7451 32C29.1519 32 28.5942 31.769 28.1748 31.3496L28.1406 31.3154C27.762 30.9368 27.1462 30.9368 26.7678 31.3152L26.7334 31.3499C26.3142 31.769 25.7566 32 25.1633 32C24.5703 32 24.0127 31.769 23.5933 31.3496L23.5591 31.3154C23.1804 30.9368 22.5647 30.9368 22.186 31.3152L22.1521 31.3494C21.7324 31.769 21.1748 32 20.5815 32C19.9885 32 19.4309 31.769 19.0115 31.3496L18.9771 31.3149C18.5986 30.9368 17.9829 30.9368 17.6045 31.3152L17.5698 31.3499C17.1506 31.769 16.593 32 16 32C15.4067 32 14.8491 31.769 14.4297 31.3496L14.3955 31.3154C14.0168 30.9368 13.4011 30.9368 13.0227 31.3152L12.9885 31.3494C12.5691 31.769 12.0115 32 11.4182 32C10.825 32 10.2673 31.769 9.8479 31.3496L9.81348 31.3149C9.63037 31.1318 9.38672 31.031 9.1272 31.031C8.86816 31.031 8.62427 31.1321 8.44116 31.3152L8.40698 31.3494C7.9873 31.769 7.42969 32 6.83643 32C6.24341 32 5.68579 31.769 5.26636 31.3496L5.23218 31.3154C4.85352 30.9368 4.23779 30.9368 3.85938 31.3152L3.82471 31.3499C3.40576 31.769 2.84814 32 2.25488 32C1.66187 32 1.104 31.769 0.68457 31.3496L0.650146 31.3149C-0.215332 30.4495 -0.215332 29.0408 0.650391 28.1748L0.68457 28.1409C0.868164 27.9573 0.968994 27.7134 0.968994 27.4543C0.968994 27.1951 0.868164 26.9512 0.68457 26.7678L0.650146 26.7334C-0.215332 25.8677 -0.215332 24.459 0.650391 23.5933L0.68457 23.5591C0.868164 23.3755 0.968994 23.1318 0.968994 22.8726C0.968994 22.6133 0.868164 22.3696 0.684814 22.1863L0.650146 22.1516C-0.215332 21.2861 -0.215332 19.8772 0.650391 19.0115L0.68457 18.9773C0.868164 18.7937 0.968994 18.55 0.968994 18.2908C0.968994 18.0317 0.868164 17.7878 0.684814 17.6047L0.650146 17.5701C-0.215332 16.7043 -0.215332 15.2957 0.650391 14.4299L0.68457 14.3958C0.868164 14.2122 0.968994 13.9685 0.968994 13.7092C0.968994 13.45 0.868164 13.2063 0.684814 13.0229L0.650146 12.9883C0.230957 12.5691 0 12.0115 0 11.4185C0 10.8252 0.230957 10.2676 0.650391 9.84814L0.68457 9.81396C0.868164 9.63062 0.968994 9.38672 0.968994 9.12744C0.968994 8.86841 0.868164 8.62451 0.684814 8.44116L0.650146 8.40674C-0.215332 7.54102 -0.215332 6.13232 0.650391 5.2666L0.68457 5.23242C0.868164 5.04883 0.968994 4.80518 0.968994 4.5459C0.968994 4.28662 0.868164 4.04297 0.684814 3.85962L0.649902 3.82471C-0.215332 2.95923 -0.215332 1.55054 0.650391 0.684814L0.68457 0.650635C1.104 0.230957 1.66187 0 2.25488 0C2.84814 0 3.40576 0.230957 3.8252 0.650391L3.85938 0.68457C4.23804 1.06323 4.85376 1.06323 5.23218 0.684814L5.2666 0.650146C5.68579 0.230957 6.24341 0 6.83667 0C7.42969 0 7.98755 0.230957 8.40698 0.650391L8.44141 0.685059C8.62451 0.868164 8.86816 0.968994 9.12744 0.968994C9.38672 0.968994 9.63062 0.86792 9.81372 0.684814L9.8479 0.650635C10.2676 0.230957 10.8252 0 11.4182 0C12.0115 0 12.5691 0.230957 12.9885 0.650391L13.0227 0.68457C13.2063 0.868164 13.45 0.968994 13.7092 0.968994C13.9683 0.968994 14.2122 0.868164 14.3953 0.684814L14.4299 0.650146C14.8494 0.230957 15.407 0 16 0C16.593 0 17.1506 0.230957 17.5701 0.650391L17.6045 0.68457C17.9829 1.06323 18.5986 1.06323 18.9773 0.684814L19.0112 0.650635C19.4309 0.230957 19.9885 0 20.5818 0C21.1748 0 21.7324 0.230957 22.1519 0.650391L22.1865 0.685059C22.5647 1.06323 23.1804 1.06323 23.5588 0.684814L23.5935 0.650146C24.0127 0.230957 24.5703 0 25.1633 0C25.7566 0 26.3142 0.230957 26.7336 0.650391L26.7678 0.68457C27.1465 1.06323 27.7622 1.06323 28.1404 0.684814L28.175 0.650146C28.5942 0.230957 29.1519 0 29.7451 0C30.3381 0 30.896 0.230957 31.3154 0.650391L31.3499 0.685059C32.2153 1.55054 32.2153 2.95923 31.3496 3.8252L31.3154 3.85913C31.1318 4.04272 31.031 4.28662 31.031 4.54565C31.031 4.80493 31.1318 5.04883 31.3154 5.23218L31.3499 5.2666C32.2153 6.13232 32.2153 7.54102 31.3496 8.40674L31.3154 8.44092C31.1318 8.62451 31.031 8.86816 31.031 9.12744C31.031 9.38672 31.1318 9.63037 31.3152 9.81372L31.3499 9.84839C32.2153 10.7139 32.2153 12.1228 31.3496 12.9885L31.3154 13.0227C31.1318 13.2063 31.031 13.45 31.031 13.7092C31.031 13.9683 31.1318 14.2122 31.3152 14.3955L31.3499 14.4299C32.2153 15.2957 32.2153 16.7043 31.3496 17.5701L31.3154 17.6042C31.1318 17.7878 31.031 18.0315 31.031 18.2908C31.031 18.55 31.1318 18.7937 31.3152 18.9771L31.3499 19.0117C32.2153 19.8772 32.2153 21.2861 31.3496 22.1519L31.3154 22.186C31.1318 22.3696 31.031 22.6133 31.031 22.8726C31.031 23.1316 31.1318 23.3755 31.3152 23.5588L31.3499 23.5933C32.2153 24.459 32.2153 25.8677 31.3496 26.7334L31.3154 26.7676C31.1318 26.9512 31.031 27.1948 31.031 27.4541C31.031 27.7134 31.1318 27.957 31.3154 28.1404L31.3499 28.175C32.2153 29.0405 32.2156 30.4492 31.3499 31.3149L31.3154 31.3494C30.896 31.769 30.3381 32 29.7451 32ZM27.4543 29.781C28.0474 29.781 28.605 30.012 29.0244 30.4314L29.0586 30.4656C29.2422 30.6492 29.4858 30.75 29.7451 30.75C30.0044 30.75 30.248 30.6492 30.4314 30.4656L30.4656 30.4316C30.8442 30.0532 30.8442 29.4373 30.4656 29.0588L30.4312 29.0242C30.012 28.605 29.781 28.0474 29.781 27.4543C29.781 26.8611 30.012 26.3035 30.4314 25.884L30.4656 25.8499C30.8442 25.4712 30.8442 24.8555 30.4656 24.4771L30.4312 24.4424C30.012 24.0232 29.781 23.4656 29.781 22.8726C29.781 22.2793 30.012 21.7217 30.4314 21.3022L30.4656 21.2681C30.8442 20.8894 30.8442 20.2737 30.4656 19.8953L30.4312 19.8608C30.012 19.4417 29.781 18.884 29.781 18.2908C29.781 17.6975 30.012 17.1399 30.4314 16.7205L30.4656 16.6865C30.8442 16.3079 30.8442 15.6919 30.4656 15.3135L30.4312 15.2791C30.012 14.8599 29.781 14.3022 29.781 13.709C29.781 13.116 30.012 12.5583 30.4314 12.1389L30.4656 12.1047C30.8442 11.7261 30.8442 11.1104 30.4656 10.7319L30.4312 10.6973C30.012 10.2781 29.781 9.72046 29.781 9.1272C29.781 8.53418 30.012 7.97656 30.4314 7.55713L30.4656 7.52295C30.8442 7.14429 30.8442 6.52856 30.4656 6.15015L30.4312 6.11572C30.012 5.69629 29.781 5.13867 29.781 4.54565C29.781 3.95239 30.012 3.39478 30.4314 2.97534L30.4656 2.94116C30.8442 2.56274 30.8442 1.94678 30.4656 1.56836L30.4312 1.53394C30.248 1.35083 30.0044 1.24976 29.7451 1.24976C29.4858 1.24976 29.2419 1.35083 29.0588 1.53418L29.0242 1.5686C28.605 1.98779 28.0474 2.21875 27.4541 2.21875C26.8611 2.21875 26.3035 1.98779 25.884 1.56836L25.8499 1.53442C25.6663 1.35083 25.4226 1.25 25.1633 1.25C24.9041 1.25 24.6604 1.35083 24.4771 1.53418L24.4426 1.56885C23.5769 2.43433 22.168 2.43433 21.3025 1.5686L21.2678 1.53418C21.0847 1.35083 20.8408 1.25 20.5815 1.25C20.3225 1.25 20.0786 1.35083 19.8953 1.53418L19.8613 1.56836C18.9951 2.43433 17.5864 2.43433 16.7207 1.5686L16.6865 1.53442C16.5029 1.35083 16.2593 1.25 16 1.25C15.7407 1.25 15.4971 1.35083 15.3137 1.53418L15.2793 1.56885C14.4133 2.43433 13.0049 2.43433 12.1389 1.5686L12.1047 1.53442C11.9214 1.35083 11.6775 1.25 11.4182 1.25C11.1592 1.25 10.9153 1.35083 10.7319 1.53418L10.6978 1.56836C9.83203 2.43433 8.4231 2.43433 7.55713 1.5686L7.52271 1.53394C7.3396 1.35083 7.09595 1.25 6.83667 1.25C6.57739 1.25 6.3335 1.35083 6.15039 1.53418L6.11572 1.56885C5.69653 1.98804 5.13892 2.21899 4.54565 2.21899C3.95264 2.21899 3.39502 1.98804 2.97559 1.5686L2.94141 1.53442C2.75806 1.35083 2.51416 1.25 2.25488 1.25C1.99561 1.25 1.75195 1.35083 1.5686 1.53442L1.53442 1.56836C1.15576 1.94702 1.15576 2.56274 1.53442 2.94116L1.5686 2.97559C1.98804 3.39502 2.21899 3.95264 2.21899 4.5459C2.21899 5.13892 1.98804 5.69653 1.5686 6.11597L1.53442 6.15015C1.15576 6.52881 1.15576 7.14453 1.53442 7.52295L1.56885 7.55762C1.98804 7.97681 2.21899 8.53442 2.21899 9.12744C2.21899 9.7207 1.98804 10.2783 1.5686 10.6978L1.53442 10.7319C1.15576 11.1106 1.15576 11.7263 1.53442 12.1047L1.56885 12.1392C1.98804 12.5583 2.21899 13.116 2.21899 13.7092C2.21899 14.3025 1.98804 14.8601 1.5686 15.2795L1.53442 15.3135C1.15576 15.6921 1.15576 16.3081 1.53442 16.6865L1.56885 16.7209C1.98804 17.1401 2.21899 17.6978 2.21899 18.291C2.21899 18.884 1.98804 19.4417 1.5686 19.8611L1.53442 19.8953C1.15576 20.2739 1.15576 20.8896 1.53442 21.2681L1.56885 21.3027C1.98804 21.7219 2.21899 22.2795 2.21899 22.8728C2.21899 23.4658 1.98804 24.0234 1.5686 24.4429L1.53442 24.4771C1.15576 24.8557 1.15576 25.4714 1.53442 25.8499L1.56885 25.8843C1.98804 26.3037 2.21899 26.8613 2.21899 27.4543C2.21899 28.0476 1.98804 28.6052 1.5686 29.0247L1.53442 29.0588C1.15576 29.4373 1.15576 30.0532 1.53442 30.4316L1.56885 30.4661C1.75195 30.6492 1.99561 30.7502 2.25488 30.7502C2.51416 30.7502 2.75806 30.6492 2.94116 30.4658L2.97583 30.4314C3.39502 30.0122 3.95264 29.7812 4.5459 29.7812C5.13892 29.7812 5.69653 30.0122 6.11597 30.4316L6.15015 30.4656C6.33374 30.6492 6.57739 30.7502 6.83667 30.7502C7.09595 30.7502 7.3396 30.6492 7.52295 30.4658L7.55713 30.4316C8.4231 29.5657 9.83179 29.5657 10.6978 30.4316L10.7322 30.4661C10.9153 30.6492 11.1592 30.7502 11.4185 30.7502C11.6775 30.7502 11.9214 30.6492 12.1047 30.4658L12.1387 30.4319C13.0049 29.5659 14.4136 29.5659 15.2793 30.4316L15.3135 30.4658C15.4971 30.6494 15.7407 30.7502 16 30.7502C16.2593 30.7502 16.5029 30.6494 16.6863 30.4661L16.7207 30.4314C17.5864 29.5659 18.9954 29.5659 19.8611 30.4316L19.8955 30.4663C20.0786 30.6494 20.3225 30.7502 20.5818 30.7502C20.8408 30.7502 21.0847 30.6494 21.2681 30.4661L21.3022 30.4319C22.1682 29.5659 23.5769 29.5659 24.4429 30.4316L24.4771 30.4658C24.6604 30.6494 24.9043 30.7502 25.1633 30.7502C25.4226 30.7502 25.6663 30.6494 25.8496 30.4661L25.8843 30.4314C26.3035 30.012 26.8611 29.781 27.4543 29.781Z" fill="black"/>
</svg>
