<svg width="32" height="32" viewBox="0 0 32 32" fill="none" xmlns="http://www.w3.org/2000/svg">
<path d="M29.385 18.6213C29.6033 18.7025 29.831 18.7432 30.0578 18.7432C30.5586 18.7432 31.0542 18.5483 31.4304 18.1722C31.7974 17.8052 31.9996 17.3174 31.9996 16.7986C31.9996 16.5204 31.9406 16.2493 31.8281 16.0005C31.941 15.7513 32 15.4797 32 15.2013C31.9994 14.6824 31.7973 14.1947 31.4309 13.8282C30.8837 13.2811 30.084 13.1188 29.3848 13.3792L28.6912 12.6857L30.6324 10.7445C30.9988 10.378 31.2009 9.89038 31.2015 9.37088C31.2015 8.85219 30.9994 8.36431 30.6323 7.99725L28.64 6.00494C29.0586 5.26213 28.9479 4.31219 28.3179 3.68213C27.9514 3.31563 27.4637 3.1135 26.9442 3.11294C26.6081 3.11294 26.2825 3.199 25.9952 3.36013L24.0028 1.36769C23.6357 1.00062 23.1479 0.7985 22.6287 0.7985C22.1096 0.799062 21.6221 1.00119 21.2555 1.36762L19.3144 3.30881L18.6204 2.61488C18.8809 1.91431 18.7184 1.11581 18.1718 0.569188C17.8053 0.202688 17.3176 0.0005625 16.7982 0C16.5202 0 16.2487 0.059 15.9995 0.171937C15.7508 0.0594375 15.4796 0.0004375 15.2015 0.0004375C14.6827 0.0004375 14.1949 0.202563 13.8279 0.569625C13.2814 1.11606 13.1191 1.91419 13.3793 2.6145L12.6853 3.3085L11.7706 2.39387C11.7727 2.35631 11.7742 2.31862 11.7742 2.28069C11.7742 1.76156 11.5721 1.27375 11.2052 0.907313C10.8381 0.54025 10.3502 0.338125 9.83125 0.338125C9.44306 0.338125 9.06875 0.452 8.74881 0.667437C8.53406 0.812063 8.47719 1.10331 8.62181 1.31806C8.76644 1.53281 9.05775 1.58969 9.27244 1.44506C9.43706 1.33425 9.63031 1.27562 9.83125 1.27562C10.0998 1.27562 10.3523 1.38025 10.5425 1.57037C10.7322 1.75994 10.8368 2.01219 10.8368 2.28069C10.8368 2.54931 10.7322 2.80181 10.5424 2.99163L2.99113 10.5422C2.59919 10.9341 1.96156 10.9341 1.56963 10.5422C1.17775 10.1503 1.17775 9.51269 1.56963 9.12075L7.9965 2.69388C8.17956 2.51081 8.17956 2.21406 7.9965 2.031C7.81344 1.84794 7.51662 1.84794 7.33362 2.031L6.00469 3.35987C5.26194 2.94144 4.31213 3.05219 3.68213 3.68213C3.31563 4.04862 3.1135 4.53625 3.11294 5.05575C3.11294 5.39181 3.19894 5.71731 3.36 6.00456L0.906625 8.45794C0.149187 9.21537 0.149187 10.4478 0.906625 11.2052C1.28537 11.584 1.78275 11.7734 2.28031 11.7733C2.31788 11.7733 2.35538 11.7719 2.39287 11.7697L3.30844 12.6853L2.614 13.3797C1.91375 13.1195 1.11556 13.2819 0.569125 13.8282C0.202125 14.1952 0 14.6831 0 15.2024C0.0005625 15.7209 0.202312 16.2081 0.568125 16.5744C0.634375 16.9732 0.823062 17.3429 1.11056 17.6304C1.39856 17.9184 1.76837 18.1071 2.16669 18.173L3.30844 19.3148L1.36731 21.2559C0.609875 22.0133 0.609875 23.2457 1.36731 24.0031L3.35987 25.9957C3.19894 26.2829 3.113 26.6084 3.113 26.9447C3.11356 27.4637 3.31569 27.9513 3.68219 28.3178C4.06225 28.6979 4.55881 28.8891 5.05606 28.8891C5.38294 28.8891 5.71 28.8063 6.00462 28.6404L7.99687 30.6327C8.36369 30.9995 8.8515 31.2016 9.3705 31.2016C9.8895 31.2016 10.3773 30.9996 10.7441 30.6327L12.6853 28.6916L13.8271 29.8334C13.893 30.2319 14.0817 30.6016 14.3697 30.8894C14.657 31.1768 15.0265 31.3654 15.4256 31.4318C15.792 31.7976 16.2792 31.9994 16.7983 32C17.3169 32 17.8048 31.7979 18.1719 31.4308C18.7183 30.8844 18.8808 30.0862 18.6205 29.3859L19.3149 28.6916L20.2295 29.6062C20.2274 29.6438 20.2259 29.6816 20.2259 29.7196C20.2259 30.2385 20.428 30.7263 20.7949 31.0933C21.1619 31.4602 21.6497 31.6623 22.1686 31.6623C22.6875 31.6623 23.1754 31.4602 23.5423 31.0933L25.9956 28.64C26.2828 28.8011 26.6084 28.8871 26.9448 28.8871C27.4639 28.8865 27.9515 28.6844 28.318 28.3179C28.9479 27.6879 29.0587 26.7381 28.6402 25.9954L31.0931 23.5425C31.8506 22.7851 31.8506 21.5526 31.0931 20.7951C30.6859 20.388 30.1416 20.2001 29.6074 20.2306L28.6917 19.3149L29.385 18.6213ZM4.0505 5.05625C4.05075 4.78731 4.15538 4.53475 4.34506 4.34506C4.60113 4.089 4.95919 3.99944 5.28725 4.07737L4.07812 5.28644C4.06056 5.21156 4.0505 5.13462 4.0505 5.05625ZM30.2148 17.7915L31.0484 16.9579C31.0154 17.1656 30.9193 17.3575 30.7675 17.5093C30.6125 17.6643 30.4182 17.759 30.2148 17.7915ZM30.7679 14.4911C30.9576 14.6808 31.0622 14.9334 31.0625 15.2018C31.0625 15.3962 31.0072 15.5839 30.9026 15.7446C30.8987 15.7505 30.895 15.7565 30.8914 15.7625C30.8552 15.8163 30.8137 15.8667 30.7678 15.9125L28.0286 18.6518L26.6068 17.2299L29.3461 14.4906C29.4028 14.4339 29.4645 14.3853 29.5326 14.3441C29.9297 14.1004 30.4376 14.1609 30.7679 14.4911ZM22.6292 18.7477L23.1963 19.3148L22.6292 19.8818L22.0623 19.3149L22.6292 18.7477ZM22.6292 26.5114L22.0621 25.9443L22.6295 25.3768L23.1967 25.9439L22.6292 26.5114ZM23.8596 25.2811L23.2924 24.7139L24.7139 23.2926L25.281 23.8597L23.8596 25.2811ZM25.944 23.1967L25.3769 22.6296L25.9439 22.0625L26.5111 22.6296L25.944 23.1967ZM21.3991 25.2814L19.9772 23.8595L23.8591 19.9777L25.2809 21.3995L21.3991 25.2814ZM13.9929 28.6734L10.0334 24.7139L11.4548 23.2924L15.3367 27.1743L14.3693 28.1418C14.2128 28.2982 14.0866 28.4784 13.9929 28.6734ZM7.48381 28.7938L3.20531 24.5153C3.53875 24.4338 3.85462 24.2631 4.11462 24.0031L4.82575 23.292L8.70806 27.1743L7.99694 27.8854C7.74225 28.14 7.56725 28.4529 7.48381 28.7938ZM6.62325 16L6.05575 16.5675L5.48863 16.0004L6.05619 15.4329L6.62325 16ZM9.37044 6.62325L8.80338 6.05619L9.3705 5.48912L9.93756 6.05613L9.37044 6.62325ZM8.70756 7.28613L7.28613 8.70756L6.719 8.14044L8.1405 6.71906L8.70756 7.28613ZM6.62325 9.37044L6.05575 9.93794L5.48856 9.37075L6.05613 8.80325L6.62325 9.37044ZM10.6005 6.719L12.0224 8.14087L8.1405 12.0227L6.71863 10.6009L10.6005 6.719ZM18.0843 3.40469L21.9661 7.28656L20.5447 8.708L16.6629 4.82613L18.0843 3.40469ZM24.5159 3.20669L28.7933 7.48406C28.4524 7.56756 28.1396 7.74263 27.885 7.99719L27.1743 8.70788L23.2921 4.82556L24.0028 4.11487C24.2573 3.86037 24.4324 3.54756 24.5159 3.20669ZM25.3764 9.37088L25.9439 8.80338L26.5114 9.37088L25.9439 9.93838L25.3764 9.37088ZM21.3991 12.0223L19.9777 10.6009L23.8596 6.71906L25.281 8.1405L21.3991 12.0223ZM19.8819 9.37081L19.3148 9.93794L18.7472 9.37044L19.3144 8.80331L19.8819 9.37081ZM22.6291 5.48856L23.1966 6.05606L22.6291 6.62356L22.0616 6.05606L22.6291 5.48856ZM16 5.489L16.5671 6.05613L16 6.62319L15.4329 6.05606L16 5.489ZM17.2301 6.71906L18.6514 8.14044L14.7696 12.0223L13.3481 10.6009L17.2301 6.71906ZM14.7696 18.6519L13.3481 17.2304L17.23 13.3486L18.6514 14.7699L14.7696 18.6519ZM12.1178 22.6295L12.6853 22.062L13.2528 22.6295L12.6853 23.197L12.1178 22.6295ZM8.14044 25.281L6.719 23.8596L10.6009 19.9777L12.0223 21.3991L8.14044 25.281ZM9.37044 18.7472L9.93794 19.3148L9.37044 19.8822L8.80294 19.3148L9.37044 18.7472ZM13.9156 21.9666L10.0334 18.0844L11.4548 16.6629L15.3371 20.5452L13.9156 21.9666ZM10.0338 11.4552L11.4552 10.0338L15.3371 13.9157L13.9157 15.3371L10.0338 11.4552ZM13.2528 16L12.6853 16.5675L12.1178 16L12.6853 15.4325L13.2528 16ZM16 19.8822L15.4325 19.3148L16 18.7472L16.5675 19.3148L16 19.8822ZM16 13.2528L15.4325 12.6853L15.9996 12.1181L16.5671 12.6856L16 13.2528ZM12.6853 9.938L12.1181 9.37088L12.6853 8.80375L13.2524 9.37088L12.6853 9.938ZM9.37088 12.1181L9.938 12.6853L9.37044 13.2528L8.80331 12.6857L9.37088 12.1181ZM10.6009 13.3481L12.0223 14.7696L8.14 18.6519L6.71856 17.2304L10.6009 13.3481ZM4.82569 16.6633L8.70756 20.5452L7.28613 21.9666L3.32681 18.0073C3.52175 17.9136 3.70187 17.7872 3.85825 17.6308L4.82569 16.6633ZM6.62325 22.6296L6.05613 23.1967L5.48863 22.6292L6.05575 22.0621L6.62325 22.6296ZM9.37088 26.5114L8.80338 25.9439L9.3705 25.3768L9.938 25.9443L9.37088 26.5114ZM15.9996 26.5114L15.4325 25.9443L16 25.3768L16.5671 25.9439L15.9996 26.5114ZM14.7696 25.2814L13.3481 23.8599L17.2304 19.9777L18.6519 21.3991L14.7696 25.2814ZM19.3148 22.062L19.8818 22.6291L19.3143 23.1966L18.7472 22.6295L19.3148 22.062ZM21.9662 20.5448L20.5448 21.9661L16.6629 18.0842L18.0844 16.6629L21.9662 20.5448ZM18.7472 16L19.3144 15.4329L19.8819 16.0004L19.3148 16.5675L18.7472 16ZM20.5448 15.3375L16.6625 11.4552L18.0843 10.0334L21.9666 13.9156L20.5448 15.3375ZM22.6295 13.2528L22.062 12.6853L22.6291 12.1181L23.1966 12.6856L22.6295 13.2528ZM23.2921 11.4552L24.7134 10.0338L28.5952 13.9157L27.1738 15.3371L23.2921 11.4552ZM26.511 16L25.9439 16.5671L25.3768 15.9999L25.9438 15.4328L26.511 16ZM30.264 9.37037C30.2637 9.63931 30.1591 9.89194 29.9694 10.0816L28.0282 12.0227L26.6068 10.6014L28.548 8.66019C28.7379 8.47025 28.9903 8.36563 29.2587 8.36563C29.527 8.36563 29.7794 8.47025 29.9694 8.66019C30.1594 8.85013 30.264 9.10256 30.264 9.37037ZM27.6549 4.34506C27.9111 4.60119 28.0006 4.95931 27.9226 5.2875L26.7133 4.07825C26.7882 4.06063 26.8653 4.0505 26.9438 4.0505C27.2127 4.05075 27.4653 4.15538 27.6549 4.34506ZM21.9184 2.03063C22.1081 1.84094 22.3606 1.73637 22.6291 1.73606C22.8974 1.73606 23.1498 1.84069 23.3398 2.03063L23.3404 2.03125C23.53 2.22113 23.6344 2.47325 23.6344 2.74131C23.6344 3.00962 23.5298 3.26206 23.3398 3.45206L21.3988 5.39319L19.9773 3.97175L21.9184 2.03063ZM14.4908 1.2325C14.6425 1.08075 14.8344 0.984563 15.0421 0.951563L14.2085 1.78519C14.241 1.58181 14.3357 1.3875 14.4908 1.2325ZM16.0874 1.23206C16.1333 1.18619 16.1838 1.14462 16.2376 1.10837C16.2436 1.10487 16.2494 1.10119 16.2553 1.09744C16.416 0.992813 16.6037 0.9375 16.7976 0.9375C17.0666 0.937813 17.3191 1.04244 17.5088 1.23206C17.8391 1.56237 17.8996 2.07031 17.6538 2.47044C17.6146 2.53544 17.566 2.59713 17.5092 2.65388L14.77 5.39319L13.3481 3.97137L16.0874 1.23206ZM11.2052 3.65456C11.2901 3.56969 11.3657 3.47813 11.4324 3.38144L15.3371 7.28613L13.9152 8.708L10.0335 4.82625L11.2052 3.65456ZM3.65394 11.2052L4.82556 10.0336L8.7075 13.9156L7.28606 15.3371L3.38094 11.4319C3.477 11.3658 3.56862 11.2906 3.65394 11.2052ZM1.78481 14.2089L1.11056 14.8831C1.05162 14.9421 0.997438 15.0047 0.947125 15.0699C0.975688 14.8516 1.07369 14.6496 1.23206 14.4911C1.38713 14.3361 1.58137 14.2414 1.78481 14.2089ZM1.4815 16.3254C1.46175 16.0354 1.56819 15.7513 1.77344 15.5461L3.97137 13.3482L5.39325 14.7701L3.19531 16.9679C2.99 17.1733 2.70612 17.2796 2.41556 17.2595C2.17331 17.243 1.94525 17.1393 1.7735 16.9675C1.602 16.796 1.49831 16.5678 1.4815 16.3254ZM2.03019 21.9188L3.97131 19.9777L5.39275 21.3991L3.45163 23.3403C3.05969 23.7321 2.42206 23.7321 2.03019 23.3403C1.63831 22.9484 1.63831 22.3107 2.03019 21.9188ZM4.34506 27.6549C4.15538 27.4653 4.05075 27.2127 4.0505 26.9443C4.0505 26.8658 4.06056 26.7888 4.07812 26.7139L4.68213 27.3179L5.28694 27.9228C4.95888 28.0005 4.601 27.9109 4.34506 27.6549ZM10.0812 29.9698C9.89144 30.1596 9.639 30.2641 9.37044 30.2641C9.10194 30.2641 8.8495 30.1596 8.65975 29.9698C8.26787 29.5779 8.26787 28.9402 8.65975 28.5484L10.6009 26.6073L12.0223 28.0287L10.0812 29.9698ZM17.5089 30.7679C17.3504 30.9264 17.1483 31.0244 16.9302 31.0529C16.9954 31.0026 17.0579 30.9483 17.1169 30.8894L17.7911 30.2152C17.7586 30.4186 17.6639 30.6129 17.5089 30.7679ZM16.4539 30.2266C16.2488 30.4318 15.9648 30.5382 15.6753 30.5186C15.4323 30.5017 15.204 30.398 15.0326 30.2266C14.8608 30.0548 14.7571 29.8267 14.7406 29.5841C14.7206 29.2941 14.8268 29.0101 15.0322 28.8048L17.2301 26.6069L18.6519 28.0287L16.4539 30.2266ZM16.6629 24.7139L18.0844 23.2925L21.9663 27.1744L20.7949 28.3459C20.7101 28.4307 20.6346 28.5221 20.5678 28.6187L16.6629 24.7139ZM27.6549 27.6549C27.4653 27.8446 27.2127 27.9492 26.9443 27.9495C26.8657 27.9495 26.7886 27.9394 26.7137 27.9218L27.9227 26.7128C28.0005 27.0409 27.911 27.3989 27.6549 27.6549ZM30.4301 22.8796L22.8792 30.4303C22.6894 30.6202 22.437 30.7248 22.1685 30.7248C21.9 30.7248 21.6476 30.6202 21.4578 30.4303C21.2679 30.2404 21.1633 29.9881 21.1633 29.7196C21.1633 29.4511 21.2679 29.1986 21.4578 29.0088L29.0085 21.4579C29.2045 21.2619 29.4618 21.164 29.7192 21.164C29.9766 21.164 30.2341 21.262 30.43 21.4579C30.822 21.8499 30.822 22.4876 30.4301 22.8796ZM28.3456 20.7951L27.1739 21.9667L23.2919 18.0847L23.3404 18.0362C23.5234 17.853 23.5231 17.5562 23.3399 17.3733C23.1564 17.1904 22.8598 17.1907 22.677 17.3739L21.3993 18.6521L19.9777 17.2304L23.8596 13.3486L25.2809 14.7699L24.0029 16.0479C23.8198 16.231 23.8198 16.5278 24.0029 16.7109C24.0944 16.8024 24.2144 16.8482 24.3344 16.8482C24.4543 16.8482 24.5743 16.8024 24.6658 16.7109L24.7138 16.6629L28.6191 20.5681C28.5228 20.6343 28.4311 20.7096 28.3456 20.7951Z" fill="black"/>
</svg>
