<svg width="32" height="32" viewBox="0 0 32 32" fill="none" xmlns="http://www.w3.org/2000/svg">
<path d="M14.6238 0.0395508H17.3761V12.7449H14.6238V0.0395508Z" fill="black"/>
<path d="M14.6238 19.255H17.3761V31.9603H14.6238V19.255Z" fill="black"/>
<path d="M24.3701 29.0014H27.1224V31.9604H24.3701V29.0014Z" fill="black"/>
<path d="M24.3701 0.0395508H27.1224V2.99854H24.3701V0.0395508Z" fill="black"/>
<path d="M24.3701 9.50874H27.1224V22.4913H24.3701V9.50874Z" fill="black"/>
<path d="M4.87755 29.0014H7.62979V31.9604H4.87755V29.0014Z" fill="black"/>
<path d="M4.87755 0.0395508H7.62979V2.99854H4.87755V0.0395508Z" fill="black"/>
<path d="M4.87755 9.50874H7.62979V22.4913H4.87755V9.50874Z" fill="black"/>
<path d="M19.2551 4.87746H32V7.62976H19.2551V4.87746Z" fill="black"/>
<path d="M0 4.87746H12.7449V7.62976H0V4.87746Z" fill="black"/>
<path d="M0 14.6238H2.99857V17.3762H0V14.6238Z" fill="black"/>
<path d="M9.50871 14.6238H22.4912V17.3762H9.50871V14.6238Z" fill="black"/>
<path d="M29.0014 14.6238H32V17.3762H29.0014V14.6238Z" fill="black"/>
<path d="M19.2551 24.3701H32V27.1224H19.2551V24.3701Z" fill="black"/>
<path d="M0 24.3701H12.7449V27.1224H0V24.3701Z" fill="black"/>
</svg>
