<svg width="32" height="32" viewBox="0 0 32 32" fill="none" xmlns="http://www.w3.org/2000/svg">
<path d="M9.22574 15.5071C9.1644 15.4316 9.10242 15.3614 9.04023 15.299C8.11867 14.3737 6.61919 14.3737 5.69762 15.299C4.77185 16.2285 4.76308 17.7168 5.69762 18.6551C6.0751 19.0341 6.87324 19.5233 7.70657 19.7456C7.37431 20.4734 7.19899 21.2708 7.19899 22.0953C7.19899 23.6025 7.78357 25.0196 8.84511 26.0853C11.0822 28.3313 14.6472 28.2398 16.7931 26.0853C17.1004 25.7768 17.6002 25.7769 17.9074 26.0853C18.187 26.366 18.2126 26.8975 17.9074 27.204L17.2328 27.8813L18.347 29L19.0216 28.3227C20.0272 27.313 19.8484 25.7967 19.0216 24.9666C18.1001 24.0413 16.6006 24.0412 15.679 24.9666C13.892 26.7607 11.3122 26.3249 9.95933 24.9666C9.19544 24.1996 8.77473 23.1799 8.77473 22.0952C8.77473 21.9112 8.78781 21.7292 8.81165 21.5499C9.00793 21.9009 9.22338 22.1951 9.41162 22.3841C10.2278 23.2035 11.73 23.4124 12.7543 22.3841C13.5728 21.5623 13.7828 20.0606 12.7543 19.028C12.6948 18.9682 12.6247 18.9057 12.5458 18.842L26 16.1493V2H11.9074L9.22574 15.5071ZM8.66007 18.2733C8.55209 18.2959 8.27046 18.287 7.84754 18.1335C7.37284 17.9611 6.97787 17.7031 6.81184 17.5364C6.53615 17.2595 6.45952 16.7715 6.81189 16.4177C7.18497 16.0431 7.65914 16.1497 7.92612 16.4177C8.09214 16.5844 8.34908 16.9809 8.52078 17.4576C8.67373 17.8821 8.6826 18.165 8.66007 18.2733ZM11.6402 21.2653C11.333 21.5737 10.8332 21.5737 10.5259 21.2653C10.3599 21.0986 10.103 20.7021 9.93128 20.2254C9.77834 19.8009 9.76946 19.5181 9.79199 19.4097C9.90014 19.387 10.1818 19.396 10.6045 19.5495C11.0792 19.7219 11.4741 19.9799 11.6402 20.1466C11.9595 20.4673 11.9334 20.9709 11.6402 21.2653ZM11.7973 17.3786L18.883 10.2644L23.6133 15.0138L11.7973 17.3786ZM24.4243 13.5907L19.9972 9.14571L24.4243 4.70073V13.5907ZM23.3101 3.58208L18.8829 8.02705L14.4558 3.58208H23.3101ZM17.7688 9.14571L10.683 16.2599L13.0383 4.3963L17.7688 9.14571Z" fill="black"/>
</svg>
