<svg width="32" height="32" viewBox="0 0 32 32" fill="none" xmlns="http://www.w3.org/2000/svg">
<path d="M29.6909 30.9482L27.2588 7.78734C27.2078 7.30248 26.7991 6.93431 26.3115 6.93431H21.7402V5.89208C21.7402 2.64331 19.0969 0 15.8482 0C12.5991 0 9.95584 2.64331 9.95584 5.89208V6.93431H5.38456C4.89701 6.93431 4.48832 7.30248 4.43729 7.78734L2.00517 30.9482C1.97709 31.2165 2.06425 31.4843 2.24467 31.685C2.42534 31.8854 2.68266 31.9999 2.95243 31.9999H28.7434C29.0134 31.9999 29.2707 31.8854 29.4512 31.685C29.6321 31.4843 29.719 31.2165 29.6909 30.9482ZM11.8606 5.89208C11.8606 3.6936 13.6494 1.90478 15.8482 1.90478C18.0466 1.90478 19.8355 3.6936 19.8355 5.89208V6.93431H11.8606V5.89208ZM4.01005 30.0952L6.24222 8.83909H9.95584V10.938C9.95584 11.4638 10.3824 11.8904 10.9082 11.8904C11.4341 11.8904 11.8606 11.4638 11.8606 10.938V8.83909H19.8355V10.938C19.8355 11.4638 20.262 11.8904 20.7878 11.8904C21.3137 11.8904 21.7402 11.4638 21.7402 10.938V8.83909H25.4539L27.686 30.0952H4.01005Z" fill="black"/>
</svg>
