<svg width="32" height="32" viewBox="0 0 32 32" fill="none" xmlns="http://www.w3.org/2000/svg">
<path d="M17.375 13.3438V5.2062L19.5313 7.3437C19.8876 7.7187 20.4874 7.7187 20.8438 7.3437C21.2188 6.98745 21.2188 6.38745 20.8438 6.0312L17.0938 2.2812C16.7375 1.90627 16.1376 1.90627 15.7813 2.2812L12.0313 6.0312C11.6563 6.38745 11.6563 6.98745 12.0313 7.3437C12.3876 7.7187 12.9874 7.7187 13.3438 7.3437L15.5001 5.2062V13.3438C11.3 13.8125 8 17.3563 8 21.6875C8 26.3375 11.7876 30.1875 16.4375 30.1875C21.0874 30.1875 24.9375 26.3375 24.9375 21.6875C24.9375 17.3563 21.575 13.8125 17.375 13.3438ZM16.4375 28.3125C12.8187 28.3125 9.875 25.3063 9.875 21.6875C9.875 18.0688 12.8187 15.125 16.4375 15.125C20.0562 15.125 23.0625 18.0688 23.0625 21.6875C23.0625 25.3063 20.0562 28.3125 16.4375 28.3125Z" fill="black"/>
</svg>
