<svg width="32" height="32" viewBox="0 0 32 32" fill="none" xmlns="http://www.w3.org/2000/svg">
<path fill-rule="evenodd" clip-rule="evenodd" d="M15.0779 24.8824C15.0407 24.8519 15.005 24.8197 14.9709 24.7856L8.18336 17.9983C7.61531 17.4302 7.61531 16.5093 8.18336 15.9412C8.75141 15.3732 9.67243 15.3732 10.2404 15.9412L14.5451 20.2458V2.42424C14.5451 1.62094 15.1963 0.969696 15.9996 0.969696C16.8029 0.969696 17.4541 1.62094 17.4541 2.42424V20.2459L21.7592 15.9411C22.3273 15.3732 23.2483 15.3733 23.8162 15.9412C24.3843 16.5093 24.3843 17.4302 23.8162 17.9983L17.0282 24.7859C17.0267 24.7875 17.025 24.7887 17.0234 24.7902C16.9909 24.8224 16.9571 24.8531 16.9217 24.8822C16.9106 24.8913 16.8992 24.8995 16.8877 24.9078C16.8817 24.9122 16.8757 24.9165 16.8697 24.921C16.8642 24.9251 16.8588 24.9292 16.8534 24.9334C16.8382 24.9448 16.8231 24.9563 16.8073 24.9669C16.7925 24.9768 16.7773 24.9857 16.7621 24.9946C16.7562 24.9981 16.7503 25.0016 16.7444 25.0051C16.7392 25.0082 16.734 25.0114 16.7288 25.0146C16.7144 25.0234 16.7001 25.0321 16.6852 25.0401C16.6638 25.0515 16.6418 25.0612 16.62 25.0715C16.5988 25.0816 16.5779 25.0922 16.5561 25.1012C16.5414 25.1072 16.5265 25.1125 16.5116 25.1177C16.5051 25.12 16.4985 25.1223 16.4919 25.1247C16.4856 25.1269 16.4794 25.1292 16.4731 25.1315C16.4561 25.1377 16.4391 25.1439 16.4217 25.1492C16.4003 25.1557 16.3785 25.1603 16.3568 25.1659C16.3503 25.1675 16.3438 25.1692 16.3373 25.1709C16.3196 25.1755 16.3018 25.1802 16.2837 25.1837C16.2641 25.1876 16.2443 25.1903 16.2245 25.193C16.2189 25.1938 16.2133 25.1946 16.2077 25.1953C16.2004 25.1964 16.1932 25.1975 16.186 25.1987C16.1718 25.201 16.1576 25.2032 16.143 25.2047C16.0954 25.2094 16.0475 25.2119 15.9996 25.2119C15.9517 25.2119 15.9038 25.2093 15.8561 25.2047C15.8421 25.2033 15.8284 25.2011 15.8147 25.1989C15.8072 25.1977 15.7998 25.1965 15.7923 25.1954C15.7859 25.1945 15.7794 25.1936 15.773 25.1928C15.7537 25.1901 15.7344 25.1875 15.7153 25.1837C15.6976 25.1802 15.6804 25.1757 15.6631 25.1712C15.6566 25.1695 15.6501 25.1678 15.6436 25.1662C15.6378 25.1647 15.6319 25.1633 15.626 25.1618C15.6097 25.1579 15.5934 25.1539 15.5773 25.1491C15.5596 25.1437 15.5424 25.1374 15.5251 25.1311C15.5196 25.1291 15.5141 25.127 15.5085 25.125C15.5036 25.1233 15.4987 25.1216 15.4937 25.1198C15.4767 25.1139 15.4597 25.108 15.443 25.1011C15.4271 25.0946 15.4117 25.0871 15.3963 25.0797C15.3909 25.0771 15.3856 25.0745 15.3802 25.0719C15.3749 25.0694 15.3696 25.067 15.3643 25.0646C15.3475 25.0568 15.3306 25.049 15.3141 25.0401C15.2995 25.0323 15.2854 25.0237 15.2714 25.0151C15.266 25.0118 15.2606 25.0085 15.2552 25.0053C15.2495 25.0019 15.2438 24.9985 15.2381 24.9952C15.2227 24.9861 15.2072 24.977 15.1922 24.967C15.1751 24.9556 15.1588 24.9432 15.1424 24.9307C15.1377 24.9272 15.133 24.9236 15.1283 24.92C15.1223 24.9155 15.1163 24.9112 15.1102 24.9068C15.0993 24.8989 15.0884 24.891 15.0779 24.8824ZM29.0909 16.9697C29.0909 16.1664 29.7422 15.5152 30.5455 15.5152C31.3488 15.5152 32 16.1664 32 16.9697V29.5758C32 30.3791 31.3488 31.0303 30.5455 31.0303H1.45455C0.651248 31.0303 0 30.3791 0 29.5758V16.9697C0 16.1664 0.651248 15.5152 1.45455 15.5152C2.25784 15.5152 2.90909 16.1664 2.90909 16.9697V28.1212H29.0909V16.9697Z" fill="black"/>
</svg>
