<svg width="32" height="32" viewBox="0 0 32 32" fill="none" xmlns="http://www.w3.org/2000/svg">
<path d="M8.22795 7.26994C7.97881 7.02709 7.96082 6.65023 8.04626 6.33093C8.28012 5.44949 8.87014 3.82602 9.44938 3.14694C10.4999 1.91562 12.762 1.69886 14.1822 1C15.6474 1.18978 17.055 1.20057 18.5238 1C20.0393 1.71775 22.3688 1.91023 23.4059 3.31244C23.8565 3.92136 24.5472 5.63837 24.6984 6.3822C24.7685 6.72848 24.7163 7.13862 24.3988 7.34819C23.5965 7.87706 22.2717 8.11631 21.4406 8.57232C21.3147 8.64158 21.2382 8.68565 21.2131 8.83945C21.1348 9.30356 21.1006 10.0132 21.0736 10.4989C21.0359 11.1699 20.9639 12.2465 21.0287 12.8869C21.0709 13.3078 21.357 13.9797 21.4307 14.5086C21.9155 18.0038 21.741 22.1564 21.6178 25.7029C21.5494 27.6727 21.3723 28.4681 20.7849 30.3353C20.6455 30.7778 20.5034 30.9244 20.0213 30.9658C19.5392 31.0072 18.5471 31.0144 18.0911 30.9595C17.8168 30.9262 17.5722 30.812 17.4813 30.535C17.4157 30.3362 17.3968 29.7903 17.3869 29.5501C17.2277 25.7329 17.0064 23.9247 16.4838 20.1309C16.4748 20.0635 16.4371 19.7433 16.3768 19.7442C16.2869 19.799 16.3219 19.8719 16.3093 19.9456C15.686 23.5739 15.5053 25.7221 15.3182 29.4116C15.2867 30.0358 15.5232 30.8876 14.6247 30.9667C14.1417 31.009 13.0768 31.0171 12.6046 30.9595C12.0218 30.8885 11.9354 30.2319 11.8248 29.7606C11.2312 27.2341 11.2285 26.7831 11.1403 24.2152C11.0297 21.0052 10.8363 17.3238 11.3742 14.1542C11.4416 13.7566 11.6854 13.2449 11.724 12.9301C11.778 12.4866 11.68 11.9434 11.724 11.4883L11.501 8.69824C10.7536 8.33037 9.94676 8.07403 9.18135 7.73495C8.96279 7.63781 8.37276 7.41025 8.22975 7.26994H8.22795ZM14.6895 1.77621V2.9005C14.6895 3.47074 15.5826 4.13812 16.1169 4.21637C16.9596 4.33959 18.0623 3.61555 18.0623 2.72061V1.82118L17.9049 1.74923C17.0082 1.84996 16.107 1.86166 15.2066 1.7978C15.0942 1.7897 14.7227 1.65838 14.6895 1.77621ZM18.7369 1.84367V2.67564C18.7369 4.31171 16.7968 5.33077 15.3551 4.66339C14.7344 4.37647 14.0149 3.51661 14.0149 2.81056V1.91112C13.9447 1.80139 13.808 1.88054 13.7019 1.91382C13.0372 2.12069 11.9858 2.45078 11.3751 2.735C11.295 2.77188 11.1898 2.79886 11.179 2.9023C11.4686 4.01759 11.6881 5.14548 11.8958 6.27877L12.1702 8.38794L12.35 10.9738L20.1553 11.0206C20.6005 11.0539 20.4234 10.4593 20.4458 10.1418C20.5673 8.43561 20.7633 6.7033 21.0862 5.02586C21.2283 4.28563 21.4496 3.55978 21.5737 2.81505L18.7369 1.84367ZM10.5512 3.14784C10.1015 3.34932 9.76058 3.83771 9.53842 4.27034C9.15437 5.01596 8.96458 5.89291 8.66148 6.67632C8.67497 6.82472 9.2524 7.03789 9.40531 7.10535C10.0556 7.39136 10.7293 7.6549 11.4065 7.86986C11.2716 6.27427 10.9451 4.69667 10.5512 3.14784ZM21.3453 7.86986C21.4064 7.93372 22.8167 7.3356 23.002 7.25645C23.1873 7.1773 24.0472 6.83911 24.0822 6.71409C23.9671 6.26528 23.8196 5.79487 23.6586 5.35415C23.3573 4.52667 23.0362 3.64883 22.2663 3.15324C22.2195 3.18292 22.1853 3.2198 22.1656 3.27287C21.9767 3.77655 21.8229 4.69667 21.7158 5.25162C21.5503 6.11597 21.419 6.99382 21.3453 7.86986ZM20.3559 12.8167C20.3631 12.5703 20.346 12.3203 20.3541 12.0729C20.3568 11.992 20.462 11.6475 20.3334 11.6475H12.4634C12.2745 11.6475 12.3932 12.0765 12.395 12.1656C12.4004 12.3733 12.342 12.6593 12.4634 12.8167H20.3559ZM15.1617 13.4913H12.3285C12.1873 13.4913 12.1207 13.8457 12.0919 13.9743C11.6575 15.9621 11.7132 18.6675 11.7231 20.7066C11.7402 24.1415 11.6539 26.6063 12.5425 29.8946C12.5767 30.0223 12.6082 30.1851 12.6882 30.2885H14.622C14.667 30.2607 14.6805 30.2265 14.6895 30.1761C14.7722 29.7237 14.6292 29.0347 14.6877 28.5553C14.9719 24.8893 15.1185 23.1386 15.6833 19.4986C15.7301 19.1982 15.9793 17.6836 16.1412 17.5505C16.3031 17.4173 16.5468 17.4812 16.6601 17.6575C16.8175 17.9012 16.9686 18.8906 17.0226 19.2288C17.5632 22.572 17.8474 24.3532 18.0183 27.7459C18.0605 28.5886 18.0147 29.4521 18.1064 30.2885H20.0852C20.2642 29.6446 20.4135 28.9808 20.5232 28.3206C20.847 26.3823 20.8677 26.5718 20.9378 24.6191C21.053 21.3973 21.1924 18.1216 20.8047 14.9079C20.7795 14.7011 20.6257 13.6298 20.5232 13.548C20.4494 13.5165 20.3676 13.4994 20.2875 13.4913C19.4349 13.4095 18.4338 13.5318 17.5677 13.5138C17.5245 13.5453 17.4876 13.5642 17.4966 13.6271C17.5137 13.7459 17.8123 14.2369 17.904 14.3458C18.0084 14.4681 18.3367 14.6786 18.3672 14.782C18.4194 14.9565 18.3888 15.1652 18.1991 15.2245C17.5101 15.4395 16.9434 14.0265 16.7132 13.5579L16.0233 13.5336C15.8012 13.9428 15.6618 14.4051 15.3622 14.7712C15.1707 15.0051 14.667 15.4818 14.3972 15.1085C14.1273 14.7352 14.6094 14.6021 14.801 14.3907C14.9053 14.2747 15.3919 13.5615 15.1617 13.4913Z" fill="black"/>
</svg>
