<svg width="32" height="32" viewBox="0 0 32 32" fill="none" xmlns="http://www.w3.org/2000/svg">
<path d="M28.6333 26.6622C28.5644 26.7786 28.6627 27.6908 28.5825 27.9971C28.4751 28.4051 28.0365 28.6968 27.6318 28.742C27.1955 28.7906 26.116 28.7883 25.7442 28.5939C24.9314 28.1678 25.3904 27.3223 25.2186 26.7469C25.1937 26.6656 24.971 26.4689 24.9009 26.3298C24.6568 25.8483 24.7167 24.0149 24.6636 23.3457C24.5324 21.6773 24.3098 19.3997 23.8 17.8229C23.7808 17.7641 23.7853 17.6522 23.7039 17.6658L23.6474 25.6064C23.7299 25.9941 23.0879 26.4655 23.037 26.635C22.9613 26.8916 23.0551 27.4172 23.011 27.7394C22.9341 28.2966 22.5509 28.6968 21.9824 28.7454H10.6179C9.99397 28.69 9.63565 28.2446 9.57461 27.641C9.54635 27.3562 9.63339 26.8735 9.56218 26.6362C9.50114 26.4293 9.02979 26.1863 8.95744 25.6584C8.74155 24.0861 9.15525 22.1261 8.89415 20.5221C8.8738 19.6371 8.93032 18.7464 8.89641 17.8624C8.89415 17.7946 8.93936 17.6522 8.84102 17.6658C8.26567 19.7908 8.03508 21.9984 7.88023 24.1935C7.8418 24.7451 7.92431 25.8867 7.69937 26.3298C7.62929 26.4689 7.40661 26.6656 7.38175 26.7469C7.30714 26.9967 7.40209 27.511 7.37044 27.8095C7.31958 28.2865 6.907 28.6719 6.43226 28.7363C6.11463 28.7793 5.2341 28.7793 4.91647 28.7363C4.50163 28.6798 4.06419 28.3305 3.99298 27.9078C3.93194 27.5483 4.05402 26.9854 3.98055 26.6893C3.96811 26.6384 3.84038 26.6124 3.785 26.5344C3.49902 26.1366 3.49224 25.5838 3.4685 25.0978C3.27182 21.0127 3.91046 16.3365 5.27818 12.4911C5.66476 11.4048 6.93074 8.36417 7.83954 7.7617C8.31993 7.44295 9.10891 7.09819 9.64921 6.85856C10.6044 6.43468 11.5934 6.09332 12.5926 5.78925C12.6616 5.75421 12.6797 5.68865 12.7124 5.62649C12.9589 5.15965 13.2222 3.67777 13.4924 3.38162C13.6551 3.2019 14.7098 2.92497 14.989 2.87297C16.0277 2.67742 18.0737 2.72037 18.9779 3.31607C19.3781 3.57943 19.6188 5.29982 19.9184 5.76665C21.181 6.13175 22.43 6.58389 23.6123 7.15923C24.9699 7.82048 25.1326 8.0002 25.8628 9.31705C28.3813 13.8588 29.3692 19.8745 29.1329 25.0413C29.1171 25.3826 29.0888 26.0461 28.9521 26.3298C28.8616 26.5163 28.6582 26.6226 28.6344 26.6622H28.6333ZM17.7131 3.7049C16.8043 3.53083 15.8164 3.43814 14.9132 3.70264C14.8307 3.72638 14.8149 3.67099 14.8307 3.81681C15.6604 4.06661 16.8224 4.19434 17.634 3.82246C17.6995 3.79194 17.7368 3.84959 17.7142 3.7049H17.7131ZM15.9045 4.83525C15.2354 4.76856 14.5786 4.57979 13.9841 4.27007L13.437 5.93846C13.472 6.26739 15.4693 7.26435 15.9045 7.15245V4.83525ZM16.6958 7.15245C17.0993 7.12645 17.5334 6.97159 17.903 6.80543C18.1177 6.70822 19.1136 6.13514 19.1237 5.94072L18.5337 4.27233C17.9787 4.599 17.3333 4.75612 16.6969 4.83638V7.15358L16.6958 7.15245ZM15.9045 8.0002C14.738 7.81596 13.7286 7.29713 12.8356 6.54093C11.3187 6.99985 9.80181 7.56502 8.44992 8.37661C8.6952 9.2628 8.93371 10.1422 9.09535 11.0499C9.93293 15.7453 9.6786 20.6759 9.74416 25.4346C9.68652 25.6222 10.0946 26.0846 10.2246 26.0846H15.9045V8.0002ZM16.6958 26.0857H22.3757C22.5724 26.0857 22.8324 25.6392 22.8561 25.4357C23.0539 23.7041 22.7103 21.6084 22.8539 19.8383C22.9703 16.9073 22.9714 13.9435 23.4959 11.042C23.6587 10.1377 23.9062 9.26167 24.1504 8.37774C22.7985 7.56389 21.2816 7.00098 19.7647 6.54206C19.048 7.09141 18.3585 7.53337 17.487 7.80352C17.2259 7.88378 16.9151 7.89734 16.6958 8.02959V26.0868V26.0857ZM7.79432 9.13168C6.34296 11.5868 5.38669 14.3968 4.84526 17.2023C4.36599 19.6868 4.12636 22.5658 4.26313 25.0966C4.27217 25.2696 4.32643 25.9557 4.40216 26.0314C4.43494 26.0642 4.46885 26.0846 4.51633 26.0868C4.90517 26.0224 6.75215 26.1931 6.95222 26.036C6.99856 25.9986 7.0223 25.9455 7.03021 25.8879C7.1602 23.0213 7.31619 20.0316 8.13455 17.2713C8.26907 16.818 8.74268 15.8357 8.78563 15.4921C8.87267 14.789 8.60365 12.9432 8.494 12.1644C8.45557 11.8942 7.96161 9.12829 7.79545 9.13394L7.79432 9.13168ZM24.806 9.13168C24.095 11.164 23.9639 13.3546 23.8158 15.4899C25.2073 18.7554 25.4152 22.3725 25.5701 25.8856C25.578 25.9433 25.6017 25.9975 25.6481 26.0337C25.8482 26.1919 27.6951 26.0201 28.084 26.0846C28.1314 26.0834 28.1654 26.0619 28.1981 26.0292C28.275 25.9534 28.3281 25.2673 28.3372 25.0944C28.4694 22.6314 28.2456 19.8575 27.8025 17.4352C27.2735 14.546 26.2958 11.6546 24.806 9.12942V9.13168ZM6.5792 26.8769H4.77066V27.7529C4.77066 27.7755 4.83622 27.8807 4.8656 27.8988C4.99898 27.9813 6.28984 27.9824 6.45261 27.9135C6.50234 27.8931 6.57807 27.7925 6.57807 27.7529V26.8769H6.5792ZM10.4585 26.8848C10.3184 26.9312 10.3455 27.5416 10.3783 27.684C10.419 27.8592 10.5569 27.9451 10.7321 27.9519H21.8682C22.3825 27.9191 22.2175 27.3291 22.2265 26.9696L22.0932 26.8769L10.4585 26.8848ZM27.8296 26.8769H26.0211V27.7529C26.0211 27.7755 26.0867 27.8807 26.116 27.8988C26.2494 27.9813 27.5403 27.9824 27.703 27.9135C27.7528 27.8931 27.8285 27.7925 27.8285 27.7529V26.8769H27.8296Z" fill="black"/>
</svg>
