<svg width="32" height="32" viewBox="0 0 32 32" fill="none" xmlns="http://www.w3.org/2000/svg">
<path fill-rule="evenodd" clip-rule="evenodd" d="M21.2217 13.1565C19.7231 14.655 17.8896 15.4145 15.772 15.4145C13.6548 15.4145 11.8213 14.6548 10.3225 13.1567C8.82422 11.6584 8.06445 9.82493 8.06445 7.70702C8.06445 5.58959 8.82422 3.7561 10.3225 2.25781C11.8208 0.75952 13.6541 0 15.772 0C17.8894 0 19.7229 0.75952 21.2214 2.25756C22.72 3.75634 23.4795 5.58983 23.4795 7.70702C23.4795 9.82493 22.7197 11.6582 21.2217 13.1565ZM15.772 1.87524C14.147 1.87524 12.7983 2.43408 11.6487 3.58373C10.4988 4.73363 9.9397 6.08251 9.9397 7.70702C9.9397 9.33201 10.4988 10.6809 11.6487 11.8305C12.7988 12.9802 14.1475 13.5393 15.772 13.5393C17.3967 13.5393 18.7456 12.9804 19.8955 11.8305C21.0452 10.6806 21.6042 9.33201 21.6042 7.70702C21.6042 6.08251 21.0452 4.73363 19.8955 3.58373C18.7456 2.43408 17.3967 1.87524 15.772 1.87524ZM28.9988 22.5844C29.1274 23.3027 29.2148 23.9829 29.2581 24.6064C29.3008 25.2158 29.3225 25.8518 29.3228 26.4965C29.3228 28.1674 28.7917 29.5202 27.7444 30.5168C26.71 31.5009 25.3418 31.9999 23.678 31.9999H8.26978C6.60547 31.9999 5.2373 31.5009 4.20312 30.5168C3.15601 29.5195 2.625 28.1672 2.625 26.4968C2.625 25.8542 2.64648 25.2182 2.68896 24.6071C2.73218 23.9821 2.81934 23.3017 2.94824 22.5844C3.07812 21.8608 3.24536 21.177 3.44531 20.5517C3.65234 19.905 3.93359 19.2671 4.28101 18.6555C4.64136 18.021 5.06519 17.4685 5.54077 17.0134C6.03857 16.5371 6.64771 16.1545 7.35132 15.8759C8.05273 15.5981 8.83008 15.4572 9.66211 15.4572C9.98877 15.4572 10.3047 15.5913 10.9143 15.9885C11.2954 16.2368 11.7349 16.52 12.2205 16.8303C12.6389 17.0974 13.207 17.3476 13.9077 17.5739C14.5925 17.7954 15.2874 17.9077 15.9729 17.9077C16.6589 17.9077 17.3538 17.7954 18.0381 17.5739C18.7395 17.3474 19.3074 17.0971 19.7266 16.83C20.2168 16.5168 20.656 16.2336 21.0315 15.9887C21.6416 15.5915 21.9575 15.4575 22.2842 15.4575C23.116 15.4575 23.8936 15.5981 24.5952 15.8757C25.2993 16.1548 25.9082 16.5373 26.4055 17.0131C26.8811 17.468 27.3049 18.0207 27.6655 18.6555C28.0134 19.2671 28.2944 19.9052 28.5015 20.5515C28.7017 21.1767 28.8689 21.8608 28.9988 22.5844ZM23.6777 30.1247C24.8608 30.1247 25.7681 29.8085 26.4514 29.1581C27.1216 28.5205 27.4473 27.6498 27.4475 26.4968C27.4473 25.8955 27.4272 25.3037 27.3875 24.7375V24.737C27.3489 24.1804 27.2698 23.5676 27.1531 22.9155C27.0378 22.2731 26.8906 21.6701 26.7156 21.1232C26.5481 20.6001 26.3191 20.0813 26.0352 19.582C25.7644 19.1054 25.4529 18.697 25.1091 18.3681C24.7876 18.0605 24.3823 17.8083 23.905 17.6194C23.4631 17.4445 22.9668 17.3488 22.4277 17.3344C22.3621 17.3694 22.2451 17.4362 22.0557 17.5595C21.6702 17.811 21.2383 18.0893 20.7356 18.4106C20.1812 18.7641 19.468 19.0827 18.615 19.3584C17.7441 19.6399 16.8552 19.7829 15.9731 19.7829C15.0911 19.7829 14.2024 19.6399 13.3311 19.3581C12.4788 19.083 11.7654 18.7641 11.2117 18.4111C10.7205 18.0974 10.2761 17.8108 9.89062 17.5595C9.70117 17.436 9.58423 17.3694 9.51855 17.3344C8.97974 17.3488 8.4834 17.4445 8.04175 17.6194C7.56421 17.8083 7.15894 18.0603 6.8374 18.3681C6.49365 18.6972 6.18213 19.1057 5.91138 19.5817C5.62769 20.0813 5.39893 20.5998 5.2312 21.1235C5.0564 21.6696 4.90942 22.2729 4.79395 22.9157C4.677 23.5666 4.59814 24.1792 4.55957 24.7368C4.52002 25.3051 4.50024 25.8972 4.50024 26.4968C4.50024 27.6496 4.82593 28.5205 5.49609 29.1584C6.1792 29.8085 7.08643 30.1247 8.26978 30.1247H23.6777Z" fill="black"/>
</svg>
