<svg width="32" height="32" viewBox="0 0 32 32" fill="none" xmlns="http://www.w3.org/2000/svg">
<path d="M10.5297 4.01268L8.76286 2.24593L0 11.0088L8.76286 19.7716L10.5297 18.0049L3.53356 11.0088L10.5297 4.01268Z" fill="black"/>
<path d="M20.2559 9.75948H10.9039L16.6507 4.01268L14.884 2.24593L6.12109 11.0088L14.884 19.7716L16.6507 18.0049L10.9039 12.2581H20.2559C25.3536 12.2581 29.5008 16.4053 29.5008 21.503C29.5008 23.9005 28.2884 25.9378 27.2714 27.2247L26.4968 28.2048L28.4572 29.7541L29.2317 28.7739C30.4944 27.1763 31.9995 24.6179 31.9995 21.503C31.9994 15.0275 26.7313 9.75948 20.2559 9.75948Z" fill="black"/>
</svg>
