<svg width="32" height="32" viewBox="0 0 32 32" fill="none" xmlns="http://www.w3.org/2000/svg">
<path d="M30.179 4.58414C28.7613 4.58414 10.2244 4.58414 9.57475 4.58414C9.44563 2.05714 7.34912 0.0410156 4.79056 0.0410156C2.149 0.0409531 0 2.18995 0 4.83145V6.03664C0 6.29558 0.209875 6.50539 0.46875 6.50539C0.727625 6.50539 0.9375 6.29558 0.9375 6.03664V4.83145C0.9375 2.70695 2.66594 0.978516 4.7905 0.978516C6.91506 0.978516 8.6435 2.70695 8.6435 4.83145V24.3246C7.77013 23.1444 6.36812 22.3778 4.7905 22.3778C3.21288 22.3778 1.81087 23.1444 0.9375 24.3246V8.2617C0.9375 8.00277 0.727625 7.79295 0.46875 7.79295C0.209875 7.79295 0 8.00277 0 8.2617V27.1683C0 29.8098 2.149 31.9588 4.7905 31.9588C4.80244 31.9588 4.81431 31.9587 4.82625 31.9586C4.83006 31.9587 4.83388 31.9588 4.83775 31.9588H30.1789C31.1831 31.9588 31.9999 31.1419 31.9999 30.1378V6.40508C32 5.40102 31.1831 4.58414 30.179 4.58414ZM20.9056 13.7297L22.2044 15.7637C22.4445 16.1398 22.4445 16.6257 22.2044 17.0018L20.9056 19.036C20.4698 19.7184 20.4698 20.6004 20.9056 21.283L22.2046 23.3173C22.4446 23.6933 22.4446 24.1792 22.2046 24.5552L20.9056 26.5898C20.4698 27.2722 20.4698 28.1541 20.9056 28.8367L22.3004 31.0214H18.8426L17.1256 28.3322C16.8856 27.9561 16.8856 27.4703 17.1256 27.0943L18.4246 25.0597C18.8604 24.3772 18.8604 23.4953 18.4246 22.8128L17.1257 20.7785C16.8856 20.4024 16.8856 19.9165 17.1257 19.5405L18.4245 17.5063C18.8603 16.8238 18.8603 15.9417 18.4245 15.2592L17.1257 13.2252C16.8856 12.8491 16.8856 12.3633 17.1257 11.9872L18.4245 9.95308C18.8602 9.27052 18.8602 8.38852 18.4245 7.70602L17.0297 5.52164H20.4874L22.2044 8.21052C22.4444 8.58658 22.4444 9.07252 22.2044 9.44858L20.9055 11.4827C20.4698 12.1652 20.4698 13.0472 20.9056 13.7297ZM0.9375 27.1683C0.9375 25.0437 2.66594 23.3153 4.7905 23.3153C6.91506 23.3153 8.6435 25.0437 8.6435 27.1683C8.6435 29.2928 6.91506 31.0213 4.7905 31.0213C2.66594 31.0213 0.9375 29.2929 0.9375 27.1683ZM9.58106 27.1683V5.52164H11.0936L12.8105 8.21052C13.0506 8.58658 13.0506 9.07252 12.8105 9.44858L11.5117 11.4827C11.0759 12.1652 11.0759 13.0472 11.5117 13.7297L12.8105 15.7637C13.0506 16.1398 13.0506 16.6257 12.8105 17.0018L11.5116 19.036C11.0758 19.7184 11.0758 20.6004 11.5116 21.283L12.6091 23.0018C12.7482 23.2197 13.038 23.2842 13.2564 23.1446C13.4746 23.0053 13.5386 22.7155 13.3993 22.4973L12.3018 20.7785C12.0617 20.4024 12.0617 19.9165 12.3018 19.5405L13.6006 17.5063C14.0364 16.8238 14.0364 15.9418 13.6006 15.2592L12.3018 13.2252C12.0617 12.8491 12.0617 12.3633 12.3018 11.9872L13.6006 9.95308C14.0364 9.27058 14.0364 8.38852 13.6006 7.70602L12.2058 5.52164H15.9174L17.6344 8.21052C17.8744 8.58658 17.8744 9.07252 17.6344 9.44858L16.3356 11.4826C15.8997 12.1651 15.8997 13.0471 16.3356 13.7297L17.6344 15.7637C17.8744 16.1398 17.8744 16.6257 17.6344 17.0018L16.3356 19.036C15.8997 19.7184 15.8997 20.6004 16.3356 21.283L17.6345 23.3173C17.8746 23.6933 17.8746 24.1792 17.6345 24.5552L16.3355 26.5898C15.8998 27.2722 15.8998 28.1541 16.3355 28.8367L17.7304 31.0214H14.0188L12.3018 28.3322C12.0617 27.9561 12.0617 27.4703 12.3018 27.0943L13.4943 25.2265C13.6336 25.0083 13.5696 24.7185 13.3514 24.5792C13.1333 24.4399 12.8434 24.5039 12.7041 24.722L11.5116 26.5898C11.0759 27.2722 11.0759 28.1541 11.5116 28.8367L12.9065 31.0214H7.63425C8.81444 30.148 9.58106 28.746 9.58106 27.1683ZM31.0625 30.1378C31.0625 30.625 30.6662 31.0213 30.179 31.0213H28.2366L26.5196 28.3322C26.2796 27.9561 26.2796 27.4702 26.5196 27.0942L27.8186 25.0596C28.2544 24.3771 28.2544 23.4952 27.8186 22.8127L26.5197 20.7784C26.2796 20.4023 26.2796 19.9164 26.5197 19.5404L27.8186 17.5062C28.2544 16.8237 28.2544 15.9416 27.8186 15.2591L26.6152 13.3747C26.4759 13.1565 26.1861 13.0926 25.9679 13.2319C25.7497 13.3712 25.6857 13.661 25.8251 13.8792L27.0284 15.7636C27.2684 16.1397 27.2684 16.6256 27.0284 17.0017L25.7295 19.0359C25.2938 19.7183 25.2938 20.6003 25.7295 21.2829L27.0284 23.3172C27.2685 23.6932 27.2685 24.1791 27.0284 24.5551L25.7294 26.5897C25.2937 27.2721 25.2937 28.1541 25.7294 28.8366L27.1243 31.0213H23.4127L21.6957 28.3321C21.4556 27.9561 21.4556 27.4702 21.6957 27.0942L22.9947 25.0596C23.4304 24.3771 23.4304 23.4952 22.9947 22.8127L21.6957 20.7784C21.4557 20.4023 21.4557 19.9164 21.6957 19.5404L22.9946 17.5062C23.4304 16.8237 23.4304 15.9416 22.9946 15.2591L21.6957 13.2251C21.4556 12.8491 21.4556 12.3632 21.6957 11.9871L22.9946 9.95302C23.4304 9.27045 23.4304 8.38845 22.9946 7.70595L21.5998 5.52158H25.3114L27.0283 8.21045C27.2684 8.58652 27.2684 9.07245 27.0283 9.44851L25.9424 11.1491C25.8031 11.3673 25.8671 11.6571 26.0853 11.7964C26.3042 11.9363 26.5938 11.871 26.7326 11.6536L27.8184 9.95302C28.2542 9.27052 28.2542 8.38852 27.8184 7.70595L26.4236 5.52158H30.1789C30.6661 5.52158 31.0624 5.91789 31.0624 6.40508L31.0625 30.1378Z" fill="black"/>
<path d="M7.27481 27.1683C7.27481 25.7985 6.16038 24.684 4.7905 24.684C3.42063 24.684 2.30625 25.7985 2.30625 27.1683C2.30625 28.5381 3.42069 29.6526 4.79056 29.6526C6.16044 29.6526 7.27481 28.5381 7.27481 27.1683ZM3.24375 27.1683C3.24375 26.3154 3.93763 25.6215 4.79056 25.6215C5.6435 25.6215 6.33738 26.3154 6.33738 27.1683C6.33738 28.0211 5.6435 28.7151 4.79056 28.7151C3.93763 28.7151 3.24375 28.0212 3.24375 27.1683Z" fill="black"/>
</svg>
