<svg width="50" height="50" viewBox="0 0 50 50" fill="none" xmlns="http://www.w3.org/2000/svg">
<g clip-path="url(#clip0_4310_39133)">
<path d="M3.05445 15.4274C4.36289 16.2945 5.18115 17.021 6.87236 16.812C8.19056 16.6499 9.80756 14.9197 11.0633 14.3631C14.8441 12.6895 16.59 18.4603 20.4372 16.4136C22.1967 15.4782 23.2982 13.8378 25.5342 14.0897C26.9481 14.2479 28.5026 15.9703 29.8111 16.5503C33.5802 18.2181 35.3124 12.5157 39.1244 14.4627C40.2747 15.0505 41.8878 16.6538 43.1181 16.8159C44.8191 17.0405 45.6295 16.2906 46.938 15.4294C47.3618 14.5506 47.6156 11.8868 48.1859 11.256C48.8069 10.5686 49.9806 11.092 49.9982 11.9942L42.4112 40.0671L7.53244 40.0495L0.00402375 12.1719C-0.109244 10.9299 1.56243 10.3479 2.078 11.7657C2.48811 12.8945 2.65215 14.2752 3.05445 15.4274ZM46.0865 18.4818C44.4949 19.095 42.8213 19.1262 41.2707 18.3665C40.2181 17.849 39.0932 16.7202 38.0835 16.2808C37.5621 16.0523 37.3434 16.0816 36.8415 16.316C34.75 17.2963 33.8712 19.0403 31.1019 18.9719C28.5729 18.9094 27.5926 17.228 25.6475 16.316C25.1026 16.0602 24.8956 16.0582 24.343 16.316C22.3022 17.271 21.3863 19.0032 18.6971 18.9778C16.008 18.9524 15.1233 17.2397 13.149 16.316C12.5572 16.0387 12.3619 16.066 11.7839 16.3531C9.30567 17.5795 8.43663 19.5207 5.07179 18.8294C4.91165 18.7962 3.91177 18.3997 3.90396 18.5325L9.08499 38.0068L40.8567 38.0166L46.0885 18.4818H46.0865Z" fill="#75958D"/>
<path d="M19.8773 27.8594C20.1169 27.8802 20.3721 27.8802 20.6429 27.8594C20.9137 27.8385 21.1637 27.7813 21.3929 27.6875C21.6325 27.5833 21.8252 27.4375 21.971 27.25C22.1273 27.0625 22.2054 26.8125 22.2054 26.5C22.2054 26.0313 22.0492 25.6719 21.7367 25.4219C21.4242 25.1719 21.0648 25.0469 20.6585 25.0469C20.096 25.0469 19.669 25.2344 19.3773 25.6094C19.096 25.974 18.9606 26.4375 18.971 27H16.8617C16.8825 26.4375 16.9815 25.9271 17.1585 25.4688C17.346 25 17.6012 24.599 17.9242 24.2656C18.2575 23.9323 18.6533 23.6771 19.1117 23.5C19.57 23.3125 20.0804 23.2188 20.6429 23.2188C21.0804 23.2188 21.5179 23.2865 21.9554 23.4219C22.3929 23.5469 22.7835 23.7396 23.1273 24C23.4815 24.2604 23.7679 24.5781 23.9867 24.9531C24.2054 25.3281 24.3148 25.7604 24.3148 26.25C24.3148 26.7813 24.1846 27.25 23.9242 27.6563C23.6742 28.0625 23.294 28.3385 22.7835 28.4844V28.5156C23.3877 28.651 23.8617 28.9427 24.2054 29.3906C24.5492 29.8385 24.721 30.375 24.721 31C24.721 31.5729 24.6065 32.0833 24.3773 32.5313C24.1585 32.9792 23.8617 33.3542 23.4867 33.6562C23.1117 33.9583 22.6794 34.1875 22.1898 34.3438C21.7002 34.5 21.1898 34.5781 20.6585 34.5781C20.044 34.5781 19.4815 34.4896 18.971 34.3125C18.471 34.1354 18.044 33.8802 17.6898 33.5469C17.3356 33.2031 17.0596 32.7865 16.8617 32.2969C16.6742 31.8073 16.5856 31.2448 16.596 30.6094H18.7054C18.7158 30.901 18.7627 31.1823 18.846 31.4531C18.9294 31.7135 19.0492 31.9427 19.2054 32.1406C19.3617 32.3281 19.5544 32.4792 19.7835 32.5938C20.0231 32.7083 20.3044 32.7656 20.6273 32.7656C21.1273 32.7656 21.5492 32.6146 21.8929 32.3125C22.2367 32 22.4085 31.5781 22.4085 31.0469C22.4085 30.6302 22.3252 30.3125 22.1585 30.0938C22.0023 29.875 21.7992 29.7188 21.5492 29.625C21.2992 29.5208 21.0231 29.4635 20.721 29.4531C20.4294 29.4323 20.1481 29.4219 19.8773 29.4219V27.8594Z" fill="#75958D"/>
<path d="M27.5439 28.8594C27.5439 29.1719 27.5543 29.5521 27.5752 30C27.596 30.4375 27.6585 30.8646 27.7627 31.2813C27.8772 31.6875 28.0543 32.0365 28.2939 32.3281C28.5335 32.6198 28.8772 32.7656 29.3252 32.7656C29.7835 32.7656 30.1325 32.6198 30.372 32.3281C30.622 32.0365 30.7991 31.6875 30.9033 31.2813C31.0179 30.8646 31.0856 30.4375 31.1064 30C31.1272 29.5521 31.1377 29.1719 31.1377 28.8594C31.1377 28.6719 31.1325 28.4479 31.122 28.1875C31.122 27.9167 31.1012 27.6406 31.0595 27.3594C31.0283 27.0781 30.9762 26.8021 30.9033 26.5313C30.8408 26.25 30.7418 26 30.6064 25.7813C30.471 25.5625 30.2991 25.3854 30.0908 25.25C29.8825 25.1146 29.6272 25.0469 29.3252 25.0469C29.0231 25.0469 28.7679 25.1146 28.5595 25.25C28.3616 25.3854 28.195 25.5625 28.0595 25.7813C27.9345 26 27.8356 26.25 27.7627 26.5313C27.6897 26.8021 27.6377 27.0781 27.6064 27.3594C27.5752 27.6406 27.5543 27.9167 27.5439 28.1875C27.5439 28.4479 27.5439 28.6719 27.5439 28.8594ZM25.3252 28.8594C25.3252 27.7969 25.4293 26.9063 25.6377 26.1875C25.8564 25.4583 26.1481 24.875 26.5127 24.4375C26.8772 24 27.2991 23.6875 27.7783 23.5C28.2679 23.3125 28.7835 23.2188 29.3252 23.2188C29.8772 23.2188 30.3929 23.3125 30.872 23.5C31.3616 23.6875 31.7887 24 32.1533 24.4375C32.5283 24.875 32.82 25.4583 33.0283 26.1875C33.247 26.9063 33.3564 27.7969 33.3564 28.8594C33.3564 29.9531 33.247 30.8698 33.0283 31.6094C32.82 32.3385 32.5283 32.9219 32.1533 33.3594C31.7887 33.7969 31.3616 34.1094 30.872 34.2969C30.3929 34.4844 29.8772 34.5781 29.3252 34.5781C28.7835 34.5781 28.2679 34.4844 27.7783 34.2969C27.2991 34.1094 26.8772 33.7969 26.5127 33.3594C26.1481 32.9219 25.8564 32.3385 25.6377 31.6094C25.4293 30.8698 25.3252 29.9531 25.3252 28.8594Z" fill="#75958D"/>
<path d="M35.5074 25.5312C35.5074 25.7188 35.5439 25.8958 35.6168 26.0625C35.6897 26.2292 35.7835 26.375 35.898 26.5C36.023 26.625 36.1637 26.724 36.3199 26.7969C36.4762 26.8698 36.6376 26.9063 36.8043 26.9063C36.971 26.9063 37.1324 26.8698 37.2887 26.7969C37.4449 26.724 37.5803 26.625 37.6949 26.5C37.8199 26.375 37.9189 26.2292 37.9918 26.0625C38.0647 25.8958 38.1012 25.7188 38.1012 25.5312C38.1012 25.3438 38.0647 25.1667 37.9918 25C37.9189 24.8333 37.8199 24.6875 37.6949 24.5625C37.5803 24.4375 37.4449 24.3385 37.2887 24.2656C37.1324 24.1927 36.971 24.1563 36.8043 24.1563C36.6376 24.1563 36.4762 24.1927 36.3199 24.2656C36.1637 24.3385 36.023 24.4375 35.898 24.5625C35.7835 24.6875 35.6897 24.8333 35.6168 25C35.5439 25.1667 35.5074 25.3438 35.5074 25.5312ZM34.4918 25.5312C34.4918 25.2083 34.5491 24.9063 34.6637 24.625C34.7887 24.3438 34.9553 24.099 35.1637 23.8906C35.372 23.6823 35.6168 23.5208 35.898 23.4063C36.1793 23.2813 36.4814 23.2188 36.8043 23.2188C37.1272 23.2188 37.4293 23.2813 37.7105 23.4063C37.9918 23.5208 38.2366 23.6823 38.4449 23.8906C38.6532 24.099 38.8147 24.3438 38.9293 24.625C39.0543 24.9063 39.1168 25.2083 39.1168 25.5312C39.1168 25.8542 39.0543 26.1563 38.9293 26.4375C38.8147 26.7188 38.6532 26.9635 38.4449 27.1719C38.2366 27.3802 37.9918 27.5469 37.7105 27.6719C37.4293 27.7865 37.1272 27.8438 36.8043 27.8438C36.4814 27.8438 36.1793 27.7865 35.898 27.6719C35.6168 27.5469 35.372 27.3802 35.1637 27.1719C34.9553 26.9635 34.7887 26.7188 34.6637 26.4375C34.5491 26.1563 34.4918 25.8542 34.4918 25.5312Z" fill="#75958D"/>
</g>
<defs>
<clipPath id="clip0_4310_39133">
<rect width="50" height="29.1274" fill="white" transform="translate(0 10.9375)"/>
</clipPath>
</defs>
</svg>
