<svg width="32" height="32" viewBox="0 0 32 32" fill="none" xmlns="http://www.w3.org/2000/svg">
<path d="M31.0459 26.5261C30.5329 26.0343 30.5332 25.1462 31.0461 24.6543C32.2813 23.419 32.3081 21.3949 31.0461 20.1328C30.53 19.6167 30.53 18.7769 31.0461 18.2608C32.2814 17.0255 32.3076 15.0008 31.0461 13.7393C30.5297 13.223 30.5286 12.3847 31.0461 11.8673C32.2814 10.632 32.3076 8.60732 31.0461 7.34589C29.7996 6.09926 27.7712 6.09939 26.5245 7.34602C26.0077 7.86319 25.1691 7.86231 24.6527 7.34589C24.1356 6.82884 24.136 5.99031 24.6525 5.47401C27.5392 2.36499 23.2339 -1.93185 20.1313 0.952397C19.6151 1.46844 18.7753 1.46844 18.2593 0.952397C17.024 -0.282933 14.9993 -0.309094 13.7378 0.952397C13.2217 1.46851 12.3819 1.46851 11.8658 0.952397C10.6288 -0.284619 8.60465 -0.307971 7.34441 0.952397C6.83036 1.46645 5.99176 1.47207 5.4724 0.952397C2.37374 -1.92885 -1.93309 2.35756 0.951161 5.47413C1.46646 5.98912 1.46933 6.82753 0.950974 7.34595C-0.295594 8.59246 -0.295594 10.6208 0.950974 11.8674C1.46746 12.3839 1.4684 13.2219 0.950974 13.7394C-0.285979 14.9763 -0.309331 17.0006 0.950974 18.2609C1.4674 18.7774 1.46846 19.6155 0.950974 20.1329C-0.295532 21.3795 -0.295532 23.4079 0.950974 24.6544C2.19754 25.9009 4.22583 25.901 5.47259 24.6542C5.98945 24.1371 6.82805 24.138 7.34441 24.6544C7.85771 25.1677 7.86489 26.0062 7.34441 26.5265C4.46603 29.6239 8.75025 33.9356 11.8658 31.0479C12.3819 30.5318 13.2217 30.5319 13.7378 31.0479C14.973 32.2833 16.9977 32.3094 18.2592 31.0479C18.7753 30.5317 19.6151 30.5318 20.1312 31.0479C21.3665 32.2833 23.3912 32.3094 24.6526 31.0479C25.1667 30.5338 26.0053 30.5283 26.5246 31.0479C29.6124 33.9257 33.9372 29.6503 31.0459 26.5261ZM8.6689 2.27695C9.19013 1.75572 10.0289 1.76452 10.5414 2.27695C10.8752 2.61074 11.2652 2.85425 11.6811 3.00922L3.00911 11.6813C2.85114 11.2589 2.60376 10.8712 2.27546 10.543C1.75923 10.0267 1.75923 9.18668 2.27546 8.67044L8.6689 2.27695ZM2.27546 2.27695C2.79557 1.75691 3.63423 1.76327 4.14778 2.27676C4.47608 2.60525 4.86369 2.85269 5.28621 3.01072L3.00923 5.28769C2.8512 4.86518 2.60382 4.47763 2.27546 4.14946C1.75923 3.63316 1.75923 2.79318 2.27546 2.27695ZM2.27546 15.0639L15.0623 2.27695C15.584 1.75528 16.4228 1.76502 16.9348 2.27695C17.2686 2.61074 17.6587 2.85419 18.0745 3.00922L3.00911 18.0747C2.85114 17.6523 2.60376 17.2647 2.2754 16.9364C1.75917 16.4201 1.75917 15.5801 2.27546 15.0639ZM4.14797 23.3298C3.63174 23.8461 2.7917 23.846 2.27546 23.3298C1.75923 22.8136 1.75923 21.9735 2.27546 21.4573C2.27565 21.4571 2.27584 21.4569 2.27609 21.4567C2.27609 21.4567 21.4556 2.27714 21.4558 2.27695C22.7503 1.07996 24.5196 2.87104 23.3283 4.14939L4.14797 23.3298ZM7.53053 22.5962L22.5946 7.53208C22.7525 7.95453 22.9999 8.34215 23.3282 8.67051C23.8494 9.19174 23.8406 10.0305 23.3282 10.543L10.5414 23.3298C10.0199 23.8513 9.18095 23.8419 8.6689 23.3298C8.34054 23.0015 7.95299 22.7541 7.53053 22.5962ZM23.3282 16.9364L16.9348 23.3298C16.4185 23.8461 15.5786 23.846 15.0623 23.3298C14.7285 22.996 14.3384 22.7526 13.9225 22.5975L22.5945 13.9255C22.7525 14.348 22.9998 14.7355 23.3282 15.0639C23.8494 15.5851 23.8406 16.4239 23.3282 16.9364ZM23.3282 23.3298C22.812 23.8461 21.9719 23.8461 21.4557 23.3298C21.1219 22.996 20.7319 22.7525 20.316 22.5975L22.5945 20.3189C22.7525 20.7414 22.9998 21.1289 23.3282 21.4573C23.8507 21.9799 23.8391 22.8189 23.3282 23.3298ZM29.7216 21.4573C30.2327 21.9684 30.244 22.8075 29.7216 23.3298C28.4719 24.5794 28.4734 26.6032 29.7216 27.8508C30.9154 29.137 29.1365 30.9175 27.8493 29.7234C26.6121 28.4855 24.5878 28.4638 23.3282 29.7233C22.8158 30.2357 21.977 30.2445 21.4557 29.7233C20.2093 28.4769 18.1812 28.4769 16.9348 29.7233C16.4223 30.2357 15.5836 30.2445 15.0623 29.7233C13.8159 28.4769 11.7878 28.4769 10.5415 29.7233C10.0295 30.2352 9.19056 30.245 8.66896 29.7233C8.15272 29.2071 8.15272 28.367 8.66883 27.851C9.27254 27.2476 9.60502 26.4447 9.60496 25.5903C10.4593 25.5904 11.2623 25.258 11.866 24.6543C12.3821 24.1383 13.2219 24.1383 13.738 24.6543C14.9749 25.8913 16.999 25.9146 18.2593 24.6543C18.7754 24.1381 19.6152 24.1382 20.1313 24.6543C21.3779 25.9009 23.4062 25.9009 24.6528 24.6543C25.888 23.419 25.9148 21.3949 24.6528 20.1328C24.1356 19.6156 24.1358 18.7777 24.6528 18.2608C25.8899 17.0237 25.9129 14.9995 24.6528 13.7393C24.1364 13.223 24.1353 12.3848 24.6528 11.8673C25.2564 11.2637 25.5889 10.4607 25.5888 9.60632H25.5889C26.4433 9.60632 27.246 9.27384 27.8493 8.67032C29.133 7.47801 30.9169 9.2533 29.7218 10.5428C28.4872 11.7773 28.4595 13.8016 29.7218 15.0638C30.2342 15.5762 30.243 16.415 29.7218 16.9363C28.4864 18.1716 28.4596 20.1954 29.7216 21.4573Z" fill="black"/>
</svg>
