<svg width="32" height="32" viewBox="0 0 32 32" fill="none" xmlns="http://www.w3.org/2000/svg">
<path fill-rule="evenodd" clip-rule="evenodd" d="M24.0653 13.6823L29.1804 12.1319V23.9496L24.0653 22.3993V25.5086H16.5718L21.0958 32H18.8103L14.3803 25.6436V32H12.5053V25.6435L8.07525 32H5.78975L10.3138 25.5086H2.82031V10.5729H4.9525C3.85438 9.45006 3.17631 7.91481 3.17631 6.22394C3.17631 2.79206 5.96837 0 9.40025 0C12.0338 0 14.2905 1.64431 15.1979 3.96025C16.1006 3.0515 17.3503 2.48781 18.7292 2.48781C21.4753 2.48781 23.7094 4.72181 23.7094 7.46788C23.7094 8.6415 23.3004 9.72081 22.6186 10.5729H24.0653V13.6823ZM24.0653 20.4401L27.3054 21.4221V14.6595L24.0653 15.6415V20.4401ZM4.69531 12.4479V23.6336H22.1903V12.4479H4.69531ZM9.40025 1.875C7.00219 1.875 5.05125 3.82594 5.05125 6.22394C5.05125 8.622 7.00219 10.5729 9.40025 10.5729C11.7982 10.5729 13.7492 8.62194 13.7492 6.22394C13.7492 3.82594 11.7982 1.875 9.40025 1.875ZM21.8344 7.46781C21.8344 5.75569 20.4414 4.36275 18.7292 4.36275C17.0171 4.36275 15.6241 5.75569 15.6241 7.46781C15.6241 9.17994 17.0171 10.5729 18.7292 10.5729C20.4414 10.5729 21.8344 9.17994 21.8344 7.46781ZM17.3336 17.1033H9.55176V18.9783H17.3336V17.1033Z" fill="black"/>
</svg>
