<svg width="32" height="32" viewBox="0 0 32 32" fill="none" xmlns="http://www.w3.org/2000/svg">
<path d="M29.7991 11.2566H30.5961C32.46 11.1857 32.4585 8.51381 30.5961 8.44355H29.8666C29.6639 7.72673 29.319 7.24139 29.0341 6.84113C28.7034 6.37661 28.5525 6.16463 28.5525 5.57139C28.5525 5.32922 28.5878 5.24296 28.7049 4.95684C28.7563 4.83119 28.8122 4.69429 28.8687 4.53576H30.5961C32.46 4.46488 32.4585 1.793 30.5961 1.72274H29.2918C29.5008 -0.570371 26.2852 -0.573309 26.4785 1.72274H22.0095C22.2134 -0.572309 19.0082 -0.576185 19.1962 1.72274H14.7271C14.9361 -0.570371 11.7206 -0.573247 11.9138 1.72274H10.3303C9.71043 1.74193 9.71087 2.64141 10.3303 2.66042H19.1384C19.0884 3.08887 19.0132 3.37092 18.933 3.59809H7.27523C7.32587 3.33167 7.369 3.02323 7.3995 2.66042H8.11833C8.73819 2.64122 8.73775 1.74175 8.11833 1.72274H7.44483C7.6488 -0.572309 4.44352 -0.576185 4.63155 1.72274H1.4032C-0.460641 1.79363 -0.459203 4.4655 1.4032 4.53576H4.02538C3.60068 6.07993 4.21929 7.64222 4.87485 8.44355H1.4032C-0.460641 8.51444 -0.459203 11.1863 1.4032 11.2566H4.72351C3.50628 12.8759 3.68532 15.3703 4.89548 16.8134C4.93861 16.8741 4.97856 16.9302 5.01569 16.9836H1.4032C-0.460641 17.0545 -0.459203 19.7264 1.4032 19.7967H4.59167C3.48672 21.4296 3.77046 23.8192 4.89554 25.1539C4.93048 25.2029 4.96293 25.2487 4.99387 25.2929H1.4032C-0.460641 25.3638 -0.459203 28.0356 1.4032 28.1059H4.61161C4.25211 28.6639 3.89254 29.4184 3.89254 30.5935C3.89254 31.3691 4.52347 32 5.29905 32C6.07463 32 6.70556 31.3691 6.70556 30.5935C6.70556 30.0005 6.85647 29.7886 7.18715 29.3241C7.41432 29.005 7.68643 28.6224 7.88991 28.1059H11.8939C11.5344 28.6639 11.1748 29.4184 11.1748 30.5935C11.1748 31.3691 11.8058 32 12.5813 32C13.3569 32 13.9879 31.3691 13.9879 30.5935C13.9879 30.0005 14.1388 29.7886 14.4694 29.3241C14.695 29.0072 14.9684 28.6228 15.1723 28.1059H19.1762C18.8167 28.6639 18.4571 29.4184 18.4571 30.5935C18.4571 31.3691 19.0881 32 19.8636 32C20.6392 32 21.2701 31.3691 21.2701 30.5935C21.2701 30.0005 21.421 29.7886 21.7517 29.3241C21.9789 29.005 22.251 28.6224 22.4545 28.1059H26.4585C26.099 28.6639 25.7394 29.4184 25.7394 30.5935C25.8101 32.4569 28.482 32.4564 28.5524 30.5935C28.5524 30.0005 28.7033 29.7885 29.0341 29.324C29.2601 29.0066 29.5328 28.6225 29.7366 28.1059H30.5961C32.4599 28.035 32.4585 25.3631 30.5961 25.2929H29.9107C29.718 24.4836 29.3428 23.9562 29.0339 23.5224C28.7033 23.058 28.5524 22.846 28.5524 22.2531C28.5524 21.6601 28.7033 21.4482 29.034 20.9836C29.2549 20.6733 29.5217 20.2978 29.7241 19.7967H30.596C32.4598 19.7258 32.4584 17.0539 30.596 16.9836H29.9175C29.7271 16.157 29.3468 15.6214 29.0339 15.1819C28.7032 14.7175 28.5523 14.5056 28.5523 13.9125C28.5523 13.3195 28.7032 13.1076 29.0338 12.6431C29.2861 12.2891 29.5917 11.8594 29.7991 11.2566ZM12.8548 1.40056C12.8745 0.780817 13.7729 0.781192 13.7924 1.40056C13.7924 1.51008 13.7913 1.61741 13.7894 1.72274H12.8516C12.8535 1.6181 12.8548 1.51114 12.8548 1.40056ZM31.065 9.85006C31.065 10.1086 30.8547 10.3189 30.5961 10.3189H22.7235C22.7564 10.0321 22.7637 9.68016 22.7425 9.38123H30.5961C30.8546 9.38123 31.065 9.59151 31.065 9.85006ZM21.7517 15.1819C21.421 14.7175 21.2701 14.5055 21.2701 13.9124C21.2701 13.3195 21.421 13.1075 21.7517 12.6431C22.0029 12.2902 22.3092 11.8599 22.5167 11.2565H26.5704C25.3532 12.8759 25.5322 15.3702 26.7424 16.8134C26.7857 16.8742 26.8252 16.9299 26.8624 16.9836H22.6355C22.4437 16.1541 22.057 15.6108 21.7517 15.1819ZM21.4225 4.95678C21.4746 4.82957 21.5307 4.69229 21.5868 4.53576H25.8726C25.447 6.08143 26.0672 7.6429 26.7218 8.44355H22.5842C22.3804 7.72467 22.0319 7.2347 21.7518 6.84113C21.4211 6.37661 21.2702 6.16463 21.2702 5.57139C21.2701 5.32922 21.3055 5.2429 21.4225 4.95678ZM28.2702 7.38492C28.4922 7.69679 28.7194 8.01697 28.8803 8.44355H27.846C27.7477 8.26883 27.633 8.1068 27.5062 7.92871C26.8841 7.17588 26.3867 5.80437 26.856 4.53583H27.8639C27.8549 4.55796 27.8459 4.57996 27.8369 4.6019C27.3611 5.62459 27.6937 6.66935 28.2702 7.38492ZM27.4194 1.40056C27.4392 0.780817 28.3375 0.781192 28.3571 1.40056C28.3571 1.51014 28.356 1.61741 28.354 1.72274H27.4162C27.4182 1.6181 27.4194 1.51102 27.4194 1.40056ZM30.5961 2.66042C31.2159 2.68017 31.2154 3.57852 30.5961 3.59809H21.8398C21.8904 3.33167 21.9336 3.02323 21.9641 2.66042H30.5961ZM7.18703 23.5223C6.8564 23.058 6.7055 22.846 6.7055 22.253C6.7055 21.66 6.8564 21.4481 7.18703 20.9836C7.40963 20.671 7.67543 20.2974 7.87747 19.7966H11.874C10.7689 21.4297 11.0527 23.8192 12.178 25.154C12.2126 25.2028 12.245 25.2484 12.276 25.2928H8.06344C7.86922 24.4808 7.48852 23.9457 7.18703 23.5223ZM12.9417 7.92864C12.3183 7.17194 11.8225 5.80819 12.2914 4.53576H13.2993C13.2903 4.55789 13.2813 4.5799 13.2723 4.60184C12.7964 5.6254 13.1291 6.66903 13.7057 7.38511C13.9276 7.69685 14.1549 8.01685 14.3158 8.44355H13.2815C13.1833 8.26883 13.0688 8.1073 12.9417 7.92864ZM19.9162 9.38123C19.9618 9.65046 19.9478 10.0932 19.8644 10.3189H8.1589C8.19184 10.0321 8.19915 9.68016 8.17796 9.38123H19.9162ZM13.7056 15.7258C13.9499 16.069 14.2191 16.4487 14.3824 16.9836H13.3833C13.267 16.7266 13.1131 16.5104 12.9417 16.2695C12.553 15.7236 12.1125 15.1048 12.1125 13.9124C12.1304 12.5112 12.6359 12.0249 13.1489 11.2566H14.225C14.0746 11.5807 13.888 11.8431 13.7054 12.0994C13.3538 12.5933 13.0502 13.0198 13.0502 13.9124C13.0502 14.8052 13.3539 15.2317 13.7056 15.7258ZM19.9416 18.0828C19.9416 18.4297 19.8896 18.6461 19.7806 18.859H8.13289C8.17671 18.5816 8.19803 18.2373 8.18753 17.9213H19.9369C19.9398 17.9722 19.9416 18.0253 19.9416 18.0828ZM7.95217 11.2566H12.0059C10.7886 12.8759 10.9677 15.3703 12.178 16.8135C12.2207 16.8736 12.2604 16.9296 12.2979 16.9836H8.07094C7.87916 16.1542 7.49252 15.6108 7.18715 15.1819C6.85647 14.7175 6.70556 14.5056 6.70556 13.9125C6.70556 13.3195 6.85647 13.1076 7.18709 12.6431C7.43826 12.2902 7.74463 11.86 7.95217 11.2566ZM13.3684 25.2928C13.254 25.0496 13.1068 24.8418 12.9417 24.61C11.8318 23.2599 11.8342 21.2428 12.9417 19.8959C12.9658 19.862 12.9891 19.8292 13.0121 19.7966H14.1233C13.9941 20.033 13.8485 20.2388 13.7054 20.4399C13.3537 20.9338 13.0501 21.3604 13.0501 22.253C13.0501 23.1457 13.3538 23.5722 13.7055 24.0661C13.9558 24.4178 14.2131 24.7793 14.374 25.2928H13.3684ZM15.3457 25.2928C15.1523 24.4823 14.7762 23.9532 14.4693 23.5223C14.1387 23.058 13.9878 22.846 13.9878 22.253C13.9878 21.66 14.1387 21.4481 14.4693 20.9836C14.6901 20.6736 14.9572 20.2979 15.1596 19.7966H19.1562C18.0512 21.4296 18.335 23.8192 19.4601 25.1538C19.495 25.2028 19.5274 25.2486 19.5584 25.2928H15.3457ZM15.3533 16.9836C15.1631 16.1571 14.7827 15.6219 14.4694 15.1819C14.1387 14.7175 13.9878 14.5055 13.9878 13.9124C13.9878 13.3195 14.1387 13.1075 14.4694 12.643C14.7211 12.2895 15.0269 11.8594 15.2343 11.2565H19.2881C18.0709 12.8759 18.2499 15.3702 19.4601 16.8134C19.5032 16.874 19.5431 16.9301 19.5803 16.9836H15.3533ZM15.3022 8.44355C15.0994 7.72636 14.754 7.24095 14.4694 6.84113C14.1388 6.37661 13.9879 6.16463 13.9879 5.57139C13.9879 5.32922 14.0232 5.24296 14.1403 4.95684C14.1916 4.83126 14.2475 4.69429 14.3041 4.53576H18.59C18.1653 6.07993 18.7839 7.64222 19.4395 8.44355H15.3022ZM11.3078 4.53576C10.8825 6.08118 11.5025 7.6429 12.1572 8.44355H8.01956C7.81577 7.72467 7.46727 7.2347 7.18715 6.84113C6.85647 6.37661 6.70556 6.16463 6.70556 5.57139C6.70556 5.32922 6.74088 5.24296 6.85797 4.95678C6.91004 4.82957 6.96611 4.69229 7.02225 4.53576H11.3078ZM0.934368 3.12925C0.934368 2.8707 1.14466 2.66042 1.4032 2.66042H4.57379C4.52385 3.08887 4.44858 3.37092 4.36844 3.59809H1.4032C1.14466 3.59809 0.934368 3.3878 0.934368 3.12925ZM0.934368 9.85006C0.934368 9.59151 1.14466 9.38123 1.4032 9.38123H5.35162C5.3972 9.65046 5.38319 10.0932 5.2998 10.3189H1.4032C1.14466 10.3189 0.934368 10.1085 0.934368 9.85006ZM0.934368 18.3901C0.934368 18.1315 1.14466 17.9212 1.4032 17.9212H5.37238C5.39707 18.2657 5.34437 18.6343 5.21604 18.8589H1.4032C1.14466 18.8589 0.934368 18.6486 0.934368 18.3901ZM0.934368 26.6993C0.934368 26.4408 1.14466 26.2305 1.4032 26.2305H5.37063C5.3977 26.5602 5.35262 26.9474 5.23179 27.1681H1.4032C1.14466 27.1681 0.934368 26.9579 0.934368 26.6993ZM6.42326 28.7802C6.07163 29.2741 5.76789 29.7007 5.76789 30.5935C5.76789 30.852 5.5576 31.0623 5.29905 31.0623C5.04057 31.0623 4.83022 30.852 4.83022 30.5935C4.83022 29.4011 5.27067 28.7823 5.65937 28.2364C6.011 27.7424 6.31474 27.3159 6.31474 26.4231C6.31474 25.5305 6.01106 25.1039 5.65937 24.6101C4.54948 23.2599 4.55191 21.2429 5.65949 19.8959C6.01112 19.402 6.31474 18.9754 6.31474 18.0828C6.31474 17.1901 6.01106 16.7635 5.65937 16.2695C5.27073 15.7236 4.83022 15.1048 4.83022 13.9124C4.81534 11.687 6.29505 11.6631 6.3148 9.74223C6.31474 8.84931 6.01106 8.42267 5.65937 7.92871C4.93574 7.05092 4.50578 5.56095 5.12233 4.24659C5.33331 3.73086 5.57254 3.14638 5.57254 1.40062C5.59198 0.781442 6.49052 0.780755 6.51021 1.40062C6.51021 3.33085 6.20966 4.06536 5.99012 4.60184C5.51428 5.62465 5.8469 6.66935 6.42339 7.38492C7.53315 8.73511 7.5309 10.7524 6.42326 12.0993C6.07163 12.5932 5.76801 13.0198 5.76801 13.9124C5.76801 14.8052 6.0717 15.2317 6.42339 15.7257C7.53184 17.0724 7.53165 19.0935 6.42326 20.4398C6.07163 20.9337 5.76801 21.3603 5.76801 22.2529C5.76801 23.1456 6.0717 23.5722 6.42339 24.0661C7.53315 25.4163 7.53065 27.4333 6.42326 28.7802ZM8.1864 26.2305H19.9352C19.9623 26.5602 19.9172 26.9474 19.7964 27.1681H8.13739C8.17946 26.8897 8.1989 26.5428 8.1864 26.2305ZM13.7056 28.7802C13.3539 29.2742 13.0502 29.7007 13.0502 30.5935C13.0502 30.852 12.8399 31.0623 12.5813 31.0623C12.3228 31.0623 12.1125 30.852 12.1125 30.5935C12.1125 29.4011 12.553 28.7823 12.9422 28.2356C12.9737 28.1913 13.0044 28.1483 13.0342 28.1058H14.1406C14.0073 28.3555 13.855 28.5703 13.7056 28.7802ZM20.9878 28.7802C20.6362 29.2741 20.3325 29.7007 20.3325 30.5935C20.3325 30.852 20.1222 31.0623 19.8636 31.0623C19.6051 31.0623 19.3948 30.852 19.3948 30.5935C19.3948 29.4011 19.8353 28.7823 20.2239 28.2364C20.5756 27.7424 20.8793 27.3159 20.8793 26.4231C20.8793 25.5305 20.5756 25.1039 20.2239 24.6101C19.1141 23.2599 19.1165 21.2429 20.2241 19.8959C20.5757 19.402 20.8793 18.9754 20.8793 18.0828C20.8793 17.1901 20.5756 16.7635 20.2239 16.2695C19.8353 15.7236 19.3948 15.1048 19.3948 13.9124C19.3799 11.687 20.8596 11.6631 20.8794 9.74223C20.8793 8.84931 20.5756 8.42267 20.2239 7.92871C19.5003 7.05092 19.0704 5.56095 19.6869 4.24659C19.8979 3.73086 20.1371 3.14638 20.1371 1.40062C20.1566 0.781442 21.0551 0.780755 21.0748 1.40062C21.0748 3.33085 20.7742 4.06536 20.5547 4.60184C20.0789 5.62465 20.4115 6.66935 20.988 7.38492C22.0977 8.73511 22.0955 10.7524 20.9878 12.0993C20.6362 12.5932 20.3326 13.0198 20.3326 13.9124C20.3326 14.8052 20.6363 15.2317 20.988 15.7257C22.0964 17.0724 22.0962 19.0935 20.9878 20.4398C20.6362 20.9337 20.3326 21.3603 20.3326 22.2529C20.3326 23.1456 20.6363 23.5722 20.988 24.0661C22.0977 25.4163 22.0952 27.4333 20.9878 28.7802ZM28.2702 28.7802C27.9186 29.2742 27.6148 29.7007 27.6148 30.5935C27.6148 30.852 27.4045 31.0623 27.146 31.0623C26.8874 31.0623 26.6771 30.852 26.6771 30.5935C26.6771 29.4011 27.1176 28.7823 27.5062 28.2365C27.5379 28.192 27.5686 28.1488 27.5988 28.1058H28.7054C28.5722 28.3555 28.4197 28.5701 28.2702 28.7802ZM31.065 26.6993C31.065 26.9579 30.8547 27.1681 30.5961 27.1681H22.702C22.744 26.8897 22.7635 26.5428 22.751 26.2305H30.5961C30.8546 26.2305 31.065 26.4408 31.065 26.6993ZM28.2701 20.4399C27.9184 20.9338 27.6148 21.3604 27.6148 22.253C27.6148 23.1457 27.9185 23.5722 28.2702 24.0661C28.5097 24.4025 28.7733 24.7742 28.9374 25.2928H27.9331C27.8187 25.0496 27.671 24.8412 27.5063 24.61C27.2575 24.2605 27.0002 23.8992 26.8377 23.3828C26.76 23.1358 26.497 22.9985 26.2498 23.0763C26.0028 23.154 25.8656 23.4172 25.9433 23.6642C26.1504 24.3221 26.4787 24.7833 26.7426 25.154C26.7772 25.2027 26.8095 25.2483 26.8407 25.2928H22.6281C22.4339 24.4808 22.0532 23.9457 21.7517 23.5223C21.421 23.058 21.2701 22.846 21.2701 22.253C21.2701 21.66 21.421 21.4481 21.7517 20.9836C21.9743 20.671 22.2401 20.2974 22.4421 19.7966H26.4384C26.2007 20.17 25.968 20.6273 25.8395 21.2394C25.7863 21.4928 25.9487 21.7414 26.2021 21.7945C26.449 21.8484 26.7051 21.6871 26.7572 21.432C26.9011 20.746 27.2087 20.3139 27.5072 19.8947C27.5311 19.8612 27.5539 19.8289 27.5767 19.7967H28.6878C28.5587 20.0329 28.4133 20.2388 28.2701 20.4399ZM31.065 18.3901C31.065 18.6486 30.8547 18.8589 30.5961 18.8589H22.6975C22.7414 18.5815 22.7627 18.2372 22.7522 17.9212H30.5961C30.8546 17.9212 31.065 18.1316 31.065 18.3901ZM28.2702 15.7258C28.5144 16.0688 28.7838 16.4487 28.9471 16.9836H27.9474C27.8311 16.7268 27.6775 16.51 27.5062 16.2696C26.397 14.9209 26.3985 12.9021 27.5062 11.5554C27.5785 11.454 27.6478 11.3557 27.7132 11.2566H28.7895C28.6391 11.5806 28.4525 11.843 28.2701 12.0994C27.9184 12.5933 27.6148 13.0198 27.6148 13.9124C27.6148 14.8052 27.9185 15.2317 28.2702 15.7258Z" fill="black"/>
</svg>
