<svg width="32" height="32" viewBox="0 0 32 32" fill="none" xmlns="http://www.w3.org/2000/svg">
<path fill-rule="evenodd" clip-rule="evenodd" d="M24.625 19.7656L29.8777 22.7138C30.5146 23.0712 30.5155 23.9908 29.8777 24.3488L16.459 31.8801C16.1739 32.0401 15.8262 32.04 15.5412 31.8801L2.12249 24.3488C1.48568 23.9914 1.48474 23.0718 2.12249 22.7138L7.37524 19.7656L2.12249 16.8175C1.48568 16.4601 1.48474 15.5404 2.12249 15.1824L7.37524 12.2344L2.12255 9.28631C1.48574 8.92887 1.4848 8.00925 2.12255 7.65125L15.5412 0.12C15.8263 -0.04 16.1739 -0.04 16.459 0.12L29.8777 7.65119C30.5146 8.00869 30.5154 8.92831 29.8777 9.28625L24.6252 12.2342L29.8777 15.1824C30.5147 15.5399 30.5154 16.4596 29.8777 16.8175L24.625 19.7656ZM27.5034 8.46875L16.0001 2.01256L4.49687 8.46875L16.0001 14.9249L27.5034 8.46875ZM15.5413 16.8175L9.2908 13.3094L4.49687 16L16.0001 22.4562L27.5036 15.9999L22.7099 13.3092L16.4591 16.8175C16.174 16.9775 15.8262 16.9774 15.5413 16.8175ZM4.4968 23.5312L16.0001 29.9874L27.5034 23.5312L22.7095 20.8407L16.459 24.3487C16.1739 24.5087 15.8262 24.5087 15.5412 24.3487L9.29074 20.8407L4.4968 23.5312ZM16.9375 19.3609C16.9375 19.8787 16.5178 20.2984 16 20.2984C15.4822 20.2984 15.0625 19.8787 15.0625 19.3609C15.0625 18.8432 15.4822 18.4234 16 18.4234C16.5178 18.4234 16.9375 18.8432 16.9375 19.3609ZM12.5669 18.5021C13.0847 18.5021 13.5044 18.0823 13.5044 17.5646C13.5044 17.0468 13.0847 16.6271 12.5669 16.6271C12.0491 16.6271 11.6294 17.0468 11.6294 17.5646C11.6294 18.0823 12.0491 18.5021 12.5669 18.5021ZM10.0713 15.8471C10.0713 16.3649 9.65156 16.7846 9.13379 16.7846C8.61602 16.7846 8.19629 16.3649 8.19629 15.8471C8.19629 15.3294 8.61602 14.9096 9.13379 14.9096C9.65156 14.9096 10.0713 15.3294 10.0713 15.8471ZM19.4331 18.5021C19.9509 18.5021 20.3706 18.0823 20.3706 17.5646C20.3706 17.0468 19.9509 16.6271 19.4331 16.6271C18.9153 16.6271 18.4956 17.0468 18.4956 17.5646C18.4956 18.0823 18.9153 18.5021 19.4331 18.5021ZM23.8037 15.8471C23.8037 16.3649 23.384 16.7846 22.8662 16.7846C22.3484 16.7846 21.9287 16.3649 21.9287 15.8471C21.9287 15.3294 22.3484 14.9096 22.8662 14.9096C23.384 14.9096 23.8037 15.3294 23.8037 15.8471Z" fill="black"/>
</svg>
