<svg width="32" height="32" viewBox="0 0 32 32" fill="none" xmlns="http://www.w3.org/2000/svg">
<path fill-rule="evenodd" clip-rule="evenodd" d="M2.5 2.5H7.5V0H0V7.5H2.5V2.5ZM24.5 0V2.5H29.5V7.5H32V0H24.5ZM0 24.5H2.5V29.5H7.5V32H0V24.5ZM29.5 29.5H24.5V32H32V24.5H29.5V29.5ZM14.75 14.75H4.75V4.75H14.75V14.75ZM12.25 7.25H7.25V12.25H12.25V7.25ZM27.25 4.75H17.25V14.75H27.25V4.75ZM24.75 12.25H19.75V7.25H24.75V12.25ZM14.75 27.25H4.75V17.25H14.75V27.25ZM12.25 19.75H7.25V24.75H12.25V19.75ZM19.75 19.75V17.25H17.25V22.25H19.75V24.75H17.25V27.25H19.75V24.75H22.25V27.25H27.25V24.75H22.25V19.75H24.75V22.25H27.25V17.25H22.25V19.75H19.75Z" fill="black"/>
</svg>
