<svg width="50" height="50" viewBox="0 0 50 50" fill="none" xmlns="http://www.w3.org/2000/svg">
<g clip-path="url(#clip0_4310_39192)">
<path d="M3.05445 15.4274C4.36289 16.2945 5.18115 17.021 6.87236 16.812C8.19056 16.6499 9.80756 14.9197 11.0633 14.3631C14.8441 12.6895 16.59 18.4603 20.4372 16.4136C22.1967 15.4782 23.2982 13.8378 25.5342 14.0897C26.9481 14.2479 28.5026 15.9703 29.8111 16.5503C33.5802 18.2181 35.3124 12.5157 39.1244 14.4627C40.2747 15.0505 41.8878 16.6538 43.1181 16.8159C44.8191 17.0405 45.6295 16.2906 46.938 15.4294C47.3618 14.5506 47.6156 11.8868 48.1859 11.256C48.8069 10.5686 49.9806 11.092 49.9982 11.9942L42.4112 40.0671L7.53244 40.0495L0.00402375 12.1719C-0.109244 10.9299 1.56243 10.3479 2.078 11.7657C2.48811 12.8945 2.65215 14.2752 3.05445 15.4274ZM46.0865 18.4818C44.4949 19.095 42.8213 19.1262 41.2707 18.3665C40.2181 17.849 39.0932 16.7202 38.0835 16.2808C37.5621 16.0523 37.3434 16.0816 36.8415 16.316C34.75 17.2963 33.8712 19.0403 31.1019 18.9719C28.5729 18.9094 27.5926 17.228 25.6475 16.316C25.1026 16.0602 24.8956 16.0582 24.343 16.316C22.3022 17.271 21.3863 19.0032 18.6971 18.9778C16.008 18.9524 15.1233 17.2397 13.149 16.316C12.5572 16.0387 12.3619 16.066 11.7839 16.3531C9.30567 17.5795 8.43663 19.5207 5.07179 18.8294C4.91165 18.7962 3.91177 18.3997 3.90396 18.5325L9.08499 38.0068L40.8567 38.0166L46.0885 18.4818H46.0865Z" fill="#75958D"/>
<path d="M16.8926 27.6406C16.8717 27.0156 16.9447 26.4375 17.1113 25.9062C17.278 25.3646 17.528 24.8958 17.8613 24.5C18.1947 24.0938 18.6113 23.7813 19.1113 23.5625C19.6217 23.3333 20.2051 23.2188 20.8613 23.2188C21.3613 23.2188 21.8353 23.2969 22.2832 23.4531C22.7415 23.6094 23.1426 23.8333 23.4863 24.125C23.8301 24.4167 24.1009 24.776 24.2988 25.2031C24.5072 25.6302 24.6113 26.1094 24.6113 26.6406C24.6113 27.1927 24.5228 27.6667 24.3457 28.0625C24.1686 28.4583 23.9342 28.8125 23.6426 29.125C23.3509 29.4271 23.0176 29.7031 22.6426 29.9531C22.278 30.2031 21.9082 30.4531 21.5332 30.7031C21.1582 30.9427 20.7936 31.2031 20.4395 31.4844C20.0853 31.7656 19.7728 32.0938 19.502 32.4688H24.6738V34.375H16.6426C16.6426 33.7396 16.7311 33.1875 16.9082 32.7188C17.0957 32.25 17.3457 31.8333 17.6582 31.4688C17.9707 31.0938 18.3353 30.75 18.752 30.4375C19.179 30.125 19.627 29.8073 20.0957 29.4844C20.3353 29.3177 20.5905 29.151 20.8613 28.9844C21.1322 28.8073 21.377 28.6146 21.5957 28.4063C21.8249 28.1979 22.0124 27.9635 22.1582 27.7031C22.3145 27.4427 22.3926 27.1458 22.3926 26.8125C22.3926 26.2813 22.2363 25.8698 21.9238 25.5781C21.6217 25.276 21.2311 25.125 20.752 25.125C20.429 25.125 20.153 25.2031 19.9238 25.3594C19.7051 25.5052 19.528 25.7031 19.3926 25.9531C19.2572 26.1927 19.1582 26.4635 19.0957 26.7656C19.0436 27.0573 19.0176 27.349 19.0176 27.6406H16.8926Z" fill="#75958D"/>
<path d="M27.5436 28.8594C27.5436 29.1719 27.554 29.5521 27.5748 30C27.5957 30.4375 27.6582 30.8646 27.7623 31.2813C27.8769 31.6875 28.054 32.0365 28.2936 32.3281C28.5332 32.6198 28.8769 32.7656 29.3248 32.7656C29.7832 32.7656 30.1321 32.6198 30.3717 32.3281C30.6217 32.0365 30.7988 31.6875 30.903 31.2813C31.0175 30.8646 31.0852 30.4375 31.1061 30C31.1269 29.5521 31.1373 29.1719 31.1373 28.8594C31.1373 28.6719 31.1321 28.4479 31.1217 28.1875C31.1217 27.9167 31.1009 27.6406 31.0592 27.3594C31.028 27.0781 30.9759 26.8021 30.903 26.5313C30.8405 26.25 30.7415 26 30.6061 25.7813C30.4707 25.5625 30.2988 25.3854 30.0905 25.25C29.8821 25.1146 29.6269 25.0469 29.3248 25.0469C29.0227 25.0469 28.7675 25.1146 28.5592 25.25C28.3613 25.3854 28.1946 25.5625 28.0592 25.7813C27.9342 26 27.8352 26.25 27.7623 26.5313C27.6894 26.8021 27.6373 27.0781 27.6061 27.3594C27.5748 27.6406 27.554 27.9167 27.5436 28.1875C27.5436 28.4479 27.5436 28.6719 27.5436 28.8594ZM25.3248 28.8594C25.3248 27.7969 25.429 26.9063 25.6373 26.1875C25.8561 25.4583 26.1477 24.875 26.5123 24.4375C26.8769 24 27.2988 23.6875 27.778 23.5C28.2675 23.3125 28.7832 23.2188 29.3248 23.2188C29.8769 23.2188 30.3925 23.3125 30.8717 23.5C31.3613 23.6875 31.7884 24 32.153 24.4375C32.528 24.875 32.8196 25.4583 33.028 26.1875C33.2467 26.9063 33.3561 27.7969 33.3561 28.8594C33.3561 29.9531 33.2467 30.8698 33.028 31.6094C32.8196 32.3385 32.528 32.9219 32.153 33.3594C31.7884 33.7969 31.3613 34.1094 30.8717 34.2969C30.3925 34.4844 29.8769 34.5781 29.3248 34.5781C28.7832 34.5781 28.2675 34.4844 27.778 34.2969C27.2988 34.1094 26.8769 33.7969 26.5123 33.3594C26.1477 32.9219 25.8561 32.3385 25.6373 31.6094C25.429 30.8698 25.3248 29.9531 25.3248 28.8594Z" fill="#75958D"/>
<path d="M35.5071 25.5312C35.5071 25.7188 35.5435 25.8958 35.6165 26.0625C35.6894 26.2292 35.7831 26.375 35.8977 26.5C36.0227 26.625 36.1633 26.724 36.3196 26.7969C36.4758 26.8698 36.6373 26.9063 36.804 26.9063C36.9706 26.9063 37.1321 26.8698 37.2883 26.7969C37.4446 26.724 37.58 26.625 37.6946 26.5C37.8196 26.375 37.9185 26.2292 37.9915 26.0625C38.0644 25.8958 38.1008 25.7188 38.1008 25.5312C38.1008 25.3438 38.0644 25.1667 37.9915 25C37.9185 24.8333 37.8196 24.6875 37.6946 24.5625C37.58 24.4375 37.4446 24.3385 37.2883 24.2656C37.1321 24.1927 36.9706 24.1563 36.804 24.1563C36.6373 24.1563 36.4758 24.1927 36.3196 24.2656C36.1633 24.3385 36.0227 24.4375 35.8977 24.5625C35.7831 24.6875 35.6894 24.8333 35.6165 25C35.5435 25.1667 35.5071 25.3438 35.5071 25.5312ZM34.4915 25.5312C34.4915 25.2083 34.5487 24.9063 34.6633 24.625C34.7883 24.3438 34.955 24.099 35.1633 23.8906C35.3717 23.6823 35.6165 23.5208 35.8977 23.4063C36.179 23.2813 36.481 23.2188 36.804 23.2188C37.1269 23.2188 37.429 23.2813 37.7102 23.4063C37.9915 23.5208 38.2362 23.6823 38.4446 23.8906C38.6529 24.099 38.8144 24.3438 38.929 24.625C39.054 24.9063 39.1165 25.2083 39.1165 25.5312C39.1165 25.8542 39.054 26.1563 38.929 26.4375C38.8144 26.7188 38.6529 26.9635 38.4446 27.1719C38.2362 27.3802 37.9915 27.5469 37.7102 27.6719C37.429 27.7865 37.1269 27.8438 36.804 27.8438C36.481 27.8438 36.179 27.7865 35.8977 27.6719C35.6165 27.5469 35.3717 27.3802 35.1633 27.1719C34.955 26.9635 34.7883 26.7188 34.6633 26.4375C34.5487 26.1563 34.4915 25.8542 34.4915 25.5312Z" fill="#75958D"/>
</g>
<defs>
<clipPath id="clip0_4310_39192">
<rect width="50" height="29.1274" fill="white" transform="translate(0 10.9375)"/>
</clipPath>
</defs>
</svg>
