<svg width="32" height="32" viewBox="0 0 32 32" fill="none" xmlns="http://www.w3.org/2000/svg">
<path d="M31.1061 15.1831C31.917 14.393 32.2032 13.2335 31.8532 12.1575C31.5038 11.081 30.5908 10.3112 29.4703 10.1484L22.5524 9.14322C22.2012 9.09197 21.8978 8.87153 21.7408 8.55353L18.6469 2.28428C18.1459 1.26959 17.1317 0.639282 15.9999 0.639282C14.8682 0.639282 13.8539 1.26959 13.3529 2.28428C13.3529 2.28434 10.2591 8.55347 10.2591 8.55347C10.1021 8.87159 9.7987 9.09203 9.44807 9.14316L2.5297 10.1483C1.4092 10.3112 0.496134 11.081 0.146946 12.1569C-0.203241 13.2335 0.0829463 14.3931 0.893634 15.1829L5.89976 20.0632C6.1537 20.3106 6.26957 20.667 6.20976 21.0162L5.02776 27.9071C4.83676 29.0227 5.2867 30.1288 6.20201 30.7937C7.11751 31.4589 8.30876 31.5451 9.31101 31.0187L15.4986 27.7654C15.8125 27.6005 16.1873 27.6005 16.5009 27.7652L22.689 31.0187C23.6913 31.5452 24.8825 31.4589 25.798 30.7937C26.7133 30.1288 27.1633 29.0227 26.9723 27.9071L25.7902 21.0165C25.7304 20.667 25.8462 20.3106 26.1003 20.063L31.1061 15.1831ZM23.9421 21.333L25.1243 28.2241C25.1949 28.6368 25.0349 29.0306 24.696 29.2768C24.5079 29.4135 24.2899 29.4857 24.0656 29.4857C23.9673 29.4857 23.7789 29.4732 23.561 29.3587L17.3734 26.1056C16.9511 25.8838 16.4764 25.7667 16.0001 25.7667C15.5235 25.7667 15.0485 25.8839 14.6266 26.1056L8.43845 29.3591C8.01338 29.5824 7.58801 29.4832 7.3042 29.2769C6.9652 29.0307 6.80513 28.6369 6.87588 28.2235L8.05782 21.3333C8.22182 20.3749 7.9042 19.3984 7.20838 18.7203L2.20251 13.8403C1.90213 13.5477 1.80038 13.1353 1.93001 12.737C2.05957 12.3378 2.38445 12.0642 2.79945 12.0039L9.71757 10.9987C10.6799 10.8583 11.5105 10.2546 11.9405 9.38341L15.0343 3.11441C15.2198 2.73866 15.5808 2.51434 16 2.51434C16.4192 2.51434 16.7803 2.73866 16.9658 3.11441L20.0594 9.38334C20.4896 10.2547 21.3203 10.8584 22.2818 10.9987C23.8154 11.2213 26.7529 11.6478 29.2004 12.0039C29.6156 12.0642 29.9405 12.338 30.0698 12.7363C30.1997 13.1355 30.0978 13.5477 29.7977 13.8402L24.7915 18.7204C24.0957 19.3984 23.7781 20.3752 23.9421 21.333Z" fill="black"/>
</svg>
