<svg width="32" height="32" viewBox="0 0 32 32" fill="none" xmlns="http://www.w3.org/2000/svg">
<path d="M21.1608 18.1595C21.1608 21.0053 18.8458 23.3203 16 23.3203C13.1542 23.3203 10.8401 21.0053 10.8401 18.1595C10.8401 15.3137 13.1542 12.9986 16 12.9986C18.8458 12.9986 21.1608 15.3145 21.1608 18.1595ZM32 10.8313V25.4894C32 27.4435 30.4157 29.0278 28.4615 29.0278H3.53845C1.58434 29.0278 0 27.4435 0 25.4894V10.8313C0 8.87721 1.58434 7.29286 3.53845 7.29286H7.89075V6.06856C7.89075 4.3586 9.27606 2.97241 10.9869 2.97241H21.0131C22.7239 2.97241 24.1092 4.3586 24.1092 6.06856V7.29198H28.4615C30.4157 7.29286 32 8.87721 32 10.8313ZM23.8147 18.1595C23.8147 13.8505 20.309 10.3448 16 10.3448C11.6919 10.3448 8.18621 13.8505 8.18621 18.1595C8.18621 22.4684 11.6919 25.9741 16 25.9741C20.309 25.9741 23.8147 22.4684 23.8147 18.1595Z" fill="black"/>
</svg>
