<svg width="32" height="32" viewBox="0 0 32 32" fill="none" xmlns="http://www.w3.org/2000/svg">
<path fill-rule="evenodd" clip-rule="evenodd" d="M8.67627 3.15827C8.67627 2.65125 9.08729 2.24023 9.5943 2.24023H28.414C29.428 2.24023 30.25 3.06227 30.25 4.0763V21.5189C30.25 22.0259 29.839 22.437 29.332 22.437C28.825 22.437 28.414 22.0259 28.414 21.5189V4.0763H9.5943C9.08729 4.0763 8.67627 3.66528 8.67627 3.15827ZM4.34886 9.58447H20.5874C21.7447 9.58447 22.6864 10.526 22.6863 11.6833V27.922C22.6863 29.0793 21.7448 30.0208 20.5875 30.0208H4.34886C3.19153 30.0208 2.25006 29.0793 2.25 27.9219V11.6833C2.25 10.526 3.19153 9.58447 4.34886 9.58447ZM4.34886 28.1049H20.5875C20.6884 28.1049 20.7705 28.0229 20.7705 27.922H20.7704V11.6833C20.7704 11.5824 20.6884 11.5004 20.5875 11.5004H4.34886C4.24796 11.5004 4.16589 11.5824 4.16589 11.6833V27.922C4.16589 28.0229 4.24796 28.1049 4.34886 28.1049ZM13.5585 18.4726H16.9386V19.9748H13.5585V23.3548H12.0563V19.9748H8.67627V18.4726H12.0563V15.0925H13.5585V18.4726ZM5.92194 5.91235C5.41492 5.91235 5.00391 6.32337 5.00391 6.83039C5.00391 7.3374 5.41492 7.74842 5.92194 7.74842H24.7416V25.191C24.7416 25.6981 25.1526 26.1091 25.6596 26.1091C26.1667 26.1091 26.5777 25.6981 26.5777 25.191V7.74842C26.5777 6.73439 25.7556 5.91235 24.7416 5.91235H5.92194Z" fill="black"/>
</svg>
