<svg width="32" height="32" viewBox="0 0 32 32" fill="none" xmlns="http://www.w3.org/2000/svg">
<path d="M31.0039 3.89367L28.1041 0.993678C26.7792 -0.331257 24.6236 -0.331195 23.2986 0.993678C22.0512 2.24124 2.99774 21.2961 1.72443 22.5695C1.5888 22.7051 1.49793 22.8854 1.46555 23.0617L0.0156821 30.8917C-0.0405052 31.1952 0.0562446 31.5071 0.274557 31.7254C0.493119 31.9439 0.804993 32.0405 1.10818 31.9843L8.93748 30.5342C9.11841 30.5005 9.29629 30.4087 9.42966 30.2753L31.0039 8.69948C32.3319 7.37148 32.3321 5.22186 31.0039 3.89367ZM2.10755 29.8922L2.98461 25.1557L6.84373 29.0151L2.10755 29.8922ZM8.76679 28.2865L3.71311 23.2325L22.1637 4.78048L27.2174 9.83454L8.76679 28.2865ZM29.6781 7.37367L28.5431 8.50873L23.4895 3.45467L24.6244 2.31961C25.2182 1.72574 26.1844 1.72568 26.7783 2.31961L29.6781 5.21961C30.2734 5.81492 30.2734 6.77829 29.6781 7.37367Z" fill="black"/>
</svg>
