<svg width="32" height="32" viewBox="0 0 32 32" fill="none" xmlns="http://www.w3.org/2000/svg">
<path fill-rule="evenodd" clip-rule="evenodd" d="M31.0788 23.9888L26.4538 19.3618C25.8326 18.7438 25.0009 18.4033 24.1121 18.4033C23.1872 18.4033 22.3139 18.7675 21.6536 19.4282L19.8532 21.2282C18.4542 20.4506 16.5948 19.3811 14.6643 17.4506C12.7361 15.5217 11.6665 13.6677 10.8849 12.2612L12.687 10.4605C14.0268 9.11787 14.0542 6.96393 12.7483 5.6592L8.12415 1.03494C7.50474 0.413814 6.67301 0.0717468 5.78196 0.0717468C4.87768 0.0717468 4.02225 0.419904 3.36578 1.0536C2.96864 1.37343 0.975674 3.13275 0.232895 6.761C-0.807075 11.8395 1.58237 16.7257 8.48038 23.6265C16.186 31.3298 22.7643 31.9285 24.597 31.9285C24.9785 31.9285 25.2087 31.9049 25.2702 31.8978C28.8638 31.4766 30.1506 29.8806 31.0901 28.7153C32.3074 27.205 32.3032 25.2177 31.0788 23.9888ZM29.5441 27.4689L29.5441 27.4689C28.661 28.5642 27.827 29.5986 25.0392 29.9255L25.0387 29.9255L25.0387 29.9255C25.0294 29.9265 24.8774 29.9427 24.597 29.9427C22.9574 29.9427 17.0503 29.3859 9.88452 22.2223C3.52331 15.8585 1.2906 11.4943 2.17821 7.15919C2.82607 3.99454 4.54607 2.64943 4.61292 2.59833L4.67223 2.55452L4.72425 2.50236C5.01138 2.21549 5.38694 2.05743 5.78183 2.05743C6.14137 2.05743 6.47391 2.1922 6.71907 2.43816L11.3443 7.06348C11.8764 7.59512 11.8481 8.48973 11.2819 9.05711L9.24394 11.0934L9.21045 11.1284C8.67934 11.7134 8.74183 12.504 9.03438 13.0188C9.87857 14.5422 11.0349 16.6287 13.2599 18.8544C15.4773 21.0717 17.5604 22.2271 19.0796 23.0697L19.0801 23.07C19.2322 23.1554 19.5462 23.2986 19.9392 23.2986C20.4034 23.2986 20.8295 23.1021 21.145 22.744L23.0576 20.832C23.3431 20.5463 23.7175 20.3889 24.1118 20.3889C24.4722 20.3889 24.8064 20.5241 25.0511 20.7674L29.6731 25.3914C30.2602 25.9806 30.0178 26.8814 29.5441 27.4689ZM19.3867 4.93682C21.0927 5.13313 23.1014 6.16649 24.5041 7.56931C25.9199 8.9851 26.9558 11.0142 27.1428 12.7387C27.198 13.2474 27.6282 13.6245 28.1286 13.6245C28.1644 13.6245 28.2006 13.6225 28.2369 13.6186C28.7821 13.5595 29.176 13.0697 29.1168 12.5245C28.8803 10.3446 27.6507 7.90793 25.9082 6.16529C24.182 4.43894 21.7702 3.21245 19.6137 2.96424C19.0693 2.90109 18.5767 3.2924 18.5139 3.83701C18.4512 4.38162 18.8418 4.87407 19.3867 4.93682ZM21.4952 10.7231C20.6587 9.8866 19.3818 9.2022 18.4591 9.0959C17.9143 9.03316 17.5236 8.54057 17.5862 7.99583C17.6489 7.45123 18.1408 7.05978 18.6861 7.12319C20.261 7.30468 21.9369 8.3567 22.8991 9.31896C23.8699 10.2898 24.927 11.9823 25.0996 13.5746C25.1588 14.1197 24.7647 14.6095 24.2196 14.6687C24.1833 14.6725 24.1472 14.6745 24.1114 14.6745C23.611 14.6745 23.1808 14.2975 23.1256 13.7886C23.0246 12.856 22.3389 11.5669 21.4952 10.7231Z" fill="#000002"/>
</svg>
