<svg width="32" height="32" viewBox="0 0 32 32" fill="none" xmlns="http://www.w3.org/2000/svg">
<path fill-rule="evenodd" clip-rule="evenodd" d="M22.5625 3.75H27.25C28.8008 3.75 30.0625 5.01169 30.0625 6.5625C30.0625 7.808 29.2484 8.86631 28.1247 9.235L26.4526 29.4206C26.3321 30.8672 25.101 32 23.6497 32H8.35025C6.89906 32 5.66794 30.8672 5.5475 29.421L3.87531 9.23506C2.75156 8.86631 1.9375 7.808 1.9375 6.5625C1.9375 5.01169 3.19919 3.75 4.75 3.75H9.4375V2.8125C9.4375 1.26169 10.6992 0 12.25 0H19.75C21.3008 0 22.5625 1.26169 22.5625 2.8125V3.75ZM12.25 1.875C11.7331 1.875 11.3125 2.29556 11.3125 2.8125V3.75H20.6875V2.8125C20.6875 2.29556 20.2669 1.875 19.75 1.875H12.25ZM23.6497 30.125C24.1335 30.125 24.5438 29.7474 24.584 29.2654L26.2316 9.375H5.76837L7.41612 29.2658C7.45619 29.7474 7.86656 30.125 8.35025 30.125H23.6497ZM4.75 7.5H27.25C27.7669 7.5 28.1875 7.07944 28.1875 6.5625C28.1875 6.04556 27.7669 5.625 27.25 5.625H4.75C4.23306 5.625 3.8125 6.04556 3.8125 6.5625C3.8125 7.07944 4.23306 7.5 4.75 7.5ZM11.3108 12.1294L12.2483 27.2544C12.2816 27.7928 11.8546 28.25 11.3116 28.25C10.8204 28.25 10.4076 27.8676 10.3768 27.3705L9.43932 12.2454C9.40732 11.7287 9.80026 11.2838 10.3171 11.2518C10.8314 11.2196 11.2787 11.6126 11.3108 12.1294ZM16 11.25C15.4823 11.25 15.0625 11.6698 15.0625 12.1875V27.3125C15.0625 27.8302 15.4823 28.25 16 28.25C16.5177 28.25 16.9375 27.8302 16.9375 27.3125V12.1875C16.9375 11.6698 16.5177 11.25 16 11.25ZM20.6893 12.1295C20.7213 11.6127 21.1674 11.2197 21.683 11.2518C22.1998 11.2838 22.5928 11.7287 22.5608 12.2455L21.6233 27.3705C21.5913 27.8871 21.1466 28.2802 20.6296 28.2482C20.1128 28.2161 19.7199 27.7712 19.7518 27.2545L20.6893 12.1295Z" fill="black"/>
</svg>
