<svg width="32" height="32" viewBox="0 0 32 32" fill="none" xmlns="http://www.w3.org/2000/svg">
<path fill-rule="evenodd" clip-rule="evenodd" d="M0.9375 8.875C1.45525 8.875 1.875 8.45525 1.875 7.9375V3.45881C1.875 2.5855 2.5855 1.875 3.45875 1.875H7.9375C8.45525 1.875 8.875 1.45525 8.875 0.9375C8.875 0.41975 8.45525 0 7.9375 0H3.45875C1.55163 0 0 1.55163 0 3.45881V7.9375C0 8.45525 0.41975 8.875 0.9375 8.875ZM28.5413 0H24.0625C23.5448 0 23.125 0.41975 23.125 0.9375C23.125 1.45525 23.5448 1.875 24.0625 1.875H28.5413C29.4145 1.875 30.125 2.5855 30.125 3.45881V7.9375C30.125 8.45525 30.5448 8.875 31.0625 8.875C31.5802 8.875 32 8.45525 32 7.9375V3.45881C32 1.55163 30.4484 0 28.5413 0ZM3.45875 30.125H7.9375C8.45525 30.125 8.875 30.5448 8.875 31.0625C8.875 31.5802 8.45525 32 7.9375 32H3.45875C1.55163 32 0 30.4484 0 28.5412V24.0625C0 23.5448 0.41975 23.125 0.9375 23.125C1.45525 23.125 1.875 23.5448 1.875 24.0625V28.5412C1.875 29.4145 2.5855 30.125 3.45875 30.125ZM31.0625 23.125C30.5448 23.125 30.125 23.5448 30.125 24.0625V28.5412C30.125 29.4145 29.4145 30.125 28.5413 30.125H24.0625C23.5448 30.125 23.125 30.5448 23.125 31.0625C23.125 31.5802 23.5448 32 24.0625 32H28.5413C30.4484 32 32 30.4484 32 28.5412V24.0625C32 23.5448 31.5802 23.125 31.0625 23.125ZM24.326 6.875H21.3525C20.8348 6.875 20.415 6.45525 20.415 5.9375C20.415 5.41975 20.8348 5 21.3525 5H24.326C25.7659 5 26.9374 6.17144 26.9374 7.61137V10.5848C26.9374 11.1025 26.5176 11.5223 25.9999 11.5223C25.4821 11.5223 25.0624 11.1025 25.0624 10.5848V7.61137C25.0624 7.20531 24.732 6.875 24.326 6.875ZM5.0625 7.61137V10.5848C5.0625 11.1025 5.48225 11.5223 6 11.5223C6.51775 11.5223 6.9375 11.1025 6.9375 10.5848V7.61137C6.9375 7.20531 7.26787 6.875 7.67387 6.875H10.6473C11.1651 6.875 11.5848 6.45525 11.5848 5.9375C11.5848 5.41975 11.1651 5 10.6473 5H7.67387C6.234 5 5.0625 6.17144 5.0625 7.61137ZM7.67387 25H10.6473C11.1651 25 11.5848 25.4198 11.5848 25.9375C11.5848 26.4553 11.1651 26.875 10.6473 26.875H7.67387C6.234 26.875 5.0625 25.7036 5.0625 24.2637V21.2903C5.0625 20.7725 5.48225 20.3528 6 20.3528C6.51775 20.3528 6.9375 20.7725 6.9375 21.2903V24.2637C6.9375 24.6697 7.26781 25 7.67387 25ZM26.9374 24.2637V21.2903C26.9374 20.7725 26.5176 20.3528 25.9999 20.3528C25.4821 20.3528 25.0624 20.7725 25.0624 21.2903V24.2637C25.0624 24.6697 24.732 25 24.326 25H21.3525C20.8348 25 20.415 25.4198 20.415 25.9375C20.415 26.4553 20.8348 26.875 21.3525 26.875H24.326C25.7659 26.875 26.9374 25.7036 26.9374 24.2637ZM1 16.9375C0.48225 16.9375 0.0625 16.5177 0.0625 16C0.0625 15.4823 0.48225 15.0625 1 15.0625H31C31.5177 15.0625 31.9375 15.4823 31.9375 16C31.9375 16.5177 31.5177 16.9375 31 16.9375H1Z" fill="black"/>
</svg>
