<svg width="32" height="32" viewBox="0 0 32 32" fill="none" xmlns="http://www.w3.org/2000/svg">
<path fill-rule="evenodd" clip-rule="evenodd" d="M3.375 6.625C3.375 7.55698 2.61948 8.3125 1.6875 8.3125C0.75552 8.3125 0 7.55698 0 6.625C0 5.69302 0.75552 4.9375 1.6875 4.9375C2.61948 4.9375 3.375 5.69302 3.375 6.625ZM9.0166 5.375H30.7502C31.4406 5.375 32.0002 5.93463 32.0002 6.625C32.0002 7.31537 31.4406 7.875 30.7502 7.875H9.0166C8.32623 7.875 7.7666 7.31537 7.7666 6.625C7.7666 5.93463 8.32623 5.375 9.0166 5.375ZM9.0166 14.75H30.7502C31.4406 14.75 32.0002 15.3096 32.0002 16C32.0002 16.6904 31.4406 17.25 30.7502 17.25H9.0166C8.32623 17.25 7.7666 16.6904 7.7666 16C7.7666 15.3096 8.32623 14.75 9.0166 14.75ZM30.7502 24.125H9.0166C8.32623 24.125 7.7666 24.6846 7.7666 25.375C7.7666 26.0654 8.32623 26.625 9.0166 26.625H30.7502C31.4406 26.625 32.0002 26.0654 32.0002 25.375C32.0002 24.6846 31.4406 24.125 30.7502 24.125ZM1.6875 17.6875C2.61948 17.6875 3.375 16.932 3.375 16C3.375 15.068 2.61948 14.3125 1.6875 14.3125C0.75552 14.3125 0 15.068 0 16C0 16.932 0.75552 17.6875 1.6875 17.6875ZM3.375 25.375C3.375 26.307 2.61948 27.0625 1.6875 27.0625C0.75552 27.0625 0 26.307 0 25.375C0 24.443 0.75552 23.6875 1.6875 23.6875C2.61948 23.6875 3.375 24.443 3.375 25.375Z" fill="black"/>
</svg>
