<svg width="32" height="32" viewBox="0 0 32 32" fill="none" xmlns="http://www.w3.org/2000/svg">
<path d="M25.375 20.75C23.5224 20.75 21.8899 21.6613 20.8646 23.0472L11.9994 18.5077C12.1466 18.0061 12.25 17.4861 12.25 16.9375C12.25 16.1934 12.0974 15.4859 11.8339 14.8352L21.1117 9.25225C22.1442 10.464 23.6618 11.25 25.375 11.25C28.4768 11.25 31 8.72681 31 5.625C31 2.52319 28.4768 0 25.375 0C22.2732 0 19.75 2.52319 19.75 5.625C19.75 6.33981 19.8972 7.01788 20.1414 7.64738L10.8359 13.2467C9.80431 12.071 8.30856 11.3125 6.625 11.3125C3.52319 11.3125 1 13.8357 1 16.9375C1 20.0393 3.52319 22.5625 6.625 22.5625C8.50812 22.5625 10.1682 21.6244 11.1897 20.1996L20.0257 24.7243C19.8629 25.2497 19.75 25.7969 19.75 26.375C19.75 29.4768 22.2732 32 25.375 32C28.4768 32 31 29.4768 31 26.375C31 23.2732 28.4768 20.75 25.375 20.75Z" fill="black"/>
</svg>
