<svg width="32" height="32" viewBox="0 0 32 32" fill="none" xmlns="http://www.w3.org/2000/svg">
<path d="M31.6355 29.8762L23.826 22.0668C25.7672 19.7324 26.9367 16.7349 26.9367 13.4688C26.9367 6.04205 20.8948 0 13.4684 0C6.04189 0 0 6.04205 0 13.4688C0 20.895 6.04189 26.9365 13.4684 26.9365C16.7344 26.9365 19.7321 25.7672 22.0664 23.826L29.8762 31.6355C30.119 31.8786 30.4375 32 30.7559 32C31.0742 32 31.3927 31.8786 31.6357 31.6355C32.1216 31.1497 32.1216 30.362 31.6355 29.8762ZM2.48828 13.4688C2.48828 7.41409 7.41393 2.48828 13.4684 2.48828C19.5227 2.48828 24.4482 7.41409 24.4482 13.4688C24.4482 19.5229 19.5227 24.4482 13.4684 24.4482C7.41393 24.4482 2.48828 19.5229 2.48828 13.4688Z" fill="black"/>
</svg>
