<svg width="32" height="32" viewBox="0 0 32 32" fill="none" xmlns="http://www.w3.org/2000/svg">
<path d="M7.76352 32C5.71927 32.0001 3.78878 31.19 2.29934 29.7006C0.739785 28.141 -0.0748388 26.0976 0.00541104 23.9467C0.0883484 21.7252 1.09191 19.5913 2.90766 17.7755L6.1769 14.493C6.66402 14.0038 7.45546 14.0022 7.94464 14.4894C8.43377 14.9765 8.43546 15.768 7.94827 16.2571L4.67728 19.5415C2.02659 22.1922 1.77647 25.6422 4.06722 27.9329C6.35802 30.2238 9.80795 29.9736 12.4567 27.3247L16.9496 22.8317C18.3114 21.47 19.0624 19.915 19.1214 18.3352C19.1754 16.887 18.6202 15.5045 17.5579 14.4422C17.202 14.0864 16.8082 13.7844 16.3874 13.5447C15.7875 13.203 15.5782 12.4397 15.9199 11.8399C16.2616 11.24 17.0249 11.0307 17.6247 11.3724C18.2396 11.7226 18.8119 12.1607 19.3257 12.6746C20.8853 14.2341 21.6999 16.2775 21.6197 18.4285C21.5367 20.6499 20.5332 22.7839 18.7174 24.5996L14.2245 29.0925C12.4087 30.9083 10.2748 31.9118 8.0534 31.9948C7.95665 31.9982 7.85983 32 7.76352 32ZM16.0803 20.1603C16.4219 19.5604 16.2126 18.7971 15.6128 18.4555C15.1919 18.2158 14.7981 17.9138 14.4422 17.558C12.1514 15.2672 12.4016 11.8172 15.0504 9.16838L19.5434 4.67551C22.1923 2.0267 25.6422 1.77651 27.9329 4.06726C30.2236 6.35801 29.9735 9.80794 27.3228 12.4586L24.0518 15.7431C23.5646 16.2322 23.5662 17.0237 24.0554 17.5108C24.5445 17.998 25.336 17.9962 25.8232 17.5072L29.0924 14.2246C30.9082 12.4088 31.9117 10.2749 31.9947 8.0535C32.0749 5.90257 31.2603 3.85907 29.7007 2.29951C28.1411 0.739891 26.0966 -0.0746071 23.9467 0.00551772C21.7253 0.0884551 19.5914 1.09202 17.7757 2.90776L13.2827 7.40063C11.467 9.21637 10.4635 11.3503 10.3805 13.5717C10.3002 15.7226 11.1148 17.7661 12.6744 19.3257C13.1882 19.8395 13.7605 20.2775 14.3754 20.6279C14.5707 20.739 14.7832 20.7919 14.9929 20.7919C15.4275 20.7919 15.8498 20.5649 16.0803 20.1603Z" fill="black"/>
</svg>
