<svg width="50" height="50" viewBox="0 0 50 50" fill="none" xmlns="http://www.w3.org/2000/svg">
<g clip-path="url(#clip0_4310_39163)">
<path d="M3.05445 15.4274C4.36289 16.2945 5.18115 17.021 6.87236 16.812C8.19056 16.6499 9.80756 14.9197 11.0633 14.3631C14.8441 12.6895 16.59 18.4603 20.4372 16.4136C22.1967 15.4782 23.2982 13.8378 25.5342 14.0897C26.9481 14.2479 28.5026 15.9703 29.8111 16.5503C33.5802 18.2181 35.3124 12.5157 39.1244 14.4627C40.2747 15.0505 41.8878 16.6538 43.1181 16.8159C44.8191 17.0405 45.6295 16.2906 46.938 15.4294C47.3618 14.5506 47.6156 11.8868 48.1859 11.256C48.8069 10.5686 49.9806 11.092 49.9982 11.9942L42.4112 40.0671L7.53244 40.0495L0.00402375 12.1719C-0.109244 10.9299 1.56243 10.3479 2.078 11.7657C2.48811 12.8945 2.65215 14.2752 3.05445 15.4274ZM46.0865 18.4818C44.4949 19.095 42.8213 19.1262 41.2707 18.3665C40.2181 17.849 39.0932 16.7202 38.0835 16.2808C37.5621 16.0523 37.3434 16.0816 36.8415 16.316C34.75 17.2963 33.8712 19.0403 31.1019 18.9719C28.5729 18.9094 27.5926 17.228 25.6475 16.316C25.1026 16.0602 24.8956 16.0582 24.343 16.316C22.3022 17.271 21.3863 19.0032 18.6971 18.9778C16.008 18.9524 15.1233 17.2397 13.149 16.316C12.5572 16.0387 12.3619 16.066 11.7839 16.3531C9.30567 17.5795 8.43663 19.5207 5.07179 18.8294C4.91165 18.7962 3.91177 18.3997 3.90396 18.5325L9.08499 38.0068L40.8567 38.0166L46.0885 18.4818H46.0865Z" fill="#75958D"/>
<path d="M24.8443 28.6719C24.8443 28.9844 24.8547 29.3646 24.8755 29.8125C24.8964 30.25 24.9589 30.6771 25.063 31.0937C25.1776 31.5 25.3547 31.849 25.5943 32.1406C25.8339 32.4323 26.1776 32.5781 26.6255 32.5781C27.0839 32.5781 27.4328 32.4323 27.6724 32.1406C27.9224 31.849 28.0995 31.5 28.2037 31.0937C28.3183 30.6771 28.386 30.25 28.4068 29.8125C28.4276 29.3646 28.438 28.9844 28.438 28.6719C28.438 28.4844 28.4328 28.2604 28.4224 28C28.4224 27.7292 28.4016 27.4531 28.3599 27.1719C28.3287 26.8906 28.2766 26.6146 28.2037 26.3437C28.1412 26.0625 28.0422 25.8125 27.9068 25.5937C27.7714 25.375 27.5995 25.1979 27.3912 25.0625C27.1828 24.9271 26.9276 24.8594 26.6255 24.8594C26.3235 24.8594 26.0683 24.9271 25.8599 25.0625C25.662 25.1979 25.4953 25.375 25.3599 25.5937C25.2349 25.8125 25.136 26.0625 25.063 26.3437C24.9901 26.6146 24.938 26.8906 24.9068 27.1719C24.8755 27.4531 24.8547 27.7292 24.8443 28C24.8443 28.2604 24.8443 28.4844 24.8443 28.6719ZM22.6255 28.6719C22.6255 27.6094 22.7297 26.7187 22.938 26C23.1568 25.2708 23.4485 24.6875 23.813 24.25C24.1776 23.8125 24.5995 23.5 25.0787 23.3125C25.5683 23.125 26.0839 23.0312 26.6255 23.0312C27.1776 23.0312 27.6933 23.125 28.1724 23.3125C28.662 23.5 29.0891 23.8125 29.4537 24.25C29.8287 24.6875 30.1203 25.2708 30.3287 26C30.5474 26.7187 30.6568 27.6094 30.6568 28.6719C30.6568 29.7656 30.5474 30.6823 30.3287 31.4219C30.1203 32.151 29.8287 32.7344 29.4537 33.1719C29.0891 33.6094 28.662 33.9219 28.1724 34.1094C27.6933 34.2969 27.1776 34.3906 26.6255 34.3906C26.0839 34.3906 25.5683 34.2969 25.0787 34.1094C24.5995 33.9219 24.1776 33.6094 23.813 33.1719C23.4485 32.7344 23.1568 32.151 22.938 31.4219C22.7297 30.6823 22.6255 29.7656 22.6255 28.6719ZM32.4047 31.5812C32.5005 31.5896 32.6026 31.5896 32.7109 31.5812C32.8193 31.5729 32.9193 31.55 33.0109 31.5125C33.1068 31.4708 33.1838 31.4125 33.2422 31.3375C33.3047 31.2625 33.3359 31.1625 33.3359 31.0375C33.3359 30.85 33.2734 30.7062 33.1484 30.6062C33.0234 30.5062 32.8797 30.4562 32.7172 30.4562C32.4922 30.4562 32.3213 30.5312 32.2047 30.6812C32.0922 30.8271 32.038 31.0125 32.0422 31.2375H31.1984C31.2068 31.0125 31.2463 30.8083 31.3172 30.625C31.3922 30.4375 31.4943 30.2771 31.6234 30.1437C31.7568 30.0104 31.9151 29.9083 32.0984 29.8375C32.2818 29.7625 32.4859 29.725 32.7109 29.725C32.8859 29.725 33.0609 29.7521 33.2359 29.8062C33.4109 29.8562 33.5672 29.9333 33.7047 30.0375C33.8463 30.1417 33.9609 30.2687 34.0484 30.4187C34.1359 30.5687 34.1797 30.7417 34.1797 30.9375C34.1797 31.15 34.1276 31.3375 34.0234 31.5C33.9234 31.6625 33.7713 31.7729 33.5672 31.8312V31.8437C33.8088 31.8979 33.9984 32.0146 34.1359 32.1937C34.2734 32.3729 34.3422 32.5875 34.3422 32.8375C34.3422 33.0667 34.2963 33.2708 34.2047 33.45C34.1172 33.6292 33.9984 33.7792 33.8484 33.9C33.6984 34.0208 33.5255 34.1125 33.3297 34.175C33.1338 34.2375 32.9297 34.2688 32.7172 34.2688C32.4713 34.2688 32.2463 34.2333 32.0422 34.1625C31.8422 34.0917 31.6713 33.9896 31.5297 33.8562C31.388 33.7187 31.2776 33.5521 31.1984 33.3562C31.1234 33.1604 31.088 32.9354 31.0922 32.6812H31.9359C31.9401 32.7979 31.9588 32.9104 31.9922 33.0187C32.0255 33.1229 32.0734 33.2146 32.1359 33.2937C32.1984 33.3687 32.2755 33.4292 32.3672 33.475C32.463 33.5208 32.5755 33.5437 32.7047 33.5437C32.9047 33.5437 33.0734 33.4833 33.2109 33.3625C33.3484 33.2375 33.4172 33.0687 33.4172 32.8562C33.4172 32.6896 33.3838 32.5625 33.3172 32.475C33.2547 32.3875 33.1734 32.325 33.0734 32.2875C32.9734 32.2458 32.863 32.2229 32.7422 32.2187C32.6255 32.2104 32.513 32.2062 32.4047 32.2062V31.5812Z" fill="#75958D"/>
</g>
<defs>
<clipPath id="clip0_4310_39163">
<rect width="50" height="29.1274" fill="white" transform="translate(0 10.9375)"/>
</clipPath>
</defs>
</svg>
