<svg width="32" height="32" viewBox="0 0 32 32" fill="none" xmlns="http://www.w3.org/2000/svg">
<path d="M12.0529 3.85862C12.3817 3.79702 12.6793 4.06899 12.9806 4.1884C15.0853 5.02042 17.3037 4.93988 19.4464 4.28695C19.7705 4.1884 20.5892 3.81408 20.8517 3.85009L24.9038 5.58048C24.9389 5.6108 24.9664 5.64966 24.9815 5.6942C25.0393 5.87141 24.7787 6.78872 24.7323 7.06164C24.3333 9.40326 24.231 12.0045 25.7207 14.0041C25.8609 14.1926 26.2978 14.5982 26.3262 14.7726C25.9813 17.3388 25.66 19.9429 25.9557 22.5347C26.0315 23.1962 26.2627 23.9164 26.3243 24.5352C26.3357 24.6461 26.3547 24.7693 26.2855 24.865L21.6041 27.7174C19.6444 28.3694 19.1175 26.4276 18.3244 25.1436C17.1806 24.6167 15.8046 24.6025 14.656 25.1284C14.0249 25.9358 13.6989 27.4094 12.6262 27.742C12.1078 27.9022 11.5999 27.851 11.1185 27.6122C9.6705 26.8958 8.25188 25.716 6.79346 24.9721C6.73186 24.9313 6.65037 24.8782 6.62857 24.8053C6.56508 24.5921 6.83989 23.5525 6.88822 23.2369C7.16493 21.4487 7.1583 19.5582 6.9972 17.7558C6.9157 16.8678 6.657 15.8548 6.61625 15.0057C6.59351 14.5366 6.9574 14.3613 7.22369 14.0031C8.4054 12.4177 8.59303 10.3386 8.41582 8.42056C8.33243 7.51367 8.09078 6.62762 7.95053 5.73116L8.16091 5.51225L12.0529 3.85862ZM12.0169 4.51154L8.5665 6.00787C9.15782 8.57408 9.42316 11.6056 7.96285 13.9368C7.73352 14.3026 7.44259 14.6162 7.18484 14.9602C7.7212 18.1159 7.91073 21.3833 7.22748 24.5314L7.2398 24.5949L11.3222 27.0739C11.9287 27.4302 12.6584 27.2928 13.0706 26.7214L16.1211 21.3322C15.9467 20.7617 15.3393 20.1419 15.2521 19.543C15.1024 18.511 15.8396 17.8155 16.1391 16.9057C14.295 12.9579 12.9124 8.77782 12.0169 4.51154ZM25.7036 24.594C25.6581 24.0329 25.5084 23.4757 25.4336 22.9128C25.0839 20.286 25.3312 17.5606 25.7586 14.9602C25.5075 14.6257 25.2251 14.3196 24.9995 13.9652C23.5174 11.6425 23.7771 8.57692 24.3769 6.00881L20.9256 4.51249C20.0159 8.86216 18.5831 13.1114 16.702 17.1332C16.3229 17.9434 15.5203 18.9157 15.942 19.8017C17.3227 21.9595 18.404 24.4783 19.7979 26.6067C20.1903 27.2057 20.7787 27.4293 21.4639 27.1545L25.7036 24.5958V24.594ZM20.357 4.60631C19.398 4.88775 18.439 5.20142 17.4374 5.3104C15.7743 5.49235 14.1851 5.24975 12.6338 4.65274C13.4753 8.63283 14.7963 12.4973 16.4243 16.214C16.5475 16.2358 16.4973 16.196 16.5229 16.1467C16.7143 15.7695 16.8801 15.3563 17.0479 14.9669C18.4817 11.6331 19.5089 8.13343 20.3561 4.60631H20.357ZM16.5182 21.9008L15.0976 24.3646C16.0102 24.1239 16.9332 24.1192 17.8448 24.3646L16.5182 21.9008Z" fill="black"/>
<path d="M17.3133 18.4053C18.3206 18.2357 18.7584 19.6316 17.8657 20.0466C16.6556 20.6095 16.0775 18.6129 17.3133 18.4053ZM17.4071 18.9701C16.8925 19.0782 17.3739 19.8666 17.7056 19.461C17.8951 19.2288 17.6914 18.9104 17.4071 18.9701Z" fill="black"/>
<path d="M20.5816 21.5305L22.7971 21.522C23.1165 21.6319 23.0947 22.0299 22.7479 22.0868C22.4408 22.137 20.9748 22.137 20.6687 22.0868C20.3409 22.0328 20.3011 21.6793 20.5816 21.5305Z" fill="black"/>
<path d="M10.1089 21.5305L12.3245 21.522C12.6438 21.6319 12.6221 22.0299 12.2752 22.0868C11.9682 22.137 10.5022 22.137 10.1961 22.0868C9.86821 22.0328 9.82841 21.6793 10.1089 21.5305Z" fill="black"/>
</svg>
