<svg width="32" height="32" viewBox="0 0 32 32" fill="none" xmlns="http://www.w3.org/2000/svg">
<path fill-rule="evenodd" clip-rule="evenodd" d="M30.125 17.8125C30.125 17.2948 30.5448 16.875 31.0625 16.875C31.5802 16.875 32 17.2948 32 17.8125V28.5625C32 30.4579 30.4579 32 28.5625 32H3.4375C1.54206 32 0 30.4579 0 28.5625V3.4375C0 1.54206 1.54206 0 3.4375 0H14.125C14.6427 0 15.0625 0.41975 15.0625 0.9375C15.0625 1.45525 14.6427 1.875 14.125 1.875H3.4375C2.57594 1.875 1.875 2.57594 1.875 3.4375V28.5625C1.875 29.4241 2.57594 30.125 3.4375 30.125H28.5625C29.4241 30.125 30.125 29.4241 30.125 28.5625V17.8125ZM10.1799 21.7617C10.1799 20.17 8.8355 18.875 7.18294 18.875H5.18994L5.18869 18.8751L5.1875 18.875C4.66975 18.875 4.25 19.2948 4.25 19.8125V27.3125C4.25 27.8302 4.66975 28.25 5.1875 28.25C5.70525 28.25 6.125 27.8302 6.125 27.3125V25.1895L8.53869 27.9319C8.724 28.1424 8.98269 28.25 9.24281 28.25C9.46281 28.25 9.68375 28.1731 9.86181 28.0163C10.2505 27.6741 10.2883 27.0818 9.94619 26.6931L8.04006 24.5274C9.27612 24.1714 10.1799 23.0666 10.1799 21.7617ZM7.18294 22.7733C6.93906 22.7733 6.52388 22.775 6.136 22.7769C6.13406 22.3982 6.13237 21.996 6.13237 21.7617C6.13237 21.561 6.13137 21.146 6.13031 20.75H7.183C7.79119 20.75 8.305 21.2133 8.305 21.7617C8.30494 22.3101 7.79113 22.7733 7.18294 22.7733ZM15.3948 20.75C15.9125 20.75 16.3323 20.3302 16.3323 19.8125C16.3323 19.2948 15.9125 18.875 15.3948 18.875H12.355C11.8372 18.875 11.4175 19.2948 11.4175 19.8125V27.3125C11.4175 27.8302 11.8372 28.25 12.355 28.25C12.8727 28.25 13.2925 27.8302 13.2925 27.3125V24.4289H15.1532C15.671 24.4289 16.0907 24.0092 16.0907 23.4914C16.0907 22.9737 15.671 22.5539 15.1532 22.5539H13.2925V20.75H15.3948ZM17.4375 19.8125V27.3125C17.4375 27.8302 17.8573 28.25 18.375 28.25C18.8927 28.25 19.3125 27.8302 19.3125 27.3125V19.8125C19.3125 19.2948 18.8927 18.875 18.375 18.875C17.8573 18.875 17.4375 19.2948 17.4375 19.8125ZM21.6597 18.875H23.7838C26.1561 18.875 27.75 20.7587 27.75 23.5624C27.75 24.7892 27.3969 25.9256 26.7558 26.7624C26.0445 27.6907 25.0169 28.2131 23.8624 28.2333C23.2572 28.2438 21.7426 28.2498 21.6784 28.25H21.6749C21.4275 28.25 21.1901 28.1523 21.0144 27.9779C20.8379 27.8027 20.7382 27.5646 20.7374 27.3159L20.7371 27.253V27.253L20.7371 27.251C20.7357 26.8314 20.7276 24.496 20.7276 23.5542C20.7276 22.6991 20.7222 19.8143 20.7222 19.8143C20.7217 19.5653 20.8202 19.3264 20.9961 19.1502C21.172 18.974 21.4107 18.875 21.6597 18.875ZM22.6092 26.3702C23.0544 26.3674 23.5493 26.3634 23.8296 26.3586C25.2425 26.3339 25.875 24.9364 25.875 23.5624C25.875 22.2028 25.3256 20.75 23.7838 20.75H22.5989C22.6004 21.6719 22.6026 23.0154 22.6026 23.5542C22.6026 24.1944 22.6064 25.4826 22.6092 26.3702ZM17.9375 16.875C19.4908 16.875 20.75 15.6158 20.75 14.0625C20.75 12.5092 19.4908 11.25 17.9375 11.25C16.3842 11.25 15.125 12.5092 15.125 14.0625C15.125 15.6158 16.3842 16.875 17.9375 16.875ZM22.625 14.0625C22.625 11.4778 20.5222 9.375 17.9375 9.375C17.4198 9.375 17 8.95525 17 8.4375C17 7.91975 17.4198 7.5 17.9375 7.5C21.5561 7.5 24.5 10.4439 24.5 14.0625C24.5 14.5802 24.0802 15 23.5625 15C23.0448 15 22.625 14.5802 22.625 14.0625ZM17.9375 5.625C22.5899 5.625 26.375 9.41006 26.375 14.0625C26.375 14.5802 26.7948 15 27.3125 15C27.8302 15 28.25 14.5802 28.25 14.0625C28.25 8.37619 23.6238 3.75 17.9375 3.75C17.4198 3.75 17 4.16975 17 4.6875C17 5.20525 17.4198 5.625 17.9375 5.625ZM30.125 14.0625C30.125 7.34231 24.6577 1.875 17.9375 1.875C17.4198 1.875 17 1.45525 17 0.9375C17 0.41975 17.4198 0 17.9375 0C21.6938 0 25.2251 1.46275 27.8812 4.11881C30.5373 6.77488 32 10.3062 32 14.0625C32 14.5802 31.5802 15 31.0625 15C30.5448 15 30.125 14.5802 30.125 14.0625Z" fill="black"/>
</svg>
