<svg width="32" height="32" viewBox="0 0 32 32" fill="none" xmlns="http://www.w3.org/2000/svg">
<path d="M24.333 6.42474C24.3947 6.49181 24.4293 6.62271 24.452 6.7125C24.6575 7.53468 24.7592 8.66086 24.8836 9.52631C25.629 14.7158 26.1321 20.1303 26.4599 25.3674C26.4945 25.9289 26.5843 26.671 26.5724 27.2065C26.5648 27.5527 26.462 27.6803 26.1083 27.7193C25.7004 27.7647 23.8191 27.7799 23.4838 27.6933C23.421 27.6771 23.2826 27.6046 23.2447 27.5538C22.6345 25.7915 22.2775 23.9545 21.8351 22.1468C21.7972 22.6207 21.794 23.1075 21.8059 23.5835C21.8329 24.6988 21.9855 26.1701 21.8643 27.2606C21.8405 27.4737 21.7561 27.6425 21.5397 27.6922L7.94668 27.7063C7.6838 27.6295 7.61023 27.5267 7.58319 27.2584C7.45986 26.0771 7.60482 24.5171 7.63944 23.313C7.64269 23.1983 7.66865 22.1468 7.61023 22.1468C7.19265 23.7382 6.92003 25.3836 6.40725 26.949C6.28608 27.3179 6.27094 27.6706 5.82631 27.7204C5.40224 27.768 3.5599 27.782 3.19857 27.6955C2.87294 27.6197 2.86429 27.3839 2.87294 27.0961C2.88917 26.5282 2.94867 25.9386 2.98437 25.3685C3.30675 20.2482 3.7979 14.983 4.50649 9.90603C4.64388 8.92266 4.75747 7.65152 4.99223 6.71358C5.01819 6.61081 5.04848 6.51237 5.11123 6.42582L10.3007 3.80024C10.7172 3.62715 11.0645 4.03392 11.4204 4.21891C13.8945 5.50519 16.4227 5.3797 18.7216 3.78293L19.0169 3.76022L24.3319 6.42474H24.333ZM10.2856 4.6776L9.37901 5.13521C10.4186 8.31359 13.9118 9.93741 17.0123 8.56458C18.4771 7.91657 19.56 6.64327 20.0641 5.13521L19.1576 4.6776C18.9239 5.62744 18.3073 6.54698 17.5294 7.13441C14.9039 9.11522 11.1207 7.83218 10.2856 4.6776ZM18.291 4.94805C18.0195 5.05191 17.7664 5.20553 17.4937 5.31371C15.6427 6.04502 13.7972 6.04394 11.9472 5.31371C11.6746 5.20661 11.4226 5.05191 11.1499 4.94805C12.4817 8.09615 16.9593 8.09507 18.29 4.94805H18.291ZM8.41943 25.2322H21.0226C21.2163 24.9585 21.0551 24.5431 21.0475 24.2337C20.9815 21.7379 21.0248 18.9241 21.213 16.4424C21.464 13.1385 22.2137 9.90171 23.5422 6.87261L20.7576 5.48464C20.3194 6.65733 19.6065 7.71535 18.6102 8.48452C15.144 11.1588 10.0865 9.60312 8.71477 5.49005L5.90745 6.84448C6.10975 7.5098 6.42564 8.1524 6.66256 8.8134C8.36967 13.5896 8.52545 19.1275 8.39455 24.1785C8.39022 24.357 8.2312 25.1727 8.41943 25.2311V25.2322ZM3.79465 25.2322H6.03943C6.21252 24.9195 6.27635 24.5074 6.36506 24.1514C6.84106 22.2258 7.60807 19.2281 7.5291 17.3057C7.49556 16.4932 7.40252 15.6353 7.30408 14.8261C7.02172 12.5165 6.43862 10.2284 5.55261 8.08425C4.7023 13.7638 4.13543 19.4931 3.79465 25.2322ZM25.6474 25.2322C25.3045 19.4942 24.7398 13.7638 23.8895 8.08425C23.0024 10.2263 22.4203 12.5175 22.138 14.8261C22.0395 15.6343 21.9454 16.4922 21.913 17.3057C21.8675 18.4135 22.0547 19.2465 22.257 20.3196C22.4809 21.5129 22.7384 22.7548 23.024 23.934C23.1268 24.3613 23.2133 24.8449 23.4037 25.2311H25.6485L25.6474 25.2322ZM5.9042 25.9894H3.74056C3.75787 26.0425 3.68647 26.1063 3.68647 26.1247V26.9631H5.55261L5.9042 25.9894ZM21.1038 25.9894H8.3383V26.8819L8.41943 26.9631H21.0226L21.1038 26.8819V25.9894ZM25.7015 25.9894H23.592L23.8895 26.9631H25.7556V26.1247C25.7556 26.1063 25.6842 26.0425 25.7015 25.9894Z" fill="black"/>
</svg>
