<svg width="32" height="32" viewBox="0 0 32 32" fill="none" xmlns="http://www.w3.org/2000/svg">
<path d="M25.6226 3.0376C25.6763 3.09251 25.7387 3.3983 25.7549 3.49815L28.4408 28.0882C28.467 28.2717 28.3759 28.4614 28.1987 28.5188L17.0532 28.5487C16.816 28.5587 16.6201 28.4489 16.5926 28.198L15.7676 21.4096L15.6204 20.808L14.7105 28.1993L14.5532 28.4788L2.98586 28.4514L2.88477 28.3004L5.54821 3.49815L5.68051 3.0376H25.6214H25.6226ZM9.28626 7.2674V3.67912L9.19266 3.58551H6.25962L5.79159 7.2674H9.28626ZM9.91031 7.2674H13.249L13.3426 7.1738V3.67912L13.249 3.58551H10.0039L9.91031 3.67912V7.2674ZM17.3365 3.58551H13.9666V7.2674H17.3365V3.58551ZM21.3928 7.2674V3.67912L21.2992 3.58551H18.0542L17.9605 3.67912V7.1738L18.0542 7.2674H21.3928ZM25.5115 7.2674L25.0435 3.58551H22.1105L22.0169 3.67912V7.2674H25.5115ZM3.63862 27.9234H14.0914L15.372 17.8151C15.5442 17.5879 15.7601 17.5904 15.9299 17.8151L17.2104 27.9234H27.6633L25.5702 7.8952L5.76413 7.88771L3.63862 27.9234Z" fill="black"/>
<path d="M13.8263 9.77678C13.8962 9.87413 13.8962 9.98896 13.9062 10.1025C14.0135 11.3756 14.0198 13.8319 13.9062 15.0999C13.8425 15.8026 13.211 16.4841 12.4996 16.5639C11.7882 16.6438 10.0071 16.6426 9.31692 16.5639C8.62672 16.4853 7.98395 15.8026 7.91406 15.0962C7.7543 13.5024 8.03387 11.6602 7.91031 10.0389C7.91406 9.85416 8.07132 9.6994 8.25354 9.69565C9.95345 9.80923 11.8231 9.55587 13.5018 9.69565C13.6154 9.70564 13.7302 9.70439 13.8275 9.77553L13.8263 9.77678ZM13.2796 10.3247H8.63047L8.53686 10.4183V15.0987C8.53686 15.382 8.97868 15.7989 9.25077 15.8825C9.61771 15.9961 11.9903 15.9986 12.4222 15.9262C12.7629 15.8687 13.2796 15.4481 13.2796 15.0987V10.3247Z" fill="black"/>
<path d="M17.4759 9.77702C17.5733 9.70712 17.6881 9.70712 17.8017 9.69714C19.4804 9.5561 21.35 9.81072 23.05 9.69714C23.2322 9.70088 23.3894 9.85565 23.3932 10.0404C23.2684 11.6616 23.5492 13.5038 23.3894 15.0977C23.3195 15.7953 22.6905 16.4855 21.9866 16.5654C21.2826 16.6453 19.4954 16.6441 18.8039 16.5654C18.1125 16.4868 17.461 15.8041 17.3973 15.1014C17.2837 13.8333 17.29 11.3771 17.3973 10.104C17.4073 9.99044 17.406 9.87562 17.4772 9.77827L17.4759 9.77702ZM18.0226 10.3249V15.0989C18.0226 15.1825 18.2485 15.5844 18.3321 15.6631C18.4495 15.7729 18.7228 15.9002 18.8801 15.9264C19.3119 15.9988 21.6845 15.9963 22.0515 15.8827C22.3236 15.7991 22.7654 15.3822 22.7654 15.0989V10.4185L22.6718 10.3249H18.0226Z" fill="black"/>
</svg>
