<svg width="32" height="32" viewBox="0 0 32 32" fill="none" xmlns="http://www.w3.org/2000/svg">
<path d="M1.87576 5.68342H0V1.27539H4.4805V3.15115H1.87576V5.68342Z" fill="black"/>
<path d="M32 5.68342H30.1243V3.15115H27.5195V1.27539H32V5.68342Z" fill="black"/>
<path d="M4.4805 30.7247H0V26.3167H1.87576V28.8489H4.4805V30.7247Z" fill="black"/>
<path d="M32 30.7247H27.5195V28.8489H30.1243V26.3167H32V30.7247Z" fill="black"/>
<path d="M2.08398 8.30688H6.84585V23.8471H2.08398V8.30688Z" fill="black"/>
<path d="M18.4648 8.30688H22.2173V23.8471H18.4648V8.30688Z" fill="black"/>
<path d="M9.94531 8.30688H11.8211V23.8471H9.94531V8.30688Z" fill="black"/>
<path d="M13.8477 8.30688H15.7234V23.8471H13.8477V8.30688Z" fill="black"/>
<path d="M25.1562 8.30688H27.032V23.8471H25.1562V8.30688Z" fill="black"/>
<path d="M28.8457 8.30688H30.7215V23.8471H28.8457V8.30688Z" fill="black"/>
</svg>
