<svg width="50" height="50" viewBox="0 0 50 50" fill="none" xmlns="http://www.w3.org/2000/svg">
<path d="M40.9151 21.4655C41.6572 21.821 42.1084 22.3189 42.9462 22.5123C44.6569 22.9087 45.6724 22.0885 46.9515 21.1062C47.3538 20.2723 47.6624 17.4719 48.2443 16.9309C48.8849 16.3353 49.9883 16.845 50 17.7101L42.4677 45.8669H7.5285L0.0235313 17.9738C-0.128794 17.2414 0.480508 16.5852 1.21284 16.6829C1.88464 16.7727 2.0272 17.4113 2.1971 17.9523C2.40606 18.6143 2.78883 20.7625 3.08371 21.1667C3.15207 21.2585 4.47613 22.1412 4.65579 22.2311C8.13194 23.9457 9.72159 19.5283 12.8404 19.8075C13.684 19.8837 14.2347 20.3582 14.969 20.6746L19.7243 15.9486C16.1642 16.1224 14.9163 11.4316 18.1952 9.92784C23.2825 8.19171 28.4615 5.18231 33.5391 3.59461C42.6239 0.753147 49.6856 11.4374 43.5476 18.6807C42.8622 19.4892 41.5537 20.4305 41.0089 21.2195C40.9523 21.3015 40.8761 21.321 40.9132 21.4636L40.9151 21.4655ZM19.4626 32.3744C19.7653 32.7161 20.5016 32.845 20.8472 32.5013L30.598 22.8423C30.6937 22.8599 31.9396 24.1176 31.9846 24.2035C32.0236 24.2796 32.049 24.3226 31.9846 24.3968L25.1865 31.2749C24.7862 32.2728 25.9286 33.1243 26.7879 32.4857L41.7451 17.5636C46.9203 11.5507 41.2706 3.08295 33.5918 5.79747C29.2603 7.32854 24.1398 9.55874 19.9235 11.4628C19.363 11.7147 18.3866 11.9842 18.3514 12.7302C18.3202 13.4079 18.8982 13.9215 19.5661 13.8473C22.2767 12.99 24.9717 11.5429 27.6648 10.709C27.7624 10.6797 27.9577 10.543 28.0241 10.6777L13.434 25.2834C12.9888 26.3067 14.016 27.2148 14.9749 26.629L24.6085 17.0207C24.6827 16.9563 24.7276 16.9817 24.8018 17.0207C24.8878 17.0657 26.038 18.2276 26.0614 18.3155C26.0907 18.4288 26.0614 18.5147 25.9794 18.5928L15.0374 29.5251C14.2836 30.6168 15.5119 31.7905 16.5509 30.941L27.5378 19.9501C27.612 19.8856 27.657 19.911 27.7312 19.9501C28.0866 20.1337 28.7037 21.0593 29.0982 21.323L19.531 30.8921C19.1814 31.2847 19.1111 31.976 19.4626 32.3744ZM13.3774 22.1529C12.8658 21.9205 12.5474 21.7702 11.9909 21.985C11.0339 22.356 9.75675 23.6118 8.75687 24.1215C7.23947 24.8929 5.45062 24.8694 3.90588 24.2015L9.09081 43.7207H40.9034L46.0864 24.2015C44.5963 24.8675 42.87 24.8694 41.3799 24.1722C40.9972 23.9926 39.5188 22.8911 39.3216 22.9419L28.2702 33.9679C26.5536 35.3799 24.4581 34.8819 23.2883 33.0891C21.6713 35.2276 18.6365 35.4853 17.334 32.8997C14.4964 34.4093 11.6452 31.4448 13.0806 28.6033C10.9558 27.5566 10.6805 25.2991 12.1569 23.5161C12.3268 23.311 13.4868 22.3111 13.3774 22.1529Z" fill="#75958D"/>
</svg>
