<svg width="32" height="32" viewBox="0 0 32 32" fill="none" xmlns="http://www.w3.org/2000/svg">
<path fill-rule="evenodd" clip-rule="evenodd" d="M13.4508 0.597424C19.4676 -0.566232 25.6733 -0.0232469 31.3969 2.16751C31.7877 2.31706 32.0321 2.70774 31.9957 3.12473L31.2801 11.3048C30.8436 16.2933 27.2953 20.4961 22.4505 21.763C22.0559 21.8662 21.6563 21.9237 21.255 21.9356C21.0505 25.53 19.2165 28.9306 16.1515 31.0492C15.2549 31.669 14.1855 32 13.1006 32C12.9567 32 12.8128 31.9942 12.6688 31.9824C7.67751 31.5761 3.45332 28.0533 2.15729 23.2163L0.0320354 15.2849C-0.0763366 14.8806 0.0965337 14.4535 0.455524 14.2382C4.00693 12.1089 7.90657 10.6835 11.9521 10.0133C11.9591 9.88036 11.9676 9.7478 11.9791 9.61624L12.6948 1.43615C12.7313 1.01916 13.0398 0.676921 13.4508 0.597424ZM12.8207 30.1137C13.6209 30.179 14.425 29.9634 15.0853 29.5069C18.5545 27.1088 20.152 22.7607 19.0604 18.6871L17.1203 11.4468C11.8223 11.4797 6.63298 12.8701 2.02823 15.4907L3.9683 22.731C5.05977 26.8046 8.6173 29.7714 12.8207 30.1137ZM21.9762 19.9491C26.0563 18.8821 29.0446 15.3426 29.4122 11.1413L30.0655 3.67415C25.0756 1.89308 19.7237 1.4249 14.5004 2.31238L13.8493 9.75461C15.1751 9.61386 16.5131 9.55355 17.8562 9.57568C18.2747 9.58255 18.638 9.86604 18.7463 10.2703L19.7277 13.9327C21.5983 13.5081 23.5982 14.1479 24.8691 15.6626C25.2019 16.0592 25.1502 16.6505 24.7535 16.9833C24.5779 17.1307 24.3641 17.2027 24.1514 17.2027C23.8839 17.2027 23.6183 17.0888 23.4328 16.8678C22.6354 15.9175 21.3897 15.5057 20.2135 15.7461L20.8715 18.2018C21.0366 18.8179 21.1496 19.4392 21.2131 20.0603C21.4692 20.0516 21.7242 20.015 21.9762 19.9491ZM18.197 6.66971C18.5358 6.69977 18.8653 6.59534 19.1256 6.37691C19.5223 6.04417 20.1135 6.09591 20.4465 6.49253C20.7792 6.88921 20.7275 7.4805 20.3309 7.8133C19.7589 8.29323 19.0513 8.54978 18.3134 8.54978C18.2205 8.54978 18.1272 8.54578 18.0336 8.53753C17.1961 8.46429 16.4373 8.0693 15.897 7.42532C15.5643 7.02864 15.616 6.43734 16.0127 6.10454C16.4094 5.77186 17.0006 5.82348 17.3334 6.22016C17.5518 6.48047 17.8586 6.64009 18.197 6.66971ZM14.0689 15.7547C14.8809 15.5372 15.729 15.6487 16.457 16.0691C16.9054 16.3281 17.059 16.9014 16.8001 17.3498C16.5412 17.7982 15.9678 17.9518 15.5195 17.6929C15.2252 17.523 14.8824 17.4779 14.5541 17.5658C14.2259 17.6537 13.9516 17.8642 13.7817 18.1585C13.6082 18.4592 13.293 18.6274 12.969 18.6274C12.8099 18.6274 12.6487 18.5869 12.5011 18.5016C12.0528 18.2428 11.8991 17.6695 12.158 17.221C12.5782 16.493 13.257 15.9722 14.0689 15.7547ZM14.7338 23.6252C14.9927 23.1768 15.566 23.023 16.0144 23.2821C16.4628 23.541 16.6164 24.1143 16.3575 24.5626C15.6624 25.7667 14.5399 26.628 13.197 26.9879C12.7486 27.108 12.2934 27.1675 11.8413 27.1675C10.9393 27.1675 10.0493 26.931 9.24723 26.4679C8.7988 26.2091 8.64518 25.6357 8.90411 25.1873C9.16292 24.7389 9.73622 24.5852 10.1847 24.8442C11.7749 25.7622 13.8157 25.2154 14.7338 23.6252ZM9.55599 19.2909C9.81492 18.8425 9.6613 18.2692 9.21287 18.0103C8.48496 17.5899 7.63667 17.4784 6.82475 17.6959C6.01277 17.9134 5.3341 18.4341 4.91387 19.1622C4.65493 19.6106 4.80862 20.184 5.25698 20.4428C5.4046 20.528 5.56578 20.5686 5.72484 20.5686C6.04883 20.5685 6.36395 20.4004 6.53757 20.0997C6.7075 19.8054 6.98181 19.5949 7.30999 19.5069C7.63817 19.4191 7.98097 19.4641 8.27534 19.6341C8.72364 19.8929 9.29706 19.7393 9.55599 19.2909ZM25.7817 9.20176C26.4957 9.20176 27.2136 8.96065 27.802 8.46678C28.1987 8.13398 28.2504 7.54269 27.9176 7.14607C27.5848 6.74946 26.9934 6.69765 26.5969 7.03051C26.3365 7.24894 26.0065 7.35282 25.6683 7.32332C25.3297 7.29369 25.023 7.13407 24.8046 6.87377C24.4718 6.47709 23.8804 6.42534 23.4838 6.75821C23.0872 7.09101 23.0355 7.68231 23.3683 8.07892C23.99 8.81984 24.8827 9.20176 25.7817 9.20176Z" fill="black"/>
</svg>
