<svg width="32" height="32" viewBox="0 0 32 32" fill="none" xmlns="http://www.w3.org/2000/svg">
<path fill-rule="evenodd" clip-rule="evenodd" d="M28.004 1.5265H6.24213C5.69199 1.5265 5.24623 1.9724 5.24623 2.5224V8.26527H3.9959C3.44577 8.26527 3 8.71117 3 9.26117C3 9.81117 3.44577 10.2571 3.9959 10.2571H5.24623V15.0042H3.9959C3.44577 15.0042 3 15.4501 3 16.0001C3 16.5501 3.44577 16.996 3.9959 16.996H5.24623V21.7429H3.9959C3.44577 21.7429 3 22.1888 3 22.7388C3 23.2888 3.44577 23.7347 3.9959 23.7347H5.24623V29.4776C5.24623 30.0276 5.69199 30.4735 6.24213 30.4735H28.0041C28.5542 30.4735 29 30.0276 29 29.4776V2.5224C28.9999 1.9724 28.5541 1.5265 28.004 1.5265ZM27.0081 28.4817H7.23804V23.7347H8.48836C9.0385 23.7347 9.48426 23.2888 9.48426 22.7388C9.48426 22.1888 9.0385 21.7429 8.48836 21.7429H7.23804V16.996H8.48836C9.0385 16.996 9.48426 16.5501 9.48426 16.0001C9.48426 15.4501 9.0385 15.0042 8.48836 15.0042H7.23804V10.2571H8.48836C9.0385 10.2571 9.48426 9.81117 9.48426 9.26117C9.48426 8.71117 9.0385 8.26527 8.48836 8.26527H7.23804V3.5183H27.0082V28.4817H27.0081ZM17.8355 16.4579C20.0934 16.4579 21.9304 14.6203 21.9304 12.3616C21.9304 10.1028 20.0934 8.26514 17.8355 8.26514C15.5769 8.26514 13.7394 10.1028 13.7394 12.3616C13.7394 14.6203 15.5769 16.4579 17.8355 16.4579ZM17.8355 10.2571C18.9951 10.2571 19.9386 11.2012 19.9386 12.3617C19.9386 13.5221 18.9952 14.4663 17.8355 14.4663C16.6752 14.4663 15.7312 13.5221 15.7312 12.3617C15.7312 11.2012 16.6752 10.2571 17.8355 10.2571ZM14.2718 22.9104C14.2718 23.4604 13.826 23.9063 13.2759 23.9063C12.7259 23.9063 12.28 23.4604 12.28 22.9104V21.1894C12.28 18.9863 14.0724 17.1941 16.2756 17.1941H19.4202C21.6234 17.1941 23.4158 18.9864 23.4158 21.1894V22.9104C23.4158 23.4604 22.9699 23.9063 22.4199 23.9063C21.8698 23.9063 21.424 23.4604 21.424 22.9104V21.1894C21.424 20.0846 20.525 19.1859 19.4202 19.1859H16.2756C15.1708 19.1859 14.2718 20.0847 14.2718 21.1894V22.9104Z" fill="black"/>
</svg>
