<svg width="32" height="32" viewBox="0 0 32 32" fill="none" xmlns="http://www.w3.org/2000/svg">
<path d="M3.68385 7.04364C3.87629 8.11784 4.06873 9.18701 4.30264 10.4895C4.75056 10.095 5.0807 9.76439 5.44899 9.48913C6.05949 9.03259 6.64178 8.46192 7.33191 8.21183C8.36711 7.83754 9.34589 8.20009 10.1339 8.99063C10.4474 9.3045 10.7245 9.65865 11.043 9.96748C11.6801 10.5868 12.3801 10.5835 13.0172 9.96077C13.2942 9.68886 13.5331 9.37835 13.8035 9.09805C15.1058 7.75362 16.8975 7.73851 18.2197 9.05945C19.4407 10.278 20.644 10.2847 21.8296 9.07959C23.1435 7.74355 24.9203 7.73684 26.2342 9.0863C26.6522 9.51598 27.0105 10.0044 27.3954 10.466C27.4933 10.4089 27.5912 10.3502 27.6891 10.2931C27.8881 9.21386 28.0856 8.13295 28.2946 7H30C28.9034 13.3445 27.8135 19.637 26.7169 25.9832C26.3835 25.9832 26.1097 25.9832 25.8377 25.9832C19.2864 25.9832 12.7368 25.9714 6.18557 26C5.46889 26.0033 5.19682 25.8069 5.07406 25.0684C4.10025 19.256 3.07999 13.4503 2.07465 7.64116C2.04645 7.47668 2.03318 7.31051 2 7.04364H3.68385ZM4.61619 12.3576C5.27811 16.1693 5.97654 20.2009 6.66667 24.1788C6.83422 24.2275 6.88731 24.2561 6.93874 24.2561C12.8811 24.2645 18.8219 24.2661 24.7643 24.2863C25.267 24.2879 25.3416 24.0144 25.408 23.6216C25.7265 21.7216 26.0666 19.8233 26.3934 17.925C26.7302 15.978 27.0603 14.0293 27.3606 12.277C26.6306 11.6543 25.977 11.1894 25.4395 10.6154C24.3446 9.44549 23.764 9.46563 22.6392 10.6221C22.0984 11.1776 21.4248 11.7248 20.7098 11.9564C19.1985 12.4482 18.1583 11.5335 17.2276 10.4408C16.4214 9.49584 15.6815 9.51095 14.8503 10.4022C12.7086 12.7017 11.413 12.7033 9.21649 10.4106C9.19659 10.3905 9.17834 10.3703 9.15843 10.3502C8.35383 9.5378 7.68527 9.55962 6.87404 10.3468C6.19054 11.0081 5.45562 11.614 4.61619 12.3576Z" fill="black"/>
<path d="M12.46 21.14C11 21.14 10.03 20.19 10 19.07L11.12 18.74C11.15 19.44 11.69 20.01 12.46 20.01C13.23 20.01 13.78 19.47 13.78 18.75C13.78 18.03 13.26 17.49 12.46 17.49C12.31 17.49 12.15 17.52 11.99 17.57L11.37 16.83L13.1 15.13H10.24V14H14.54V15.13L13.15 16.54C14.16 16.66 15 17.4 15 18.75C15 20.13 13.93 21.14 12.46 21.14Z" fill="black"/>
<path d="M18.4503 21.13C16.6403 21.13 15.8203 19.53 15.8203 17.48C15.8203 15.46 16.6403 13.85 18.4403 13.85C20.2203 13.85 21.0403 15.46 21.0403 17.48C21.0403 19.51 20.2403 21.13 18.4503 21.13ZM18.4503 20C19.4103 20 19.8203 18.95 19.8203 17.49C19.8203 16.07 19.4103 14.98 18.4403 14.98C17.4503 14.98 17.0403 16.07 17.0403 17.49C17.0403 18.95 17.4503 20 18.4503 20Z" fill="black"/>
</svg>
