<svg width="32" height="32" viewBox="0 0 32 32" fill="none" xmlns="http://www.w3.org/2000/svg">
<path d="M16 30.2197C15.5444 30.2197 15.1052 30.0547 14.7629 29.7549C13.4702 28.6245 12.2239 27.5623 11.1242 26.6252L11.1186 26.6204C7.89476 23.873 5.11083 21.5005 3.17382 19.1633C1.00854 16.5505 0 14.0732 0 11.3669C0 8.73755 0.90161 6.31177 2.53857 4.53613C4.19506 2.7395 6.46801 1.75 8.93944 1.75C10.7866 1.75 12.4782 2.33398 13.9673 3.4856C14.7187 4.06689 15.3999 4.77832 16 5.60815C16.6003 4.77832 17.2812 4.06689 18.0329 3.4856C19.5219 2.33398 21.2136 1.75 23.0607 1.75C25.5319 1.75 27.8051 2.7395 29.4616 4.53613C31.0986 6.31177 31.9999 8.73755 31.9999 11.3669C31.9999 14.0732 30.9916 16.5505 28.8264 19.1631C26.8894 21.5005 24.1057 23.8728 20.8823 26.6199C19.7807 27.5583 18.5324 28.6223 17.2368 29.7554C16.8947 30.0547 16.4553 30.2197 16 30.2197Z" fill="black"/>
</svg>
