<svg width="32" height="32" viewBox="0 0 32 32" fill="none" xmlns="http://www.w3.org/2000/svg">
<path fill-rule="evenodd" clip-rule="evenodd" d="M21.5965 13.1564C20.0982 14.6549 18.2645 15.4144 16.1468 15.4144C14.0296 15.4144 12.1961 14.6547 10.6976 13.1566C9.19907 11.6584 8.43931 9.82488 8.43931 7.70698C8.43931 5.58956 9.19907 3.75608 10.6974 2.2578C12.1956 0.759516 14.0289 0 16.1468 0C18.2642 0 20.0977 0.759516 21.5962 2.25755C23.0948 3.75632 23.8543 5.5898 23.8543 7.70698C23.8543 9.82488 23.0948 11.6581 21.5965 13.1564ZM29.3737 22.5843C29.5024 23.3026 29.5898 23.9828 29.633 24.6063C29.6757 25.2157 29.6974 25.8516 29.6977 26.4964C29.6977 28.1675 29.1667 29.5201 28.1193 30.5167C27.0849 31.501 25.717 32 24.0529 32H8.64476C6.9807 32 5.6123 31.5008 4.57812 30.5167C3.531 29.5193 3 28.1671 3 26.4967C3 25.8548 3.02148 25.2193 3.06396 24.607C3.10718 23.982 3.19458 23.3016 3.32324 22.5843C3.45312 21.8607 3.62036 21.1769 3.82031 20.5516C4.02734 19.9049 4.30859 19.267 4.656 18.6554C5.01635 18.0209 5.44042 17.4684 5.91576 17.0133C6.41356 16.537 7.02269 16.1544 7.7263 15.8759C8.42772 15.5981 9.20506 15.4572 10.0371 15.4572C10.3637 15.4572 10.6799 15.5912 11.2893 15.9884C11.6704 16.2367 12.1098 16.5199 12.5954 16.8302C13.0141 17.0973 13.582 17.3476 14.2827 17.5739C14.9677 17.7953 15.6623 17.9076 16.3481 17.9076C17.0339 17.9076 17.7287 17.7953 18.413 17.5739C19.1144 17.3473 19.6823 17.0971 20.1015 16.83C20.5917 16.5168 21.0309 16.2336 21.4064 15.9887C22.0165 15.5915 22.3325 15.4574 22.6591 15.4574C23.4909 15.4574 24.2685 15.5981 24.9701 15.8756C25.6742 16.1547 26.2831 16.5373 26.7804 17.0131C27.256 17.4679 27.6799 18.0206 28.0407 18.6554C28.3883 19.267 28.6696 19.9052 28.8764 20.5514C29.0766 21.1766 29.2438 21.8607 29.3737 22.5843Z" fill="black"/>
</svg>
