<svg width="32" height="32" viewBox="0 0 32 32" fill="none" xmlns="http://www.w3.org/2000/svg">
<path fill-rule="evenodd" clip-rule="evenodd" d="M25.1819 7.66343H29.2389C30.7614 7.66343 32 8.90212 32 10.4246V25.728C32 27.2505 30.7614 28.4891 29.2389 28.4891H5.63825C5.37937 28.4891 5.1695 28.2793 5.1695 28.0204C5.1695 27.7614 5.37937 27.5516 5.63825 27.5516H29.239C30.2445 27.5516 31.0626 26.7336 31.0626 25.728V10.4246C31.0626 9.41899 30.2445 8.60093 29.239 8.60093H25.182C24.1357 8.60093 23.1919 8.02112 22.719 7.08768L21.8881 5.44768C21.5758 4.83118 20.9526 4.44824 20.2615 4.44824H11.7017C11.0027 4.44824 10.3762 4.83762 10.0667 5.4643L9.27744 7.06249C8.80881 8.01143 7.86025 8.60093 6.80188 8.60093H2.76106C1.75556 8.60093 0.9375 9.41899 0.9375 10.4246V25.728C0.9375 26.7336 1.75556 27.5516 2.76106 27.5516H3.66956C3.92844 27.5516 4.13831 27.7614 4.13831 28.0204C4.13831 28.2793 3.92844 28.4891 3.66956 28.4891H2.76106C1.23856 28.4891 0 27.2504 0 25.728V10.4246C0 8.95305 1.15713 7.74693 2.60919 7.6678V6.77949C2.60919 6.28918 3.00812 5.89024 3.49844 5.89024H6.07125C6.56163 5.89024 6.9605 6.28918 6.9605 6.77949V7.65593C7.59456 7.6018 8.151 7.22618 8.43688 6.6473L9.22619 5.04912C9.69487 4.10024 10.6434 3.51074 11.7017 3.51074H20.2614C21.3078 3.51074 22.2515 4.09055 22.7244 5.02399L23.5553 6.66399C23.8676 7.28043 24.4909 7.66343 25.1819 7.66343ZM3.54669 6.82774V7.66343H6.023V6.82774H3.54669ZM16.0002 25.6987C11.6112 25.6987 8.04053 22.1279 8.04053 17.7387C8.04053 13.3496 11.6112 9.77881 16.0002 9.77881C20.3892 9.77881 23.9598 13.3496 23.9598 17.7387C23.9598 22.1279 20.3891 25.6987 16.0002 25.6987ZM23.0223 17.7387C23.0223 13.8666 19.8722 10.7163 16.0002 10.7163C12.1281 10.7163 8.97803 13.8666 8.97803 17.7387C8.97803 21.611 12.1282 24.7612 16.0002 24.7612C19.8722 24.7612 23.0223 21.611 23.0223 17.7387ZM16 23.5047C19.1792 23.5047 21.7656 20.918 21.7656 17.7387C21.7656 16.9383 21.6046 16.1633 21.287 15.4352C21.1834 15.1979 20.9072 15.0895 20.6699 15.193C20.4326 15.2965 20.3242 15.5728 20.4277 15.8101C20.6934 16.4192 20.8281 17.0681 20.8281 17.7387C20.8281 20.4011 18.6623 22.5672 16 22.5672C13.3377 22.5672 11.1719 20.4011 11.1719 17.7387C11.1719 15.0763 13.3377 12.9103 16 12.9103C17.25 12.9103 18.4355 13.3862 19.3381 14.2503C19.5251 14.4292 19.8219 14.4229 20.0009 14.2359C20.1799 14.0489 20.1734 13.7522 19.9864 13.5732C18.9084 12.5412 17.4927 11.9729 16 11.9729C12.8208 11.9729 10.2344 14.5595 10.2344 17.7388C10.2344 20.9181 12.8208 23.5047 16 23.5047ZM2.19434 11.3084C2.19434 10.465 2.88046 9.77881 3.7239 9.77881C4.56734 9.77881 5.25352 10.4649 5.25352 11.3084C5.25352 12.1519 4.56727 12.8381 3.7239 12.8381C2.88052 12.8381 2.19434 12.1519 2.19434 11.3084ZM3.13184 11.3084C3.13184 11.6349 3.3974 11.9006 3.7239 11.9006C4.0504 11.9006 4.31602 11.6349 4.31602 11.3084C4.31602 10.9819 4.05034 10.7162 3.7239 10.7162C3.39746 10.7162 3.13184 10.9819 3.13184 11.3084ZM18.3223 6.82764C18.5812 6.82764 18.791 6.61782 18.791 6.35889C18.791 6.09995 18.5812 5.89014 18.3223 5.89014H13.6777C13.4189 5.89014 13.209 6.09995 13.209 6.35889C13.209 6.61782 13.4189 6.82764 13.6777 6.82764H18.3223ZM29.3303 10.7124C29.3303 10.9713 29.1204 11.1812 28.8615 11.1812H28.124C27.8651 11.1812 27.6553 10.9713 27.6553 10.7124C27.6553 10.4535 27.8651 10.2437 28.124 10.2437H28.8615C29.1204 10.2437 29.3303 10.4535 29.3303 10.7124Z" fill="black"/>
</svg>
