<svg width="32" height="32" viewBox="0 0 32 32" fill="none" xmlns="http://www.w3.org/2000/svg">
<path d="M22.7964 5.45989C22.8351 5.51979 23.9734 5.74071 24.1743 5.79812C25.7981 6.26241 28.5814 7.11861 28.7199 9.11557L28.685 24.0004L28.4491 24.2013L24.6074 25.7577C24.5363 25.8675 24.6386 27.9032 24.5987 28.2776C24.58 28.4486 24.5625 28.5809 24.3678 28.6046L7.35372 28.5622C7.25637 28.501 7.25637 28.3213 7.24763 28.2165C7.21768 27.8608 7.30879 25.8601 7.24139 25.7577L3.18881 24.0378L3.13265 23.9068L3.12891 9.05441C3.26869 7.2871 5.68127 6.39846 7.1403 5.95164C7.41612 5.86677 8.99871 5.54351 9.05238 5.46113C9.08608 5.40871 9.0424 5.23772 9.0711 5.13788C9.12352 4.96065 11.7108 3.25824 12.0903 3.03857L19.811 3.04981L22.6978 5.03054C22.8539 5.11541 22.7465 5.38375 22.7964 5.46113V5.45989ZM19.1071 3.65763H12.7418L15.9494 8.14829L19.1071 3.65763ZM13.3034 11.0838L15.4876 8.74488L11.9717 3.85109L9.81372 5.42619L13.3034 11.0838ZM18.5442 11.0838L22.0339 5.42619L19.8759 3.85109L16.36 8.74488L18.5442 11.0838ZM15.6124 9.6485C15.3915 9.82573 15.1805 10.0342 14.9871 10.2401C14.7163 10.5272 13.6192 11.8626 13.3683 11.9325C13.3047 11.9512 13.2547 11.9487 13.1973 11.9126L9.40559 6.05148C8.23113 6.31109 7.00176 6.59441 5.89719 7.07992C4.97859 7.48305 3.7879 8.10461 3.75296 9.24162L3.76544 23.5873L7.25013 25.0638V13.4877C7.25013 13.2842 7.87418 13.2717 7.87418 13.5501V27.9968H15.5188L15.6124 27.9032V9.6485ZM24.5987 25.0625L28.0322 23.6597L28.0946 23.5348L28.0971 9.24162C28.0559 8.09462 26.8777 7.48805 25.9529 7.07992C24.8483 6.59191 23.6252 6.29611 22.4445 6.05398L18.654 11.9138C18.5966 11.95 18.5479 11.9512 18.483 11.9338C18.2184 11.8589 17.1401 10.5334 16.8642 10.2414C16.6695 10.0354 16.4598 9.82698 16.2389 9.64975V27.9032L16.3325 27.9968H23.9771V13.5501C23.9771 13.2717 24.6012 13.2842 24.6012 13.4877V25.0638L24.5987 25.0625Z" fill="black"/>
<path d="M18.2485 15.3427C18.3197 15.2728 18.4757 15.2715 18.573 15.2628C19.5678 15.1767 20.6848 15.3302 21.6945 15.2665C22.0091 15.3252 22.064 15.8332 21.5722 15.8893C21.0043 15.9542 19.0561 15.9705 18.5169 15.8843C18.251 15.8419 18.0501 15.5361 18.2473 15.3414L18.2485 15.3427Z" fill="black"/>
</svg>
