<svg width="32" height="32" viewBox="0 0 32 32" fill="none" xmlns="http://www.w3.org/2000/svg">
<path d="M22.7904 3.73222L26.6969 9.03414L24.2269 12.6249L26.3499 14.8678L26.3961 15.2322L16.4226 28.6006L16.2191 28.6231L6.18941 15.181L6.24932 14.8678L8.37234 12.6249L5.88737 9.01917L9.8089 3.73222C8.31243 3.99432 6.8559 4.44364 5.50171 5.13508C5.18344 5.29734 4.08637 6.0462 3.88293 6.07865C3.67949 6.1111 3.48478 5.92263 3.51723 5.71171C3.54968 5.50078 4.32475 5.06394 4.54941 4.9304C5.99471 4.06671 7.98667 3.3216 9.66162 3.11566C9.87879 3.08945 10.393 3.01207 10.574 3.06074C10.7075 3.09569 11.3827 3.6486 11.5999 3.78214C12.3987 4.27265 13.3947 4.68327 14.2896 4.9616C14.7464 5.10388 15.8497 5.44212 16.2765 5.45709C16.5811 5.46833 17.5696 5.17377 17.9215 5.07268C19.257 4.68951 20.4077 4.1753 21.5622 3.40896C21.7869 3.25919 21.8768 3.04951 22.1963 3.03828C23.8001 2.98087 26.6195 4.08793 28.0112 4.90668C28.3918 5.13009 29.615 5.70796 28.8025 6.08738C28.111 5.78909 27.492 5.3198 26.8055 4.98906C25.5349 4.37624 24.1783 3.97934 22.7904 3.73222ZM15.6126 26.822L10.3406 4.16906L6.63623 9.07783L9.09623 12.6861L8.99888 12.9369L6.99818 14.9926L6.94701 15.1698L15.6138 26.8208L15.6126 26.822ZM17.0479 26.822L25.6535 15.171L25.6023 14.9938L23.6016 12.9382L23.5043 12.6873L25.9643 9.07908L22.2599 4.1703L17.0491 26.822H17.0479ZM15.3642 5.91764C14.3382 5.65679 13.3073 5.35725 12.3463 4.90918C11.9045 4.70324 11.5013 4.4324 11.0582 4.23146L11.8695 7.91335L15.3629 5.91764H15.3642ZM21.541 4.23146L19.73 5.13384L17.2363 5.94635L20.7298 7.9121L21.541 4.23021V4.23146ZM18.7266 7.54641L16.279 6.18099L13.8615 7.57512C13.8115 7.89463 15.1208 8.95052 15.4728 9.05287L15.5489 9.2613L13.4908 14.7467L16.2379 26.6985C16.4026 26.7135 16.3389 26.7022 16.3614 26.6049C17.2675 22.6497 18.1961 18.7007 19.1085 14.7467L17.0504 9.2613L17.1265 9.05287C17.4298 8.8981 17.7555 8.69466 18.0139 8.47375C18.1599 8.34769 18.8214 7.71116 18.7253 7.54641H18.7266ZM13.18 13.5298L14.8013 9.49968C14.7975 9.39734 14.0162 8.84818 13.864 8.69466C13.668 8.49497 13.4084 8.16921 13.3023 7.91335C13.0639 8.1118 12.2864 8.38763 12.1166 8.5686C12.0829 8.6048 12.0505 8.63226 12.058 8.68842L13.1788 13.5298H13.18ZM19.4193 13.5298L20.54 8.68842C20.5488 8.63226 20.5163 8.6048 20.4814 8.5686C20.3179 8.39387 19.5316 8.09308 19.2957 7.91335C19.1896 8.16672 18.93 8.49996 18.7353 8.69591C18.588 8.84443 17.8005 9.3911 17.7967 9.49968L19.418 13.5285L19.4193 13.5298Z" fill="black"/>
<path d="M9.35601 15.105C9.57194 15.065 10.2996 15.0575 10.498 15.1174C10.7664 15.1986 10.8512 15.5019 10.6191 15.6816C10.4381 15.8214 8.89547 15.9574 9.00779 15.3845C9.04898 15.1973 9.18003 15.1374 9.35601 15.105Z" fill="black"/>
<path d="M22.1471 15.1039C22.4566 15.0353 23.6673 14.9741 23.5899 15.4821C23.5288 15.8815 22.4529 15.8303 22.1471 15.7642C21.7452 15.6756 21.7452 15.1926 22.1471 15.1039Z" fill="black"/>
</svg>
