<svg width="32" height="32" viewBox="0 0 32 32" fill="none" xmlns="http://www.w3.org/2000/svg">
<path d="M25.4 30.694H6.59995V14.0211L4.0549 15.2138L0 8.93556L7.10661 2.56474L12.3973 1.30605L12.7414 1.94015C12.8111 2.05485 13.7769 3.57507 15.9999 3.57507C18.3032 3.57507 19.2474 1.95978 19.2566 1.94346L19.6168 1.30941L24.8933 2.56474L31.9999 8.93556L27.945 15.2138L25.4 14.0211V30.694ZM8.54289 28.751H23.457V10.965L27.2334 12.7346L29.4678 9.27493L23.9638 4.34078L20.4969 3.51594C19.8297 4.29 18.394 5.518 16 5.518C13.606 5.518 12.1703 4.29 11.5031 3.51594L8.03624 4.34078L2.53216 9.27493L4.7666 12.7346L8.54295 10.965V28.751H8.54289Z" fill="black"/>
</svg>
