<svg width="32" height="32" viewBox="0 0 32 32" fill="none" xmlns="http://www.w3.org/2000/svg">
<path d="M23.9834 7.72524C23.9422 7.7839 24.6561 8.75242 24.7534 8.91093C27.8213 13.9071 28.7985 21.1785 28.9109 26.9697C28.9184 27.3429 29.0344 28.4786 28.6625 28.5984L3.78789 28.6284C3.43468 28.6259 3.34856 28.4799 3.31985 28.1604C3.20378 26.8848 3.50457 25.3983 3.44841 24.1015C3.93267 18.4526 4.87249 12.4892 8.2461 7.80387L8.24859 7.72399C7.89663 7.5892 7.83922 7.0962 7.81426 6.75422C7.77057 6.15263 7.74062 4.09577 7.92783 3.61775C8.06637 3.26329 8.40211 3.04487 8.78153 3.03613L23.6713 3.06609C24.1906 3.19464 24.369 3.64021 24.4152 4.13196C24.4701 4.71483 24.4851 6.92271 24.3054 7.3895C24.2592 7.51057 24.1194 7.70152 23.9846 7.72399L23.9834 7.72524ZM23.6514 3.74131L23.2008 3.66143L8.79776 3.6814L8.58059 3.74131C8.52567 3.78874 8.50945 3.93102 8.50321 4.00591C8.4096 4.98691 8.56187 6.11769 8.51569 7.11492L8.62802 7.25221L23.5615 7.27093C23.6976 7.22475 23.7163 7.13239 23.7325 7.00509C23.8199 6.34734 23.7824 4.7635 23.7325 4.06706C23.7238 3.95349 23.7225 3.83741 23.6514 3.74131ZM12.059 7.90746H9.0324C7.45855 9.80207 6.45258 12.2496 5.73992 14.5998C4.48183 18.7472 3.95888 23.5374 3.97261 27.8745C3.97261 27.9469 3.97635 27.9557 4.04001 28.0018H28.1907C28.2544 27.9557 28.2581 27.9469 28.2581 27.8745C28.2718 23.5249 27.7439 18.7098 26.4758 14.5523C25.7644 12.2196 24.7622 9.78835 23.1983 7.90746H20.9829C21.7268 10.1166 22.3833 12.3732 22.7203 14.6884C22.8713 15.7305 23.0847 17.2757 22.9836 18.3016C22.9537 18.6012 22.7815 18.7584 22.4807 18.6099C22.2635 18.5026 22.3746 17.6826 22.3583 17.4217C22.1611 14.1629 21.3948 10.9641 20.2965 7.90746H16.5834L16.4898 8.00107V20.9189C16.4898 21.1086 15.8657 21.166 15.8657 20.8565V7.90746H12.7767C11.6646 10.8417 10.8771 14.0157 10.6836 17.1721C10.6662 17.4479 10.7835 18.5013 10.5613 18.6099C10.4365 18.6711 10.2094 18.6698 10.1182 18.5537C9.87112 18.2417 10.2343 15.2101 10.3217 14.6272C10.6624 12.342 11.2927 10.0792 12.059 7.90871V7.90746Z" fill="black"/>
</svg>
