<svg width="32" height="32" viewBox="0 0 50 50" fill="none" xmlns="http://www.w3.org/2000/svg">
<g clip-path="url(#clip0_basin)">
<path d="M3.05445 15.4274C4.36289 16.2945 5.18115 17.021 6.87236 16.812C8.19056 16.6499 9.80756 14.9197 11.0633 14.3631C14.8441 12.6895 16.59 18.4603 20.4372 16.4136C22.1967 15.4782 23.2982 13.8378 25.5342 14.0897C26.9481 14.2479 28.5026 15.9703 29.8111 16.5503C33.5802 18.2181 35.3124 12.5157 39.1244 14.4627C40.2747 15.0505 41.8878 16.6538 43.1181 16.8159C44.8191 17.0405 45.6295 16.2906 46.938 15.4294C47.3618 14.5506 47.6156 11.8868 48.1859 11.256C48.8069 10.5686 49.9806 11.092 49.9982 11.9942L42.4112 40.0671L7.53244 40.0495L0.00402375 12.1719C-0.109244 10.9299 1.56243 10.3479 2.078 11.7657C2.48811 12.8945 2.65215 14.2752 3.05445 15.4274ZM46.0865 18.4818C44.4949 19.095 42.8213 19.1262 41.2707 18.3665C40.2181 17.849 39.0932 16.7202 38.0835 16.2808C37.5621 16.0523 37.3434 16.0816 36.8415 16.316C34.75 17.2963 33.8712 19.0403 31.1019 18.9719C28.5729 18.9094 27.5926 17.228 25.6475 16.316C25.1026 16.0602 24.8956 16.0582 24.343 16.316C22.3022 17.271 21.3863 19.0032 18.6971 18.9778C16.008 18.9524 15.1233 17.2397 13.149 16.316C12.5572 16.0387 12.3619 16.066 11.7839 16.3531C9.30567 17.5795 8.43663 19.5207 5.07179 18.8294C4.91165 18.7962 3.91177 18.3997 3.90396 18.5325L9.08499 38.0068L40.8567 38.0166L46.0885 18.4818H46.0865Z" fill="black"/>
</g>
<defs>
<clipPath id="clip0_basin">
<rect width="50" height="29.1274" fill="white" transform="translate(0 10.9375)"/>
</clipPath>
</defs>
</svg>
