<svg width="32" height="32" viewBox="0 0 32 32" fill="none" xmlns="http://www.w3.org/2000/svg">
<path d="M23.3763 5.9392C25.0611 6.03293 26.8596 5.82546 28.5318 5.9392C30.3665 6.06418 31.8263 7.43771 32 9.28242V24.91C31.8513 26.5685 30.6265 27.987 28.9592 28.2432C20.3131 28.3544 11.6319 28.3707 2.98703 28.2345C1.38728 27.9083 0.142478 26.6235 0 24.9737V9.34616C0.171223 7.51895 1.56101 6.08292 3.40822 5.94419C5.09295 5.81796 6.92517 6.03668 8.62615 5.94419C8.56366 4.59815 9.5735 3.44334 10.8596 3.14713C13.9428 3.15213 17.2748 2.87967 20.3456 3.06714C20.9605 3.10464 21.5329 3.20837 22.0566 3.54332C22.9064 4.08698 23.3301 4.9456 23.3776 5.94045L23.3763 5.9392ZM29.8503 8.15135C29.5029 7.8039 29.0117 7.62643 28.528 7.56769L22.309 7.5377C21.5241 7.2015 21.8153 6.44287 21.7491 5.78547C21.6866 5.16932 21.2942 4.73063 20.6593 4.68814L11.237 4.70689C9.5735 4.99934 10.982 6.99653 9.69099 7.5352C7.68005 7.72392 5.45915 7.38397 3.47196 7.56519C2.49336 7.65518 1.74473 8.35882 1.62475 9.34241V24.9075C1.71348 25.7299 2.29214 26.3535 3.06077 26.596C11.6669 26.7459 20.3331 26.7459 28.9392 26.596C29.9566 26.266 30.3665 25.4986 30.4377 24.47V9.65861C30.379 9.09245 30.2628 8.56503 29.8503 8.1526V8.15135Z" fill="black"/>
<path d="M15.6122 9.64738C21.1226 9.34368 24.9732 14.9153 22.9035 20.0008C20.7151 25.3774 13.3125 26.2173 9.92555 21.4855C6.47234 16.6613 9.71933 9.97358 15.6134 9.64863L15.6122 9.64738ZM15.4247 11.3359C9.84181 11.837 8.18957 19.4309 13.0826 22.2017C17.6943 24.8125 23.0947 20.5519 21.5925 15.4415C20.8163 12.7981 18.1543 11.0909 15.4234 11.3371L15.4247 11.3359Z" fill="black"/>
<path d="M26.4833 9.64474C28.8592 9.24106 28.9254 12.8917 26.5358 12.5618C24.9985 12.3493 24.9748 9.90095 26.4833 9.64474Z" fill="black"/>
</svg>
