<svg width="32" height="32" viewBox="0 0 32 32" fill="none" xmlns="http://www.w3.org/2000/svg">
<path d="M11.0654 2.8309C11.9415 2.87146 12.9323 2.73963 13.7953 2.81772C14.3328 2.86639 14.1583 3.1909 14.2293 3.54989C14.711 6.01007 18.1183 6.04151 18.6223 3.54178C18.6761 3.2771 18.5483 2.9749 18.886 2.84205L21.7042 2.81873C21.9993 2.8238 22.0642 3.10065 22.0855 3.35011C22.3471 6.32748 21.6869 9.6324 21.0673 12.5276C22.1118 16.732 22.9698 20.9993 23.4454 25.3143C23.5184 25.9755 23.6259 26.6752 23.6543 27.3364C23.7029 28.4661 23.5011 28.0655 22.6909 28.2987C21.9222 28.5208 21.7011 28.8616 20.7398 28.7794C20.0482 28.7206 19.5584 28.2632 18.9154 28.2207C17.9845 28.1588 17.5738 28.7074 16.7321 28.7794C15.8803 28.8524 15.6359 28.607 14.9321 28.3494C13.6077 27.8647 12.9688 28.8758 11.6606 28.7814C11.0288 28.7358 10.7408 28.4488 10.2176 28.2977C9.94073 28.2176 9.39515 28.2724 9.28056 28.0178C9.18118 27.7978 9.32518 26.6458 9.35661 26.3202C9.79876 21.6808 10.7226 17.0931 11.832 12.5793C11.2692 10.5278 10.9335 8.41853 10.826 6.29199C10.7804 5.39654 10.677 4.12488 10.7763 3.24972C10.7986 3.05197 10.8544 2.88465 11.0664 2.82988L11.0654 2.8309ZM19.3444 3.58031C19.0047 6.63982 14.6644 7.1205 13.6259 4.20296C13.5509 3.99203 13.5509 3.75271 13.4373 3.58031H11.5359C11.4375 6.48771 11.7742 9.38902 12.5043 12.195L20.328 12.2031C20.901 10.1648 21.1758 8.05245 21.3249 5.9401L21.3229 3.58031H19.3454H19.3444ZM20.4071 12.9637H12.5013C11.326 17.7421 10.4326 22.5985 10.0148 27.5128C10.5512 27.4824 10.9852 27.9134 11.4821 27.9976C12.5682 28.1821 12.9566 27.5432 13.8947 27.4631C14.7465 27.3901 14.9909 27.6355 15.6947 27.8931C17.0282 28.3809 17.6549 27.3658 18.9661 27.4611C20.0076 27.5361 20.4213 28.2886 21.6241 27.9418C22.0449 27.8211 22.4181 27.4824 22.8937 27.5128C22.4799 22.5975 21.5835 17.7411 20.4071 12.9637Z" fill="black"/>
</svg>
