<svg width="32" height="32" viewBox="0 0 32 32" fill="none" xmlns="http://www.w3.org/2000/svg">
<path d="M6.33779 8.66218C5.64989 8.51455 4.96499 8.01143 4.73502 7.32653C4.17264 5.65246 5.64687 4.11798 7.34605 4.61608C8.6576 5.00071 9.25211 6.76315 8.35733 7.82765L11.5418 10.2529L14.0233 7.42495C12.6374 6.04411 13.6858 3.68816 15.6572 3.83679C17.0601 3.94223 17.9298 5.43956 17.3995 6.73202C17.28 7.02325 17.0671 7.19498 16.9466 7.46914L19.4241 10.2609L22.49 7.90196C22.5242 7.83066 22.3515 7.48621 22.3243 7.36369C21.8674 5.27486 24.5327 3.9342 25.9256 5.5199C27.0433 6.79328 26.2781 8.7626 24.619 8.98052L24.3208 17.1179C24.3158 17.3077 24.1782 17.4634 23.9904 17.4905L6.859 17.4553L6.65614 17.2063L6.33779 8.66218ZM15.2695 4.65223C13.6758 4.8812 13.9389 7.3908 15.6532 7.19397C17.274 7.00718 17.0179 4.40117 15.2695 4.65223ZM6.38098 5.3542C5.26627 5.54199 5.05035 7.31348 6.19419 7.77744C8.24786 8.61096 8.72689 4.96054 6.38098 5.3542ZM24.1059 5.65547C22.5965 5.91457 22.8496 8.35488 24.4895 8.19922C26.1917 8.03854 25.9205 5.34416 24.1059 5.65547ZM14.7534 7.86882C14.7132 7.87284 14.5033 8.09779 14.4521 8.15303C13.6748 8.97751 12.9758 9.94861 12.1935 10.7651C11.9887 10.979 11.7175 11.3566 11.3962 11.1587L7.79595 8.42819L7.19542 8.62904L7.39426 14.5079L23.5937 14.4828C23.663 13.1481 23.6751 11.8205 23.7142 10.4859C23.7172 10.3674 23.7654 10.2569 23.7684 10.1384C23.7725 9.9446 23.8006 8.94939 23.7162 8.8811C23.5947 8.78068 23.1709 8.70235 23.0374 8.51455L19.5667 11.1587C19.3799 11.2712 19.161 11.227 19.0194 11.0673L16.2356 7.87686C15.7415 8.03252 15.2414 8.07068 14.7513 7.86782L14.7534 7.86882ZM23.5666 15.3344H7.39827L7.44849 16.6901H23.5164L23.5666 15.3344Z" fill="black"/>
<path d="M15.5797 24.6734C15.4622 24.6483 15.4994 24.6895 15.4683 24.7377C14.8476 25.6957 14.6197 26.233 13.5562 26.8406C10.8116 28.4092 6.72531 28.0577 4.21671 26.1707C3.92748 25.9538 3.21045 25.4668 3.60311 25.0721C3.89033 24.7829 4.47982 25.2217 4.83432 25.3021C7.18625 25.8363 7.86311 23.4482 9.00494 22.0383C10.6097 20.0569 13.04 18.5475 15.5134 20.0941C17.8724 18.668 20.1169 19.841 21.7588 21.6848C23.0312 23.1128 23.7844 25.8584 26.2277 25.3031C26.5923 25.2197 27.3816 24.6594 27.5603 25.2237C27.6708 25.5742 27.1325 25.9538 26.8744 26.1507C25.0317 27.5556 22.5662 28.0647 20.2916 27.7213C18.3464 27.4281 16.352 26.6247 15.5807 24.6744L15.5797 24.6734ZM5.78935 26.229C7.70444 27.1559 9.78925 27.2453 11.8259 26.6668C13.2187 26.2712 14.3345 25.5351 14.8657 24.1331C15.2624 23.0867 15.1178 21.9067 15.1037 20.8061C12.8843 19.3429 10.6599 21.1033 9.36345 22.8999C8.14229 24.5911 8.12623 25.4346 5.9189 26.1336C5.86266 26.1517 5.79739 26.1507 5.78835 26.229H5.78935ZM25.2717 26.229C25.2626 26.1507 25.1974 26.1517 25.1411 26.1336C22.9238 25.4316 22.9258 24.5901 21.6966 22.8999C20.3911 21.1033 18.1837 19.3439 15.9563 20.8061C15.9262 22.0795 15.7796 23.3448 16.364 24.5157C16.9606 25.7088 17.9889 26.3133 19.2342 26.6668C21.2698 27.2453 23.3556 27.1559 25.2707 26.229H25.2717Z" fill="black"/>
</svg>
