<svg width="32" height="32" viewBox="0 0 32 32" fill="none" xmlns="http://www.w3.org/2000/svg">
<path d="M23.6155 15.0791L23.5883 27.7889L23.3771 28H8.64162L8.43051 27.7889L8.41174 15.1035L4.28054 14.017C4.152 13.9654 4.01407 13.8265 4 13.6848L5.47777 8.41174C6.58399 5.43461 9.57801 4.74123 12.3281 4C12.6321 4.08069 12.8676 4.29649 13.1631 4.4316C14.7676 5.16533 17.1048 5.17659 18.7299 4.49259C18.9936 4.38188 19.5152 3.99156 19.7329 4.00281C22.6575 4.80316 25.5202 5.46933 26.6264 8.65476C27.1809 10.2526 27.5018 12.0231 28.0216 13.6426C28.0206 13.8105 27.8874 13.9541 27.7392 14.017L23.6164 15.0782L23.6155 15.0791ZM8.40893 14.275V9.23179C8.40893 8.90434 9.15955 8.90434 9.15955 9.23179V27.27H22.8583V9.23179C22.8583 8.90434 23.6089 8.90434 23.6089 9.23179V14.275L27.1743 13.3827C26.7324 11.9772 26.4312 10.5163 25.978 9.11451C25.005 6.1036 22.5261 5.57348 19.7883 4.79941C18.15 5.73486 16.1131 5.94972 14.2722 5.57254C13.5216 5.41866 12.8657 5.1278 12.1892 4.79941C9.46073 5.6035 7.01372 6.09891 6.03886 9.11357C5.58568 10.5153 5.28168 11.9753 4.84257 13.3818L8.40799 14.2741L8.40893 14.275Z" fill="black"/>
</svg>
