<svg width="32" height="32" viewBox="0 0 32 32" fill="none" xmlns="http://www.w3.org/2000/svg">
<path d="M32 3.8125V1.9375H30.0625V0H28.1875V1.9375H26.3125V0H24.4375V1.9375H22.5625V0H20.6875V1.9375H18.8125V0H16.9375V1.9375H15.0625V0H13.1875V1.9375H11.3125V0H9.4375V1.9375H7.5625V0H5.6875V1.9375H3.8125V0H1.9375V1.9375H0V3.8125H1.9375V5.6875H0V7.5625H1.9375V9.4375H0V11.3125H1.9375V13.1875H0V15.0625H1.9375V16.9375H0V18.8125H1.9375V20.6875H0V22.5625H1.9375V24.4375H0V26.3125H1.9375V28.1875H0V30.0625H1.9375V32H3.8125V30.0625H5.6875V32H7.5625V30.0625H9.4375V32H11.3125V30.0625H13.1875V32H15.0625V30.0625H16.9375V32H18.8125V30.0625H20.6875V32H22.5625V30.0625H24.4375V32H26.3125V30.0625H28.1875V32H30.0625V30.0625H32V28.1875H30.0625V26.3125H32V24.4375H30.0625V22.5625H32V20.6875H30.0625V18.8125H32V16.9375H30.0625V15.0625H32V13.1875H30.0625V11.3125H32V9.4375H30.0625V7.5625H32V5.6875H30.0625V3.8125H32ZM24.4375 3.8125V5.6875H22.5625V3.8125H24.4375ZM15.0625 13.1875V11.3125H16.9375V13.1875H15.0625ZM16.9375 15.0625V16.9375H15.0625V15.0625H16.9375ZM13.1875 13.1875H11.3125V11.3125H13.1875V13.1875ZM13.1875 15.0625V16.9375H11.3125V15.0625H13.1875ZM13.1875 18.8125V20.6875H11.3125V18.8125H13.1875ZM15.0625 18.8125H16.9375V20.6875H15.0625V18.8125ZM18.8125 18.8125H20.6875V20.6875H18.8125V18.8125ZM18.8125 16.9375V15.0625H20.6875V16.9375H18.8125ZM18.8125 13.1875V11.3125H20.6875V13.1875H18.8125ZM18.8125 9.4375V7.5625H20.6875V9.4375H18.8125ZM16.9375 9.4375H15.0625V7.5625H16.9375V9.4375ZM13.1875 9.4375H11.3125V7.5625H13.1875V9.4375ZM9.4375 9.4375H7.5625V7.5625H9.4375V9.4375ZM9.4375 11.3125V13.1875H7.5625V11.3125H9.4375ZM9.4375 15.0625V16.9375H7.5625V15.0625H9.4375ZM9.4375 18.8125V20.6875H7.5625V18.8125H9.4375ZM9.4375 22.5625V24.4375H7.5625V22.5625H9.4375ZM11.3125 22.5625H13.1875V24.4375H11.3125V22.5625ZM15.0625 22.5625H16.9375V24.4375H15.0625V22.5625ZM18.8125 22.5625H20.6875V24.4375H18.8125V22.5625ZM22.5625 22.5625H24.4375V24.4375H22.5625V22.5625ZM22.5625 20.6875V18.8125H24.4375V20.6875H22.5625ZM22.5625 16.9375V15.0625H24.4375V16.9375H22.5625ZM22.5625 13.1875V11.3125H24.4375V13.1875H22.5625ZM22.5625 9.4375V7.5625H24.4375V9.4375H22.5625ZM20.6875 3.8125V5.6875H18.8125V3.8125H20.6875ZM16.9375 3.8125V5.6875H15.0625V3.8125H16.9375ZM13.1875 3.8125V5.6875H11.3125V3.8125H13.1875ZM9.4375 3.8125V5.6875H7.5625V3.8125H9.4375ZM3.8125 3.8125H5.6875V5.6875H3.8125V3.8125ZM3.8125 7.5625H5.6875V9.4375H3.8125V7.5625ZM3.8125 11.3125H5.6875V13.1875H3.8125V11.3125ZM3.8125 15.0625H5.6875V16.9375H3.8125V15.0625ZM3.8125 18.8125H5.6875V20.6875H3.8125V18.8125ZM3.8125 22.5625H5.6875V24.4375H3.8125V22.5625ZM3.8125 28.1875V26.3125H5.6875V28.1875H3.8125ZM7.5625 28.1875V26.3125H9.4375V28.1875H7.5625ZM11.3125 28.1875V26.3125H13.1875V28.1875H11.3125ZM15.0625 28.1875V26.3125H16.9375V28.1875H15.0625ZM18.8125 28.1875V26.3125H20.6875V28.1875H18.8125ZM22.5625 28.1875V26.3125H24.4375V28.1875H22.5625ZM28.1875 28.1875H26.3125V26.3125H28.1875V28.1875ZM28.1875 24.4375H26.3125V22.5625H28.1875V24.4375ZM28.1875 20.6875H26.3125V18.8125H28.1875V20.6875ZM28.1875 16.9375H26.3125V15.0625H28.1875V16.9375ZM28.1875 13.1875H26.3125V11.3125H28.1875V13.1875ZM28.1875 9.4375H26.3125V7.5625H28.1875V9.4375ZM28.1875 5.6875H26.3125V3.8125H28.1875V5.6875Z" fill="black"/>
</svg>
