<svg width="32" height="32" viewBox="0 0 32 32" fill="none" xmlns="http://www.w3.org/2000/svg">
<path d="M22.4221 14.7657C22.3174 14.8074 22.3024 15.0297 22.2789 15.1291C21.4015 18.8235 22.6861 21.8041 23.7088 25.2646C23.7035 25.396 23.6575 25.4666 23.572 25.5595C23.3593 25.7882 22.748 26.1548 22.4595 26.3172C18.9125 28.2997 13.1512 28.2975 9.59777 26.3365C9.3338 26.1911 8.38159 25.6183 8.32709 25.3608C8.30999 25.2795 8.30678 25.2004 8.32816 25.1192C8.72251 23.7043 9.27395 22.2883 9.63731 20.869C10.1503 18.861 10.1909 16.7738 9.65227 14.7668L7.40267 25.0466C7.32038 25.1769 7.21137 25.2229 7.06282 25.2411C6.48039 25.3095 5.09108 25.2966 4.49475 25.2421C4.12071 25.2079 4.03201 25.0391 4.03949 24.6768C4.07582 22.7916 4.37506 20.5409 4.57811 18.6408C4.82818 16.294 5.12635 13.868 5.55597 11.55C5.73551 10.5807 6.43871 6.96959 7.22954 6.49082C8.32175 5.99922 9.61807 5.70212 10.6889 5.19449C11.4284 4.84289 12.1509 4.24122 12.8979 3.87679C14.8483 3.99435 17.0605 3.68336 18.9809 3.8629C19.4426 3.90565 20.8158 4.9519 21.3726 5.21159C22.4371 5.70853 23.7109 6.00563 24.7946 6.49189C25.5801 6.96639 26.2897 10.585 26.4682 11.5511C27.2836 15.9423 27.6288 20.4822 27.9697 24.9354C27.9109 25.131 27.7795 25.2186 27.5818 25.2421C27.0314 25.3062 25.5106 25.3062 24.9613 25.2421C24.8117 25.225 24.7038 25.1791 24.6215 25.0476L22.4242 14.7679L22.4221 14.7657ZM18.4156 4.71892H13.6064C13.9067 5.72563 14.7895 7.73905 16.0388 7.71447C17.2881 7.68989 18.1227 5.7096 18.4156 4.71892ZM12.8038 4.9861C12.7034 4.89846 11.5353 5.72456 11.3173 5.79724C11.4584 7.48898 12.5858 8.99049 13.8394 10.0581L15.2084 8.43264C13.9206 7.73157 13.2281 6.33372 12.8038 4.9861ZM20.7047 5.79724C20.4867 5.72456 19.3186 4.89846 19.2182 4.9861C18.7939 6.33372 18.1014 7.73157 16.8136 8.43264L18.1484 10.0389C18.2104 10.088 18.236 10.0442 18.283 10.0122C18.4444 9.90102 18.8804 9.43186 19.0301 9.26194C19.8786 8.30119 20.6021 7.10211 20.7036 5.79724H20.7047ZM21.5148 6.16166C21.4293 6.91295 21.1397 7.62684 20.7752 8.28195C20.3328 9.07599 19.5494 10.0474 18.8708 10.6523C18.6314 10.8661 18.3162 11.2294 17.9849 11.1076L16.0324 8.83553L14.1686 11.0253C14.02 11.1567 13.8095 11.1717 13.6396 11.0702C12.1616 9.7995 10.7915 8.15478 10.5062 6.16166L8.12511 7.06791C8.0535 7.16837 8.46816 7.93142 8.53976 8.10348C9.70891 10.9312 11.0565 15.6014 10.8813 18.6387C10.7541 20.8359 9.81899 22.9252 9.2483 25.0209C9.23762 25.1374 9.46097 25.2528 9.55074 25.3137C11.8965 26.9018 15.6968 27.1978 18.4273 26.7725C19.9395 26.5374 21.5383 25.9913 22.7705 25.0797C22.2319 22.9498 21.27 20.8605 21.1418 18.6387C20.9954 16.1155 21.8226 13.0697 22.5578 10.6512C22.9222 9.4511 23.3903 8.28302 23.9204 7.14807L23.8296 7.02623L21.5158 6.16166H21.5148ZM7.0874 22.673L9.16174 12.8688C8.76525 11.114 8.22556 9.37843 7.43473 7.7647C6.77748 9.38591 6.47077 11.1503 6.18756 12.8773C5.65642 16.1198 5.36574 19.4028 5.05689 22.6741H7.0874V22.673ZM26.9651 22.673C26.6541 19.4017 26.3656 16.1198 25.8344 12.8763C25.5512 11.1503 25.2445 9.38484 24.5873 7.76363C23.7964 9.37736 23.2567 11.1129 22.8603 12.8677L24.9346 22.6719H26.9651V22.673ZM6.87367 23.5279H5.00345L4.95002 24.3829H6.71336L6.87367 23.5279ZM27.0185 23.5279H25.1483L25.3086 24.3829H27.072L27.0185 23.5279Z" fill="black"/>
<path d="M15.8911 10.5013C16.7824 10.3559 16.9128 11.6907 16.0845 11.7698C15.2563 11.8489 15.1227 10.6263 15.8911 10.5013Z" fill="black"/>
<path d="M15.8911 13.0662C16.7824 12.9209 16.9128 14.2557 16.0845 14.3348C15.2563 14.4139 15.1227 13.1913 15.8911 13.0662Z" fill="black"/>
<path d="M15.8911 15.6312C16.7824 15.4858 16.9128 16.8206 16.0845 16.8997C15.2563 16.9788 15.1227 15.7562 15.8911 15.6312Z" fill="black"/>
<path d="M15.8911 18.1961C16.7824 18.0508 16.9128 19.3856 16.0845 19.4646C15.2563 19.5437 15.1227 18.3211 15.8911 18.1961Z" fill="black"/>
<path d="M15.8911 20.7611C16.7824 20.6157 16.9128 21.9505 16.0845 22.0296C15.2563 22.1087 15.1227 20.8861 15.8911 20.7611Z" fill="black"/>
<path d="M15.8911 23.3255C16.7824 23.1802 16.9128 24.515 16.0845 24.594C15.2563 24.6731 15.1227 23.4505 15.8911 23.3255Z" fill="black"/>
</svg>
