<svg width="32" height="32" viewBox="0 0 32 32" fill="none" xmlns="http://www.w3.org/2000/svg">
<path d="M20.3992 4.39917C18.8428 4.39917 17.3574 4.70804 16 5.26642C14.6426 4.70804 13.1572 4.39917 11.6008 4.39917C5.20413 4.39917 0 9.6033 0 16C0 22.3967 5.20413 27.6008 11.6008 27.6008C13.1572 27.6008 14.6426 27.2919 16 26.7335C17.3574 27.2919 18.8428 27.6008 20.3992 27.6008C26.7959 27.6008 32 22.3967 32 16C32 9.6033 26.7959 4.39917 20.3992 4.39917ZM11.6008 25.7258C6.238 25.7258 1.875 21.3628 1.875 16C1.875 10.6372 6.238 6.27417 11.6008 6.27417C12.3335 6.27417 13.0473 6.35617 13.7341 6.51042C10.7511 8.61179 8.79844 12.0819 8.79844 15.9999C8.79844 19.9179 10.7511 23.388 13.7341 25.4894C13.0472 25.6438 12.3335 25.7258 11.6008 25.7258ZM16 7.32748C19.1583 8.93604 21.3266 12.2194 21.3266 16C21.3266 19.7805 19.1583 23.0639 16 24.6725C12.8418 23.0639 10.6734 19.7805 10.6734 16C10.6734 12.2194 12.8418 8.93604 16 7.32748ZM20.3992 25.7258C19.6665 25.7258 18.9527 25.6438 18.2659 25.4895C21.2489 23.3882 23.2016 19.918 23.2016 16C23.2016 12.082 21.2489 8.61192 18.2659 6.51054C18.9527 6.35623 19.6665 6.27429 20.3992 6.27429C25.762 6.27417 30.125 10.6372 30.125 16C30.125 21.3628 25.762 25.7258 20.3992 25.7258Z" fill="black"/>
</svg>
