<svg width="32" height="32" viewBox="0 0 32 32" fill="none" xmlns="http://www.w3.org/2000/svg">
<path d="M27.6692 21.7864C26.8323 21.3682 26.3125 20.5269 26.3125 19.5913V14.0625C26.3125 9.24487 22.9915 5.18872 18.5188 4.06177C18.7065 3.68506 18.8125 3.26099 18.8125 2.8125C18.8125 1.26172 17.5508 0 16 0C14.4492 0 13.1875 1.26172 13.1875 2.8125C13.1875 3.26099 13.2935 3.68506 13.4812 4.06177C9.00854 5.18872 5.6875 9.24487 5.6875 14.0625V19.5913C5.6875 20.5269 5.16772 21.3682 4.33081 21.7866C2.85449 22.5247 1.9375 24.0083 1.9375 25.6587V28.25H12.25C12.25 30.3179 13.9321 32 16 32C18.0679 32 19.75 30.3179 19.75 28.25H30.0625V25.6587C30.0625 24.0083 29.1455 22.5247 27.6692 21.7864ZM16 1.875C16.5168 1.875 16.9375 2.29565 16.9375 2.8125C16.9375 3.32935 16.5168 3.75 16 3.75C15.4832 3.75 15.0625 3.32935 15.0625 2.8125C15.0625 2.29565 15.4832 1.875 16 1.875ZM16 30.125C14.9661 30.125 14.125 29.2839 14.125 28.25H17.875C17.875 29.2839 17.0339 30.125 16 30.125ZM28.1875 26.375H3.8125V25.6587C3.8125 24.7231 4.33228 23.8818 5.16919 23.4634C6.64551 22.7253 7.5625 21.2417 7.5625 19.5911V14.0625C7.5625 9.41016 11.3477 5.625 16 5.625C20.6523 5.625 24.4375 9.41016 24.4375 14.0625V19.5913C24.4375 21.2417 25.3545 22.7253 26.8308 23.4636C27.6677 23.8818 28.1875 24.7231 28.1875 25.6587V26.375Z" fill="black"/>
</svg>
