<svg width="32" height="32" viewBox="0 0 32 32" fill="none" xmlns="http://www.w3.org/2000/svg">
<path fill-rule="evenodd" clip-rule="evenodd" d="M26.1582 8.06234H29.7425C30.9872 8.06234 32 9.07513 31.9999 10.3199V22.733C31.9999 23.9778 30.9871 24.9906 29.7423 24.9906H26.158V29.7898C26.158 30.3243 25.7248 30.7573 25.1905 30.7573H6.80935C6.27502 30.7573 5.84184 30.3243 5.84184 29.7898V24.9906H2.25753C1.01279 24.9906 0 23.9778 0 22.733V10.3199C0 9.07501 1.01279 8.06234 2.25753 8.06234H5.84184V2.21019C5.84184 1.67573 6.27502 1.24268 6.80935 1.24268H25.1907C25.725 1.24268 26.1582 1.67573 26.1582 2.21019V8.06234ZM24.223 3.1777H7.77686V8.06234H24.223V3.1777ZM7.77686 28.8223H24.223V19.2241H7.77686V28.8223ZM29.7425 23.0556C29.9173 23.0556 30.065 22.9078 30.065 22.733H30.0648V10.3199C30.0648 10.1449 29.9171 9.99737 29.7423 9.99737H25.1905H6.80935H2.25753C2.08273 9.99737 1.93502 10.1449 1.93502 10.3199V22.733C1.93502 22.9078 2.08273 23.0556 2.25753 23.0556H5.84184V18.2566C5.84184 17.7221 6.27502 17.2891 6.80935 17.2891H25.1907C25.725 17.2891 26.1582 17.7221 26.1582 18.2566V23.0556H29.7425ZM26.5668 13.6432C26.5668 14.4032 25.9507 15.0193 25.1906 15.0193C24.4306 15.0193 23.8145 14.4032 23.8145 13.6432C23.8145 12.8831 24.4306 12.267 25.1906 12.267C25.9507 12.267 26.5668 12.8831 26.5668 13.6432ZM20.402 21.1333H11.5984C11.064 21.1333 10.6309 21.5664 10.6309 22.1008C10.6309 22.6353 11.064 23.0683 11.5984 23.0683H20.402C20.9363 23.0683 21.3695 22.6353 21.3695 22.1008C21.3695 21.5665 20.9364 21.1333 20.402 21.1333ZM11.5984 24.9777H20.402C20.9364 24.9777 21.3695 25.4107 21.3695 25.9452C21.3695 26.4796 20.9363 26.9127 20.402 26.9127H11.5984C11.064 26.9127 10.6309 26.4796 10.6309 25.9452C10.6309 25.4107 11.064 24.9777 11.5984 24.9777Z" fill="black"/>
</svg>
