<svg width="32" height="32" viewBox="0 0 32 32" fill="none" xmlns="http://www.w3.org/2000/svg">
<g clip-path="url(#clip0_14_908)">
<path fill-rule="evenodd" clip-rule="evenodd" d="M16.4912 1.89796L31.6597 13.004C32.0302 13.2753 32.1107 13.7956 31.8393 14.166C31.6765 14.3885 31.4238 14.5063 31.1678 14.5063C30.9973 14.5063 30.8253 14.4541 30.6773 14.3457L16 3.59927L1.32272 14.3458C0.952286 14.617 0.431974 14.5366 0.160661 14.1661C-0.110651 13.7956 -0.0301513 13.2753 0.340349 13.004L15.509 1.89796C15.8013 1.68383 16.1987 1.68383 16.4912 1.89796ZM26.809 15.3654C26.809 14.9062 27.1813 14.5339 27.6404 14.5339C28.0996 14.5339 28.4719 14.9062 28.4719 15.3654V29.4312C28.4719 29.8904 28.0997 30.2627 27.6405 30.2627H19.3262C18.8887 30.2627 18.5308 29.9244 18.498 29.4952C18.496 29.4761 18.4948 29.4552 18.4948 29.4312V21.3756C18.4948 20.0001 17.3757 18.881 16.0001 18.881C14.6246 18.881 13.5055 20.0001 13.5055 21.3756V29.4312C13.5055 29.4553 13.5043 29.4766 13.5023 29.496C13.4691 29.9249 13.1113 30.2627 12.6741 30.2627H4.35976C3.90063 30.2627 3.52832 29.8904 3.52832 29.4312V15.3654C3.52832 14.9062 3.90063 14.534 4.35976 14.534C4.81888 14.534 5.1912 14.9062 5.1912 15.3654V28.5997H11.8426V21.3756C11.8426 19.0832 13.7078 17.2181 16.0001 17.2181C18.2925 17.2181 20.1576 19.0831 20.1576 21.3756V28.5997H26.809V15.3654Z" fill="black"/>
</g>
<defs>
<clipPath id="clip0_14_908">
<rect width="32" height="32" fill="white"/>
</clipPath>
</defs>
</svg>
