<svg width="50" height="50" viewBox="0 0 50 50" fill="none" xmlns="http://www.w3.org/2000/svg">
<g clip-path="url(#clip0_4310_39144)">
<path d="M3.05445 15.4274C4.36289 16.2945 5.18115 17.021 6.87236 16.812C8.19056 16.6499 9.80756 14.9197 11.0633 14.3631C14.8441 12.6895 16.59 18.4603 20.4372 16.4136C22.1967 15.4782 23.2982 13.8378 25.5342 14.0897C26.9481 14.2479 28.5026 15.9703 29.8111 16.5503C33.5802 18.2181 35.3124 12.5157 39.1244 14.4627C40.2747 15.0505 41.8878 16.6538 43.1181 16.8159C44.8191 17.0405 45.6295 16.2906 46.938 15.4294C47.3618 14.5506 47.6156 11.8868 48.1859 11.256C48.8069 10.5686 49.9806 11.092 49.9982 11.9942L42.4112 40.0671L7.53244 40.0495L0.00402375 12.1719C-0.109244 10.9299 1.56243 10.3479 2.078 11.7657C2.48811 12.8945 2.65215 14.2752 3.05445 15.4274ZM46.0865 18.4818C44.4949 19.095 42.8213 19.1262 41.2707 18.3665C40.2181 17.849 39.0932 16.7202 38.0835 16.2808C37.5621 16.0523 37.3434 16.0816 36.8415 16.316C34.75 17.2963 33.8712 19.0403 31.1019 18.9719C28.5729 18.9094 27.5926 17.228 25.6475 16.316C25.1026 16.0602 24.8956 16.0582 24.343 16.316C22.3022 17.271 21.3863 19.0032 18.6971 18.9778C16.008 18.9524 15.1233 17.2397 13.149 16.316C12.5572 16.0387 12.3619 16.066 11.7839 16.3531C9.30567 17.5795 8.43663 19.5207 5.07179 18.8294C4.91165 18.7962 3.91177 18.3997 3.90396 18.5325L9.08499 38.0068L40.8567 38.0166L46.0885 18.4818H46.0865Z" fill="#75958D"/>
<path d="M24.1272 25.2656H19.6116L19.1741 27.75L19.2053 27.7813C19.5074 27.4792 19.8303 27.2656 20.1741 27.1406C20.5178 27.0052 20.9084 26.9375 21.3459 26.9375C21.8876 26.9375 22.3668 27.0365 22.7834 27.2344C23.2001 27.4323 23.5491 27.6979 23.8303 28.0313C24.122 28.3646 24.3407 28.7604 24.4866 29.2188C24.6428 29.6667 24.7209 30.1458 24.7209 30.6563C24.7209 31.2188 24.6116 31.7448 24.3928 32.2344C24.1741 32.7135 23.8772 33.1302 23.5022 33.4844C23.1376 33.8385 22.7105 34.1146 22.2209 34.3125C21.7314 34.5 21.2105 34.5885 20.6584 34.5781C20.1272 34.5781 19.6168 34.5104 19.1272 34.375C18.648 34.2292 18.2209 34.0104 17.8459 33.7188C17.4709 33.4271 17.1689 33.0677 16.9397 32.6406C16.7209 32.2031 16.6064 31.6979 16.5959 31.125H18.8147C18.8668 31.625 19.0543 32.026 19.3772 32.3281C19.7001 32.6198 20.1116 32.7656 20.6116 32.7656C20.9032 32.7656 21.1637 32.7083 21.3928 32.5938C21.6324 32.4688 21.8303 32.3125 21.9866 32.125C22.1532 31.9271 22.2782 31.7031 22.3616 31.4531C22.4553 31.1927 22.5022 30.9271 22.5022 30.6563C22.5022 30.375 22.4605 30.1094 22.3772 29.8594C22.2939 29.6094 22.1689 29.3906 22.0022 29.2031C21.8355 29.0156 21.6376 28.8698 21.4084 28.7656C21.1793 28.6615 20.9137 28.6094 20.6116 28.6094C20.2157 28.6094 19.8928 28.6823 19.6428 28.8281C19.3928 28.9635 19.1584 29.1823 18.9397 29.4844H16.9397L18.0178 23.4375H24.1272V25.2656Z" fill="#75958D"/>
<path d="M27.5438 28.8594C27.5438 29.1719 27.5542 29.5521 27.5751 30C27.5959 30.4375 27.6584 30.8646 27.7626 31.2813C27.8772 31.6875 28.0542 32.0365 28.2938 32.3281C28.5334 32.6198 28.8772 32.7656 29.3251 32.7656C29.7834 32.7656 30.1324 32.6198 30.3719 32.3281C30.6219 32.0365 30.799 31.6875 30.9032 31.2813C31.0178 30.8646 31.0855 30.4375 31.1063 30C31.1272 29.5521 31.1376 29.1719 31.1376 28.8594C31.1376 28.6719 31.1324 28.4479 31.1219 28.1875C31.1219 27.9167 31.1011 27.6406 31.0594 27.3594C31.0282 27.0781 30.9761 26.8021 30.9032 26.5313C30.8407 26.25 30.7417 26 30.6063 25.7813C30.4709 25.5625 30.299 25.3854 30.0907 25.25C29.8824 25.1146 29.6272 25.0469 29.3251 25.0469C29.023 25.0469 28.7678 25.1146 28.5594 25.25C28.3615 25.3854 28.1949 25.5625 28.0594 25.7813C27.9344 26 27.8355 26.25 27.7626 26.5313C27.6897 26.8021 27.6376 27.0781 27.6063 27.3594C27.5751 27.6406 27.5542 27.9167 27.5438 28.1875C27.5438 28.4479 27.5438 28.6719 27.5438 28.8594ZM25.3251 28.8594C25.3251 27.7969 25.4292 26.9063 25.6376 26.1875C25.8563 25.4583 26.148 24.875 26.5126 24.4375C26.8772 24 27.299 23.6875 27.7782 23.5C28.2678 23.3125 28.7834 23.2188 29.3251 23.2188C29.8772 23.2188 30.3928 23.3125 30.8719 23.5C31.3615 23.6875 31.7886 24 32.1532 24.4375C32.5282 24.875 32.8199 25.4583 33.0282 26.1875C33.2469 26.9063 33.3563 27.7969 33.3563 28.8594C33.3563 29.9531 33.2469 30.8698 33.0282 31.6094C32.8199 32.3385 32.5282 32.9219 32.1532 33.3594C31.7886 33.7969 31.3615 34.1094 30.8719 34.2969C30.3928 34.4844 29.8772 34.5781 29.3251 34.5781C28.7834 34.5781 28.2678 34.4844 27.7782 34.2969C27.299 34.1094 26.8772 33.7969 26.5126 33.3594C26.148 32.9219 25.8563 32.3385 25.6376 31.6094C25.4292 30.8698 25.3251 29.9531 25.3251 28.8594Z" fill="#75958D"/>
<path d="M35.5073 25.5312C35.5073 25.7188 35.5438 25.8958 35.6167 26.0625C35.6896 26.2292 35.7834 26.375 35.8979 26.5C36.0229 26.625 36.1636 26.724 36.3198 26.7969C36.4761 26.8698 36.6375 26.9063 36.8042 26.9063C36.9709 26.9063 37.1323 26.8698 37.2886 26.7969C37.4448 26.724 37.5802 26.625 37.6948 26.5C37.8198 26.375 37.9188 26.2292 37.9917 26.0625C38.0646 25.8958 38.1011 25.7188 38.1011 25.5312C38.1011 25.3438 38.0646 25.1667 37.9917 25C37.9188 24.8333 37.8198 24.6875 37.6948 24.5625C37.5802 24.4375 37.4448 24.3385 37.2886 24.2656C37.1323 24.1927 36.9709 24.1563 36.8042 24.1563C36.6375 24.1563 36.4761 24.1927 36.3198 24.2656C36.1636 24.3385 36.0229 24.4375 35.8979 24.5625C35.7834 24.6875 35.6896 24.8333 35.6167 25C35.5438 25.1667 35.5073 25.3438 35.5073 25.5312ZM34.4917 25.5312C34.4917 25.2083 34.549 24.9063 34.6636 24.625C34.7886 24.3438 34.9552 24.099 35.1636 23.8906C35.3719 23.6823 35.6167 23.5208 35.8979 23.4063C36.1792 23.2813 36.4813 23.2188 36.8042 23.2188C37.1271 23.2188 37.4292 23.2813 37.7104 23.4063C37.9917 23.5208 38.2365 23.6823 38.4448 23.8906C38.6532 24.099 38.8146 24.3438 38.9292 24.625C39.0542 24.9063 39.1167 25.2083 39.1167 25.5312C39.1167 25.8542 39.0542 26.1563 38.9292 26.4375C38.8146 26.7188 38.6532 26.9635 38.4448 27.1719C38.2365 27.3802 37.9917 27.5469 37.7104 27.6719C37.4292 27.7865 37.1271 27.8438 36.8042 27.8438C36.4813 27.8438 36.1792 27.7865 35.8979 27.6719C35.6167 27.5469 35.3719 27.3802 35.1636 27.1719C34.9552 26.9635 34.7886 26.7188 34.6636 26.4375C34.549 26.1563 34.4917 25.8542 34.4917 25.5312Z" fill="#75958D"/>
</g>
<defs>
<clipPath id="clip0_4310_39144">
<rect width="50" height="29.1274" fill="white" transform="translate(0 10.9375)"/>
</clipPath>
</defs>
</svg>
