<svg width="32" height="32" viewBox="0 0 32 32" fill="none" xmlns="http://www.w3.org/2000/svg">
<g clip-path="url(#clip0_45_18611)">
<path d="M7.85962 9.6189C3.53337 9.6189 0.0136719 13.1386 0.0136719 17.4648C0.0136719 20.1509 1.29142 23.0389 3.81149 26.0487C4.18593 26.4959 4.55906 26.9102 4.91712 27.2883C3.28999 27.7324 2.31305 28.5304 2.31305 29.4617C2.31305 31.1104 5.17068 32 7.85937 32C10.5481 32 13.4057 31.1103 13.4057 29.4617C13.4057 28.5311 12.4291 27.733 10.803 27.2887C11.4526 26.6029 12.1516 25.796 12.8149 24.896C12.9686 24.6873 12.9241 24.3936 12.7155 24.2399C12.507 24.0863 12.2131 24.1307 12.0594 24.3393C11.2586 25.426 10.3919 26.381 9.63556 27.1396C9.54888 27.1838 9.47638 27.2541 9.43094 27.3426C8.75344 28.0084 8.18331 28.5024 7.85981 28.7722C7.53987 28.505 6.97844 28.0177 6.30962 27.3606C6.26162 27.2554 6.17731 27.1729 6.07443 27.1269C3.94899 24.9891 0.952111 21.2956 0.952111 17.465C0.952111 13.6562 4.0508 10.5575 7.85956 10.5575C11.6683 10.5575 14.767 13.6562 14.767 17.465C14.767 19.1283 14.2003 20.9245 13.0825 22.8039C12.9501 23.0267 13.0232 23.3146 13.2459 23.447C13.4687 23.5795 13.7567 23.5064 13.8891 23.2836C15.0944 21.2571 15.7055 19.2995 15.7055 17.465C15.7056 13.1386 12.1859 9.6189 7.85962 9.6189ZM7.57244 29.7482C7.65694 29.8137 7.75831 29.8464 7.85962 29.8464C7.96094 29.8464 8.06225 29.8137 8.14681 29.7482C8.20438 29.7037 8.9885 29.0922 10.0337 28.0702C11.6163 28.393 12.4673 29.0144 12.4673 29.4617C12.4673 29.7958 12.0094 30.1899 11.2724 30.4902C10.3684 30.8587 9.15631 31.0616 7.85944 31.0616C5.04656 31.0616 3.25155 30.114 3.25155 29.4617C3.25155 29.0138 4.1028 28.3927 5.68631 28.0699C6.73731 29.0979 7.52256 29.7096 7.57244 29.7482Z" fill="black"/>
<path d="M7.86054 14.0534C7.11835 14.0534 6.4126 14.2877 5.8196 14.731C5.6121 14.8862 5.5696 15.1803 5.72472 15.3878C5.87997 15.5953 6.17403 15.6378 6.38153 15.4827C6.81097 15.1617 7.32241 14.9919 7.86048 14.9919C9.22404 14.9919 10.3334 16.1012 10.3334 17.4649C10.3334 18.8284 9.22404 19.9377 7.86048 19.9377C6.49691 19.9377 5.3876 18.8284 5.3876 17.4649C5.3876 17.2322 5.41978 17.0021 5.48322 16.7812C5.55472 16.5322 5.41078 16.2723 5.16172 16.2007C4.91272 16.1295 4.65278 16.2732 4.58122 16.5223C4.49366 16.8275 4.44922 17.1445 4.44922 17.4649C4.44922 19.3459 5.97953 20.8762 7.8606 20.8762C9.7416 20.8762 11.272 19.3459 11.272 17.4649C11.2719 15.5838 9.74154 14.0534 7.86054 14.0534Z" fill="black"/>
<path d="M28.309 13.6326C28.5477 13.3764 28.7937 13.1004 29.0403 12.8058C30.9939 10.4725 31.9845 8.22939 31.9845 6.1387C31.9845 2.75388 29.2307 0 25.8458 0C23.3731 0 21.1529 1.47163 20.1897 3.74913C20.0887 3.98782 20.2004 4.2632 20.439 4.36407C20.6777 4.46495 20.9531 4.35338 21.054 4.11476C21.8701 2.18525 23.751 0.938439 25.8458 0.938439C28.7132 0.938439 31.0461 3.27132 31.0461 6.13876C31.0461 10.0165 26.9749 13.7315 25.8456 14.6872C25.5967 14.4769 25.205 14.1327 24.7457 13.6824C24.6999 13.5916 24.6259 13.5196 24.537 13.475C22.9168 11.8437 20.6455 9.03952 20.6455 6.13876C20.6455 5.87957 20.4355 5.66951 20.1763 5.66951C19.9172 5.66951 19.707 5.87957 19.707 6.13876C19.707 8.22939 20.6976 10.4725 22.6513 12.8058C22.8979 13.1003 23.1436 13.3762 23.3822 13.6323C22.1726 13.9957 21.4743 14.6143 21.4743 15.3593C21.4743 15.9875 21.9839 16.5412 22.9094 16.9183C23.7013 17.241 24.7441 17.4187 25.8457 17.4187C26.9473 17.4187 27.9901 17.241 28.782 16.9183C29.7074 16.5412 30.217 15.9875 30.217 15.3592C30.2169 14.6157 29.5181 13.9965 28.309 13.6326ZM25.8457 16.4802C23.6245 16.4802 22.4128 15.7397 22.4128 15.3592C22.4128 15.1113 22.964 14.6577 24.141 14.4074C24.9329 15.178 25.5207 15.6358 25.5587 15.6653C25.6432 15.7307 25.7445 15.7634 25.8459 15.7634C25.9472 15.7634 26.0484 15.7307 26.133 15.6653C26.171 15.636 26.7587 15.178 27.5506 14.4075C28.075 14.5193 28.5292 14.6832 28.8471 14.8767C29.1173 15.0413 29.2786 15.2217 29.2786 15.3592C29.2785 15.7397 28.0668 16.4802 25.8457 16.4802Z" fill="black"/>
<path d="M25.8477 3.40826C24.3421 3.40826 23.1172 4.63314 23.1172 6.13883C23.1172 7.6444 24.3421 8.86928 25.8477 8.86928C27.3533 8.86928 28.5782 7.64446 28.5782 6.13883C28.5782 4.6332 27.3533 3.40826 25.8477 3.40826ZM25.8478 7.93077C24.8595 7.93077 24.0557 7.1269 24.0557 6.13877C24.0557 5.15064 24.8596 4.3467 25.8478 4.3467C26.8359 4.3467 27.6398 5.15058 27.6398 6.13877C27.6398 7.1269 26.8359 7.93077 25.8478 7.93077Z" fill="black"/>
<path d="M19.7596 14.89H19.5454C19.3894 14.89 19.2326 14.9003 19.0793 14.9207C18.8225 14.9549 18.6419 15.1908 18.676 15.4478C18.7075 15.6837 18.909 15.8552 19.1406 15.8552C19.1612 15.8552 19.1821 15.8539 19.2031 15.8511C19.3155 15.8361 19.4307 15.8286 19.5455 15.8286H19.7596V15.8285C20.0188 15.8285 20.2289 15.6185 20.2289 15.3593C20.2289 15.1 20.0188 14.89 19.7596 14.89Z" fill="black"/>
<path d="M18.2082 28.9686C18.2075 28.9686 18.2068 28.9686 18.206 28.9686L17.5863 28.9714C17.3271 28.9726 17.118 29.1836 17.1191 29.4428C17.1203 29.7012 17.3302 29.9099 17.5883 29.9099C17.5891 29.9099 17.5898 29.9099 17.5905 29.9099L18.2103 29.9071C18.4694 29.9059 18.6785 29.6948 18.6774 29.4357C18.6763 29.1772 18.4664 28.9686 18.2082 28.9686Z" fill="black"/>
<path d="M20.3175 20.9681H19.6978C19.4386 20.9681 19.2285 21.1782 19.2285 21.4374C19.2285 21.6965 19.4385 21.9066 19.6978 21.9066H20.3175C20.5767 21.9066 20.7868 21.6966 20.7868 21.4374C20.7868 21.1782 20.5768 20.9681 20.3175 20.9681Z" fill="black"/>
<path d="M17.8296 15.846C17.6539 15.6556 17.3572 15.6436 17.1665 15.8193C16.9916 15.9806 16.8325 16.1604 16.6936 16.3538C16.5424 16.5643 16.5905 16.8575 16.801 17.0087C16.8839 17.0682 16.9796 17.0968 17.0744 17.0968C17.2204 17.0968 17.3642 17.0289 17.4559 16.9013C17.5578 16.7595 17.6745 16.6275 17.8029 16.5091C17.9934 16.3334 18.0053 16.0365 17.8296 15.846Z" fill="black"/>
<path d="M20.6886 28.9572C20.6879 28.9572 20.6872 28.9572 20.6864 28.9572L20.0667 28.96C19.8076 28.9611 19.5985 29.1722 19.5996 29.4314C19.6007 29.6898 19.8107 29.8985 20.0688 29.8985C20.0696 29.8985 20.0702 29.8985 20.071 29.8985L20.6907 29.8957C20.9498 29.8946 21.1589 29.6834 21.1578 29.4243C21.1566 29.1659 20.9467 28.9572 20.6886 28.9572Z" fill="black"/>
<path d="M15.7297 28.9797C15.7289 28.9797 15.7283 28.9797 15.7275 28.9797L15.1078 28.9825C14.8486 28.9837 14.6395 29.1948 14.6406 29.4539C14.6418 29.7124 14.8516 29.9211 15.1098 29.9211C15.1106 29.9211 15.1113 29.9211 15.112 29.9211L15.7318 29.9182C15.9909 29.9171 16.2 29.706 16.1989 29.4469C16.1978 29.1884 15.9879 28.9797 15.7297 28.9797Z" fill="black"/>
<path d="M18.1773 20.5737C18.0299 20.4807 17.8912 20.372 17.7653 20.251C17.5785 20.0713 17.2813 20.0772 17.1018 20.2639C16.9221 20.4506 16.9279 20.7477 17.1146 20.9273C17.2864 21.0925 17.4755 21.2405 17.6766 21.3674C17.7543 21.4165 17.8409 21.4399 17.9265 21.4399C18.0823 21.4399 18.2346 21.3624 18.3239 21.2209C18.4622 21.0017 18.3965 20.7119 18.1773 20.5737Z" fill="black"/>
<path d="M17.0231 18.893C16.9916 18.7312 16.9756 18.5648 16.9756 18.3983L16.9757 18.3723C16.9788 18.1131 16.7712 17.9006 16.512 17.8976C16.5102 17.8976 16.5083 17.8976 16.5064 17.8976C16.2498 17.8976 16.0403 18.1041 16.0373 18.3614L16.0371 18.3984C16.0371 18.625 16.0589 18.8518 16.1019 19.0725C16.1455 19.2966 16.3419 19.452 16.562 19.452C16.5917 19.452 16.6219 19.4492 16.6522 19.4433C16.9066 19.3937 17.0726 19.1473 17.0231 18.893Z" fill="black"/>
<path d="M22.796 20.9681H22.1763C21.9171 20.9681 21.707 21.1782 21.707 21.4374C21.707 21.6965 21.9171 21.9066 22.1763 21.9066H22.796C23.0552 21.9066 23.2653 21.6966 23.2653 21.4374C23.2653 21.1782 23.0552 20.9681 22.796 20.9681Z" fill="black"/>
<path d="M30.3288 21.9235C30.148 21.7808 29.9547 21.6512 29.7543 21.5384C29.5287 21.4111 29.2424 21.4911 29.1152 21.7169C28.988 21.9426 29.0679 22.2289 29.2937 22.356C29.4518 22.4452 29.6044 22.5474 29.7471 22.6601C29.8334 22.7282 29.9357 22.7611 30.0376 22.7611C30.1762 22.7611 30.3136 22.6999 30.4062 22.5826C30.5669 22.3792 30.5322 22.0841 30.3288 21.9235Z" fill="black"/>
<path d="M28.587 29.2934C28.5514 29.0367 28.3142 28.8571 28.058 28.8928C27.9043 28.9141 27.7469 28.9252 27.59 28.9259L27.5022 28.9263C27.243 28.9276 27.0339 29.1387 27.0352 29.3978C27.0365 29.6562 27.2463 29.8648 27.5043 29.8648C27.5052 29.8648 27.5059 29.8648 27.5067 29.8648L27.5943 29.8644C27.7925 29.8635 27.9917 29.8494 28.1864 29.8225C28.4432 29.787 28.6225 29.5501 28.587 29.2934Z" fill="black"/>
<path d="M30.658 27.9739C30.4792 27.7861 30.1822 27.7789 29.9947 27.9578C29.863 28.0832 29.7205 28.1993 29.571 28.3029C29.3581 28.4506 29.3052 28.7429 29.4527 28.956C29.5439 29.0874 29.6901 29.1579 29.8388 29.1579C29.931 29.1579 30.0242 29.1308 30.1057 29.0743C30.2949 28.9431 30.4753 28.7961 30.642 28.6373C30.8297 28.4585 30.8368 28.1614 30.658 27.9739Z" fill="black"/>
<path d="M31.5713 25.6949C31.317 25.647 31.0714 25.8145 31.0234 26.0692C30.9897 26.2477 30.9418 26.4249 30.8809 26.5959C30.7939 26.84 30.9212 27.1084 31.1653 27.1955C31.2174 27.2141 31.2706 27.2229 31.3229 27.2229C31.5157 27.2229 31.6964 27.1031 31.7649 26.9111C31.8423 26.6942 31.9031 26.4694 31.9458 26.2429C31.9936 25.9882 31.8259 25.7428 31.5713 25.6949Z" fill="black"/>
<path d="M31.8504 24.1866C31.7868 23.965 31.7051 23.7467 31.6075 23.5376C31.4979 23.3027 31.2189 23.2012 30.9838 23.3107C30.749 23.4203 30.6474 23.6995 30.757 23.9344C30.8339 24.0991 30.8983 24.2711 30.9483 24.4454C31.0074 24.6513 31.1951 24.7854 31.3991 24.7854C31.4421 24.7854 31.4856 24.7794 31.5288 24.7671C31.7779 24.6955 31.9218 24.4356 31.8504 24.1866Z" fill="black"/>
<path d="M25.2745 20.9681H24.6548C24.3956 20.9681 24.1855 21.1782 24.1855 21.4374C24.1855 21.6965 24.3955 21.9066 24.6548 21.9066H25.2745C25.5337 21.9066 25.7438 21.6966 25.7438 21.4374C25.7438 21.1782 25.5337 20.9681 25.2745 20.9681Z" fill="black"/>
<path d="M23.1672 28.9459C23.1664 28.9459 23.1658 28.9459 23.165 28.9459L22.5453 28.9487C22.2861 28.9499 22.077 29.161 22.0781 29.4201C22.0793 29.6785 22.2892 29.8872 22.5473 29.8872C22.5481 29.8872 22.5488 29.8872 22.5495 29.8872L23.1693 29.8844C23.4284 29.8832 23.6375 29.6722 23.6364 29.413C23.6353 29.1546 23.4253 28.9459 23.1672 28.9459Z" fill="black"/>
<path d="M27.7757 20.9726C27.7093 20.9696 27.6421 20.9682 27.576 20.9682H27.1353C26.8761 20.9682 26.666 21.1783 26.666 21.4374C26.666 21.6966 26.876 21.9067 27.1353 21.9067H27.576V21.9066C27.629 21.9066 27.6818 21.9078 27.7342 21.9101C27.7413 21.9105 27.7483 21.9106 27.7553 21.9106C28.0049 21.9106 28.2126 21.714 28.2237 21.4622C28.2351 21.2032 28.0346 20.984 27.7757 20.9726Z" fill="black"/>
<path d="M25.6457 28.9348C25.645 28.9348 25.6443 28.9348 25.6435 28.9348L25.0238 28.9376C24.7646 28.9387 24.5555 29.1498 24.5566 29.4089C24.5578 29.6674 24.7677 29.8761 25.0258 29.8761C25.0266 29.8761 25.0273 29.8761 25.028 29.8761L25.6478 29.8733C25.9069 29.8721 26.116 29.661 26.1149 29.4019C26.1138 29.1434 25.9039 28.9348 25.6457 28.9348Z" fill="black"/>
</g>
<defs>
<clipPath id="clip0_45_18611">
<rect width="32" height="32" fill="white"/>
</clipPath>
</defs>
</svg>
