<svg width="32" height="32" viewBox="0 0 32 32" fill="none" xmlns="http://www.w3.org/2000/svg">
<path fill-rule="evenodd" clip-rule="evenodd" d="M25.4375 0H31.0625C31.5796 0 32 0.424563 32 0.9375V6.5625C32 7.08069 31.5807 7.5 31.0625 7.5C30.5443 7.5 30.125 7.08069 30.125 6.5625V3.20069L24.3754 8.82525C25.5302 10.2688 26.25 12.0742 26.25 14.0625C26.25 18.7152 22.4652 22.5 17.8125 22.5C13.0473 22.5 9.375 18.4534 9.375 14.0625C9.375 12.5367 9.81344 11.124 10.5247 9.88769C11.0988 10.1762 11.5999 10.5762 12.0097 11.0636C11.5406 11.9668 11.25 12.9766 11.25 14.0625C11.25 17.4706 14.0986 20.625 17.8125 20.625C21.4307 20.625 24.375 17.6807 24.375 14.0625C24.375 10.4443 21.4307 7.5 17.8125 7.5C17.3589 7.5 16.9161 7.54656 16.4881 7.63469C16.0504 7.08781 15.5623 6.58369 15.0241 6.13575C15.9014 5.82594 16.8305 5.625 17.8125 5.625C19.8008 5.625 21.6062 6.34481 23.0497 7.49956L28.7993 1.875H25.4375C24.9193 1.875 24.5 1.45569 24.5 0.9375C24.5 0.419312 24.9193 0 25.4375 0ZM7.5 26.3125V22.4053C3.29281 21.9319 0 18.3942 0 14.0625C0 9.40981 3.78481 5.625 8.4375 5.625C13.2987 5.625 16.875 9.714 16.875 14.0625C16.875 15.5883 16.4366 17.001 15.7253 18.2373C15.1512 17.9488 14.6501 17.5488 14.2403 17.0614C14.7094 16.1582 15 15.1484 15 14.0625C15 10.6894 12.1768 7.5 8.4375 7.5C4.81931 7.5 1.875 10.4443 1.875 14.0625C1.875 17.6807 4.81931 20.625 8.4375 20.625C8.89112 20.625 9.33394 20.5784 9.76194 20.4903C10.1996 21.0372 10.6877 21.5413 11.2259 21.9893C10.6354 22.1978 10.0127 22.3272 9.375 22.409V26.3125H12.1875C12.7057 26.3125 13.125 26.7318 13.125 27.25C13.125 27.7682 12.7057 28.1875 12.1875 28.1875H9.375V31.0625C9.375 31.5807 8.95569 32 8.4375 32C7.91931 32 7.5 31.5807 7.5 31.0625V28.1875H4.6875C4.16931 28.1875 3.75 27.7682 3.75 27.25C3.75 26.7318 4.16931 26.3125 4.6875 26.3125H7.5Z" fill="black"/>
</svg>
