<svg width="32" height="32" viewBox="0 0 32 32" fill="none" xmlns="http://www.w3.org/2000/svg">
<path d="M12.1057 3.86083C13.606 3.60616 13.4303 5.63067 13.7729 6.61183C14.0917 7.52588 14.8804 8.31456 15.7934 8.63832C16.7065 8.96209 18.8711 8.8466 18.5622 10.3174C18.3529 11.3153 16.7173 11.2413 15.8971 11.5019C13.8321 12.1593 13.836 13.6577 13.3681 15.389C13.225 15.9201 13.0177 16.3119 12.3899 16.3386C11.2035 16.3899 11.2568 15.0317 11.0574 14.2124C10.6625 12.5936 9.89953 11.7782 8.26886 11.3745C7.36963 11.1514 5.87617 11.2235 6.10813 9.85639C6.27791 8.85351 8.1129 8.92162 8.9233 8.6245C10.0209 8.22078 10.702 7.30773 10.9991 6.2091C11.1995 5.4678 11.1709 4.01975 12.1057 3.86083ZM6.89879 9.88205C6.7833 9.99853 6.82475 10.266 6.9896 10.3351C8.09119 10.5947 9.17303 10.6757 10.1206 11.3498C11.0682 12.024 11.5262 12.943 11.7977 14.0653C11.8678 14.3555 11.9931 15.3851 12.1678 15.5213C12.2172 15.5598 12.2764 15.5874 12.3396 15.5923C12.3978 15.5923 12.4679 15.5588 12.5114 15.5203C12.6574 15.388 12.8499 14.0772 12.9319 13.7702C13.3208 12.3241 14.2624 11.2274 15.7095 10.7734C16.0629 10.6628 17.6037 10.424 17.7429 10.2897C17.8821 10.1555 17.8248 9.91068 17.657 9.83368C17.2967 9.66686 16.4992 9.61356 16.0649 9.50103C14.605 9.12298 13.4777 8.18525 13.0187 6.72338C12.9101 6.37592 12.6555 4.7956 12.5104 4.66629C12.4067 4.57449 12.2675 4.57449 12.1491 4.63569C11.8362 5.453 11.8263 6.35914 11.468 7.17447C11.0199 8.19216 10.0841 9.02723 9.03385 9.37962C8.69627 9.49314 6.99552 9.78433 6.89681 9.88304L6.89879 9.88205Z" fill="black"/>
<path d="M23.6045 10.6225C24.8246 10.3964 24.7268 11.8662 24.9647 12.645C25.2006 13.4179 25.7791 14.0556 26.5529 14.3142C27.2676 14.5531 28.6801 14.4425 28.7058 15.472C28.7324 16.5529 27.2024 16.4206 26.4671 16.6921C25.6705 16.9862 25.1463 17.6535 24.9252 18.457C24.7416 19.1272 24.8048 20.363 23.8404 20.3867C22.8227 20.4114 22.8938 19.144 22.7063 18.457C22.4881 17.6584 21.9551 16.9842 21.1644 16.6921C20.3738 16.3999 18.6948 16.548 18.9524 15.2963C19.1301 14.4336 20.4942 14.5363 21.1852 14.2727C21.8761 14.0092 22.4022 13.4307 22.6332 12.7595C22.8524 12.1238 22.8 10.7705 23.6045 10.6225ZM23.797 11.3539C23.7516 11.3618 23.6993 11.4408 23.6815 11.4882C23.567 11.7833 23.5325 12.3311 23.4377 12.6756C23.0695 14.0131 22.2562 14.7909 20.9147 15.1374C20.59 15.2213 20.1408 15.2411 19.8447 15.3506C19.7638 15.3802 19.672 15.4177 19.671 15.5214C19.7006 15.6497 20.6235 15.7721 20.8061 15.8175C22.037 16.1245 22.9708 16.7918 23.3686 18.0424C23.5117 18.4915 23.5325 19.1173 23.6776 19.5102C23.7249 19.6375 23.9135 19.6316 23.9539 19.5102C24.183 17.6002 24.8315 16.318 26.7859 15.8274C27.082 15.7534 27.5608 15.7228 27.8135 15.6211C28.0385 15.5313 27.9852 15.4237 27.7868 15.3506C27.3327 15.1828 26.7217 15.1769 26.2193 14.9933C25.2085 14.6231 24.5205 13.8137 24.2234 12.7941C24.1099 12.4052 24.0773 11.8169 23.95 11.4882C23.9273 11.4289 23.8691 11.3421 23.796 11.3539H23.797Z" fill="black"/>
<path d="M16.5285 23.9542C16.1179 24.3549 16.1663 24.7468 15.9827 25.2097C15.7408 25.8168 14.9186 25.877 14.6166 25.3144C14.3747 24.8642 14.4892 24.427 14.0381 23.968C13.4903 23.4103 12.4647 23.6343 12.3117 22.8763C12.1103 21.8724 13.3037 22.0234 13.8427 21.6394C14.506 21.1686 14.3293 20.6454 14.6254 20.1025C14.8919 19.6139 15.652 19.612 15.9294 20.1025C16.2314 20.6366 16.0399 21.1627 16.7121 21.6394C17.258 22.0274 18.4849 21.8754 18.2352 22.9187C18.0684 23.6156 17.0685 23.43 16.5295 23.9551L16.5285 23.9542ZM15.3263 20.5803C15.195 20.5685 15.2463 20.5783 15.2285 20.6543C14.9522 21.8734 14.2898 22.4854 13.055 22.7272C14.1714 22.8555 15.1624 23.7173 15.2276 24.8741C15.3579 24.886 15.3075 24.8771 15.3253 24.8001C15.6007 23.5968 16.2482 22.9256 17.4979 22.7272C16.4002 22.5505 15.4052 21.7372 15.3253 20.5803H15.3263Z" fill="black"/>
<path d="M23.5064 25.2304C23.6723 25.1939 24.5537 25.1929 24.7196 25.2304C25.0937 25.3143 25.0897 25.8671 24.7196 25.95C24.5547 25.9865 23.6713 25.9865 23.5064 25.95C23.1284 25.8661 23.154 25.3094 23.5064 25.2304Z" fill="black"/>
<path d="M5.42335 20.2682C5.36314 20.2129 5.31675 20.0974 5.30688 20.0145C5.28022 19.7983 5.27924 19.1389 5.31181 18.9297C5.38091 18.4894 5.98402 18.5368 6.04818 18.8783C6.08174 19.056 6.07582 19.8704 6.0462 20.0589C5.99882 20.3629 5.64248 20.4685 5.42335 20.2682Z" fill="black"/>
<path d="M5.09519 20.5957C5.29656 20.8148 5.18995 21.1722 4.88593 21.2186C4.69739 21.2482 3.88404 21.2541 3.70537 21.2205C3.36285 21.1564 3.31646 20.5533 3.7567 20.4842C3.96596 20.4516 4.62534 20.4526 4.84151 20.4792C4.92442 20.4891 5.03991 20.5345 5.09519 20.5957Z" fill="black"/>
<path d="M23.0617 8.32666C22.8524 8.53394 22.4823 8.41056 22.4369 8.11542C22.4073 7.92689 22.4013 7.11353 22.4349 6.93487C22.4991 6.59235 23.1022 6.54595 23.1713 6.98619C23.2068 7.21618 23.2108 8.17859 23.0617 8.32666Z" fill="black"/>
<path d="M23.0129 25.0083C22.8036 25.2156 22.4335 25.0922 22.388 24.7971C22.3584 24.6085 22.3525 23.7952 22.3861 23.6165C22.4502 23.274 23.0533 23.2276 23.1224 23.6678C23.158 23.8978 23.1619 24.8602 23.0129 25.0083Z" fill="black"/>
<path d="M24.9368 6.45125C24.766 6.62202 23.5538 6.62103 23.3851 6.45125C23.1975 6.26272 23.2794 5.8748 23.545 5.82446C23.7029 5.79484 24.6179 5.79484 24.7759 5.82446C25.0414 5.8748 25.1233 6.26272 24.9358 6.45125H24.9368Z" fill="black"/>
<path d="M22.6655 3.95843C22.856 3.915 23.0248 3.9456 23.1176 4.12722C23.1966 4.28219 23.2065 5.20216 23.163 5.39365C23.0722 5.79638 22.5007 5.75295 22.4346 5.40253C22.401 5.22881 22.4079 4.40657 22.4365 4.22198C22.4583 4.08478 22.5273 3.99002 22.6665 3.95843H22.6655Z" fill="black"/>
<path d="M20.7918 5.83432C20.9478 5.79878 21.9526 5.80076 22.0918 5.84518C22.3415 5.92612 22.3692 6.34464 22.1342 6.48579C21.9447 6.59931 21.0376 6.59832 20.8135 6.5312C20.4483 6.42065 20.4749 5.90637 20.7918 5.83432Z" fill="black"/>
<path d="M6.47931 20.4924C6.6402 20.4569 7.53154 20.4589 7.68059 20.5043C8.04878 20.6168 7.98461 21.1577 7.65197 21.2219C7.50094 21.2505 6.52175 21.2436 6.39146 21.2012C6.09237 21.1044 6.12297 20.5724 6.47832 20.4934L6.47931 20.4924Z" fill="black"/>
<path d="M5.53956 21.3808C5.68072 21.3384 5.91071 21.368 5.99263 21.4993C6.06469 21.6138 6.07851 22.6532 6.04594 22.8259C5.98967 23.125 5.51883 23.2267 5.36287 22.9187C5.28292 22.7608 5.277 21.9001 5.30957 21.6938C5.32635 21.5852 5.43098 21.4124 5.53956 21.3799V21.3808Z" fill="black"/>
<path d="M22.1725 25.8473C22.1281 25.9026 21.9928 25.9529 21.9178 25.9628C21.7243 25.9875 20.9584 25.9934 20.7817 25.9598C20.4323 25.8927 20.3878 25.3212 20.7906 25.2314C20.9426 25.1968 21.8082 25.1929 21.9632 25.2225C22.2169 25.2709 22.3314 25.6499 22.1715 25.8483L22.1725 25.8473Z" fill="black"/>
<path d="M22.7551 26.0811C22.9091 26.0811 23.0818 26.2429 23.1154 26.39C23.1559 26.5706 23.1499 27.2656 23.1272 27.4669C23.073 27.9318 22.4945 27.9427 22.3958 27.6041C22.3534 27.46 22.3662 26.6664 22.383 26.4769C22.4037 26.2498 22.5004 26.0811 22.7551 26.082V26.0811Z" fill="black"/>
</svg>
