<svg width="32" height="32" viewBox="0 0 32 32" fill="none" xmlns="http://www.w3.org/2000/svg">
<path fill-rule="evenodd" clip-rule="evenodd" d="M0 31.0624V19.694V19.6875C0 19.4081 0.134345 19.2028 0.156281 19.1693L0.15925 19.1646L3.90743 13.5424C4.0813 13.2817 4.37405 13.125 4.68749 13.125H5.68749V4.68749C5.68749 4.16974 6.10724 3.74999 6.62499 3.74999H7.56249V0.937498C7.56249 0.419749 7.98223 0 8.49998 0H23.5625C24.0802 0 24.5 0.419749 24.5 0.937498V3.74999H25.4375C25.9552 3.74999 26.3749 4.16974 26.3749 4.68749V13.125H27.3124C27.6259 13.125 27.9186 13.2817 28.0925 13.5425L31.8391 19.1623C31.9438 19.3172 32.0017 19.5066 31.9999 19.694V31.0624C31.9999 31.5802 31.5802 31.9999 31.0624 31.9999H0.937498C0.419749 31.9999 0 31.5802 0 31.0624ZM1.875 30.1249H30.1249V20.625H20.75V23.4375C20.75 23.9552 20.3302 24.375 19.8125 24.375H12.25C11.7322 24.375 11.3125 23.9552 11.3125 23.4375V20.625H1.875V30.1249ZM29.3107 18.75L26.8107 15H26.3749V18.75H29.3107ZM22.625 1.875H9.43748V3.74999H22.625V1.875ZM24.5 5.62499H7.56249V18.75H12.25C12.7677 18.75 13.1875 19.1697 13.1875 19.6875V22.5H18.875V19.6875C18.875 19.1697 19.2947 18.75 19.8125 18.75H24.5V5.62499ZM5.68749 15H5.18924L2.68924 18.75H5.68749V15ZM21.6875 9.375H10.375C9.85725 9.375 9.4375 8.95525 9.4375 8.4375C9.4375 7.91975 9.85725 7.5 10.375 7.5H21.6875C22.2052 7.5 22.625 7.91975 22.625 8.4375C22.625 8.95525 22.2052 9.375 21.6875 9.375ZM10.375 13.125H21.6875C22.2052 13.125 22.625 12.7052 22.625 12.1875C22.625 11.6698 22.2052 11.25 21.6875 11.25H10.375C9.85725 11.25 9.4375 11.6698 9.4375 12.1875C9.4375 12.7052 9.85725 13.125 10.375 13.125ZM17.9375 16.875H10.375C9.85725 16.875 9.4375 16.4553 9.4375 15.9375C9.4375 15.4198 9.85725 15 10.375 15H17.9375C18.4552 15 18.875 15.4198 18.875 15.9375C18.875 16.4552 18.4552 16.875 17.9375 16.875Z" fill="black"/>
</svg>
