<svg width="32" height="32" viewBox="0 0 32 32" fill="none" xmlns="http://www.w3.org/2000/svg">
<path d="M11.715 17.3827L9.96971 28.6611C9.64342 29.0227 9.20432 28.7783 9.27843 28.3038L10.9961 17.0222C11.0879 15.9626 10.8667 14.9882 10.7196 13.954L9.11805 22.444L8.76633 22.5767C7.72554 22.3179 6.5465 22.2704 5.52009 22.0016C5.33096 21.9518 5.13851 21.9385 5.08984 21.7107L7.52756 7.63851C8.07063 5.33904 10.0029 5.46181 11.8754 4.85238L13.7856 2.89026L14.0068 2.83496L18.3126 2.84934L20.2913 4.85238C22.1749 5.4585 24.0861 5.33241 24.6403 7.6374L27.0769 21.7085C27.0094 22.0038 26.5803 22.0126 26.3259 22.0646C25.3592 22.2637 24.3693 22.3699 23.4037 22.5756L23.052 22.4429L21.4504 13.9529C21.3044 14.9871 21.0821 15.9615 21.1739 17.0211L22.8916 28.3027C22.9657 28.7772 22.5266 29.0216 22.2003 28.66L20.455 17.3816H16.4732V28.5803C16.4732 28.6378 16.2177 28.8292 16.1138 28.8347C15.9822 28.8425 15.699 28.6633 15.699 28.5803V17.3816H11.7173L11.715 17.3827ZM17.6877 3.61251H14.4801L14.7644 4.82252L17.3304 4.83358L17.4178 4.79819L17.6877 3.61362V3.61251ZM15.3086 10.6359L13.7336 4.05603L12.6131 5.24282L13.6418 6.91626L13.217 8.27338L15.3097 10.6348L15.3086 10.6359ZM16.8581 10.6359L18.9508 8.27448L18.5261 6.91737L19.5547 5.24392L18.4343 4.05714L16.8592 10.637L16.8581 10.6359ZM17.2453 5.60339H14.9226L16.1105 10.3041L17.2453 5.60339ZM11.715 15.226H15.6968V12.2673L12.4074 8.5333C12.2437 8.17936 12.7669 7.40956 12.8078 7.02244L11.986 5.66201L10.1135 6.10332L11.7139 15.226H11.715ZM16.471 12.2673V15.226H20.4528L22.0532 6.10332L20.1807 5.66201L19.3589 7.02244C19.3987 7.40956 19.923 8.17936 19.7593 8.5333L16.4699 12.2673H16.471ZM9.33594 6.43292C8.77297 6.61873 8.44337 7.1972 8.30179 7.74911L5.91385 21.2229L8.47876 21.7527L10.2783 11.6568L9.33594 6.43292ZM26.2595 21.3092L23.8649 7.74911C23.7245 7.1972 23.3949 6.61873 22.8308 6.43292L21.8884 11.6568L23.6603 21.7527L26.2595 21.3103V21.3092ZM20.3975 16.6085L20.3455 16.0245L11.9086 16.0002L11.7781 16.0909L11.7703 16.6085H20.3975Z" fill="black"/>
<path d="M12.4734 19.9391C12.6979 19.8893 14.4399 19.8882 14.6622 19.9391C15.0272 20.0221 15.0317 20.6326 14.6158 20.6979C14.3249 20.7432 12.7377 20.7487 12.4745 20.689C12.0664 20.5983 12.0652 20.0298 12.4745 19.938L12.4734 19.9391Z" fill="black"/>
<path d="M17.5065 19.939C17.762 19.8804 19.3625 19.8859 19.6478 19.9302C20.1212 20.0043 20.1201 20.6248 19.6478 20.6977C19.3061 20.7508 17.8937 20.7508 17.553 20.6977C17.136 20.6325 17.1415 20.022 17.5065 19.939Z" fill="black"/>
</svg>
