<svg width="32" height="32" viewBox="0 0 32 32" fill="none" xmlns="http://www.w3.org/2000/svg">
<path fill-rule="evenodd" clip-rule="evenodd" d="M6.875 2.0625H29.1875C30.7383 2.0625 32 3.32419 32 4.875V23.125C32 24.6758 30.7383 25.9375 29.1875 25.9375H27.9375V27.125C27.9375 28.6758 26.6758 29.9375 25.125 29.9375H2.8125C1.26169 29.9375 0 28.6758 0 27.125V8.875C0 7.32419 1.26169 6.0625 2.8125 6.0625H4.0625V4.875C4.0625 3.32419 5.32419 2.0625 6.875 2.0625ZM29.1875 3.9375H6.875C6.35806 3.9375 5.9375 4.35806 5.9375 4.875V17.5711L11.4207 13.2628C11.7754 12.9842 12.278 12.9976 12.6174 13.2944L16 16.2542L23.3826 9.79444C23.7089 9.509 24.188 9.4845 24.5417 9.73481L30.125 13.6876V4.875C30.125 4.35806 29.7044 3.9375 29.1875 3.9375ZM25.125 28.0625C25.6419 28.0625 26.0625 27.6419 26.0625 27.125V25.9375H6.875C5.32419 25.9375 4.0625 24.6758 4.0625 23.125V7.9375H2.8125C2.29556 7.9375 1.875 8.35806 1.875 8.875V27.125C1.875 27.6419 2.29556 28.0625 2.8125 28.0625H25.125ZM6.875 24.0625H29.1875C29.7044 24.0625 30.125 23.6419 30.125 23.125V15.9849L24.0614 11.6921L16.6174 18.2056C16.2639 18.5148 15.7361 18.5148 15.3826 18.2056L11.9678 15.2176L5.9375 19.9557V23.125C5.9375 23.6419 6.35806 24.0625 6.875 24.0625ZM18.9375 9C18.9375 10.6198 17.6198 11.9375 16 11.9375C14.3802 11.9375 13.0625 10.6198 13.0625 9C13.0625 7.38025 14.3802 6.0625 16 6.0625C17.6198 6.0625 18.9375 7.38025 18.9375 9ZM17.0625 9C17.0625 8.41413 16.5859 7.9375 16 7.9375C15.4141 7.9375 14.9375 8.41413 14.9375 9C14.9375 9.58587 15.4141 10.0625 16 10.0625C16.5859 10.0625 17.0625 9.58587 17.0625 9Z" fill="black"/>
</svg>
