<svg width="32" height="32" viewBox="0 0 32 32" fill="none" xmlns="http://www.w3.org/2000/svg">
<path d="M11.9684 5.45318C11.9365 5.28725 11.9159 5.20475 12.0153 5.05569C12.1765 4.81383 12.7774 4.14073 12.9977 3.92886C13.0634 3.86605 13.1271 3.79762 13.2208 3.77699L20.5687 3.76855C20.6737 3.78824 20.8593 4.0048 20.9455 4.09479C21.0843 4.2401 21.7836 5.01351 21.8361 5.12788C21.8952 5.25537 21.7911 5.38287 21.8568 5.43068C23.1683 5.82535 24.4882 6.23596 25.7341 6.80594C26.8075 7.29717 28.8249 8.33213 28.9384 9.64833L28.9337 23.9437L28.7931 24.1781L25.4444 25.7043C25.3601 25.8439 25.4547 27.073 25.4219 27.3692C25.3938 27.6186 25.2982 27.7723 25.0254 27.7695L8.76134 27.7648C8.56259 27.7339 8.48385 27.5979 8.45853 27.4114C8.41635 27.1076 8.52322 25.8093 8.40791 25.6808L4.98992 24.0815L4.93555 23.8546V9.6952C5.03304 8.35181 6.96141 7.35717 8.04699 6.85281C9.30413 6.26877 10.6381 5.8366 11.9684 5.45318ZM19.89 4.37697H13.9371L16.936 8.26744L19.89 4.37697ZM13.3268 4.56446C13.2602 4.51946 12.8552 4.99663 12.7877 5.07913C12.7249 5.156 12.6171 5.26193 12.6424 5.36131L15.1314 9.81332C15.3855 9.38021 16.0239 9.0071 16.2826 8.62087C16.3117 8.5768 16.3435 8.54587 16.322 8.48775L13.3258 4.56446H13.3268ZM18.7181 9.81426L21.1837 5.31631L21.1809 5.26662L20.5228 4.5654L17.4591 8.53368L18.7181 9.81426ZM16.6557 9.15803C16.5742 9.13741 16.562 9.19178 16.5151 9.22834C16.0848 9.55739 15.662 10.2755 15.2476 10.5389C15.1136 10.6242 14.9983 10.6448 14.8558 10.5595L12.2749 5.98097C10.9081 6.38595 9.54037 6.82469 8.24854 7.43029C7.49576 7.78277 5.78395 8.64336 5.57865 9.49458L5.5449 23.7037L8.45291 25.0012V13.7282C8.45291 13.6372 8.60478 13.4413 8.71352 13.4235C8.82227 13.4057 9.06226 13.4947 9.06226 13.5875V27.1573C11.8015 26.9417 14.8192 26.2199 16.6557 24.0403V9.15803ZM17.2182 9.20491V24.0403C19.0547 26.2199 22.0724 26.9417 24.8116 27.1573V13.5875C24.8116 13.4947 25.0507 13.4047 25.1604 13.4235C25.2701 13.4422 25.421 13.6372 25.421 13.7282V25.0012L28.329 23.7037L28.2953 9.49458C28.0909 8.64336 26.3781 7.78277 25.6254 7.43029C24.3082 6.8125 22.9152 6.35033 21.5127 5.96691L18.9516 10.5399C18.8466 10.6149 18.7069 10.6514 18.5981 10.567L17.2182 9.20491ZM12.7184 27.1573H21.1555L19.7175 26.6033C18.7106 26.1271 17.7104 25.5496 16.9848 24.6937L16.9173 24.6749C16.171 25.5299 15.1783 26.1252 14.1555 26.6033L12.7174 27.1573H12.7184Z" fill="black"/>
<path d="M15.0954 11.7925C15.3148 11.725 15.491 11.8141 15.5285 12.0437C15.5539 12.1965 15.5539 12.7759 15.521 12.9212C15.447 13.2559 14.9811 13.2465 14.9248 12.8818C14.892 12.669 14.8611 11.8637 15.0954 11.7925Z" fill="black"/>
<path d="M15.1446 14.3677C15.3274 14.318 15.5037 14.499 15.5299 14.6687C15.5505 14.8018 15.5552 15.4364 15.5234 15.5471C15.4427 15.8236 14.9834 15.8677 14.9262 15.5068C14.8999 15.3408 14.9009 14.6415 14.9674 14.5234C14.9871 14.4887 15.1071 14.379 15.1446 14.3687V14.3677Z" fill="black"/>
<path d="M15.096 16.9956C15.3154 16.9281 15.4917 17.0172 15.5292 17.2469C15.5545 17.4006 15.5545 17.9781 15.5217 18.1243C15.4513 18.444 14.9845 18.4459 14.9254 18.085C14.8907 17.875 14.8626 17.0669 15.096 16.9956Z" fill="black"/>
<path d="M15.1434 19.5723C15.3393 19.5142 15.5006 19.6913 15.5287 19.8713C15.5493 20.0026 15.554 20.6401 15.5221 20.7497C15.434 21.0516 14.984 21.0272 14.9231 20.7113C14.895 20.5622 14.9053 19.8348 14.9662 19.726C14.9859 19.6904 15.1031 19.5845 15.1425 19.5723H15.1434Z" fill="black"/>
<path d="M15.096 22.1987C15.3154 22.1312 15.4917 22.2203 15.5292 22.45C15.5545 22.6037 15.5545 23.1812 15.5217 23.3275C15.4513 23.6471 14.9845 23.649 14.9254 23.2881C14.8907 23.0781 14.8626 22.27 15.096 22.1987Z" fill="black"/>
<path d="M22.5042 11.8423C22.552 11.8873 22.6036 12.0607 22.6111 12.1338C22.6954 12.8997 22.5464 13.8138 22.6092 14.5956C23.1661 14.4334 23.5298 15.1468 22.8698 15.2068C21.6324 15.3184 20.2299 15.1168 18.9747 15.2068C18.3681 14.9875 18.7628 14.4869 19.2821 14.5956C19.3459 13.8138 19.1968 12.8988 19.2803 12.1338C19.2925 12.027 19.3346 11.9342 19.3871 11.8423H22.5042ZM21.9999 14.5956V12.416L21.9295 12.3457H19.9609L19.8906 12.416V14.5956H21.9999Z" fill="black"/>
</svg>
