<svg width="260" height="79" viewBox="0 0 260 79" fill="none" xmlns="http://www.w3.org/2000/svg">
<rect width="88.0058" height="79" rx="10" fill="black"/>
<path d="M53.5466 38.6525C55.9912 36.7557 57.8923 34.751 57.8923 30.1989C57.8923 24.6178 53.2207 19.0367 45.4517 19.0367C42.9768 19.0367 41.3679 19.2418 40.2539 19.4756C40.3389 19.4918 40.4239 19.5075 40.5078 19.5242C43.1738 20.2158 45.2628 21.5867 46.7774 23.2766C48.9421 24.0147 50.6744 25.2614 51.9714 26.785C53.7096 28.7903 54.5784 31.3371 54.5784 33.6674C54.5784 38.2189 52.6237 40.2236 50.2332 42.1204C53.8184 44.8842 55.2301 47.268 55.2301 51.549C55.2301 53.8787 54.5248 56.1005 53.3301 57.9972C56.5888 55.6675 58.5446 52.0365 58.5446 48.0811C58.5446 43.7461 57.1318 41.4158 53.5466 38.6525Z" fill="#FF4F26"/>
<path d="M44.033 38.4526C46.4234 36.6104 48.3792 34.5511 48.3792 30.0536C48.3792 27.6693 47.5104 25.177 45.7717 23.1178C45.7435 23.0859 45.7132 23.0546 45.6851 23.0228C44.1705 21.3328 42.0815 19.962 39.4155 19.2703C39.331 19.2536 39.2461 19.2379 39.1616 19.2217C38.151 19.0301 37.0873 18.8913 35.8839 18.8913C34.254 18.8913 32.6246 19.0538 30.9941 19.2163V59.9106C32.6246 60.1277 34.254 60.2356 35.8839 60.2356C36.9162 60.2356 38.3285 60.0731 39.4155 59.8021C45.2282 58.3934 49.031 53.4084 49.031 47.9352C49.031 43.6002 47.6187 41.2704 44.033 38.4526Z" fill="#EAFF5C"/>
<path d="M50.2288 42.1207C52.6192 40.2234 54.5745 38.2193 54.5745 33.6677C54.5745 31.3374 53.7057 28.7906 51.9675 26.7859C50.6705 25.2617 48.9382 24.015 46.7735 23.277C46.8022 23.3088 46.8325 23.3401 46.8601 23.372C48.5988 25.4313 49.4682 27.9241 49.4682 30.3078C49.4682 34.8053 47.5119 36.8646 45.1214 38.7068C48.7071 41.5241 50.1205 43.8544 50.1205 48.1894C50.1205 53.6626 46.3166 58.6471 40.5039 60.0568C44.2526 60.4893 49.1965 60.9229 53.3262 57.9976C54.5209 56.1014 55.2262 53.8785 55.2262 51.5493C55.2262 47.2683 53.8139 44.8846 50.2288 42.1207Z" fill="black"/>
<path fill-rule="evenodd" clip-rule="evenodd" d="M110.032 42.4878L108.221 44.4011V49.9525H105.033V27.3427H108.221V40.3049L114.301 33.9721H118.191L112.139 40.3049L118.948 49.9794H115.327L110.032 42.5147V42.4878ZM119.813 41.9758C119.813 37.4754 123.109 33.5139 128.081 33.5139C133.052 33.5139 136.348 37.5023 136.348 41.9758C136.348 46.4492 133.079 50.4106 128.081 50.4106C123.082 50.4106 119.813 46.3953 119.813 41.9758ZM133.16 41.9758C133.16 38.7689 131.026 36.4244 128.081 36.4244C125.136 36.4244 123.001 38.7958 123.001 41.9758C123.001 45.1557 125.108 47.5002 128.081 47.5002C131.053 47.5002 133.16 45.1287 133.16 41.9758ZM141.751 44.6975L138.887 45.5599V45.5868C139.778 48.7668 142.075 50.4376 145.506 50.4376C149.208 50.4376 151.856 48.3895 151.856 45.506C151.856 42.3261 149.478 41.1403 146.02 40.4936C143.885 40.0894 142.453 39.6312 142.453 38.2838C142.453 37.3137 143.237 36.2357 145.506 36.2357C147.56 36.2357 148.424 37.5562 148.748 38.9845L151.558 38.176C150.91 35.2925 148.775 33.5409 145.506 33.5409C142.021 33.5409 139.454 35.4812 139.454 38.3916C139.454 41.6254 142.237 42.6495 145.479 43.2423C148.478 43.7543 148.857 44.6706 148.857 45.506C148.857 46.9343 147.452 47.7427 145.506 47.7427C142.994 47.7427 142.183 46.1258 141.751 44.6975ZM156.746 45.9911V36.8016H153.855V33.9451H156.746V29.7951H159.935V33.9721H164.284V36.8286H159.935V45.6138C159.935 46.9343 160.556 47.5002 161.61 47.5002C162.366 47.5002 162.88 47.1768 163.177 46.8804L164.636 49.144C164.176 49.6561 163.015 50.4376 161.015 50.4376C158.557 50.4376 156.773 48.8476 156.773 46.018L156.746 45.9911ZM178.631 49.9794H181.252L181.279 50.0064V33.999H178.091V42.9459C178.091 45.8833 176.199 47.5002 174.038 47.5002C172.093 47.5002 170.606 46.6109 170.606 43.5118V33.9721H167.418V44.0508C167.418 48.4703 169.661 50.4106 173.065 50.4106C175.362 50.4106 177.01 49.4405 178.145 47.9314L178.631 49.9794ZM171.633 27.4775C170.498 27.4775 169.553 28.4207 169.553 29.5525C169.553 30.6843 170.498 31.6275 171.633 31.6275C172.768 31.6275 173.714 30.6843 173.714 29.5525C173.714 28.4207 172.768 27.4775 171.633 27.4775ZM177.064 27.4775C175.929 27.4775 174.983 28.4207 174.983 29.5525C174.983 30.6843 175.929 31.6275 177.064 31.6275C178.199 31.6275 179.144 30.6843 179.144 29.5525C179.144 28.4207 178.199 27.4775 177.064 27.4775ZM185.466 33.9721H188.087L188.546 36.0201C189.627 34.538 191.329 33.5409 193.599 33.5409C195.868 33.5409 197.435 34.6997 198.111 36.1549C199.218 34.6727 201.002 33.5409 203.46 33.5409C206.405 33.5409 208.675 35.2925 208.675 39.3617V50.0064H205.487V40.3858C205.487 37.4484 204.217 36.5322 202.353 36.5322C200.38 36.5322 198.651 38.0143 198.651 40.9517V50.0064H195.463V40.3858C195.463 37.4484 194.112 36.5322 192.356 36.5322C190.383 36.5322 188.627 38.0143 188.627 40.9517V50.0064H185.439V33.9721H185.466ZM213.324 41.9219H218.322V46.9343H220.564V41.9219H225.563V39.7121H220.564V34.6997H218.322V39.7121H213.324V41.9219Z" fill="#1D1D1B"/>
</svg>
