<svg width="260" height="79" viewBox="0 0 260 79" fill="none" xmlns="http://www.w3.org/2000/svg">
<rect width="88.0058" height="79" rx="10" fill="#AF001D"/>
<path d="M12.0527 61.8261H75.7613V18.8913H12.0527V61.8261Z" fill="#AF001D"/>
<path d="M19.8748 47.2148L19.4982 49.6457C19.4383 50.1215 19.6523 50.3118 20.0631 50.3724C20.9703 50.5022 23.2468 50.6579 25.4634 50.6579C30.4358 50.6579 34.056 49.0142 34.056 44.3427C34.056 41.5916 32.8664 39.5414 28.7498 38.4686L26.4391 37.8717C24.8814 37.4651 24.1625 36.9547 24.1625 35.7868C24.1625 34.1432 25.6602 33.8317 27.098 33.8317C29.0322 33.8317 31.0007 33.9874 31.7795 34.048C32.5925 34.1086 32.8065 34.0134 32.9349 33.3213L33.3114 30.9509C33.3713 30.4751 33.1574 30.2848 32.7466 30.2243C31.8394 30.0945 29.8367 29.9388 27.312 29.9388C22.1599 29.9388 19.6608 32.214 19.6608 35.8128C19.6608 39.0656 21.4067 40.9947 24.4364 41.782L26.7472 42.3875C28.6471 42.8893 29.4687 43.4603 29.4687 44.6627C29.4687 46.4275 28.2791 46.7476 25.4035 46.7476C24.0941 46.7476 21.8175 46.5573 21.0387 46.4967C20.2171 46.4189 20.0032 46.5141 19.8748 47.2148ZM60.1591 38.3735V34.0826H68.3409C68.9656 34.0826 69.1539 33.8577 69.1539 33.2262V31.0115C69.1539 30.38 68.9656 30.1551 68.3409 30.1551H56.479C55.8542 30.1551 55.6659 30.3713 55.6659 31.0115V49.6111C55.6659 50.2426 55.8542 50.4675 56.479 50.4675H59.3546C59.9793 50.4675 60.1676 50.2426 60.1676 49.6111V42.2837H67.5963C68.221 42.2837 68.4093 42.0675 68.4093 41.4273V39.2213C68.4093 38.5898 68.221 38.3648 67.5963 38.3648H60.1591V38.3735ZM44.0265 39.9826L43.7099 41.3062C43.6157 41.6868 43.5815 41.8771 43.5815 41.9982C43.5815 42.3183 43.6756 42.5692 43.8981 42.9498L47.6125 49.6976C47.9206 50.234 48.1773 50.4589 48.9219 50.4589H52.3281C52.7646 50.4589 53.2952 50.1734 52.7989 49.3862L48.2372 41.7474C49.7692 40.7698 51.4894 39.377 51.4894 36.3146C51.4894 32.3697 49.307 30.1637 44.4972 30.1637H37.5307C36.9059 30.1637 36.7177 30.38 36.7177 31.0202V49.6198C36.7177 50.2513 36.9059 50.4762 37.5307 50.4762H40.4063C41.0311 50.4762 41.2194 50.2513 41.2194 49.6198V33.9182H44.1891C46.0634 33.9182 46.9706 34.6103 46.9706 36.3838C46.9706 37.9928 46.2517 38.5032 45.5328 38.8147C44.6256 39.1953 44.3089 38.7801 44.0265 39.9826Z" fill="white"/>
<path fill-rule="evenodd" clip-rule="evenodd" d="M110.032 42.4878L108.221 44.4011V49.9525H105.033V27.3427H108.221V40.3049L114.301 33.9721H118.191L112.139 40.3049L118.948 49.9794H115.327L110.032 42.5147V42.4878ZM119.813 41.9758C119.813 37.4754 123.109 33.5139 128.081 33.5139C133.052 33.5139 136.348 37.5023 136.348 41.9758C136.348 46.4492 133.079 50.4106 128.081 50.4106C123.082 50.4106 119.813 46.3953 119.813 41.9758ZM133.16 41.9758C133.16 38.7689 131.026 36.4244 128.081 36.4244C125.136 36.4244 123.001 38.7958 123.001 41.9758C123.001 45.1557 125.108 47.5002 128.081 47.5002C131.053 47.5002 133.16 45.1287 133.16 41.9758ZM141.751 44.6975L138.887 45.5599V45.5868C139.778 48.7668 142.075 50.4376 145.506 50.4376C149.208 50.4376 151.856 48.3895 151.856 45.506C151.856 42.3261 149.478 41.1403 146.02 40.4936C143.885 40.0894 142.453 39.6312 142.453 38.2838C142.453 37.3137 143.237 36.2357 145.506 36.2357C147.56 36.2357 148.424 37.5562 148.748 38.9845L151.558 38.176C150.91 35.2925 148.775 33.5409 145.506 33.5409C142.021 33.5409 139.454 35.4812 139.454 38.3916C139.454 41.6254 142.237 42.6495 145.479 43.2423C148.478 43.7543 148.857 44.6706 148.857 45.506C148.857 46.9343 147.452 47.7427 145.506 47.7427C142.994 47.7427 142.183 46.1258 141.751 44.6975ZM156.746 45.9911V36.8016H153.855V33.9451H156.746V29.7951H159.935V33.9721H164.284V36.8286H159.935V45.6138C159.935 46.9343 160.556 47.5002 161.61 47.5002C162.366 47.5002 162.88 47.1768 163.177 46.8804L164.636 49.144C164.176 49.6561 163.015 50.4376 161.015 50.4376C158.557 50.4376 156.773 48.8476 156.773 46.018L156.746 45.9911ZM178.631 49.9794H181.252L181.279 50.0064V33.999H178.091V42.9459C178.091 45.8833 176.199 47.5002 174.038 47.5002C172.093 47.5002 170.606 46.6109 170.606 43.5118V33.9721H167.418V44.0508C167.418 48.4703 169.661 50.4106 173.065 50.4106C175.362 50.4106 177.01 49.4405 178.145 47.9314L178.631 49.9794ZM171.633 27.4775C170.498 27.4775 169.553 28.4207 169.553 29.5525C169.553 30.6843 170.498 31.6275 171.633 31.6275C172.768 31.6275 173.714 30.6843 173.714 29.5525C173.714 28.4207 172.768 27.4775 171.633 27.4775ZM177.064 27.4775C175.929 27.4775 174.983 28.4207 174.983 29.5525C174.983 30.6843 175.929 31.6275 177.064 31.6275C178.199 31.6275 179.144 30.6843 179.144 29.5525C179.144 28.4207 178.199 27.4775 177.064 27.4775ZM185.466 33.9721H188.087L188.546 36.0201C189.627 34.538 191.329 33.5409 193.599 33.5409C195.868 33.5409 197.435 34.6997 198.111 36.1549C199.218 34.6727 201.002 33.5409 203.46 33.5409C206.405 33.5409 208.675 35.2925 208.675 39.3617V50.0064H205.487V40.3858C205.487 37.4484 204.217 36.5322 202.353 36.5322C200.38 36.5322 198.651 38.0143 198.651 40.9517V50.0064H195.463V40.3858C195.463 37.4484 194.112 36.5322 192.356 36.5322C190.383 36.5322 188.627 38.0143 188.627 40.9517V50.0064H185.439V33.9721H185.466ZM213.324 41.9219H218.322V46.9343H220.564V41.9219H225.563V39.7121H220.564V34.6997H218.322V39.7121H213.324V41.9219Z" fill="#1D1D1B"/>
</svg>
