<svg width="260" height="79" viewBox="0 0 260 79" fill="none" xmlns="http://www.w3.org/2000/svg">
<rect width="88.0058" height="79" rx="10" fill="black"/>
<path d="M37.933 49.5954H37.8663C34.467 49.5954 33.134 48.6369 33.134 45.6975V25.7609H28.6016V36.9433V46.2087C28.6016 49.7871 30.2012 52.0236 33.134 52.9182C34.4004 53.3016 35.7334 53.4933 37.0665 53.4933C37.9996 53.4933 38.9328 53.4933 39.8659 53.3655V49.5315C39.1994 49.5315 38.6662 49.5954 37.933 49.5954Z" fill="white"/>
<path d="M37.933 49.5954H37.8663C34.467 49.5954 33.134 48.6369 33.134 45.6975V25.7609H28.6016V36.9433V46.2087C28.6016 49.7871 30.2012 52.0236 33.134 52.9182C34.4004 53.3016 35.7334 53.4933 37.0665 53.4933C37.9996 53.4933 38.9328 53.4933 39.8659 53.3655V49.5315C39.1994 49.5315 38.6662 49.5954 37.933 49.5954Z" fill="white"/>
<path d="M55.5549 49.7226C52.1556 49.7226 50.6893 48.7641 50.6893 45.8247V36.8149H56.4214V33.4921H48.5564V33.4282C50.6226 32.0863 51.8224 29.8498 51.889 27.4855H47.6233C47.6233 28.0606 47.4899 28.6996 47.3566 29.2747C47.1567 30.1054 46.7568 30.9361 46.2902 31.639C45.6903 32.5336 44.8905 33.3004 43.8907 33.8116C43.5574 34.0033 43.2242 34.1311 42.8242 34.2589L42.291 34.4506V36.8149L46.2235 36.8788V46.3359C46.2235 51.3201 49.3562 53.6204 54.6885 53.6204C55.555 53.6204 56.4881 53.6205 57.3546 53.4927V49.6587C56.7547 49.6587 56.2215 49.7226 55.5549 49.7226Z" fill="white"/>
<path fill-rule="evenodd" clip-rule="evenodd" d="M110.032 42.4878L108.221 44.4011V49.9525H105.033V27.3427H108.221V40.3049L114.301 33.9721H118.191L112.139 40.3049L118.948 49.9794H115.327L110.032 42.5147V42.4878ZM119.813 41.9758C119.813 37.4754 123.109 33.5139 128.081 33.5139C133.052 33.5139 136.348 37.5023 136.348 41.9758C136.348 46.4492 133.079 50.4106 128.081 50.4106C123.082 50.4106 119.813 46.3953 119.813 41.9758ZM133.16 41.9758C133.16 38.7689 131.026 36.4244 128.081 36.4244C125.136 36.4244 123.001 38.7958 123.001 41.9758C123.001 45.1557 125.108 47.5002 128.081 47.5002C131.053 47.5002 133.16 45.1287 133.16 41.9758ZM141.751 44.6975L138.887 45.5599V45.5868C139.778 48.7668 142.075 50.4376 145.506 50.4376C149.208 50.4376 151.856 48.3895 151.856 45.506C151.856 42.3261 149.478 41.1403 146.02 40.4936C143.885 40.0894 142.453 39.6312 142.453 38.2838C142.453 37.3137 143.237 36.2357 145.506 36.2357C147.56 36.2357 148.424 37.5562 148.748 38.9845L151.558 38.176C150.91 35.2925 148.775 33.5409 145.506 33.5409C142.021 33.5409 139.454 35.4812 139.454 38.3916C139.454 41.6254 142.237 42.6495 145.479 43.2423C148.478 43.7543 148.857 44.6706 148.857 45.506C148.857 46.9343 147.452 47.7427 145.506 47.7427C142.994 47.7427 142.183 46.1258 141.751 44.6975ZM156.746 45.9911V36.8016H153.855V33.9451H156.746V29.795H159.935V33.9721H164.284V36.8286H159.935V45.6138C159.935 46.9343 160.556 47.5002 161.61 47.5002C162.366 47.5002 162.88 47.1768 163.177 46.8804L164.636 49.144C164.176 49.6561 163.015 50.4376 161.015 50.4376C158.557 50.4376 156.773 48.8476 156.773 46.018L156.746 45.9911ZM178.631 49.9794H181.252L181.279 50.0064V33.999H178.091V42.9459C178.091 45.8833 176.199 47.5002 174.038 47.5002C172.093 47.5002 170.606 46.6109 170.606 43.5118V33.9721H167.418V44.0508C167.418 48.4703 169.661 50.4106 173.065 50.4106C175.362 50.4106 177.01 49.4405 178.145 47.9314L178.631 49.9794ZM171.633 27.4775C170.498 27.4775 169.553 28.4207 169.553 29.5525C169.553 30.6843 170.498 31.6275 171.633 31.6275C172.768 31.6275 173.714 30.6843 173.714 29.5525C173.714 28.4207 172.768 27.4775 171.633 27.4775ZM177.064 27.4775C175.929 27.4775 174.983 28.4207 174.983 29.5525C174.983 30.6843 175.929 31.6275 177.064 31.6275C178.199 31.6275 179.144 30.6843 179.144 29.5525C179.144 28.4207 178.199 27.4775 177.064 27.4775ZM185.466 33.9721H188.087L188.546 36.0201C189.627 34.538 191.329 33.5409 193.599 33.5409C195.868 33.5409 197.435 34.6997 198.111 36.1549C199.218 34.6727 201.002 33.5409 203.46 33.5409C206.405 33.5409 208.675 35.2925 208.675 39.3617V50.0064H205.487V40.3858C205.487 37.4484 204.217 36.5322 202.353 36.5322C200.38 36.5322 198.651 38.0143 198.651 40.9517V50.0064H195.463V40.3858C195.463 37.4484 194.112 36.5322 192.356 36.5322C190.383 36.5322 188.627 38.0143 188.627 40.9517V50.0064H185.439V33.9721H185.466ZM213.324 41.9219H218.322V46.9343H220.564V41.9219H225.563V39.7121H220.564V34.6997H218.322V39.7121H213.324V41.9219Z" fill="#1D1D1B"/>
</svg>
