<svg width="30" height="30" viewBox="0 0 30 30" fill="none" xmlns="http://www.w3.org/2000/svg">
<rect width="30" height="30" rx="6" fill="black"/>
<path d="M18.0578 14.7039C18.9096 14.0412 19.5721 13.3408 19.5721 11.7505C19.5721 9.80064 17.9442 7.85077 15.237 7.85077C14.3746 7.85077 13.814 7.92245 13.4258 8.00413C13.4554 8.00978 13.485 8.01525 13.5142 8.0211C14.4433 8.26274 15.1712 8.74167 15.699 9.33208C16.4533 9.58994 17.0569 10.0255 17.5089 10.5578C18.1146 11.2584 18.4173 12.1481 18.4173 12.9623C18.4173 14.5524 17.7362 15.2528 16.9032 15.9155C18.1525 16.8811 18.6444 17.7139 18.6444 19.2095C18.6444 20.0234 18.3986 20.7997 17.9823 21.4623C19.1179 20.6484 19.7994 19.3798 19.7994 17.9979C19.7994 16.4834 19.3071 15.6693 18.0578 14.7039Z" fill="#FF4F26"/>
<path d="M14.7428 14.6341C15.5757 13.9905 16.2573 13.271 16.2573 11.6997C16.2573 10.8667 15.9545 9.99602 15.3486 9.27658C15.3388 9.26546 15.3283 9.25451 15.3185 9.24339C14.7907 8.65297 14.0627 8.17404 13.1337 7.93241C13.1043 7.92656 13.0747 7.92109 13.0453 7.91543C12.6931 7.84847 12.3224 7.79999 11.9031 7.79999C11.3351 7.79999 10.7674 7.85677 10.1992 7.91354V22.1308C10.7674 22.2066 11.3351 22.2443 11.9031 22.2443C12.2628 22.2443 12.755 22.1876 13.1337 22.0929C15.1592 21.6007 16.4844 19.8591 16.4844 17.947C16.4844 16.4325 15.9922 15.6185 14.7428 14.6341Z" fill="#EAFF5C"/>
<path d="M16.9024 15.9156C17.7354 15.2527 18.4167 14.5525 18.4167 12.9624C18.4167 12.1482 18.114 11.2585 17.5083 10.5581C17.0563 10.0256 16.4527 9.59004 15.6984 9.33218C15.7084 9.34331 15.7189 9.35425 15.7286 9.36538C16.3344 10.0848 16.6374 10.9557 16.6374 11.7885C16.6374 13.3598 15.9557 14.0793 15.1227 14.7229C16.3722 15.7071 16.8647 16.5213 16.8647 18.0358C16.8647 19.9479 15.5392 21.6893 13.5137 22.1819C14.8199 22.333 16.5427 22.4844 17.9818 21.4624C18.3981 20.8 18.6438 20.0234 18.6438 19.2096C18.6438 17.714 18.1517 16.8812 16.9024 15.9156Z" fill="black"/>
</svg>
