<svg width="30" height="30" viewBox="0 0 30 30" fill="none" xmlns="http://www.w3.org/2000/svg">
<rect width="30" height="30" rx="6" fill="black"/>
<path d="M13.4509 18.527H13.4276C12.2431 18.527 11.7786 18.1921 11.7786 17.1652V10.2H10.1992V14.1068V17.3438C10.1992 18.594 10.7566 19.3753 11.7786 19.6879C12.2199 19.8218 12.6844 19.8888 13.1489 19.8888C13.4741 19.8888 13.7992 19.8888 14.1244 19.8441V18.5047C13.8922 18.5047 13.7063 18.527 13.4509 18.527Z" fill="white"/>
<path d="M13.4509 18.527H13.4276C12.2431 18.527 11.7786 18.1921 11.7786 17.1652V10.2H10.1992V14.1068V17.3438C10.1992 18.594 10.7566 19.3753 11.7786 19.6879C12.2199 19.8218 12.6844 19.8888 13.1489 19.8888C13.4741 19.8888 13.7992 19.8888 14.1244 19.8441V18.5047C13.8922 18.5047 13.7063 18.527 13.4509 18.527Z" fill="white"/>
<path d="M19.5907 18.5714C18.4062 18.5714 17.8952 18.2366 17.8952 17.2096V14.0619H19.8927V12.901H17.152V12.8787C17.872 12.4099 18.2901 11.6285 18.3133 10.8025H16.8268C16.8268 11.0035 16.7804 11.2267 16.7339 11.4276C16.6642 11.7178 16.5249 12.0081 16.3623 12.2536C16.1533 12.5662 15.8746 12.8341 15.5262 13.0127C15.41 13.0796 15.2939 13.1243 15.1546 13.1689L14.9688 13.2359V14.0619L16.3391 14.0842V17.3882C16.3391 19.1295 17.4307 19.9332 19.2888 19.9332C19.5907 19.9332 19.9159 19.9332 20.2178 19.8886V18.5491C20.0088 18.5491 19.823 18.5714 19.5907 18.5714Z" fill="white"/>
</svg>
