<svg width="50" height="50" viewBox="0 0 50 50" fill="none" xmlns="http://www.w3.org/2000/svg">
<rect width="50" height="50" rx="25" fill="#AF001D"/>
<path d="M7 38H44V13H7V38Z" fill="#AF001D"/>
<path d="M11.5428 29.4922L11.3241 30.9076C11.2893 31.1847 11.4136 31.2955 11.6522 31.3308C12.179 31.4063 13.5012 31.497 14.7885 31.497C17.6764 31.497 19.7789 30.5399 19.7789 27.8198C19.7789 26.2179 19.088 25.0241 16.6972 24.3995L15.3552 24.0519C14.4505 23.8151 14.033 23.5179 14.033 22.8379C14.033 21.8808 14.9028 21.6995 15.7379 21.6995C16.8612 21.6995 18.0044 21.7902 18.4567 21.8254C18.9289 21.8607 19.0532 21.8053 19.1277 21.4023L19.3464 20.0221C19.3812 19.745 19.257 19.6342 19.0184 19.5989C18.4915 19.5234 17.3284 19.4327 15.8621 19.4327C12.8699 19.4327 11.4186 20.7575 11.4186 22.853C11.4186 24.747 12.4325 25.8703 14.1921 26.3287L15.5341 26.6814C16.6375 26.9735 17.1147 27.306 17.1147 28.0062C17.1147 29.0338 16.4238 29.2201 14.7537 29.2201C13.9933 29.2201 12.6711 29.1093 12.2188 29.0741C11.7416 29.0287 11.6174 29.0841 11.5428 29.4922ZM34.9387 24.3441V21.8456H39.6905C40.0533 21.8456 40.1627 21.7146 40.1627 21.3469V20.0573C40.1627 19.6896 40.0533 19.5586 39.6905 19.5586H32.8014C32.4386 19.5586 32.3292 19.6846 32.3292 20.0573V30.8875C32.3292 31.2552 32.4386 31.3862 32.8014 31.3862H34.4715C34.8343 31.3862 34.9437 31.2552 34.9437 30.8875V26.6209H39.258C39.6209 26.6209 39.7302 26.495 39.7302 26.1222V24.8377C39.7302 24.47 39.6209 24.339 39.258 24.339H34.9387V24.3441ZM25.5694 25.281L25.3855 26.0517C25.3308 26.2733 25.311 26.3842 25.311 26.4547C25.311 26.6411 25.3656 26.7871 25.4949 27.0088L27.652 30.9378C27.831 31.2502 27.9801 31.3811 28.4125 31.3811H30.3908C30.6443 31.3811 30.9524 31.2149 30.6641 30.7565L28.0149 26.3086C28.9046 25.7394 29.9037 24.9284 29.9037 23.1452C29.9037 20.8482 28.6362 19.5637 25.8428 19.5637H21.7969C21.434 19.5637 21.3247 19.6896 21.3247 20.0624V30.8925C21.3247 31.2602 21.434 31.3912 21.7969 31.3912H23.4669C23.8298 31.3912 23.9391 31.2602 23.9391 30.8925V21.7499H25.6639C26.7524 21.7499 27.2793 22.1528 27.2793 23.1855C27.2793 24.1224 26.8617 24.4196 26.4442 24.601C25.9174 24.8226 25.7335 24.5808 25.5694 25.281Z" fill="white"/>
</svg>
