<svg width="30" height="30" viewBox="0 0 30 30" fill="none" xmlns="http://www.w3.org/2000/svg">
<rect width="30" height="30" rx="6" fill="#AF001D"/>
<path d="M4.19922 22.8H26.3992V7.79999H4.19922V22.8Z" fill="#AF001D"/>
<path d="M6.9257 17.6953L6.79448 18.5446C6.7736 18.7108 6.84816 18.7773 6.99131 18.7984C7.30743 18.8438 8.10071 18.8982 8.87312 18.8982C10.6058 18.8982 11.8673 18.3239 11.8673 16.6918C11.8673 15.7307 11.4528 15.0144 10.0183 14.6397L9.2131 14.4311C8.67032 14.2891 8.41981 14.1107 8.41981 13.7027C8.41981 13.1285 8.94171 13.0197 9.44273 13.0197C10.1167 13.0197 10.8026 13.0741 11.074 13.0952C11.3573 13.1164 11.4319 13.0831 11.4766 12.8414L11.6079 12.0132C11.6287 11.847 11.5542 11.7805 11.411 11.7593C11.0949 11.714 10.3971 11.6596 9.51729 11.6596C7.72196 11.6596 6.85114 12.4545 6.85114 13.7118C6.85114 14.8482 7.45952 15.5222 8.51524 15.7972L9.32046 16.0088C9.98252 16.1841 10.2688 16.3836 10.2688 16.8037C10.2688 17.4202 9.85428 17.5321 8.85224 17.5321C8.39595 17.5321 7.60267 17.4656 7.33128 17.4444C7.04499 17.4172 6.97043 17.4505 6.9257 17.6953ZM20.9632 14.6064V13.1073H23.8143C24.032 13.1073 24.0976 13.0287 24.0976 12.8081V12.0344C24.0976 11.8137 24.032 11.7352 23.8143 11.7352H19.6809C19.4632 11.7352 19.3975 11.8107 19.3975 12.0344V18.5325C19.3975 18.7531 19.4632 18.8317 19.6809 18.8317H20.6829C20.9006 18.8317 20.9662 18.7531 20.9662 18.5325V15.9725H23.5548C23.7725 15.9725 23.8381 15.897 23.8381 15.6733V14.9026C23.8381 14.682 23.7725 14.6034 23.5548 14.6034H20.9632V14.6064ZM15.3417 15.1686L15.2313 15.631C15.1985 15.764 15.1866 15.8305 15.1866 15.8728C15.1866 15.9846 15.2194 16.0723 15.2969 16.2052L16.5912 18.5627C16.6986 18.7501 16.7881 18.8287 17.0475 18.8287H18.2345C18.3866 18.8287 18.5715 18.7289 18.3985 18.4539L16.8089 15.7851C17.3428 15.4436 17.9422 14.957 17.9422 13.8871C17.9422 12.5089 17.1817 11.7382 15.5057 11.7382H13.0781C12.8604 11.7382 12.7948 11.8137 12.7948 12.0374V18.5355C12.7948 18.7561 12.8604 18.8347 13.0781 18.8347H14.0802C14.2979 18.8347 14.3635 18.7561 14.3635 18.5355V13.0499H15.3983C16.0514 13.0499 16.3676 13.2917 16.3676 13.9113C16.3676 14.4734 16.117 14.6517 15.8665 14.7606C15.5504 14.8935 15.4401 14.7485 15.3417 15.1686Z" fill="white"/>
</svg>
