<svg width="50" height="50" viewBox="0 0 50 50" fill="none" xmlns="http://www.w3.org/2000/svg">
<rect width="50" height="50" rx="25" fill="black"/>
<path d="M22.4194 30.8783H22.3807C20.4065 30.8783 19.6323 30.3202 19.6323 28.6087V17H17V23.5113V28.9063C17 30.99 17.929 32.2922 19.6323 32.8131C20.3678 33.0364 21.142 33.148 21.9162 33.148C22.4581 33.148 23.0001 33.148 23.542 33.0736V30.8411C23.1549 30.8411 22.8452 30.8783 22.4194 30.8783Z" fill="white"/>
<path d="M22.4194 30.8783H22.3807C20.4065 30.8783 19.6323 30.3202 19.6323 28.6087V17H17V23.5113V28.9063C17 30.99 17.929 32.2922 19.6323 32.8131C20.3678 33.0364 21.142 33.148 21.9162 33.148C22.4581 33.148 23.0001 33.148 23.542 33.0736V30.8411C23.1549 30.8411 22.8452 30.8783 22.4194 30.8783Z" fill="white"/>
<path d="M32.6545 30.9524C30.6803 30.9524 29.8286 30.3943 29.8286 28.6827V23.4365H33.1577V21.5017H28.5899V21.4645C29.7899 20.6832 30.4867 19.3809 30.5254 18.0042H28.048C28.048 18.3391 27.9706 18.7112 27.8931 19.046C27.777 19.5297 27.5447 20.0134 27.2738 20.4227C26.9254 20.9436 26.4609 21.3901 25.8802 21.6878C25.6867 21.7994 25.4931 21.8738 25.2609 21.9482L24.9512 22.0598V23.4365L27.2351 23.4737V28.9804C27.2351 31.8826 29.0544 33.222 32.1512 33.222C32.6545 33.222 33.1964 33.222 33.6996 33.1476V30.9152C33.3512 30.9152 33.0416 30.9524 32.6545 30.9524Z" fill="white"/>
</svg>
