<svg width="50" height="50" viewBox="0 0 50 50" fill="none" xmlns="http://www.w3.org/2000/svg">
<rect width="50" height="50" rx="25" fill="black"/>
<path d="M30.097 24.5065C31.5167 23.4021 32.6208 22.2348 32.6208 19.5842C32.6208 16.3344 29.9077 13.0847 25.3957 13.0847C23.9583 13.0847 23.024 13.2041 22.377 13.3402C22.4263 13.3497 22.4757 13.3588 22.5244 13.3685C24.0727 13.7713 25.2859 14.5695 26.1656 15.5535C27.4228 15.9833 28.4288 16.7092 29.1821 17.5964C30.1916 18.764 30.6962 20.2469 30.6962 21.6038C30.6962 24.2541 29.5609 25.4214 28.1726 26.5258C30.2548 28.1351 31.0747 29.5231 31.0747 32.0159C31.0747 33.3725 30.665 34.6661 29.9712 35.7706C31.8638 34.414 32.9997 32.2998 32.9997 29.9966C32.9997 27.4724 32.1791 26.1155 30.097 24.5065Z" fill="#FF4F26"/>
<path d="M24.5726 24.3901C25.9609 23.3174 27.0967 22.1184 27.0967 19.4996C27.0967 18.1112 26.5922 16.6601 25.5824 15.461C25.566 15.4424 25.5484 15.4242 25.5321 15.4057C24.6524 14.4216 23.4392 13.6234 21.8909 13.2207C21.8418 13.211 21.7925 13.2018 21.7434 13.1924C21.1565 13.0808 20.5387 13 19.8398 13C18.8932 13 17.9469 13.0946 17 13.1893V36.8847C17.9469 37.011 18.8932 37.0739 19.8398 37.0739C20.4394 37.0739 21.2596 36.9793 21.8909 36.8215C25.2667 36.0012 27.4753 33.0985 27.4753 29.9116C27.4753 27.3874 26.655 26.0309 24.5726 24.3901Z" fill="#EAFF5C"/>
<path d="M28.1713 26.526C29.5597 25.4212 30.6952 24.2542 30.6952 21.604C30.6952 20.2471 30.1906 18.7642 29.1811 17.5969C28.4279 16.7094 27.4218 15.9834 26.1646 15.5537C26.1813 15.5722 26.1989 15.5905 26.2149 15.609C27.2247 16.8081 27.7296 18.2596 27.7296 19.6476C27.7296 22.2664 26.5934 23.4655 25.2051 24.5381C27.2876 26.1786 28.1085 27.5355 28.1085 30.0597C28.1085 33.2466 25.8993 36.1489 22.5234 36.9698C24.7005 37.2216 27.5718 37.4741 29.9702 35.7707C30.6641 34.6666 31.0737 33.3723 31.0737 32.0161C31.0737 29.5233 30.2535 28.1353 28.1713 26.526Z" fill="black"/>
</svg>
