<svg width="490" height="116" viewBox="0 0 490 116" fill="none" xmlns="http://www.w3.org/2000/svg">
<g clip-path="url(#clip0_55_11707)">
<path d="M57.1008 79.6C50.2008 79.6 46.8008 74.9 46.8008 68.1V47.8H53.6008V66C53.6008 71.8 55.6008 74.4 59.6008 74.4C63.8008 74.4 65.7008 71.5 65.7008 66.4V47.8H72.5008V79H66.0008V72.9H65.9008C64.5008 77.2 61.6008 79.6 57.1008 79.6Z" fill="black"/>
<path d="M79.9004 79V74.1L95.5004 52.9H80.3004V47.9H103.8V52.8L88.2004 73.9H104.4V78.9L79.9004 79Z" fill="black"/>
<path d="M122.8 79.6C113.5 79.6 108.1 72 108.1 63.4C108.1 54.8 113.4 47.2 122.7 47.2C132 47.2 138.1 54.7 137.1 65.6H114.9C115.2 71.3 118.5 74.6 123.2 74.6C127.2 74.6 129 71.9 129.7 69.4H136.5C135.3 75.5 130.4 79.6 122.8 79.6ZM115 60.5H130.4C130 55.5 127.3 52.2 122.7 52.2C118.1 52.2 115.4 55.5 115 60.5Z" fill="black"/>
<path d="M144.1 79V47.8H150.7V53.9H150.8C152.1 49.5 155.3 47.2 160.1 47.2V54H159C153.2 54 150.8 55.7 150.8 61.3V79H144.1Z" fill="black"/>
<path d="M166.4 79V47.8H173V53.9H173.1C174.1 49.8 177.9 46.9 182.2 47.2C189.1 47.2 192.4 51.9 192.4 58.7V79H185.6V60.7C185.6 54.9 183.5 52.3 179.4 52.3C175.3 52.3 173.2 55.2 173.2 60.3V79H166.4Z" fill="black"/>
<path d="M213.8 79.6C204.5 79.6 199.1 72 199.1 63.4C199.1 54.8 204.4 47.2 213.7 47.2C223 47.2 229.1 54.7 228.1 65.6H205.9C206.2 71.3 209.5 74.6 214.2 74.6C218.2 74.6 220 71.9 220.7 69.4H227.5C226.3 75.5 221.4 79.6 213.8 79.6ZM206 60.5H221.4C221 55.5 218.3 52.2 213.7 52.2C209.1 52.2 206.4 55.5 206 60.5Z" fill="black"/>
<path d="M235 79V47.8H241.6V53.9H241.7C243 49.5 246.2 47.2 251 47.2V54H250C244.2 54 241.8 55.7 241.8 61.3V79H235Z" fill="black"/>
<path d="M38 73.5H37.9C32.8 73.5 30.8 72 30.8 67.4V36.2H24V53.7V68.2C24 73.8 26.4 77.3 30.8 78.7C32.7 79.3 34.7 79.6 36.7 79.6C38.1 79.6 39.5 79.6 40.9 79.4V73.4C39.9 73.5 39.1 73.5 38 73.5Z" fill="black"/>
<path d="M301.9 79V36H308.5V53.9H308.6C309.6 49.8 313.4 46.9 317.7 47.2C324.6 47.2 327.9 51.9 327.9 58.7V79H321.1V60.7C321.1 54.9 319 52.3 314.9 52.3C310.8 52.3 308.7 55.2 308.7 60.3V79H301.9Z" fill="black"/>
<path d="M348.1 79.6C338.8 79.6 333.4 72 333.4 63.4C333.4 54.8 338.7 47.2 348 47.2C357.3 47.2 363.4 54.7 362.4 65.6H340.2C340.5 71.3 343.8 74.6 348.5 74.6C352.5 74.6 354.3 71.9 355 69.4H361.8C360.5 75.5 355.7 79.6 348.1 79.6ZM340.2 60.5H355.6C355.2 55.5 352.5 52.2 347.9 52.2C343.3 52.2 340.7 55.5 340.2 60.5Z" fill="black"/>
<path d="M378.5 79.6C372 79.6 367.5 75.6 367.5 69.9C367.5 63.5 373.1 61.1 380 60.4L387.9 59.6V58.7C387.9 54.5 385.5 52.3 381.6 52.3C377.8 52.3 375.6 54.2 375.4 57.7H368.6C368.8 51.7 373.7 47.2 381.7 47.2C389.6 47.2 394.7 51.4 394.7 59.8V79H388.2V72.9H388C386.7 77.2 383.2 79.6 378.5 79.6ZM380.3 74.5C385.2 74.5 388 71.2 388 65.3V64.2L381.2 64.9C377.1 65.3 374.7 66.8 374.7 69.8C374.6 72.9 377.3 74.5 380.3 74.5Z" fill="black"/>
<path d="M291.9 73.7C286.8 73.7 284.6 72.2 284.6 67.6V53.5H293.2V48.3H281.4V48.2C284.5 46.1 286.3 42.6 286.4 38.9H280C280 39.8 279.8 40.8 279.6 41.7C279.3 43 278.7 44.3 278 45.4C277.1 46.8 275.9 48 274.4 48.8C273.9 49.1 273.4 49.3 272.8 49.5L272 49.8V53.5L277.9 53.6V68.4C277.9 76.2 282.6 79.8 290.6 79.8C291.9 79.8 293.3 79.8 294.6 79.6V73.6C293.7 73.7 292.9 73.7 291.9 73.7Z" fill="black"/>
<path d="M438.1 79.6C428.8 79.6 423.4 72 423.4 63.4C423.4 54.8 428.7 47.2 438 47.2C447.3 47.2 453.4 54.7 452.4 65.6H430.2C430.5 71.3 433.8 74.6 438.5 74.6C442.5 74.6 444.3 71.9 445 69.4H451.8C450.5 75.5 445.7 79.6 438.1 79.6ZM430.2 60.5H445.6C445.2 55.5 442.5 52.2 437.9 52.2C433.3 52.2 430.7 55.5 430.2 60.5Z" fill="black"/>
<path d="M458.801 79V47.8H465.401V53.9H465.501C466.801 49.5 470.001 47.2 474.801 47.2V54H473.701C467.901 54 465.501 55.7 465.501 61.3V79H458.801Z" fill="black"/>
<path d="M417.9 73.7C412.8 73.7 410.6 72.2 410.6 67.6V53.5H419.2V48.3H407.4V48.2C410.5 46.1 412.3 42.6 412.4 38.9H406C406 39.8 405.8 40.8 405.6 41.7C405.3 43 404.7 44.3 404 45.4C403.1 46.8 401.9 48 400.4 48.8C399.9 49.1 399.4 49.3 398.8 49.5C398.6 49.6 398.3 49.7 398 49.8V53.5L403.9 53.6V68.4C403.9 76.2 408.6 79.8 416.6 79.8C417.9 79.8 419.3 79.8 420.6 79.6V73.6C419.7 73.7 418.9 73.7 417.9 73.7Z" fill="black"/>
<path d="M57.1008 79.6C50.2008 79.6 46.8008 74.9 46.8008 68.1V47.8H53.6008V66C53.6008 71.8 55.6008 74.4 59.6008 74.4C63.8008 74.4 65.7008 71.5 65.7008 66.4V47.8H72.5008V79H66.0008V72.9H65.9008C64.5008 77.2 61.6008 79.6 57.1008 79.6Z" fill="black"/>
<path d="M79.9004 79V74.1L95.5004 52.9H80.3004V47.9H103.8V52.8L88.2004 73.9H104.4V78.9L79.9004 79Z" fill="black"/>
<path d="M122.8 79.6C113.5 79.6 108.1 72 108.1 63.4C108.1 54.8 113.4 47.2 122.7 47.2C132 47.2 138.1 54.7 137.1 65.6H114.9C115.2 71.3 118.5 74.6 123.2 74.6C127.2 74.6 129 71.9 129.7 69.4H136.5C135.3 75.5 130.4 79.6 122.8 79.6ZM115 60.5H130.4C130 55.5 127.3 52.2 122.7 52.2C118.1 52.2 115.4 55.5 115 60.5Z" fill="black"/>
<path d="M144.1 79V47.8H150.7V53.9H150.8C152.1 49.5 155.3 47.2 160.1 47.2V54H159C153.2 54 150.8 55.7 150.8 61.3V79H144.1Z" fill="black"/>
<path d="M166.4 79V47.8H173V53.9H173.1C174.1 49.8 177.9 46.9 182.2 47.2C189.1 47.2 192.4 51.9 192.4 58.7V79H185.6V60.7C185.6 54.9 183.5 52.3 179.4 52.3C175.3 52.3 173.2 55.2 173.2 60.3V79H166.4Z" fill="black"/>
<path d="M213.8 79.6C204.5 79.6 199.1 72 199.1 63.4C199.1 54.8 204.4 47.2 213.7 47.2C223 47.2 229.1 54.7 228.1 65.6H205.9C206.2 71.3 209.5 74.6 214.2 74.6C218.2 74.6 220 71.9 220.7 69.4H227.5C226.3 75.5 221.4 79.6 213.8 79.6ZM206 60.5H221.4C221 55.5 218.3 52.2 213.7 52.2C209.1 52.2 206.4 55.5 206 60.5Z" fill="black"/>
<path d="M235 79V47.8H241.6V53.9H241.7C243 49.5 246.2 47.2 251 47.2V54H250C244.2 54 241.8 55.7 241.8 61.3V79H235Z" fill="black"/>
<path d="M38 73.5H37.9C32.8 73.5 30.8 72 30.8 67.4V36.2H24V53.7V68.2C24 73.8 26.4 77.3 30.8 78.7C32.7 79.3 34.7 79.6 36.7 79.6C38.1 79.6 39.5 79.6 40.9 79.4V73.4C39.9 73.5 39.1 73.5 38 73.5Z" fill="black"/>
<path d="M301.9 79V36H308.5V53.9H308.6C309.6 49.8 313.4 46.9 317.7 47.2C324.6 47.2 327.9 51.9 327.9 58.7V79H321.1V60.7C321.1 54.9 319 52.3 314.9 52.3C310.8 52.3 308.7 55.2 308.7 60.3V79H301.9Z" fill="black"/>
<path d="M348.1 79.6C338.8 79.6 333.4 72 333.4 63.4C333.4 54.8 338.7 47.2 348 47.2C357.3 47.2 363.4 54.7 362.4 65.6H340.2C340.5 71.3 343.8 74.6 348.5 74.6C352.5 74.6 354.3 71.9 355 69.4H361.8C360.5 75.5 355.7 79.6 348.1 79.6ZM340.2 60.5H355.6C355.2 55.5 352.5 52.2 347.9 52.2C343.3 52.2 340.7 55.5 340.2 60.5Z" fill="black"/>
<path d="M378.5 79.6C372 79.6 367.5 75.6 367.5 69.9C367.5 63.5 373.1 61.1 380 60.4L387.9 59.6V58.7C387.9 54.5 385.5 52.3 381.6 52.3C377.8 52.3 375.6 54.2 375.4 57.7H368.6C368.8 51.7 373.7 47.2 381.7 47.2C389.6 47.2 394.7 51.4 394.7 59.8V79H388.2V72.9H388C386.7 77.2 383.2 79.6 378.5 79.6ZM380.3 74.5C385.2 74.5 388 71.2 388 65.3V64.2L381.2 64.9C377.1 65.3 374.7 66.8 374.7 69.8C374.6 72.9 377.3 74.5 380.3 74.5Z" fill="black"/>
<path d="M291.9 73.7C286.8 73.7 284.6 72.2 284.6 67.6V53.5H293.2V48.3H281.4V48.2C284.5 46.1 286.3 42.6 286.4 38.9H280C280 39.8 279.8 40.8 279.6 41.7C279.3 43 278.7 44.3 278 45.4C277.1 46.8 275.9 48 274.4 48.8C273.9 49.1 273.4 49.3 272.8 49.5L272 49.8V53.5L277.9 53.6V68.4C277.9 76.2 282.6 79.8 290.6 79.8C291.9 79.8 293.3 79.8 294.6 79.6V73.6C293.7 73.7 292.9 73.7 291.9 73.7Z" fill="black"/>
<path d="M438.1 79.6C428.8 79.6 423.4 72 423.4 63.4C423.4 54.8 428.7 47.2 438 47.2C447.3 47.2 453.4 54.7 452.4 65.6H430.2C430.5 71.3 433.8 74.6 438.5 74.6C442.5 74.6 444.3 71.9 445 69.4H451.8C450.5 75.5 445.7 79.6 438.1 79.6ZM430.2 60.5H445.6C445.2 55.5 442.5 52.2 437.9 52.2C433.3 52.2 430.7 55.5 430.2 60.5Z" fill="black"/>
<path d="M458.801 79V47.8H465.401V53.9H465.501C466.801 49.5 470.001 47.2 474.801 47.2V54H473.701C467.901 54 465.501 55.7 465.501 61.3V79H458.801Z" fill="black"/>
<path d="M417.9 73.7C412.8 73.7 410.6 72.2 410.6 67.6V53.5H419.2V48.3H407.4V48.2C410.5 46.1 412.3 42.6 412.4 38.9H406C406 39.8 405.8 40.8 405.6 41.7C405.3 43 404.7 44.3 404 45.4C403.1 46.8 401.9 48 400.4 48.8C399.9 49.1 399.4 49.3 398.8 49.5C398.6 49.6 398.3 49.7 398 49.8V53.5L403.9 53.6V68.4C403.9 76.2 408.6 79.8 416.6 79.8C417.9 79.8 419.3 79.8 420.6 79.6V73.6C419.7 73.7 418.9 73.7 417.9 73.7Z" fill="black"/>
</g>
<defs>
<clipPath id="clip0_55_11707">
<rect width="450.9" height="43.8" fill="white" transform="translate(24 36)"/>
</clipPath>
</defs>
</svg>
