<svg width="227" height="108" viewBox="0 0 227 108" fill="none" xmlns="http://www.w3.org/2000/svg">
<path fill-rule="evenodd" clip-rule="evenodd" d="M13.9 37.3C8.80005 37.3 6.80005 35.8 6.80005 31.2V0H0V17.5V32C0 37.6 2.40002 41.1 6.80005 42.5C8.69995 43.1 10.7 43.4 12.7 43.4C14.1 43.4 15.5 43.4 16.9 43.2V37.2C15.9 37.3 15.1 37.3 14 37.3H13.9ZM158.2 11C153.9 10.7 150.1 13.6 149.1 17.7H149V11.6H142.4V42.8H149.2V24.1C149.2 19 151.3 16.1 155.4 16.1C159.5 16.1 161.6 18.7 161.6 24.5V42.8H168.4V22.5C168.4 15.7 165.1 11 158.2 11ZM84.1001 27.2C84.1001 35.8 89.5001 43.4 98.8 43.4C106.4 43.4 111.3 39.3 112.5 33.2H105.7C105 35.7 103.2 38.4 99.2001 38.4C94.5001 38.4 91.2001 35.1 90.9001 29.4H113.1C114.1 18.5 108 11 98.7001 11C89.4001 11 84.1001 18.6 84.1001 27.2ZM98.7001 16C103.3 16 106 19.3 106.4 24.3H91.0001C91.4001 19.3 94.1001 16 98.7001 16ZM33.0999 43.4C26.1998 43.4 22.7998 38.7 22.7998 31.9V11.6H29.5999V29.8C29.5999 35.6 31.5999 38.2 35.5999 38.2C39.7998 38.2 41.6998 35.3 41.6998 30.2V11.6H48.4998V42.8H41.9998V36.7H41.8998C40.4998 41 37.5999 43.4 33.0999 43.4ZM55.8999 37.9L71.4999 16.7H56.2999V11.7H79.7999V16.6L64.2 37.7H80.3999V42.7L55.8999 42.8V37.9ZM126.8 17.7C128.1 13.3 131.3 11 136.1 11V17.8H135C129.2 17.8 126.8 19.5 126.8 25.1V42.8H120.1V11.6H126.7V17.7H126.8ZM189.8 43.4C180.5 43.4 175.1 35.8 175.1 27.2C175.1 18.6 180.4 11 189.7 11C199 11 205.1 18.5 204.1 29.4H181.9C182.2 35.1 185.5 38.4 190.2 38.4C194.2 38.4 196 35.7 196.7 33.2H203.5C202.3 39.3 197.4 43.4 189.8 43.4ZM197.4 24.3C197 19.3 194.3 16 189.7 16C185.1 16 182.4 19.3 182 24.3H197.4ZM227 11C222.2 11 219 13.3 217.7 17.7H217.6V11.6H211V42.8H217.8V25.1C217.8 19.5 220.2 17.8 226 17.8H227V11ZM36.5999 81.7C37.5999 77.6 41.3999 74.7 45.7 75C52.6 75 55.8999 79.7 55.8999 86.5V106.8H49.0999V88.5C49.0999 82.7 46.9999 80.1 42.8999 80.1C38.7999 80.1 36.7 83 36.7 88.1V106.8H29.8999V63.8H36.4999V81.7H36.5999ZM76.0999 107.4C66.7999 107.4 61.3999 99.8 61.3999 91.2C61.3999 82.6 66.7 75 75.9999 75C85.2999 75 91.3999 82.5 90.3999 93.4H68.2C68.4999 99.1 71.7999 102.4 76.4999 102.4C80.4999 102.4 82.2999 99.7 82.9999 97.2H89.7999C88.4999 103.3 83.7 107.4 76.0999 107.4ZM83.5999 88.3C83.2 83.3 80.4999 80 75.8999 80C71.2999 80 68.7 83.3 68.2 88.3H83.5999ZM95.5 97.7C95.5 103.4 100 107.4 106.5 107.4C111.2 107.4 114.7 105 116 100.7H116.2V106.8H122.7V87.6C122.7 79.2 117.6 75 109.7 75C101.7 75 96.8 79.5 96.6 85.5H103.4C103.6 82 105.8 80.1 109.6 80.1C113.5 80.1 115.9 82.3 115.9 86.5V87.4L108 88.2C101.1 88.9 95.5 91.3 95.5 97.7ZM116 93.1C116 99 113.2 102.3 108.3 102.3C105.3 102.3 102.6 100.7 102.7 97.6C102.7 94.6 105.1 93.1 109.2 92.7L116 92V93.1ZM19.9 101.5C14.8 101.5 12.6 100 12.6 95.4V81.3H21.2V76.1H9.40002V76C12.5 73.9 14.3 70.4 14.4 66.7H8C8 67.6 7.80005 68.6 7.59998 69.5C7.30005 70.8 6.69995 72.1 6 73.2C5.09998 74.6 3.90002 75.8 2.40002 76.6C1.90002 76.9 1.40002 77.1 0.800049 77.3L0 77.6V81.3L5.90002 81.4V96.2C5.90002 104 10.6 107.6 18.6 107.6C19.9 107.6 21.3 107.6 22.6 107.4V101.4C21.7 101.5 20.9 101.5 19.9 101.5ZM151.4 91.2C151.4 99.8 156.8 107.4 166.1 107.4C173.7 107.4 178.5 103.3 179.8 97.2H173C172.3 99.7 170.5 102.4 166.5 102.4C161.8 102.4 158.5 99.1 158.2 93.4H180.4C181.4 82.5 175.3 75 166 75C156.7 75 151.4 82.6 151.4 91.2ZM165.9 80C170.5 80 173.2 83.3 173.6 88.3H158.2C158.7 83.3 161.3 80 165.9 80ZM201.7 81.8C195.9 81.8 193.5 83.5 193.5 89.1V106.8H186.8V75.6H193.4V81.7H193.5C194.8 77.3 198 75 202.8 75V81.8H201.7ZM138.6 95.4C138.6 100 140.8 101.5 145.9 101.5C146.9 101.5 147.7 101.5 148.6 101.4V107.4C147.3 107.6 145.9 107.6 144.6 107.6C136.6 107.6 131.9 104 131.9 96.2V81.4L126 81.3V77.6C126.3 77.5 126.6 77.4 126.8 77.3C127.4 77.1 127.9 76.9 128.4 76.6C129.9 75.8 131.1 74.6 132 73.2C132.7 72.1 133.3 70.8 133.6 69.5C133.8 68.6 134 67.6 134 66.7H140.4C140.3 70.4 138.5 73.9 135.4 76V76.1H147.2V81.3H138.6V95.4Z" fill="black"/>
</svg>
