<svg width="490" height="116" viewBox="0 0 490 116" fill="none" xmlns="http://www.w3.org/2000/svg">
<g clip-path="url(#clip0_55_11709)">
<path d="M216.701 87.2563H204.701V28.9563H216.701C223.501 28.9563 228.301 33.4563 228.301 44.1563C228.301 51.9563 226.001 55.1563 222.801 57.1563C226.401 59.1563 228.601 61.9563 228.601 70.9563C228.701 81.2563 224.901 87.2563 216.701 87.2563ZM216.201 61.3563H214.401V78.0564H216.201C217.301 78.0564 217.901 77.4563 217.901 76.3563V62.8563C217.901 61.8563 217.301 61.3563 216.201 61.3563ZM216.201 38.1563H214.401V52.6563H216.201C217.301 52.6563 217.901 51.9563 217.901 50.9563V39.7563C217.901 38.7563 217.301 38.1563 216.201 38.1563ZM291.201 28.9563H283.601V87.2563H292.901V59.8563L299.701 87.2563H307.801V28.9563H298.501V56.4563L291.201 28.9563ZM169.101 28.9563H161.501V87.2563H170.801V59.8563L177.601 87.2563H185.701V28.9563H176.401V56.4563L169.101 28.9563ZM36.3008 87.2563H24.3008V28.9563H36.3008C43.1008 28.9563 47.9008 33.4563 47.9008 44.1563C47.9008 51.9563 45.6008 55.1563 42.4008 57.1563C46.0008 59.1563 48.2008 61.9563 48.2008 70.9563C48.2008 81.2563 44.5008 87.2563 36.3008 87.2563ZM54.3008 25.6563H73.2008V21.7563H54.3008V25.6563ZM252.401 28.9563H232.601V87.2563H252.401V77.9563H242.501V61.4563H250.901V52.6563H242.501V38.2563H252.401V28.9563ZM35.8008 61.3563H34.0008V78.0564H35.8008C36.9008 78.0564 37.5008 77.4563 37.5008 76.3563V62.8563C37.5008 61.8563 36.9008 61.3563 35.8008 61.3563ZM35.8008 38.1563H34.0008V52.6563H35.8008C36.9008 52.6563 37.5008 51.9563 37.5008 50.9563V39.7563C37.5008 38.7563 36.9008 38.1563 35.8008 38.1563ZM116.801 28.9563H109.001V87.2563H118.301V59.8563L124.801 87.2563H133.101V28.9563H123.801V56.4563L116.801 28.9563ZM267.701 53.1563H266.001V38.1563H267.701C268.601 38.1563 269.301 38.8563 269.301 39.8563V51.6563C269.301 52.5563 268.701 53.1563 267.701 53.1563ZM256.201 87.2563H266.001V61.2563L271.601 87.2563H282.101L274.901 58.6563C278.501 55.8563 279.301 51.2563 279.301 44.0563C279.301 33.8563 274.301 28.9563 267.501 28.9563H256.201V87.2563ZM157.801 28.9563H138.001V87.2563H157.801V77.9563H148.001V61.3563H156.401V52.6563H148.001V38.2563H157.801V28.9563ZM90.3008 28.9563H80.4008V87.2563H90.3008V61.7563H94.2008V87.2563H104.101V28.9563H94.2008V52.2563H90.3008V28.9563ZM63.8008 88.1563C70.8008 88.1563 75.6008 83.2563 75.6008 76.4563V28.9563H65.7008V76.7563C65.7008 77.7563 64.9008 78.4563 63.8008 78.4563C62.6008 78.4563 61.8008 77.6563 61.8008 76.7563V28.9563H51.9008V76.4563C51.9008 83.2563 56.7008 88.1563 63.8008 88.1563Z" fill="black"/>
</g>
<defs>
<clipPath id="clip0_55_11709">
<rect width="284" height="67" fill="white" transform="translate(24 21)"/>
</clipPath>
</defs>
</svg>
