<svg width="490" height="116" viewBox="0 0 490 116" fill="none" xmlns="http://www.w3.org/2000/svg">
<path d="M22 104.674H161.001V12H22V104.674Z" fill="#AF001D"/>
<path d="M39.0679 73.1352L38.2463 78.3823C38.1156 79.4093 38.5824 79.8201 39.4787 79.9508C41.458 80.2309 46.425 80.567 51.2613 80.567C62.1103 80.567 70.0089 77.0191 70.0089 66.9357C70.0089 60.9978 67.4134 56.5723 58.4317 54.2568L53.39 52.9684C49.9915 52.0908 48.423 50.9891 48.423 48.4682C48.423 44.9204 51.6908 44.2482 54.8278 44.2482C59.0479 44.2482 63.3427 44.5843 65.0419 44.715C66.8158 44.8457 67.2827 44.6403 67.5628 43.1465L68.3844 38.0301C68.5151 37.0031 68.0483 36.5923 67.152 36.4615C65.1726 36.1815 60.8032 35.8453 55.2947 35.8453C44.0536 35.8453 38.6011 40.7563 38.6011 48.5242C38.6011 55.5453 42.4103 59.7093 49.0206 61.4086L54.0622 62.7157C58.2076 63.7987 60.0002 65.0311 60.0002 67.6266C60.0002 71.4359 57.4047 72.1268 51.1306 72.1268C48.2736 72.1268 43.3066 71.716 41.6074 71.5853C39.8148 71.4173 39.348 71.6227 39.0679 73.1352ZM126.961 54.0514V44.7897H144.813C146.176 44.7897 146.587 44.3042 146.587 42.941V38.1608C146.587 36.7977 146.176 36.3122 144.813 36.3122H118.932C117.569 36.3122 117.158 36.779 117.158 38.1608V78.3076C117.158 79.6707 117.569 80.1562 118.932 80.1562H125.206C126.569 80.1562 126.98 79.6707 126.98 78.3076V62.4916H143.188C144.551 62.4916 144.962 62.0248 144.962 60.643V55.8814C144.962 54.5183 144.551 54.0328 143.188 54.0328H126.961V54.0514ZM91.7629 57.5246L91.072 60.3816C90.8666 61.2032 90.7919 61.614 90.7919 61.8754C90.7919 62.5663 90.9973 63.1078 91.4828 63.9294L99.5868 78.4943C100.259 79.652 100.819 80.1375 102.444 80.1375H109.876C110.828 80.1375 111.986 79.5213 110.903 77.8221L100.95 61.3339C104.292 59.2238 108.046 56.2175 108.046 49.6073C108.046 41.0924 103.284 36.3308 92.7899 36.3308H77.5901C76.227 36.3308 75.8162 36.7977 75.8162 38.1795V78.3262C75.8162 79.6894 76.227 80.1749 77.5901 80.1749H83.8642C85.2273 80.1749 85.6381 79.6894 85.6381 78.3262V44.4349H92.1176C96.207 44.4349 98.1863 45.9287 98.1863 49.7567C98.1863 53.2298 96.6178 54.3315 95.0493 55.0038C93.07 55.8254 92.3791 54.9291 91.7629 57.5246Z" fill="white"/>
</svg>
