<svg width="443" height="86" viewBox="0 0 443 86" fill="none" xmlns="http://www.w3.org/2000/svg">
<path fill-rule="evenodd" clip-rule="evenodd" d="M18.3659 55.7927L11.7145 62.8413V83.292H0V0H11.7145V47.7514L34.0514 24.4217H48.347L26.1093 47.7514L51.1267 83.3912H37.8238L18.3659 55.892V55.7927ZM54.3051 53.9065C54.3051 37.3275 66.4167 22.7341 84.6833 22.7341C102.95 22.7341 115.061 37.4268 115.061 53.9065C115.061 70.3862 103.049 84.9797 84.6833 84.9797C66.3174 84.9797 54.3051 70.1876 54.3051 53.9065ZM103.347 53.9065C103.347 42.0927 95.5043 33.4558 84.6833 33.4558C73.8623 33.4558 66.0196 42.192 66.0196 53.9065C66.0196 65.621 73.763 74.2579 84.6833 74.2579C95.6036 74.2579 103.347 65.5217 103.347 53.9065ZM134.913 63.9333L124.39 67.1101V67.2094C127.666 78.9238 136.104 85.0789 148.712 85.0789C162.313 85.0789 172.042 77.534 172.042 66.9115C172.042 55.197 163.306 50.8289 150.599 48.4463C142.756 46.9572 137.494 45.2695 137.494 40.3057C137.494 36.7318 140.373 32.7608 148.712 32.7608C156.257 32.7608 159.434 37.6253 160.625 42.8869L170.95 39.9086C168.567 29.2862 160.725 22.8333 148.712 22.8333C135.906 22.8333 126.475 29.9811 126.475 40.7029C126.475 52.6159 136.7 56.3883 148.613 58.5724C159.633 60.4586 161.022 63.834 161.022 66.9115C161.022 72.1731 155.86 75.1514 148.712 75.1514C139.48 75.1514 136.501 69.1949 134.913 63.9333ZM190.012 68.6985V34.8456H179.39V24.3224H190.012V9.03404H201.727V24.4217H217.71V34.9449H201.727V67.3086C201.727 72.1731 204.01 74.2579 207.882 74.2579C210.662 74.2579 212.548 73.0666 213.64 71.9746L219.001 80.3137C217.313 82.1999 213.044 85.0789 205.698 85.0789C196.664 85.0789 190.112 79.2217 190.112 68.7978L190.012 68.6985ZM270.424 83.3912H280.054L280.153 83.4905V24.521H268.439V57.4804C268.439 68.3014 261.49 74.2579 253.548 74.2579C246.4 74.2579 240.94 70.9818 240.94 59.5651V24.4217H229.225V61.5507C229.225 77.8318 237.465 84.9796 249.974 84.9796C258.412 84.9796 264.468 81.4057 268.637 75.8463L270.424 83.3912ZM244.712 0.496353C240.542 0.496353 237.068 3.97099 237.068 8.14055C237.068 12.3101 240.542 15.7847 244.712 15.7847C248.882 15.7847 252.356 12.3101 252.356 8.14055C252.356 3.97099 248.882 0.496353 244.712 0.496353ZM264.666 0.496353C260.497 0.496353 257.022 3.97099 257.022 8.14055C257.022 12.3101 260.497 15.7847 264.666 15.7847C268.836 15.7847 272.31 12.3101 272.31 8.14055C272.31 3.97099 268.836 0.496353 264.666 0.496353ZM295.538 24.4217H305.168L306.856 31.9666C310.827 26.5065 317.081 22.8333 325.42 22.8333C333.759 22.8333 339.517 27.1021 341.999 32.463C346.069 27.0029 352.622 22.8333 361.656 22.8333C372.477 22.8333 380.816 29.2862 380.816 44.2768V83.4905H369.101V48.0492C369.101 37.2282 364.435 33.8529 357.585 33.8529C350.338 33.8529 343.985 39.313 343.985 50.134V83.4905H332.27V48.0492C332.27 37.2282 327.306 33.8529 320.854 33.8529C313.606 33.8529 307.154 39.313 307.154 50.134V83.4905H295.439V24.4217H295.538ZM397.896 53.7079H416.262V72.1731H424.501V53.7079H442.867V45.5673H424.501V27.1021H416.262V45.5673H397.896V53.7079Z" fill="#1D1D1B"/>
</svg>
